<svg xmlns="http://www.w3.org/2000/svg" width="430" height="277" fill="none" viewBox="0 0 430 277">
  <path fill="#407BFF" d="M420.189 89.163a9.315 9.315 0 0 0 .078-5.576 8.988 8.988 0 0 0-2.914-4.62 7.334 7.334 0 0 0-5.537-1.47 7.263 7.263 0 0 0-3.204 1.322 7.173 7.173 0 0 0-.904-3.024 7.293 7.293 0 0 0-4.572-3.461 8.92 8.92 0 0 0-5.433.532 9.314 9.314 0 0 0-4.354 3.485 11.383 11.383 0 0 0-1.793 6.86 16.022 16.022 0 0 0 2.676 7.06c2.279 3.53 5.345 8.05 5.345 8.05s4.873-.956 9.096-1.305a15.914 15.914 0 0 0 7.224-2.217c2-1.367 3.505-3.344 4.292-5.636Z"/>
  <path fill="#5345AA" d="M238.122 5.474c-.004.1-.018.2-.039.297-.033.191-.1.475-.152.852a24.535 24.535 0 0 0-.317 3.302 23.179 23.179 0 0 0 .436 5.23 21.503 21.503 0 0 0 2.456 6.473 70.453 70.453 0 0 0 4.861 6.908 35.142 35.142 0 0 1 4.881 8.42 32.47 32.47 0 0 1 2.245 10.507 29.57 29.57 0 0 1-7.734 21.246 28.001 28.001 0 0 1-8.585 6.42c-3.084 1.518-6.155 2.641-8.863 3.962a23.179 23.179 0 0 0-6.809 4.887 22.672 22.672 0 0 0-5.647 10.66c-.178.7-.244 1.32-.343 1.888-.099.568-.112 1.024-.132 1.4-.02.377 0 .66-.046.865.007.1.007.199 0 .298a1.843 1.843 0 0 1 0-.297v-.866c0-.363.066-.852.105-1.413.04-.561.146-1.195.311-1.902a22.044 22.044 0 0 1 1.677-5.013 22.479 22.479 0 0 1 3.923-5.785 23.168 23.168 0 0 1 6.855-4.973c2.728-1.387 5.799-2.503 8.857-4.015a27.791 27.791 0 0 0 8.446-6.314 29.34 29.34 0 0 0 7.642-21.028 32.287 32.287 0 0 0-2.2-10.408 35.275 35.275 0 0 0-4.814-8.361 70.347 70.347 0 0 1-4.848-6.96 21.377 21.377 0 0 1-2.43-6.559 22.45 22.45 0 0 1-.383-5.283c.044-1.11.172-2.213.383-3.302.066-.377.139-.66.185-.846l.079-.29Z"/>
  <path fill="#5345AA" d="M265.9 10.13a37.858 37.858 0 0 1-1.361 4.378 34.568 34.568 0 0 1-2.206 4.907 20.238 20.238 0 0 1-4.352 5.634c-.513.448-1.058.859-1.631 1.228-.594.363-1.215.7-1.856 1.03l-3.995 2.048c-2.761 1.413-5.726 2.892-8.764 4.623a31.703 31.703 0 0 0-8.388 6.795 28.06 28.06 0 0 0-5.673 10.105 25.705 25.705 0 0 0-.819 11.538 23 23 0 0 0 4.075 9.965c2.041 2.807 4.445 5.119 6.367 7.569a23.862 23.862 0 0 1 2.503 3.75 21.59 21.59 0 0 1 1.552 3.858 22.33 22.33 0 0 1 .845 7.073 20.707 20.707 0 0 1-.918 5.283 19.72 19.72 0 0 1-1.268 3.157c-.178.33-.324.588-.423.779-.099.192-.158.258-.158.258s.039-.099.125-.277c.086-.179.225-.456.397-.786.48-1.023.882-2.08 1.202-3.164a20.88 20.88 0 0 0 .845-5.283 22.12 22.12 0 0 0-.878-6.934 21.16 21.16 0 0 0-1.559-3.805 23.262 23.262 0 0 0-2.49-3.691c-1.915-2.424-4.326-4.722-6.399-7.562a23.31 23.31 0 0 1-4.154-10.098 26.058 26.058 0 0 1 .825-11.69 28.466 28.466 0 0 1 5.746-10.23 31.982 31.982 0 0 1 8.493-6.92c3.051-1.698 6.023-3.164 8.79-4.564l3.996-2.034c.66-.324 1.268-.66 1.849-1.01.562-.36 1.099-.76 1.605-1.196a20.378 20.378 0 0 0 4.345-5.541 36.346 36.346 0 0 0 2.246-4.86c.528-1.374.878-2.464 1.116-3.204.112-.357.205-.66.264-.845.059-.185.106-.284.106-.284Z"/>
  <path fill="#5345AA" d="M255.451 26.66c0 .093-3.209-.489-7.119-1.32-3.91-.833-7.067-1.533-7.047-1.625.02-.093 3.203.482 7.12 1.32 3.916.84 7.046 1.526 7.046 1.625Zm4.841-4.57c0 .092-4.933-1.268-10.963-3.031-6.03-1.764-10.89-3.303-10.864-3.369.026-.066 4.933 1.269 10.963 3.038 6.03 1.77 10.89 3.27 10.864 3.362Zm3.547-5.99c0 .086-5.911-1.598-13.136-3.77-7.225-2.174-13.083-4.01-13.044-4.102.04-.093 5.905 1.598 13.169 3.77 7.265 2.174 13.037 4.01 13.011 4.102Zm-22.514 55.574c-.033.093-3.19-1.036-7.053-2.522-3.864-1.486-6.961-2.76-6.928-2.847.033-.086 3.19 1.044 7.053 2.523 3.864 1.48 6.961 2.76 6.928 2.846Zm6.202-7.125a4.622 4.622 0 0 1-.846-.205c-.541-.145-1.32-.383-2.271-.66a154.984 154.984 0 0 1-7.377-2.556 179.458 179.458 0 0 1-7.265-2.893 84.121 84.121 0 0 1-2.166-.964 4.706 4.706 0 0 1-.773-.403c.284.065.56.158.826.277l2.205.859c1.856.733 4.425 1.737 7.265 2.806 2.84 1.07 5.455 1.982 7.337 2.642l2.233.793c.286.075.565.176.832.303Zm3.559-7.681a4.992 4.992 0 0 1-.911-.344l-2.444-1.01c-2.06-.859-4.92-2.021-8.11-3.21a232.241 232.241 0 0 0-8.235-2.88l-2.517-.831a5.917 5.917 0 0 1-.911-.337c.323.038.642.109.951.211.608.159 1.473.403 2.549.727 2.14.66 5.079 1.598 8.282 2.787a138.206 138.206 0 0 1 8.09 3.302c1.017.456 1.836.838 2.397 1.116a5 5 0 0 1 .859.469Zm.046-9.616a2.885 2.885 0 0 1-.727-.205l-1.928-.66a648.782 648.782 0 0 0-6.38-2.16 155.144 155.144 0 0 0-6.426-1.981l-1.981-.601a3.429 3.429 0 0 1-.707-.258c.252.013.5.057.74.132.476.1 1.149.271 1.981.49 1.671.442 3.963 1.095 6.466 1.914 2.503.82 4.748 1.632 6.36 2.259.799.31 1.446.575 1.889.766.248.073.488.175.713.304Zm.093-7.47a61.505 61.505 0 0 1-6.149-1.908 59.592 59.592 0 0 1-6.036-2.239 62.816 62.816 0 0 1 6.149 1.909c2.05.64 4.064 1.387 6.036 2.239Zm-10.303 46.395a3.033 3.033 0 0 1-.66-.178l-1.744-.588-5.732-1.981-5.746-1.929-1.744-.6a2.84 2.84 0 0 1-.627-.258c.225.013.447.058.66.132.423.106 1.031.27 1.777.489a141.45 141.45 0 0 1 5.785 1.842c2.246.766 4.26 1.506 5.706 2.074.727.284 1.321.522 1.704.66.224.08.433.193.621.337Zm1.195 8.751c-.033.086-5.462-1.671-12.125-3.963-6.664-2.291-12.046-4.167-12.013-4.26.033-.092 5.455 1.671 12.125 3.963s12.04 4.134 12.013 4.26Zm-.112 6.452c0 .093-6.089-1.69-13.532-3.962-7.443-2.272-13.466-4.214-13.44-4.306.027-.093 6.089 1.69 13.539 3.962 7.45 2.272 13.466 4.214 13.433 4.306ZM132.48 46.44h-.521l-1.519.06c-1.321.039-3.303.098-5.839.138h-4.226c-.812.01-1.622-.065-2.417-.225a24.518 24.518 0 0 1-2.371-1.102 4.843 4.843 0 0 0-2.682-.357c-.231.033-.469.092-.7.139a2.043 2.043 0 0 0-.614.323 4.896 4.896 0 0 0-.997 1.083 27.896 27.896 0 0 0-2.781 5.792c-.805 2.12-1.518 4.379-2.37 6.717-.106.29-.225.58-.35.871l-.106.218a.402.402 0 0 1-.073.12.24.24 0 0 1-.198.118c-.238-.06-.205-.178-.264-.25a1.813 1.813 0 0 1-.086-.239 14.436 14.436 0 0 1-.35-1.902 98.242 98.242 0 0 1-.429-3.91c-.482-5.283-.865-11.002-1.38-16.972-.271-2.985-.516-6.056-1.037-9.134a13.969 13.969 0 0 0-.251-1.142 2.785 2.785 0 0 0-.192-.516c-.092-.158-.172-.23-.271-.184a2.094 2.094 0 0 0-.66.819c-.19.342-.362.695-.515 1.056a48.207 48.207 0 0 0-1.671 4.584c-.97 3.11-1.83 6.313-2.642 9.576l-.31 1.228a8.488 8.488 0 0 1-.357 1.248 2.641 2.641 0 0 1-2.106 1.546c-.885.033-1.711.079-2.596.06a11.956 11.956 0 0 1-2.595-.384 13.246 13.246 0 0 1-3.085-1.228 7.333 7.333 0 0 0-1.42-.714 1.242 1.242 0 0 0-1.32.251 3.812 3.812 0 0 0-.66 1.394c-.166.508-.311 1.023-.457 1.539a178.14 178.14 0 0 0-.799 3.097c-.528 2.06-1.03 4.095-1.684 6.102a.734.734 0 0 1-.112.212.29.29 0 0 1-.383.092.832.832 0 0 1-.284-.39 6.12 6.12 0 0 1-.264-.759 25.091 25.091 0 0 1-.357-1.519 71.24 71.24 0 0 1-.555-3.025c-.66-4.009-1.201-7.925-1.783-11.736-.29-1.895-.574-3.77-.957-5.58a7.41 7.41 0 0 0-.377-1.32c-.119-.37-.541.072-.792.395a17.29 17.29 0 0 0-1.38 2.305c-1.632 3.183-2.953 6.38-4.425 9.345a15.473 15.473 0 0 1-1.235 2.14.951.951 0 0 1-.542.41 1.68 1.68 0 0 1-.66 0 2.338 2.338 0 0 1-1.017-.707 3.235 3.235 0 0 0-.899-.66 2.033 2.033 0 0 0-1.043-.225 3.962 3.962 0 0 0-1.889 1.05 2.43 2.43 0 0 1-1.03.528 1.202 1.202 0 0 1-.608-.053 1.776 1.776 0 0 1-.475-.323 12.33 12.33 0 0 1-1.38-1.658c-.417-.568-.813-1.13-1.229-1.657a5.52 5.52 0 0 0-1.393-1.321c-.542-.357-1.143.092-1.625.435-.47.38-.912.796-1.32 1.242a30.914 30.914 0 0 0-2.233 2.642v.04h-.046l-12.066-.047h-4.01a2.176 2.176 0 0 1-.277 0h4.286l12.066-.046-.073.04a30.819 30.819 0 0 1 2.232-2.688c.423-.46.882-.884 1.374-1.268.253-.206.533-.377.832-.509.164-.066.338-.102.515-.106.18.01.355.065.509.159a5.58 5.58 0 0 1 1.466 1.4c.422.535.825 1.096 1.242 1.658.389.579.831 1.12 1.32 1.618.124.115.264.21.416.284a.937.937 0 0 0 .47.033 2.21 2.21 0 0 0 .917-.482 4.167 4.167 0 0 1 1.981-1.11 2.792 2.792 0 0 1 2.154.964c.233.298.544.526.898.66.178.037.363.037.541 0 .12 0 .258-.164.37-.316a15.04 15.04 0 0 0 1.202-2.094c1.46-2.952 2.774-6.148 4.412-9.358a16.5 16.5 0 0 1 1.406-2.351c.144-.2.318-.375.516-.522a.57.57 0 0 1 .429-.132.528.528 0 0 1 .363.297c.17.408.303.83.396 1.262.39 1.83.66 3.705.971 5.607.588 3.797 1.13 7.727 1.797 11.729a76.92 76.92 0 0 0 .554 3.011c.106.502.218.998.35 1.493.067.243.148.48.245.713a.746.746 0 0 0 .145.238c-.033 0 0 .099 0 .04a.37.37 0 0 0 .06-.126c.66-1.981 1.148-4.009 1.67-6.063.258-1.03.515-2.067.8-3.104.145-.515.29-1.036.462-1.552.079-.257.171-.515.264-.772.099-.276.252-.53.449-.747.208-.23.491-.38.799-.422.295-.044.596-.017.878.079a6.99 6.99 0 0 1 1.493.74 12.86 12.86 0 0 0 3.005 1.195 12.12 12.12 0 0 0 2.523.37c.832 0 1.717 0 2.542-.06a2.319 2.319 0 0 0 1.836-1.32c.14-.388.253-.785.337-1.19l.31-1.227c.833-3.303 1.698-6.48 2.675-9.596.496-1.56.997-3.098 1.638-4.584.165-.37.337-.733.535-1.09.106-.178.211-.35.337-.521.132-.189.309-.34.515-.443a.465.465 0 0 1 .436.053c.1.075.182.172.238.284.095.187.168.384.217.588.106.39.185.78.258 1.169.522 3.11.76 6.175 1.03 9.16.509 5.983.879 11.67 1.321 16.98.126 1.32.251 2.641.416 3.903.071.625.183 1.245.337 1.855.02.07.045.138.073.205.01.028.023.054.039.08 0 0-.033 0 0 .052.033.053 0-.073-.033-.053a.464.464 0 0 0 .047-.086l.099-.204c.125-.278.237-.568.35-.859.845-2.318 1.571-4.583 2.39-6.703a27.836 27.836 0 0 1 2.827-5.838 5.27 5.27 0 0 1 1.05-1.123c.197-.156.421-.275.66-.35a7.11 7.11 0 0 1 .727-.139 5.004 5.004 0 0 1 2.78.377c.839.363 1.559.871 2.345 1.116.783.152 1.579.227 2.377.224 1.539.04 2.952 0 4.22 0l5.839-.079h1.519c.376-.086.554-.08.554-.08Zm219.756 58.137 10.999 2.249-14.058 68.728a2.562 2.562 0 0 1-3.024 1.997l-5.991-1.226a2.563 2.563 0 0 1-1.997-3.024l14.058-68.727.013.003Z"/>
  <path fill="#F5F5F5" d="m349.804 116.599 11 2.248-10.092 49.383a2.56 2.56 0 0 1-3.024 1.998l-5.991-1.225a2.56 2.56 0 0 1-1.998-3.023l10.092-49.383.013.002Z"/>
  <path fill="#fff" d="m361.85 113.768-7.337-1.499-6.674 32.656 7.338 1.5 6.673-32.657Z"/>
  <path fill="#5345AA" d="M346.187 177.521c.486.07.981.016 1.44-.159a2.549 2.549 0 0 0 1.288-1.156c.162-.34.271-.703.323-1.076.08-.403.159-.832.251-1.281.733-3.633 1.783-8.883 3.098-15.408 2.641-13.07 6.353-31.238 10.507-51.678l.132.198-8.493-1.73-2.51-.516.205-.132c-4.491 21.841-8.526 41.495-11.445 55.707-.733 3.547-1.4 6.75-1.981 9.57-.146.7-.291 1.38-.423 2.034-.066.323-.139.66-.198.964a4.528 4.528 0 0 0-.145.911 2.532 2.532 0 0 0 .548 1.585c.329.407.777.701 1.281.839l4.544.971 1.182.257c.264.06.396.1.396.1l-.403-.067-1.188-.224-4.564-.911a2.645 2.645 0 0 1-1.981-2.55c.013-.321.059-.639.138-.951.06-.31.126-.66.192-.957l.409-2.041c.568-2.82 1.216-6.03 1.935-9.583 2.893-14.212 6.889-33.873 11.34-55.726v-.165l.165.033 2.516.515 8.493 1.737.165.033v.165c-4.2 20.44-7.925 38.595-10.619 51.658l-3.197 15.381c-.099.456-.185.879-.27 1.282a3.633 3.633 0 0 1-.35 1.103 2.579 2.579 0 0 1-1.321 1.168 2.515 2.515 0 0 1-1.09.159 1.853 1.853 0 0 1-.37-.059Z"/>
  <path fill="#EBEBEB" d="m355.396 90.207 10.832 2.214a1.32 1.32 0 0 1 1.029 1.559l-3.324 16.266-13.433-2.745 3.322-16.254a1.324 1.324 0 0 1 1.052-1.046c.173-.033.35-.03.522.007Z"/>
  <path fill="#5345AA" d="M364.164 108.553c0 .092-3.051-.449-6.776-1.209-3.725-.759-6.723-1.453-6.703-1.545.019-.093 3.051.449 6.776 1.208 3.724.76 6.716 1.453 6.703 1.546Zm-12.185-2.629c-.099 0 .535-3.487 1.407-7.74.871-4.253 1.651-7.694 1.743-7.674.093.02-.541 3.487-1.407 7.74-.865 4.253-1.651 7.694-1.743 7.674Z"/>
  <path fill="#5345AA" d="M353.782 106.294c-.092 0 .535-3.487 1.407-7.74s1.651-7.694 1.744-7.674c.092.02-.535 3.487-1.407 7.74s-1.671 7.694-1.744 7.674Zm1.863.376c-.093 0 .535-3.48 1.406-7.74.872-4.26 1.652-7.687 1.744-7.667.092.02-.535 3.48-1.407 7.74-.871 4.26-1.651 7.687-1.743 7.667Zm1.802.37c-.092 0 .542-3.48 1.407-7.74s1.651-7.687 1.75-7.668c.099.02-.541 3.48-1.406 7.74-.866 4.26-1.652 7.688-1.751 7.668Zm1.863.383c-.093 0 .541-3.487 1.406-7.74.866-4.253 1.652-7.694 1.744-7.674.092.02-.535 3.487-1.407 7.74-.871 4.253-1.651 7.727-1.743 7.674Zm1.809.37c-.092 0 .535-3.487 1.407-7.74s1.651-7.694 1.744-7.674c.092.02-.535 3.487-1.407 7.74s-1.651 7.694-1.744 7.674Zm1.863.383c-.093 0 .535-3.487 1.406-7.74.872-4.253 1.651-7.694 1.744-7.674.092.02-.535 3.48-1.407 7.74s-1.624 7.687-1.743 7.674Zm13.235 28.817 8.805-.811 5.015 54.466a2.56 2.56 0 0 1-2.317 2.787l-3.709.341a2.56 2.56 0 0 1-2.787-2.317l-5.014-54.465.007-.001Z"/>
  <path fill="#F5F5F5" d="m377.106 146.67 8.806-.81 3.589 38.978a2.56 2.56 0 0 1-2.317 2.787l-3.709.341a2.56 2.56 0 0 1-2.787-2.317l-3.588-38.978.006-.001Z"/>
  <path fill="#fff" d="m385.534 141.79-5.873.541 2.406 26.134 5.873-.54-2.406-26.135Z"/>
  <path fill="#5345AA" d="M387.722 193.444c.382-.064.75-.198 1.083-.397.394-.249.712-.604.918-1.023.134-.267.219-.555.251-.852a5.015 5.015 0 0 0-.053-1.017c-.278-2.933-.661-7.153-1.189-12.396-.984-10.521-2.351-25.13-3.883-41.548l.185.152-6.255.575-2.549.237.152-.184c1.572 17.296 2.985 32.836 4.002 44.07.251 2.8.476 5.336.661 7.561.105 1.11.178 2.16.284 3.091a2.503 2.503 0 0 0 1.565 1.856 4.482 4.482 0 0 0 2.034.079l1.519-.125.938-.066h.323l-.317.046-.938.099-1.519.159-.97.092a2.565 2.565 0 0 1-1.116-.145 2.636 2.636 0 0 1-1.678-1.949c-.119-.964-.198-1.981-.31-3.103-.212-2.226-.456-4.762-.727-7.562a70514.69 70514.69 0 0 0-4.108-44.064v-.172h.172l2.549-.237 6.255-.575h.171v.172c1.486 16.425 2.814 31.04 3.771 41.56.456 5.244.826 9.471 1.083 12.403.046.346.059.695.04 1.044a2.634 2.634 0 0 1-1.248 1.915c-.252.152-.53.257-.819.31a2.131 2.131 0 0 1-.277-.006Z"/>
  <path fill="#EBEBEB" d="m375.586 125.484 8.108-.746a1.322 1.322 0 0 1 1.437 1.194l1.171 12.719-10.746.989-1.171-12.712a1.325 1.325 0 0 1 1.201-1.444Z"/>
  <path fill="#5345AA" d="M386.096 137.314c-3.57.559-7.172.89-10.784.99a42.598 42.598 0 0 1 5.375-.66 40.932 40.932 0 0 1 5.409-.33Zm-9.787.792a53.67 53.67 0 0 1-.74-6.155 53.666 53.666 0 0 1-.396-6.181 57.58 57.58 0 0 1 .74 6.155c.243 2.052.375 4.115.396 6.181Z"/>
  <path fill="#5345AA" d="M377.762 137.974a53.698 53.698 0 0 1-.74-6.155 53.666 53.666 0 0 1-.396-6.181c.356 2.034.601 4.087.733 6.148a56.65 56.65 0 0 1 .403 6.188Zm1.486-.118a57.597 57.597 0 0 1-.739-6.156 57.272 57.272 0 0 1-.397-6.181c.365 2.036.612 4.091.74 6.155.247 2.051.379 4.115.396 6.182Zm1.447-.152a57.599 57.599 0 0 1-.74-6.156 57.528 57.528 0 0 1-.396-6.181c.351 2.035.589 4.087.713 6.148.252 2.054.393 4.12.423 6.189Zm1.492-.139a53.724 53.724 0 0 1-.74-6.155 53.669 53.669 0 0 1-.396-6.182c.357 2.037.603 4.092.739 6.155a57.29 57.29 0 0 1 .397 6.182Zm1.447-.132a53.703 53.703 0 0 1-.72-6.182 53.666 53.666 0 0 1-.396-6.181c.356 2.037.603 4.091.739 6.155.238 2.061.363 4.133.377 6.208Zm1.485-.139a57.737 57.737 0 0 1-.739-6.148 57.401 57.401 0 0 1-.397-6.188 53.67 53.67 0 0 1 .74 6.155c.251 2.051.383 4.115.396 6.181ZM120.884 88.74c-1.162-5.165-6.069-9.596-11.333-9.08-3.11.303-5.943 2.225-7.812 4.701a22.477 22.477 0 0 0-1.83 2.642 22.51 22.51 0 0 0-1.83-2.642c-1.901-2.483-4.695-4.405-7.805-4.715-5.284-.522-10.17 3.91-11.346 9.067-1.176 5.158.772 10.64 3.962 14.867 3.19 4.226 8.473 9.642 17.442 11.702 5.911-1.36 13.406-7.462 16.59-11.683 3.183-4.22 5.125-9.701 3.962-14.86Z"/>
  <path fill="#FAFAFA" d="M119.913 98.316h-2.668l-7.232.053.126-.093c-.661 2.338-1.394 5.073-2.219 8.071l-.132.489-.165-.476-4.214-12.092c-.469-1.321-.925-2.675-1.374-3.963l.311.033-4.736 8.044-.04.073h-.092l-12.713-.066-3.599-.046h-.958a1.132 1.132 0 0 1-.323 0h1.281l3.6-.04 12.712-.06-.132.08 4.696-8.07.185-.324.125.35c.449 1.32.905 2.641 1.374 3.962l4.207 12.172h-.304c.852-2.998 1.618-5.726 2.279-8.057v-.093H110l7.232.06h2.496l.185-.007Z"/>
  <path fill="#FFBE9D" d="m204.963 66.45-2.259 58.323-29.204-.945c-.343-3.388-.726-16.51-.726-16.51s-12.192-1.321-12.911-13.407c-.35-5.871-.086-18.063.277-29.059a22.456 22.456 0 0 1 22.666-21.695 22.455 22.455 0 0 1 22.157 23.294Z"/>
  <path fill="#EB996E" d="M172.76 107.318a28.205 28.205 0 0 0 15.566-5.231s-3.302 8.883-15.441 8.368l-.125-3.137Z"/>
  <path fill="#263238" d="M164.108 73.504a1.734 1.734 0 0 0 1.751 1.664 1.658 1.658 0 0 0 1.71-1.638 1.739 1.739 0 0 0-1.75-1.67 1.668 1.668 0 0 0-1.574 1.002 1.67 1.67 0 0 0-.137.642Zm-1.076-2.49c.224.218 1.486-.812 3.348-.898 1.863-.086 3.269.786 3.461.548.092-.105-.145-.502-.76-.911a4.76 4.76 0 0 0-2.787-.713 4.555 4.555 0 0 0-2.641.997c-.555.456-.733.885-.621.977Zm18.703 2.43a1.733 1.733 0 0 0 1.731 1.671 1.655 1.655 0 0 0 1.71-1.644 1.722 1.722 0 0 0-1.71-1.658 1.652 1.652 0 0 0-1.731 1.631Zm-.402-2.952c.224.212 1.486-.819 3.348-.898 1.862-.08 3.302.78 3.461.542.092-.106-.146-.502-.76-.905a4.76 4.76 0 0 0-2.78-.713 4.51 4.51 0 0 0-2.642.997c-.561.469-.74.885-.627.977Zm-6.103 14.12c0-.105-1.155-.25-3.044-.402-.476 0-.931-.1-1.024-.423a2.377 2.377 0 0 1 .251-1.42c.39-1.176.799-2.398 1.228-3.685 1.711-5.244 2.92-9.543 2.708-9.61-.211-.066-1.789 4.128-3.474 9.346-.409 1.29-.799 2.522-1.169 3.698a2.722 2.722 0 0 0-.158 1.876 1.21 1.21 0 0 0 .812.66c.267.057.54.081.813.073 1.888.04 3.057-.007 3.057-.113Zm5.534 1.024c-.297 0-.211 1.981-1.869 3.533-1.658 1.552-3.817 1.394-3.824 1.678 0 .125.502.37 1.407.35a5.03 5.03 0 0 0 3.196-1.288 4.334 4.334 0 0 0 1.44-2.952c.04-.845-.211-1.34-.35-1.321Zm-.257-22.408c.205.502 2.054.172 4.247.33 2.192.159 3.962.66 4.253.205.119-.225-.205-.66-.945-1.136a7.412 7.412 0 0 0-6.478-.41c-.76.35-1.169.78-1.077 1.01Zm-17.045 2.371c.35.41 1.605-.093 3.15-.185 1.546-.093 2.853.152 3.137-.304.119-.225-.105-.66-.693-1.01a4.583 4.583 0 0 0-5.065.396c-.522.462-.681.905-.529 1.103Zm27.744-11.617.073.046a9.571 9.571 0 0 1 3.83 5.99c0 .086 0 .165.046.245.661 3.427.714 6.947 1.387 10.368.674 3.421 2.028 6.875 4.689 9.127 1.097.932 2.979 1.513 3.791.33a3.028 3.028 0 0 0 .357-1.604c.251-8.368 2.173-15.85 1.75-24.581a7.368 7.368 0 0 0-3.335-5.838c-1.889-1.222-4.181-2.47-6.162-1.42-1.981 1.05-4.431 4.98-5.944 6.663"/>
  <path fill="#FFBE9D" d="M201.158 72.322c.198-.1 8.196-2.853 8.322 5.435.125 8.288-8.216 6.703-8.236 6.466-.02-.238-.086-11.901-.086-11.901Z"/>
  <path fill="#EB996E" d="M203.727 81.059c.04 0 .146.099.39.205.348.138.735.138 1.083 0 .872-.337 1.585-1.737 1.605-3.23a4.77 4.77 0 0 0-.436-2.06 1.67 1.67 0 0 0-1.103-1.097.733.733 0 0 0-.845.41c-.113.238-.053.403-.099.416-.047.013-.179-.139-.119-.482a.906.906 0 0 1 .317-.522c.227-.175.513-.256.799-.224a2.027 2.027 0 0 1 1.525 1.261c.364.713.548 1.504.535 2.305 0 1.67-.858 3.243-2.047 3.606a1.545 1.545 0 0 1-1.321-.198c-.264-.205-.31-.39-.284-.39Z"/>
  <path fill="#263238" d="M198.88 49.207c2.391-3.071-2.642-8.407-6.604-10.138-3.963-1.73-9.491-.323-13.684.575-2.642.568-5.317 1.473-7.992 1.07a18.29 18.29 0 0 1-5.072-1.902 13.52 13.52 0 0 0-5.157-1.618c-1.81-.073-3.765.66-4.623 2.278-.859 1.618-.139 3.963 1.618 4.432-2.14-1.506-5.614-.218-6.268 2.318-.654 2.536 1.77 5.336 4.372 5.059-1.07-1.017-3.031.25-3.044 1.73-.014 1.48 1.195 2.688 2.476 3.428 3.302 1.882 7.324 1.836 11.009 1.03 3.686-.806 7.186-2.318 10.851-3.216 3.666-.899 9.821-2.563 13.209-.925 2.509 1.202 3.962 4.537 5.521 4.002a5.042 5.042 0 0 0 3.011-3.414 14.6 14.6 0 0 0 .35-4.709"/>
  <path fill="#455A64" d="M157.828 44.505s-.159.072-.416.257a2.468 2.468 0 0 0-.846 1.077 3.466 3.466 0 0 0-.178 2.14 3.558 3.558 0 0 0 1.658 2.259 6.807 6.807 0 0 0 3.361.917c1.361.008 2.715-.19 4.016-.587 2.78-.806 5.534-2.45 8.44-4.122 2.906-1.67 5.871-3.064 8.817-3.42a10.894 10.894 0 0 1 4.147.257 9.992 9.992 0 0 1 3.302 1.545 10.413 10.413 0 0 1 3.388 3.963c.3.569.522 1.175.661 1.803-.04 0-.199-.66-.76-1.744a10.622 10.622 0 0 0-3.408-3.804 9.786 9.786 0 0 0-3.203-1.466 10.622 10.622 0 0 0-4.042-.218c-2.866.363-5.791 1.75-8.677 3.408-2.887 1.658-5.687 3.302-8.52 4.121a13.441 13.441 0 0 1-4.121.568 6.893 6.893 0 0 1-3.48-1.004 4.33 4.33 0 0 1-1.163-1.103 3.661 3.661 0 0 1-.31-3.553c.198-.443.521-.817.931-1.076a1.65 1.65 0 0 1 .403-.218Zm29.277-4.187c.179-.031.362-.031.541 0 .488.033.971.12 1.44.257a8.098 8.098 0 0 1 5.864 7.034 7.48 7.48 0 0 1 0 1.466 1.51 1.51 0 0 1-.112.521c-.066 0 .046-.759-.125-1.98a8.359 8.359 0 0 0-5.7-6.843c-1.149-.363-1.915-.39-1.908-.456Zm19.852 21.232a1.435 1.435 0 0 1-.66.185 3.253 3.253 0 0 1-1.869-.403 4.774 4.774 0 0 1-1.982-2.027 13.965 13.965 0 0 1-1.136-3.263 13.798 13.798 0 0 0-1.102-3.19 4.567 4.567 0 0 0-1.856-1.928 3.358 3.358 0 0 0-1.757-.436c-.429 0-.66.112-.66.08.2-.123.426-.195.66-.212a3.25 3.25 0 0 1 1.876.35 4.712 4.712 0 0 1 2.02 1.981 13.115 13.115 0 0 1 1.136 3.276 14.6 14.6 0 0 0 1.084 3.196 4.723 4.723 0 0 0 1.816 1.982 3.43 3.43 0 0 0 1.743.482c.436-.027.674-.106.687-.073Zm-.436 5.475s-.066 0-.205.053a3.965 3.965 0 0 1-.594.08 7.33 7.33 0 0 1-2.206-.172 9.904 9.904 0 0 1-5.944-4.075 14.716 14.716 0 0 1-2.437-6.822 6.323 6.323 0 0 0-.192-1.216 1.47 1.47 0 0 0-.482-.74 1.32 1.32 0 0 0-.713-.27.83.83 0 0 1 .799.158c.268.197.469.471.575.786.127.406.211.825.251 1.248a15.384 15.384 0 0 0 2.483 6.658 10.051 10.051 0 0 0 5.693 4.035c.974.22 1.973.313 2.972.277Z"/>
  <path fill="#EBEBEB" d="m148.582 276.221 93.78-.608-9.464-56.677-1.644-97.446-18.73-5.719-9.246-5.217-30.426 3.85-3.916 4.96s-13.314 4.491-19.073 7.126l-.396.178a23.332 23.332 0 0 0-9.966 8.645l-25.38 39.487-37.116-21.642-13.076 19.04s45.569 37.934 53.831 37.162c8.262-.773 11.128-.78 13.981-4.663 2.186-2.985 10.778-13.096 14.873-19.852l4.18 46.685-2.212 44.691Z"/>
  <path fill="#263238" d="M178.295 276.28c-.099 0-.852-20.763-1.678-46.381-.825-25.618-1.433-46.395-1.32-46.395.112 0 .845 20.757 1.677 46.388.832 25.631 1.413 46.388 1.321 46.388Z"/>
  <path fill="#FFBE9D" d="m172.972 114.021 2.357 70.89 27.923-74.357-30.28 3.467Z"/>
  <path fill="#263238" d="M175.54 188.906a.998.998 0 0 1-.092-.218 10.656 10.656 0 0 1-.244-.66c-.231-.581-.548-1.4-.958-2.45a169.3 169.3 0 0 0-3.83-8.863c-.885-1.843-1.876-3.844-3.052-5.944a32.856 32.856 0 0 0-4.372-6.168c-.924-.951-2.027-1.949-2.417-3.408a4.415 4.415 0 0 1 .053-2.193c.178-.713.429-1.4.661-2.093.918-2.794 1.875-5.68 2.846-8.632l.059-.185.179.225-11.227 1.017v-.33l5.99-11.888c1.842-3.619 3.506-6.809 4.94-9.438a166.52 166.52 0 0 1 3.48-6.095c.429-.7.773-1.235 1.01-1.592l.271-.396c.066-.093.099-.139.106-.132l-.079.145-.251.416c-.225.39-.549.925-.958 1.618-.826 1.413-1.981 3.494-3.395 6.136-1.413 2.641-3.051 5.838-4.873 9.47l-2.867 5.746-1.539 3.077-.799 1.585-.416.799-.218.397-.112.204-.066.099a.384.384 0 0 1-.198.159v-.33l11.227-1.031h.258l-.08.251-.059.179c-.977 2.952-1.935 5.838-2.853 8.631-.436 1.381-1.07 2.768-.713 4.102.356 1.334 1.4 2.311 2.324 3.262a32.763 32.763 0 0 1 4.405 6.294c1.176 2.1 2.153 4.114 3.025 5.944a143.668 143.668 0 0 1 3.738 8.922c.396 1.07.7 1.902.892 2.47.101.282.174.502.218.661 0 .079-.004.158-.014.237Z"/>
  <path fill="#263238" d="M175.448 189.573a.893.893 0 0 1 0-.231l.106-.66c.156-.864.388-1.713.693-2.536a45.09 45.09 0 0 1 4.537-8.586 107.596 107.596 0 0 1 3.877-5.508 69.959 69.959 0 0 1 4.953-5.943 48.468 48.468 0 0 1 6.4-5.799 43.213 43.213 0 0 1 3.824-2.529c1.32-.793 2.707-1.546 4.028-2.424l-.046.238a19.534 19.534 0 0 0-7.1-6.4l-.237-.125.218-.159a31.655 31.655 0 0 1 13.868-5.871l-.125.139 1.433-19.707c.185-2.378.33-4.267.436-5.574.053-.661.092-1.123.125-1.473l.04-.377a.366.366 0 0 1 0-.132.727.727 0 0 1 0 .132v.377c0 .357-.046.852-.079 1.479-.079 1.321-.198 3.197-.344 5.581-.323 4.814-.772 11.623-1.32 19.72v.119h-.119a31.446 31.446 0 0 0-13.731 5.838v-.284a19.852 19.852 0 0 1 7.225 6.505l.1.139-.146.099c-1.321.885-2.721 1.644-4.048 2.437a42.977 42.977 0 0 0-3.798 2.496 49.322 49.322 0 0 0-6.353 5.739 68.923 68.923 0 0 0-4.953 5.944 102.895 102.895 0 0 0-3.903 5.469 46.132 46.132 0 0 0-4.623 8.486 15.71 15.71 0 0 0-.753 2.503 162.2 162.2 0 0 0-.139.66.995.995 0 0 1-.046.218Z"/>
  <path fill="#263238" d="M210.965 167.958h-19.72v3.837h19.72v-3.837Zm-4.45 34.56a1.243 1.243 0 0 1-.337.099l-.978.211a29.191 29.191 0 0 1-3.652.522 13.042 13.042 0 0 1-5.428-.66 8.972 8.972 0 0 1-5.02-4.353 15.277 15.277 0 0 1-1.367-6.558c0-2.067.066-3.896.073-5.455.007-1.558.053-2.807.099-3.678 0-.436.046-.773.066-.998 0-.118.017-.236.053-.35.008.117.008.234 0 .35v10.125a15.194 15.194 0 0 0 1.36 6.412 8.683 8.683 0 0 0 4.815 4.207 13.05 13.05 0 0 0 5.283.707 35.843 35.843 0 0 0 3.639-.409l.991-.146c.133-.024.268-.033.403-.026Z"/>
  <path fill="#263238" d="M210.08 180.843c0 .092-4.49.277-10.025.402-5.534.126-10.032.159-10.032.06s4.485-.271 10.026-.403c5.541-.132 10.031-.119 10.031-.059Z"/>
  <path fill="#407BFF" d="M200.312 180.981v-6.545a1.926 1.926 0 0 1 1.922-1.922 1.923 1.923 0 0 1 1.922 1.922v10.785a.66.66 0 0 1-.161.48.663.663 0 0 1-.934.066.666.666 0 0 1-.226-.454v-.257c0-1.645-.185-4.154-.185-4.154l-2.338.079Z"/>
  <path fill="#263238" d="M199.976 192.288a31.589 31.589 0 0 1-.172-4.623 31.45 31.45 0 0 1 .172-4.623 31.45 31.45 0 0 1 .172 4.623 31.589 31.589 0 0 1-.172 4.623Zm3.718 8.565c-.092 0-.172-3.302-.172-7.357s.08-7.357.172-7.357c.093 0 .172 3.302.172 7.357s-.073 7.357-.172 7.357Z"/>
  <path fill="#407BFF" d="m173.467 128.933 9.173 11.194c6.479-6.538 11.135-12.997 15.19-15.85 0 0-22.494 61.631-22.527 60.607l-1.836-55.951Z"/>
  <path fill="#263238" d="M197.856 124.304a1.767 1.767 0 0 1-.232.257l-.713.661a142.25 142.25 0 0 0-2.589 2.542c-2.173 2.16-5.059 5.284-8.209 8.718-3.15 3.434-6.076 6.538-8.295 8.665a71.653 71.653 0 0 1-2.674 2.463l-.753.66a1.514 1.514 0 0 1-.278.212s.073-.099.231-.258l.707-.66c.627-.588 1.512-1.46 2.596-2.543 2.166-2.159 5.052-5.283 8.209-8.717 3.156-3.435 6.076-6.539 8.295-8.665a71.918 71.918 0 0 1 2.674-2.464l.747-.66c.178-.152.27-.225.284-.211Z"/>
  <path fill="#263238" d="M182.581 140.081c-.073.059-2.173-2.384-4.689-5.462-2.517-3.077-4.498-5.626-4.425-5.686.072-.059 2.173 2.384 4.689 5.468 2.516 3.085 4.497 5.621 4.425 5.68Zm-38.991 10.263c.042.151.069.306.079.463.046.336.099.779.165 1.32.139 1.156.317 2.827.529 4.901.416 4.141.911 9.867 1.426 16.193.515 6.327.991 12.02 1.321 16.201.172 2.04.31 3.711.409 4.907.047.554.08.997.106 1.32a3.06 3.06 0 0 1 0 .469 2.507 2.507 0 0 1-.086-.462 69.953 69.953 0 0 0-.165-1.321 251.002 251.002 0 0 1-.522-4.9c-.416-4.141-.918-9.867-1.433-16.194-.515-6.327-.984-12.019-1.321-16.2-.171-2.041-.31-3.712-.416-4.907-.039-.555-.072-.997-.099-1.321a2.298 2.298 0 0 1 .007-.469Z"/>
  <path fill="#EBEBEB" d="M229.9 121.345s14.701 0 18.386 28.279c3.685 28.28 11.789 80.143-2.945 89.977-14.734 9.833-83.009 9.14-83.009 9.14v-27.395l56.017-6.181s-.211-5.099 2.642-5.059l-3.183-64.642s-.661-22.891 12.092-24.119Z"/>
  <path fill="#263238" d="M217.953 166.947s0 .264.059.78c.06.515.073 1.32.132 2.298.106 2.027.265 4.986.469 8.777.39 7.601.951 18.525 1.638 31.832v.139h-.145a2.058 2.058 0 0 0-1.288.495 3.046 3.046 0 0 0-.792 1.262 8.8 8.8 0 0 0-.423 3.157v.138h-.132l-55.119 5.673.152-.171v27.414l-.165-.165c23.848.257 44.644-.661 59.339-2.543a149.494 149.494 0 0 0 9.82-1.565 71.362 71.362 0 0 0 7.205-1.816c.958-.324 1.803-.661 2.53-.918.726-.258 1.321-.568 1.79-.813l1.043-.594.363-.192s-.112.08-.343.218l-1.037.621c-.469.251-1.076.509-1.783.845-.707.337-1.565.608-2.53.938a69.808 69.808 0 0 1-7.205 1.876c-2.859.581-6.148 1.129-9.82 1.611-14.708 1.909-35.518 2.906-59.379 2.642h-.165v-27.698h.158l55.119-5.614-.132.152a8.918 8.918 0 0 1 .449-3.302c.171-.52.468-.99.866-1.367.412-.35.931-.55 1.472-.568l-.132.145c-.66-13.307-1.155-24.231-1.512-31.839-.172-3.791-.311-6.749-.403-8.777-.04-1.004-.066-1.77-.092-2.298-.027-.528-.007-.773-.007-.773Z"/>
  <path fill="#263238" d="M228.176 217.305c-.059 0-.277-.568-.779-1.427a11.377 11.377 0 0 0-2.503-2.939 11.56 11.56 0 0 0-3.348-1.922c-.931-.336-1.552-.442-1.539-.501a4.691 4.691 0 0 1 1.618.27 10.091 10.091 0 0 1 5.984 4.973c.28.477.472 1.001.567 1.546Zm-6.585 5.085a15.68 15.68 0 0 0-4.239-6.849c.37.173.704.415.984.714.729.659 1.361 1.42 1.875 2.258.52.834.921 1.736 1.189 2.682.143.381.208.788.191 1.195Z"/>
  <path fill="#407BFF" d="m28.048 142.042 40.154 106.765 85.174 1.723-35.101-107.754-90.227-.734Z"/>
  <path fill="#fff" d="M81.681 248.998s-20.394-39.156-26.727-65.283c-3.613-14.773-6.829-41.54-6.829-41.54l53.164.469s17.633 28.061 27.784 56.103a277.975 277.975 0 0 1 13.314 51.585l-27.282-.601-8.975-26.166s-2.8 1.513-6.65-.442l9.245 26.47-27.044-.595Z" opacity=".5"/>
  <path fill="#fff" d="M110.818 206.942c-.495-1.439-2.641-6.524-2.298-9.061.343-2.536 2.853-5.283 2.992-7.826.138-2.542.211-8.209-.436-10.969a59.568 59.568 0 0 0-2.503-7.172s-3.85-6.096-7.721-6.235l-4.708-.171s-3.408.818-1.757 5.032c1.65 4.213 5.547 11.445 6.109 12.693.561 1.248 3.19 6.07 2.595 9.16-.594 3.091-5.092 11.716-4.497 13.816l-2.41-.085s-2.226-3.857-5.35-5.489c-3.124-1.631-9.827-8.671-11.227-12.878-1.4-4.207-2.972-13.994-3.917-16.959-.944-2.966-2.404-5.568-4.854-6.228-2.45-.661-5.732.171-5.732.171s-4.392 1.513-2.43 8.117c1.96 6.604 3.064 7.007 5.388 10.871 2.325 3.863 2.913 5.019 4.755 6.696 1.843 1.678 6.202 3.534 8.077 7.569 1.876 4.035 2.847 8.717 6.202 14.489 3.355 5.773 4.623 7.926 7.264 7.926 2.642 0 3.5-2.992 3.6-4.789a20.99 20.99 0 0 0 0-2.833l3.196.119s3.613 6.75 7.404 8.018c3.79 1.268 3.526-2.14 3.718-3.461.191-1.321-.938-9.087-1.46-10.521Zm-18.723 7.793c-1.004-.515-2.754-3.896-4.49-6.828-1.322-2.193-1.183-3.349-1.044-3.791a.82.82 0 0 1 .099-.218l-.053.073c.132-.767 1.42-.43 2.364-.053.694.277 3.996 1.565 5.072 6.346 1.077 4.782-.918 4.98-1.928 4.471h-.02Zm16.564.601c-.661.45-2.886.1-5.099-4.722-2.212-4.821.278-5.904.799-6.135.707-.317 1.797-.568 2.457.225l-.099-.073c.089.069.173.144.251.225a6.154 6.154 0 0 1 1.565 3.817c.304 2.873.819 6.214.145 6.663h-.019Z"/>
  <path fill="#fff" d="M97.313 204.558c.793-.053.231-3.064.231-3.064a22.779 22.779 0 0 0 0-3.408c-.145-1.42.588-2.721 1.097-4.035.508-1.314 0-4.821-.66-6.604-.661-1.784-.199-1.922-.199-1.922 2.034-.661.159-4.894-1.209-8.85-1.367-3.956-2.727-3.672-2.727-3.672s-.911-.033-1.433 3.19-1.413 4.365-3.368 4.359H88c-1.981 0-3.718-1.387-6.492-4.729-2.773-3.342-3.678-3.375-3.678-3.375s-1.592-.389-.245 3.567c1.348 3.956 2.358 8.143 4.907 8.988 0 0 .529.185 1.13 1.981.6 1.797 2.49 5.33 3.922 6.71 1.434 1.38 3.091 2.774 3.923 4.214.833 1.439 2.385 3.493 2.385 3.493s1.895 3.065 2.74 3.177l.72-.02Z"/>
  <path fill="#fff" d="M72.593 143.139s-1.037.297-.29 2.034c.746 1.737.66 2.761 1.089 3.229.456.472.94.913 1.453 1.321 0 0-1.189.41-.31 2.266.878 1.855 1.103 3.685 1.505 4.497.403.812 1.255 1.077 1.651 1.545.397.469-1.32-.052-.871 1.559.449 1.611 1.466 2.787 1.46 4.273-.007 1.486.719 3.441 2.132 4.174 1.414.733 1.15 1.75 1.19 2.549a13.04 13.04 0 0 0 .66 3.216c.554 2.067 3.73 5.284 5.68 5.105 1.947-.178 3.816-2.476 3.348-3.863a21.234 21.234 0 0 0-3.17-5.244c-.826-.825-1.526-.852-1.374-1.757.152-.904 1.169.496 1.123-.759a6.746 6.746 0 0 0-.965-3.679c-.786-1.169-1.023-2.311-1.776-3.823-.753-1.513-2.226-1.79-2.107-2.127.119-.337.925-.192.258-1.697-.667-1.506-.707-.482-1.42-2.787-.714-2.305-1.037-3.685-1.73-3.481-.694.205-.588-.819-.833-2.423-.244-1.605.337-1.011-.66-2.754-.997-1.744-6.043-1.374-6.043-1.374Zm1.335 56.73.878-2.1-1.42-4.22s2.378-1.446 5.687 3.355c3.308 4.801 3.09 7.08 3.09 7.08l-3.923-.139a6.347 6.347 0 0 0-.138 4.306c.799 2.166 1.98 1.902 3.031 5.7a30.33 30.33 0 0 1 1.169 5.329l12.231 29.627-5.462-.198-13.208-31.39s-1.5-.971-3.963-5.733c-2.463-4.761-4.775-10.95-3.196-12.62 1.578-1.671 5.224 1.003 5.224 1.003Zm43.621 1.592-2.358-2.186-1.473-4.22s-3.447-1.658-3.507 3.018c-.059 4.676 1.751 7.033 1.751 7.033l3.922.139s2.451 2.272 3.131 4.425c.68 2.153-.661 1.803.845 5.62a40.268 40.268 0 0 0 2.497 5.376l8.004 29.462 5.468.198-8.242-31.238s.872-.885.06-5.588c-.813-4.702-2.695-10.864-5.482-12.693a3.304 3.304 0 0 0-4.616.654Z"/>
  <path fill="#263238" d="m28.048 142.042 90.227.588h.099l.033.099c9.86 30.235 21.715 66.597 34.468 105.668l.66 2.054.079.231h-.244l-85.195-1.737h-.105l-.04-.099-39.982-106.804c.475 1.275 16.411 43.456 40.286 106.712l-.139-.099 85.195 1.704-.165.224c-.225-.66-.45-1.36-.661-2.054l-34.408-105.707.132.099-90.24-.879Z"/>
  <path fill="#FFBE9D" d="M162.464 223.579h-8.539s-4.372-4.221-5.561-4.815c-1.189-.594-7.027-2.358-7.027-2.358l2.252 6.248a9.43 9.43 0 0 1 1.037.363c1.493.581 1.077 1.902-.112 1.902h-8.599s-8.81-4.226-10.117-3.454c-1.097.661-1.48 1.816-.357 3.454 1.123 1.638 8.843 5.488 9.728 5.786l2.523.739-2.371.74-11.227-3.916c-.733-.133-1.737-.251-2.067.171a1.491 1.491 0 0 0-.434 1.096 1.501 1.501 0 0 0 .493 1.07 47.142 47.142 0 0 0 5.079 3.996s-1.79 2.642-.311 3.963c1.48 1.32 5.786 5.342 5.786 5.342s.449 2.226 1.783 3.263c1.334 1.037 16.022 1.037 17.058 1.037 1.037 0 6.974-3.408 6.974-3.408l3.884-.409.125-20.81Z"/>
  <path fill="#EB996E" d="M137.005 238.841a4.643 4.643 0 0 1-1.605.218 5.044 5.044 0 0 1-1.757-.311 9.573 9.573 0 0 1-1.908-1.017 125.33 125.33 0 0 1-3.23-2.159 7.467 7.467 0 0 1-1.275-.978c.498.207.972.466 1.414.773.845.515 1.981 1.248 3.302 2.074.577.396 1.192.734 1.836 1.01a5.011 5.011 0 0 0 1.651.363c.951.047 1.572-.033 1.572.027Zm.674 5.495c.033 0-.317.422-1.11.627a4.174 4.174 0 0 1-3.031-.509 12.408 12.408 0 0 1-2.457-1.829 3.848 3.848 0 0 1-.839-.951c.079-.092 1.427 1.321 3.461 2.477a4.248 4.248 0 0 0 2.813.574 7.028 7.028 0 0 0 1.163-.389Zm4.18-12.159a5.869 5.869 0 0 1-2.325-.178 5.95 5.95 0 0 1-2.206-.753c.771.068 1.534.207 2.279.416.764.103 1.518.275 2.252.515Z"/>
  <path fill="#FFBE9D" d="M24.72 161.347a3.574 3.574 0 0 1-1.262-5 3.92 3.92 0 0 1 1.32-1.433c1.434-.759 14.114-3.137 15.474-3.302 1.36-.165 1.612 2.424-.165 3.712-1.776 1.288-15.335 6.036-15.335 6.036l-.033-.013Zm2.951 9.193a3.582 3.582 0 0 1-1.754-3.649c.073-.474.24-.929.493-1.337a3.86 3.86 0 0 1 1.32-1.433c1.434-.76 14.378-4.161 15.475-3.302 1.32.99 1.611 2.417-.166 3.711-1.776 1.295-15.335 6.037-15.335 6.037l-.033-.027Z"/>
  <path fill="#FFBE9D" d="M30.248 168.638a4.18 4.18 0 0 0-2.794 2.193 2.892 2.892 0 0 0-.258 1.915 5.486 5.486 0 0 0 3.857 4.121c2.318.726 9.867-.971 9.867-.971l-1.744-4.867 5.284-1.731c2.153-.858 1.11-4.226-1.48-3.573-.845.212-9.708 2.16-12.732 2.913Zm-3.963-2.952a3.561 3.561 0 0 1-1.69-2.225 3.574 3.574 0 0 1 .429-2.761 3.905 3.905 0 0 1 1.32-1.433c1.434-.76 12.965-2.814 14.306-3.098 1.34-.284 2.78 2.193 1.003 3.481-1.776 1.288-15.368 6.036-15.368 6.036Z"/>
  <path fill="#EB996E" d="M39.315 161.056a13.03 13.03 0 0 1-2.02.515c-1.255.278-2.992.661-4.914 1.017a12.665 12.665 0 0 0-4.623 1.698 7.57 7.57 0 0 0-1.473 1.439s.053-.198.244-.508a4.44 4.44 0 0 1 1.057-1.13 7.797 7.797 0 0 1 1.982-1.083c.873-.317 1.77-.568 2.68-.752a191.12 191.12 0 0 1 4.947-.918 12.114 12.114 0 0 1 2.12-.278Zm-2.225-4.213a11.38 11.38 0 0 1-1.936.468l-4.708.912a11.387 11.387 0 0 0-4.38 1.71c-.487.425-.93.898-1.32 1.414 0 0 .053-.192.231-.489.257-.423.583-.8.965-1.116.957-.846 2.641-1.453 4.457-1.849 1.816-.397 3.52-.621 4.736-.819.644-.132 1.297-.21 1.954-.231Zm2.403 9.609c-.588.236-1.196.422-1.816.555-1.13.304-2.708.706-4.465.997a11.741 11.741 0 0 0-4.286 1.427 7.44 7.44 0 0 0-1.32 1.261s.046-.178.23-.456a4.26 4.26 0 0 1 .998-1.004 10.738 10.738 0 0 1 4.319-1.565c1.763-.29 3.302-.66 4.478-.891a10.137 10.137 0 0 1 1.862-.324Zm.714 4.24a13.2 13.2 0 0 1-2.754 1.103 13.18 13.18 0 0 1-2.88.772c.873-.47 1.797-.838 2.754-1.096a13.177 13.177 0 0 1 2.88-.779Z"/>
  <path fill="#263238" d="M309.812 94.44a9.176 9.176 0 0 1 14.677-.635 9.179 9.179 0 0 1-3.51 14.265 6.183 6.183 0 0 1-5.329 11.155c-.72 2.536-3.56 4.068-6.188 3.89-2.629-.178-5-1.737-6.796-3.665a16.608 16.608 0 0 1-4.009-15.19c1.4-5.284 5.944-9.708 11.366-10.62"/>
  <path fill="#455A64" d="M313.986 90.305s.046.06.112.185c.096.184.18.373.251.568.277.729.449 1.494.509 2.272a9.18 9.18 0 0 1-.39 3.52 8.874 8.874 0 0 1-2.358 3.817v-.218a9.671 9.671 0 0 1 1.75 4.207 9.395 9.395 0 0 1-4.378 9.642 9.309 9.309 0 0 1-3.131 1.248c-.298.061-.6.101-.904.119-.108.01-.216.01-.324 0 0-.039.436-.072 1.202-.251a10.191 10.191 0 0 0 3.025-1.321 9.453 9.453 0 0 0 4.058-9.989 9.436 9.436 0 0 0-1.562-3.463l-.086-.119.106-.099a8.587 8.587 0 0 0 2.311-3.66 9.192 9.192 0 0 0 .456-3.42 11.09 11.09 0 0 0-.647-3.038Z"/>
  <path fill="#407BFF" d="M340.396 88.47a7.399 7.399 0 0 1-.978.58c-.66.35-1.571.846-2.727 1.44a191.214 191.214 0 0 1-9.2 4.399 190.131 190.131 0 0 1-9.418 3.903c-1.215.462-2.205.832-2.899 1.07-.35.138-.71.251-1.076.336.33-.181.675-.336 1.03-.462l2.86-1.169c2.41-.99 5.732-2.377 9.364-3.962 3.633-1.585 6.882-3.164 9.246-4.3l2.781-1.32a7.45 7.45 0 0 1 1.017-.516Zm-8.606-8.56c.06.073-3.566 3.54-8.103 7.74s-8.269 7.562-8.335 7.49c-.066-.073 3.567-3.514 8.124-7.74 4.557-4.228 8.248-7.556 8.314-7.49Z"/>
  <path fill="#263238" d="M292.297 65.605c0-7.106-8.493-7.456-12.786-5.68-2.311-3.17-3.963-4.768-9.279-5.098-3.903-.25-9.853 1.71-12.852 5.64a14.185 14.185 0 0 0-1.598 14.047c.66 1.5 1.605 3.005 1.42 4.623-.271 2.351-2.681 3.725-4.24 5.502a8.977 8.977 0 0 0-.423 10.983c1.513 1.98 3.917 3.414 4.716 5.791.66 1.982.039 4.168.165 6.268.231 3.863 3.163 7.264 6.756 8.658 3.593 1.393 7.707 1.083 11.339-.238"/>
  <path fill="#A36957" d="m261.23 140.147 13.321-5.944.456-8.909s-10.012-1.479-12.317-14.463c-1.143-6.459-1.004-17.085-.614-25.757.356-7.826 8.638-15.777 16.438-15.09l25.334 4.352v4.207l.231 53.653 13.103 6.32-29.72 35.108-26.232-33.477Z"/>
  <path fill="#263238" d="M266.812 94.268a1.662 1.662 0 0 0 1.637 1.65 1.6 1.6 0 0 0 1.546-.918c.091-.192.142-.4.152-.613a1.674 1.674 0 0 0-1.638-1.658 1.602 1.602 0 0 0-1.55.922c-.09.194-.14.403-.147.617Zm-2.331-3.752c.211.212 1.459-.746 3.255-.772 1.797-.027 3.131.852 3.303.627.099-.099-.119-.489-.701-.898a4.62 4.62 0 0 0-2.641-.773 4.392 4.392 0 0 0-2.589.892c-.548.429-.733.825-.627.924Zm19.124 3.752a1.667 1.667 0 0 0 1.638 1.657 1.605 1.605 0 0 0 1.698-1.538 1.68 1.68 0 0 0-1.638-1.658 1.602 1.602 0 0 0-1.55.922c-.09.194-.14.403-.148.617Zm-1.453-3.732c.211.218 1.466-.746 3.263-.772 1.796-.027 3.13.852 3.302.627.092-.099-.126-.489-.707-.898a4.622 4.622 0 0 0-2.642-.766 4.399 4.399 0 0 0-2.589.885c-.548.436-.726.832-.627.924Zm-6.28 13.447c0-.099-1.116-.271-2.932-.476-.463-.04-.898-.119-.978-.429a2.317 2.317 0 0 1 .284-1.367c.41-1.123.839-2.292 1.321-3.52 1.797-5.013 3.084-9.127 2.886-9.2-.198-.073-1.823 3.963-3.619 8.942-.436 1.235-.845 2.417-1.241 3.54a2.672 2.672 0 0 0-.205 1.81 1.152 1.152 0 0 0 .766.66c.255.064.516.098.779.099 1.803.053 2.932.046 2.939-.059Z"/>
  <path fill="#7C3B29" d="M275.007 125.307a33.138 33.138 0 0 0 17.356-4.959s-4.465 9.18-17.521 8.196l.165-3.237Zm1.697-17.006a3.252 3.252 0 0 1 2.886-1.254 2.993 2.993 0 0 1 2.06 1.056 1.885 1.885 0 0 1 .179 2.147 2.17 2.17 0 0 1-2.345.66 6.88 6.88 0 0 1-2.325-1.321 2.064 2.064 0 0 1-.521-.521.608.608 0 0 1 0-.661"/>
  <path fill="#263238" d="M281.208 105.132c-.29 0-.264 1.941-1.908 3.355-1.645 1.413-3.725 1.235-3.738 1.512 0 .119.468.37 1.32.376a4.856 4.856 0 0 0 3.124-1.149 4.225 4.225 0 0 0 1.473-2.813c.059-.812-.165-1.294-.271-1.281Zm.357-21.629c.185.482 1.981.218 4.088.436 2.107.217 3.83.766 4.101.317.126-.212-.178-.66-.878-1.123a7.151 7.151 0 0 0-6.241-.581c-.766.33-1.149.72-1.07.95Zm-16.518 1.803c.324.396 1.559-.046 3.045-.093 1.486-.046 2.754.225 3.038-.204.125-.212-.086-.621-.661-.998a4.417 4.417 0 0 0-4.9.245c-.495.429-.661.852-.522 1.05Z"/>
  <path fill="#263238" d="M258.642 69.172c1.981 4.623 6.531 11.478 11.511 12.085a14.735 14.735 0 0 0 13.208-5.6c.753 3.712 4.874 5.68 8.586 6.294 2.641.436 5.428.462 7.925-.535 2.496-.997 4.623-3.164 5.012-5.805.39-2.642-3.361-9.154-5.996-9.642"/>
  <path fill="#263238" d="M292.885 78.418a8.098 8.098 0 0 0 4.022 10.665c-1.836 2.279-2.166 5.508-1.466 8.355.7 2.846 2.305 5.389 4.029 7.76 0 0-4.478 6.478 4.537 11.227 0 0 6.327-1.981 3.5-11.498a2.83 2.83 0 0 1 .119-2.074c.394-.552.937-.98 1.565-1.235a10.36 10.36 0 0 0 4.088-13.954 6.764 6.764 0 0 1-.878-1.982c-.178-1.07-.997-3.863-.661-4.887 1.935-5.343-.554-11.98-6.822-15.276-5.026-2.641-11.319-3.084-15.189 1.097"/>
  <path fill="#407BFF" d="m327.881 182.309 8.585-33.583-24.085-13.254-23.247 35.834-21.061-34.844-21.695 9.821a6.534 6.534 0 0 0-3.23 3.209l-19.627 53.085 26.522 8.586 3.038-12.304 3.494 21.246-10.092 55.753 86.602-.317-15.348-57.239 2.133-12.766 8.011-23.227Z"/>
  <path fill="#000" d="M255.175 225.837c5.944 1.004 11.293-4.26 17.316-4.306 5.554-.039 10.164 4.313 15.573 5.574 2.384.555 4.986.535 7.047 1.843 1.585 1.004 2.641 2.641 3.724 4.167a37.205 37.205 0 0 0 21.728 14.285c1.321.297 4.28 1.321 5.092.205l-.858-3.421-.753-10.376-29.019-21.133-33.12 1.625-6.73 11.537Z" opacity=".3"/>
  <path fill="#263238" d="M318.786 177.237h-17.917v2.965h17.917v-2.965Z"/>
  <path fill="#407BFF" d="M320.001 213.467c7.265 2.576 15.19 2.186 22.772 1.07 1.803-.271 3.685-.614 5.105-1.757.475-.376 1.625-1.32 1.605-1.571-.053-.694-1.321-1.618-2.041-2.193a24.398 24.398 0 0 0-19.674-4.623 14.591 14.591 0 0 0-5.138 1.981c-1.539 1.031-2.503 1.599-3.031 3.375"/>
  <path fill="#000" d="M320.001 213.467c7.265 2.576 15.19 2.186 22.772 1.07 1.803-.271 3.685-.614 5.105-1.757.475-.376 1.625-1.32 1.605-1.571-.053-.694-1.321-1.618-2.041-2.193a24.398 24.398 0 0 0-19.674-4.623 14.591 14.591 0 0 0-5.138 1.981c-1.539 1.031-2.503 1.599-3.031 3.375" opacity=".3"/>
  <path fill="#407BFF" d="M349.483 211.209s-7.608-45.378-8.077-49.426c-1.183-10.039-4.96-13.248-4.96-13.248l-17.66 54.042 1.222 10.89s5.58-8.4 29.475-2.258Z"/>
  <path fill="#263238" d="M339.748 174.767a7.555 7.555 0 0 1-.33 1.122c-.224.72-.601 1.744-1.09 2.999a68.898 68.898 0 0 1-4.623 9.45 65.483 65.483 0 0 1-6.062 8.586 50.25 50.25 0 0 1-2.114 2.391c-.259.29-.537.564-.832.818a7.38 7.38 0 0 1 .733-.911 89.906 89.906 0 0 0 2.028-2.457 76.13 76.13 0 0 0 5.944-8.625 79.262 79.262 0 0 0 4.702-9.338c.515-1.242.924-2.252 1.189-2.952.125-.372.277-.734.455-1.083Zm-83.286 44.208a.429.429 0 0 1-.04-.145c0-.119-.046-.264-.079-.442-.059-.416-.152-.978-.264-1.691-.251-1.499-.601-3.613-1.037-6.208-.911-5.27-2.232-12.469-3.672-20.46-1.44-7.991-2.761-15.19-3.718-20.473l-1.09-6.208c-.106-.707-.198-1.275-.264-1.691l-.046-.442a.389.389 0 0 1 0-.152c.02.046.033.095.039.145 0 .119.053.264.086.436.079.416.185.977.324 1.684.29 1.493.693 3.593 1.195 6.182.997 5.224 2.365 12.449 3.824 20.433 1.46 7.985 2.721 15.223 3.566 20.473.423 2.642.733 4.755.932 6.228.085.72.151 1.288.204 1.704 0 .178 0 .324.04.442a.637.637 0 0 1 0 .185Zm72.726-54.703a2.665 2.665 0 0 1-.092.509c-.08.363-.185.845-.324 1.446-.297 1.288-.713 3.097-1.228 5.283-1.05 4.485-2.503 10.673-4.042 17.528-1.539 6.855-2.88 13.07-3.765 17.587-.435 2.259-.792 4.088-1.01 5.356-.106.608-.198 1.09-.264 1.46-.02.17-.058.339-.112.502 0-.173.016-.345.046-.515.053-.37.119-.859.198-1.467.178-1.281.495-3.117.905-5.382.825-4.531 2.12-10.758 3.665-17.62a840.771 840.771 0 0 1 4.141-17.508c.555-2.206 1.01-4.002 1.321-5.283.158-.595.29-1.07.383-1.433.044-.16.104-.315.178-.463Zm-66.696-25.485c.056.063.105.131.145.205l.41.66c.363.568.878 1.387 1.539 2.437l5.6 8.975 18.492 29.964h-.284l.872-1.235c.944-1.321 1.869-2.642 2.741-3.857v.224l-17.066-28.299c-2.14-3.573-3.863-6.459-5.059-8.466l-1.354-2.292-.343-.601a1.067 1.067 0 0 1-.112-.211c.051.06.097.124.138.191l.37.588c.331.528.806 1.321 1.407 2.265a2829.13 2829.13 0 0 1 5.151 8.407l17.171 28.24.053.092-.059.093c-.879 1.228-1.803 2.536-2.741 3.857l-.878 1.235-.152.211-.132-.218-18.42-30.049c-2.324-3.824-4.207-6.915-5.514-9.074-.661-1.057-1.136-1.889-1.486-2.47l-.377-.661a1.183 1.183 0 0 1-.112-.211Z"/>
  <path fill="#263238" d="M312.361 135.273a.66.66 0 0 1-.099.192l-.337.541-1.321 2.074-4.887 7.628-16.471 25.492v-.185c.727 1.189 1.499 2.457 2.285 3.732l.74 1.208h-.291c3.527-5.283 6.776-10.342 9.755-14.932 2.978-4.59 5.693-8.691 8.057-12.072a320.382 320.382 0 0 1 5.726-7.926l1.618-2.093.429-.542c.046-.061.097-.118.152-.171-.034.07-.076.137-.125.198l-.403.555c-.37.501-.892 1.221-1.565 2.133-1.321 1.856-3.303 4.557-5.634 7.925-2.331 3.368-5.039 7.502-7.991 12.105-2.952 4.604-6.188 9.742-9.715 15.025l-.152.225-.138-.232-.74-1.208-2.279-3.732-.059-.085.059-.093 16.564-25.433 4.973-7.568 1.36-2.041.357-.522.132-.198Z"/>
  <path fill="#EBEBEB" d="M265.067 198.799a5.778 5.778 0 0 0-7.317 2.457 6.009 6.009 0 0 0 .792 6.604c1.566 1.665 5.357 2.801 7.12.793l-.595-9.854Z"/>
  <path fill="#263238" d="M265.068 198.799c.046.231.074.465.085.7.04.516.1 1.189.166 2.015.125 1.803.297 4.266.495 7.159v.066l-.04.046a3.723 3.723 0 0 1-3.084 1.123 6.87 6.87 0 0 1-3.375-1.149 5.12 5.12 0 0 1-2.054-2.715 6.616 6.616 0 0 1-.218-3.17 5.37 5.37 0 0 1 1.222-2.602 6.017 6.017 0 0 1 1.981-1.499 5.692 5.692 0 0 1 3.547-.416c.434.083.853.232 1.242.442-.033 0-.436-.165-1.262-.31a5.729 5.729 0 0 0-3.421.508 5.288 5.288 0 0 0-3.018 3.93 6.208 6.208 0 0 0 .225 3.012 4.787 4.787 0 0 0 1.921 2.536 6.615 6.615 0 0 0 3.203 1.096 3.416 3.416 0 0 0 2.827-.991l-.04.112c-.145-2.866-.264-5.283-.356-7.092-.033-.839-.06-1.526-.079-2.048a5.574 5.574 0 0 1 .033-.753Z"/>
  <path fill="#263238" d="M260.346 198.8s1.882-38.794 2.853-44.355c.971-5.56 3.467-14.529 7.396-19.991 3.758-5.197 4.128-5.56 4.128-5.56l-.251 4.841a68.028 68.028 0 0 0-7.542 20.123c-2.093 10.989-3.533 44.909-3.533 44.909l-3.051.033Z"/>
  <path fill="#E0E0E0" d="M315.478 205.734a8.565 8.565 0 0 1-3.209-.661l.501-1.221a6.534 6.534 0 0 0 4.273.336 4.84 4.84 0 0 0 3.124-2.839 7.13 7.13 0 0 0 .066-4.135 24.979 24.979 0 0 0-.984-2.952c-.165-.429-.33-.858-.489-1.321-2.773-7.799-2.291-16.51-1.868-24.231l1.32.073c-.416 7.575-.885 16.167 1.803 23.716.152.429.311.845.469 1.268a25.533 25.533 0 0 1 1.044 3.111 8.322 8.322 0 0 1-.119 4.92 6.1 6.1 0 0 1-3.963 3.632c-.637.198-1.3.3-1.968.304Z"/>
  <path fill="#EBEBEB" d="M315.352 206.315c-2.206 0-4.134-1.037-5.812-3.111-2.179-2.681-2.529-9.331-2.833-15.189-.106-2.1-.211-4.082-.396-5.521-.661-5.072-3.56-11.888-3.586-11.947l1.208-.522c.126.284 3.012 7.04 3.685 12.303.192 1.486.298 3.494.41 5.614.277 5.389.627 12.099 2.536 14.444 2.879 3.546 6.373 3.513 11.326-.113l.779 1.07c-2.727 1.975-5.138 2.972-7.317 2.972Z"/>
  <path fill="#263238" d="M320.009 203.403a7.7 7.7 0 0 1 1.01-1.902 2.645 2.645 0 0 1 1.704-1.077 1.656 1.656 0 0 1 1.691.931 1.988 1.988 0 0 1-.304 1.982 2.778 2.778 0 0 1-1.684.938 7.54 7.54 0 0 1-1.922 0m-13.678-58.428a42.803 42.803 0 0 1 8.915 23.048h2.748a43.119 43.119 0 0 0-10.719-25.994 40.641 40.641 0 0 0 1.512-6.716c.608-5.158-5.052-8.282-5.052-8.282v3.91a4.558 4.558 0 0 1 2.312 4.055c-.126 2.78-2.213 8.691-4.253 13.789a30.548 30.548 0 0 0-2.252 13.209c.191 5.778 2.45 8.4 2.45 8.4l2.727-1.156s-1.631-2.04-2.338-7.621c-.541-4.266.72-7.601 1.817-10.685.554-1.533 1.353-3.646 2.133-5.957Z"/>
  <path fill="#A36957" d="m227.892 203.832-3.302 12.594a11.97 11.97 0 0 0 2.886 11.478 12.453 12.453 0 0 0 13.446 2.814l34.204-13.612-5.053-15.42-25.895 7.376-16.286-5.23Z"/>
  <path fill="#455A64" d="m255.973 182.844 6.202 33.021a2.948 2.948 0 0 0 3.018 2.41l47.379-1.829a2.964 2.964 0 0 0 2.846-3.058l-1.083-31.198a2.953 2.953 0 0 0-2.959-2.853h-52.497a2.946 2.946 0 0 0-2.279 1.068 2.946 2.946 0 0 0-.627 2.439Z"/>
  <path fill="#A36957" d="M307.737 196.29a4.395 4.395 0 0 0-4.107 2.8c-.661 1.79-1.691 3.877-2.801 4.478-2.053 1.122-5.607 2.02-7.469 1.102-1.862-.918-9.338-7.634-10.646-6.888-1.308.747-2.43 2.424-1.123 3.923 1.308 1.499 8.203 5.977 6.882 7.476-1.321 1.499-15.85-5.085-18.115-4.504-2.266.581-3.547 1.981-2.239 2.86 1.307.878 11.227 4.623 11.762 5.944 0 0-14.939-3.923-15.5-2.986-.562.938-1.493 2.424 0 2.986 1.492.561 14.384 3.922 15.5 4.484a27.05 27.05 0 0 0 5.765 1.677c.403 0 3.302.984 6.017 1.909a13.168 13.168 0 0 0 9.292-.244l1.512-.621a5.948 5.948 0 0 0 3.679-5.845l-.304-5.092 1.631-4.207.264-9.252Z"/>
  <path fill="#A36957" d="M295.771 222.264s27.262 24.68 36.442 24.753c9.675.072 15.123-9.966 14.093-16.207-.555-3.302-1.981-20.731-1.981-20.731-6.479-1.77-16.161-2.562-23.062 2.028l2.516 10.157-18.201-8.797-9.807 8.797Z"/>
  <path fill="#263238" d="M349.482 211.209a1.307 1.307 0 0 1-.31-.053l-.885-.211c-.759-.185-1.862-.456-3.229-.767a45.161 45.161 0 0 0-10.831-1.254 37.913 37.913 0 0 0-5.944.66c-1.61.281-3.183.744-4.689 1.38a11.623 11.623 0 0 0-2.8 1.724c-.588.509-.872.839-.898.819.048-.095.11-.181.184-.258.196-.233.405-.453.628-.66a10.656 10.656 0 0 1 2.787-1.843 20.296 20.296 0 0 1 4.728-1.472 35.989 35.989 0 0 1 6.023-.707 41.68 41.68 0 0 1 10.891 1.36c1.367.344 2.463.661 3.216.879l.859.271c.171.085.277.119.27.132Zm79.529 64.477c0 .092-96.045.172-214.492.172-118.447 0-214.519-.08-214.519-.172 0-.092 96.026-.172 214.519-.172 118.493 0 214.492.08 214.492.172Z"/>
  <path fill="#407BFF" d="M371.686 246.079c1.393 1.981 4.061 1.288 5.283.079 1.222-1.208 1.737-2.952 2.199-4.623 1.063-3.79 2.127-7.773 1.288-11.616a6.385 6.385 0 0 0-1.506-3.144 3.376 3.376 0 0 0-3.203-1.043c-1.321.369-2.166 1.697-2.76 2.952a27.724 27.724 0 0 0-2.642 11.887c0 1.909.251 3.917 1.321 5.482"/>
  <path fill="#000" d="M371.686 246.079c1.393 1.981 4.061 1.288 5.283.079 1.222-1.208 1.737-2.952 2.199-4.623 1.063-3.79 2.127-7.773 1.288-11.616a6.385 6.385 0 0 0-1.506-3.144 3.376 3.376 0 0 0-3.203-1.043c-1.321.369-2.166 1.697-2.76 2.952a27.724 27.724 0 0 0-2.642 11.887c0 1.909.251 3.917 1.321 5.482" opacity=".2"/>
  <path fill="#407BFF" d="M376.929 255.986a11.952 11.952 0 0 1 7.383-.958 6.146 6.146 0 0 1 3.666 1.605c.918.997 1.103 2.767.066 3.639a3.52 3.52 0 0 1-2.298.607c-1.982 0-4.128-.336-5.68.852-.885.661-1.466 1.797-2.529 2.133a2.53 2.53 0 0 1-2.781-1.208 4.3 4.3 0 0 1-.337-3.177 4.834 4.834 0 0 1 2.51-3.493Zm-8.981-7.06a7.142 7.142 0 0 0 1.063-6.605 12.66 12.66 0 0 0-3.962-5.62 21.13 21.13 0 0 0-7.007-4.061 7.54 7.54 0 0 0-3.137-.509 3.303 3.303 0 0 0-2.642 1.618c-.72 1.4 0 3.091.766 4.471a53.12 53.12 0 0 0 4.623 6.941c1.38 1.757 2.972 3.494 5.065 4.273 2.094.779 4.273.661 5.37-.786"/>
  <path fill="#263238" d="M371.838 275.699c.072-.294.111-.596.119-.898.059-.661.132-1.46.218-2.431a34.55 34.55 0 0 1 .521-3.579c.308-1.438.73-2.849 1.262-4.22a15.367 15.367 0 0 1 2.126-3.831 8.017 8.017 0 0 1 2.702-2.285 7.654 7.654 0 0 1 2.285-.733 4.57 4.57 0 0 0 .885-.132 4.094 4.094 0 0 0-.899 0 6.777 6.777 0 0 0-2.39.66 7.933 7.933 0 0 0-2.847 2.299 15.278 15.278 0 0 0-2.206 3.909 26.285 26.285 0 0 0-1.254 4.293 30.38 30.38 0 0 0-.443 3.619c-.073 1.037-.092 1.876-.106 2.451-.021.292-.013.587.027.878Z"/>
  <path fill="#263238" d="M371.989 273.823a1.703 1.703 0 0 0 0-.416v-5.534c.066-3.672.344-8.744.912-14.318.568-5.574 1.32-10.567 2.06-14.193.172-.904.337-1.717.502-2.43.165-.713.284-1.321.409-1.823.126-.502.199-.852.271-1.155a.205.205 0 0 0-.036-.407.205.205 0 0 0-.036.407c-.093.297-.199.66-.337 1.135a70.8 70.8 0 0 0-1.031 4.24 135.252 135.252 0 0 0-2.172 14.213c-.568 5.587-.806 10.666-.799 14.351a87.8 87.8 0 0 0 .099 4.358c0 .476.059.872.079 1.183.013.132.04.262.079.389Z"/>
  <path fill="#263238" d="M371.937 263.996c.033-.41.033-.824 0-1.234a34.142 34.142 0 0 0-.41-3.349 45.949 45.949 0 0 0-3.222-10.606 30.665 30.665 0 0 0-6.07-9.292 14.19 14.19 0 0 0-1.42-1.321c-.218-.185-.409-.363-.601-.509l-.554-.37a7.812 7.812 0 0 0-1.044-.66 36.862 36.862 0 0 1 3.434 3.018 32.363 32.363 0 0 1 5.944 9.246 46.115 46.115 0 0 1 2.094 5.706 49.125 49.125 0 0 1 1.202 4.828 48.5 48.5 0 0 1 .515 3.302c.014.416.059.831.132 1.241Z"/>
  <path fill="#E0E0E0" d="M343.037 20.71h-.165a2.714 2.714 0 0 0-2.715 2.714v26.569a2.714 2.714 0 0 0 2.715 2.714h.165a2.714 2.714 0 0 0 2.714-2.714v-26.57a2.714 2.714 0 0 0-2.714-2.713Z"/>
  <path fill="#407BFF" d="M343.037 30.273h-.165a2.714 2.714 0 0 0-2.715 2.714v17.006a2.714 2.714 0 0 0 2.715 2.714h.165a2.714 2.714 0 0 0 2.714-2.714V32.987c0-1.5-1.215-2.715-2.714-2.715Z"/>
  <path fill="#E0E0E0" d="M352.197 20.71h-.165a2.715 2.715 0 0 0-2.715 2.714v26.569a2.715 2.715 0 0 0 2.715 2.714h.165a2.714 2.714 0 0 0 2.714-2.714v-26.57a2.714 2.714 0 0 0-2.714-2.713Z"/>
  <path fill="#407BFF" d="M352.197 35.232h-.165a2.715 2.715 0 0 0-2.715 2.715v12.046a2.715 2.715 0 0 0 2.715 2.714h.165a2.714 2.714 0 0 0 2.714-2.714V37.947a2.714 2.714 0 0 0-2.714-2.715Z"/>
  <path fill="#E0E0E0" d="M362.559 20.71h-.165a2.714 2.714 0 0 0-2.714 2.714v26.569a2.714 2.714 0 0 0 2.714 2.714h.165a2.714 2.714 0 0 0 2.714-2.714v-26.57a2.714 2.714 0 0 0-2.714-2.713Z"/>
  <path fill="#407BFF" d="M362.559 26.495h-.165a2.714 2.714 0 0 0-2.714 2.714V50c0 1.5 1.215 2.715 2.714 2.715h.165A2.714 2.714 0 0 0 365.273 50V29.21a2.714 2.714 0 0 0-2.714-2.714Z"/>
  <path fill="#263238" d="M343.036 52.714s.251 0 .701-.132a2.644 2.644 0 0 0 1.552-1.202c.251-.414.381-.89.376-1.374V24.369a6.198 6.198 0 0 0-.112-1.698 2.585 2.585 0 0 0-2.596-1.79 2.557 2.557 0 0 0-2.463 1.935 8.577 8.577 0 0 0-.079 1.717v25.612c.027.473.185.93.455 1.32.385.56.964.955 1.625 1.11.456.092.707.073.707.092a2.123 2.123 0 0 1-.72 0 2.736 2.736 0 0 1-2.232-2.516v-6.076c0-3.196 0-6.994-.04-11.227v-9.193a3.74 3.74 0 0 1 .086-.925 2.904 2.904 0 0 1 2.8-2.192 3.023 3.023 0 0 1 1.816.522c.521.37.907.898 1.103 1.505.086.301.13.612.132.925v9.219c0 4.214 0 8.011-.04 11.228v6.076a2.799 2.799 0 0 1-.422 1.44 2.707 2.707 0 0 1-1.935 1.208 2.092 2.092 0 0 1-.714.053Zm9.154 0s.251 0 .7-.132a2.64 2.64 0 0 0 1.935-2.576V24.369a6.2 6.2 0 0 0-.118-1.698 2.645 2.645 0 0 0-2.584-1.81 2.64 2.64 0 0 0-2.475 1.955 8.575 8.575 0 0 0-.073 1.718v8.34c0 4.213 0 8.01-.04 11.227v6.069c.034.473.191.928.456 1.321.387.56.969.956 1.631 1.11.449.092.707.072.7.092-.238.04-.481.04-.719 0a2.75 2.75 0 0 1-2.226-2.516v-6.075c0-3.197 0-6.994-.033-11.227v-9.246a3.466 3.466 0 0 1 .086-.925 2.899 2.899 0 0 1 2.8-2.192 2.994 2.994 0 0 1 1.81.521 2.93 2.93 0 0 1 1.109 1.506c.087.3.129.612.126.925v9.245c0 4.214 0 8.011-.033 11.228v6.076a2.753 2.753 0 0 1-.43 1.44 2.693 2.693 0 0 1-1.651 1.201 2.127 2.127 0 0 1-.971.06Zm10.362 0s.251 0 .7-.132a2.64 2.64 0 0 0 1.935-2.576V43.93c0-3.196 0-6.994-.039-11.227v-8.334a6.24 6.24 0 0 0-.119-1.698 2.645 2.645 0 0 0-2.584-1.81 2.64 2.64 0 0 0-2.475 1.955 9.13 9.13 0 0 0-.079 1.718v8.314c0 4.214 0 8.011-.04 11.227v6.07c.031.473.188.93.456 1.32.385.559.964.954 1.624 1.11.456.092.707.073.707.092a2.123 2.123 0 0 1-.72 0 2.748 2.748 0 0 1-2.225-2.516V23.602a3.42 3.42 0 0 1 .085-.924 2.9 2.9 0 0 1 2.801-2.193 2.919 2.919 0 0 1 2.919 2.028c.087.3.129.611.125.924v26.549a2.743 2.743 0 0 1-.429 1.44 2.693 2.693 0 0 1-1.651 1.202 2.129 2.129 0 0 1-.991.086Z"/>
  <path fill="#263238" d="M352.719.012c.2-.016.401-.016.601 0l1.777.046c.389 0 .832 0 1.32.06l1.566.224 1.829.258 2.041.508a33.107 33.107 0 0 1 9.906 4.32 34.95 34.95 0 0 1 16.062 26.278c.137 1.592.167 3.191.092 4.788-.053.812-.04 1.631-.158 2.45-.119.819-.245 1.638-.37 2.47a35.24 35.24 0 0 1-3.302 9.748 37.318 37.318 0 0 1-6.4 8.764 36.71 36.71 0 0 1-9.173 6.604 33.458 33.458 0 0 1-11.181 3.434c-.988.15-1.986.234-2.985.251a25.417 25.417 0 0 1-3.012.053 35.184 35.184 0 0 1-18.062-5.819l.363.04-12.244 4.914-.72.29.204-.753 3.6-13.09.059.318a35.098 35.098 0 0 1-6.531-14.959c-.469-2.538-.627-5.124-.469-7.7a24.93 24.93 0 0 1 .343-3.679c.099-.6.192-1.202.284-1.796.093-.595.284-1.156.423-1.73A35.065 35.065 0 0 1 332.239 6.43a33.428 33.428 0 0 1 8.13-4.286l1.83-.66 1.75-.47 1.585-.395c.515-.1 1.004-.152 1.466-.218.924-.12 1.737-.278 2.45-.317l1.803-.06h1.096c.125-.01.251-.01.377 0a1.325 1.325 0 0 1-.377.053l-1.089.086-1.79.119c-.707.06-1.513.238-2.431.37a34.844 34.844 0 0 0-27.843 25.829c-.132.568-.304 1.13-.409 1.704-.106.574-.179 1.169-.265 1.763a24.162 24.162 0 0 0-.323 3.613 31.25 31.25 0 0 0 .495 7.515 34.493 34.493 0 0 0 6.446 14.629l.105.151-.046.172-3.573 13.103-.515-.462c3.989-1.607 8.068-3.25 12.238-4.927l.191-.08.172.113a34.523 34.523 0 0 0 17.66 5.686 25.61 25.61 0 0 0 2.945-.053 21.387 21.387 0 0 0 2.913-.244 32.673 32.673 0 0 0 10.936-3.342 36.19 36.19 0 0 0 8.989-6.432 36.99 36.99 0 0 0 6.254-8.586 34.616 34.616 0 0 0 3.302-9.543c.123-.815.249-1.62.377-2.417.118-.8.105-1.605.165-2.397.076-1.568.05-3.139-.08-4.703A34.561 34.561 0 0 0 371.515 5.77a33.252 33.252 0 0 0-9.735-4.372l-2.014-.535-1.81-.297-1.558-.258c-.476-.053-.912-.066-1.321-.092l-1.77-.132a3.33 3.33 0 0 1-.588-.073Z"/>
</svg>
