<svg width="20" height="22" viewBox="0 0 20 22" fill="none" xmlns="http://www.w3.org/2000/svg">
<path d="M10.2603 5.37203C11.3658 5.37203 12.7515 4.73122 13.5766 3.8768C14.324 3.10248 14.8689 2.02111 14.8689 0.939738C14.8689 0.792885 14.8533 0.646032 14.8222 0.525879C13.5922 0.56593 12.1131 1.23344 11.2256 2.12791C10.525 2.80878 9.88666 3.8768 9.88666 4.97152C9.88666 5.13173 9.9178 5.29193 9.93337 5.34533C10.0112 5.35868 10.1358 5.37203 10.2603 5.37203ZM6.36794 21.5259C7.87819 21.5259 8.54768 20.6581 10.4316 20.6581C12.3466 20.6581 12.767 21.4992 14.4485 21.4992C16.0989 21.4992 17.2043 20.1908 18.2475 18.9092C19.4152 17.4407 19.8979 15.9989 19.929 15.9321C19.82 15.9054 16.6594 14.7973 16.6594 11.6867C16.6594 8.98996 19.1505 7.77508 19.2907 7.68163C17.6403 5.65239 15.1336 5.59899 14.4485 5.59899C12.5958 5.59899 11.0855 6.56021 10.1358 6.56021C9.10818 6.56021 7.75363 5.65239 6.14997 5.65239C3.09834 5.65239 0 7.81513 0 11.9003C0 14.4369 1.15215 17.1203 2.56897 18.8558C3.7834 20.3244 4.84213 21.5259 6.36794 21.5259Z" fill="#000100"/>
</svg>
