<svg width="603" height="587" viewBox="0 0 603 587" fill="none" xmlns="http://www.w3.org/2000/svg">
<path d="M160.821 57.571C160.821 53.7441 161.649 50.3403 163.305 47.3597C164.961 44.3423 167.261 42.0057 170.205 40.3498C173.185 38.6572 176.552 37.8108 180.306 37.8108C184.905 37.8108 188.843 39.0251 192.118 41.4538C195.393 43.8824 197.582 47.1941 198.686 51.389H188.309C187.536 49.77 186.432 48.5372 184.997 47.6909C183.599 46.8446 181.998 46.4214 180.195 46.4214C177.288 46.4214 174.933 47.4333 173.13 49.4572C171.327 51.481 170.426 54.1856 170.426 57.571C170.426 60.9564 171.327 63.661 173.13 65.6848C174.933 67.7087 177.288 68.7206 180.195 68.7206C181.998 68.7206 183.599 68.2974 184.997 67.4511C186.432 66.6047 187.536 65.372 188.309 63.753H198.686C197.582 67.9479 195.393 71.2596 192.118 73.6882C188.843 76.0801 184.905 77.276 180.306 77.276C176.552 77.276 173.185 76.448 170.205 74.7922C167.261 73.0995 164.961 70.7628 163.305 67.7823C161.649 64.8017 160.821 61.3979 160.821 57.571ZM202.589 61.5451C202.589 58.3805 203.178 55.6023 204.356 53.2105C205.57 50.8187 207.207 48.9788 209.268 47.6909C211.329 46.403 213.629 45.759 216.168 45.759C218.339 45.759 220.234 46.2006 221.853 47.0837C223.509 47.9669 224.778 49.126 225.661 50.5611V46.2006H235.1V77H225.661V72.6395C224.741 74.0746 223.453 75.2337 221.798 76.1169C220.178 77 218.283 77.4416 216.112 77.4416C213.61 77.4416 211.329 76.7976 209.268 75.5097C207.207 74.185 205.57 72.3267 204.356 69.9349C203.178 67.5063 202.589 64.7097 202.589 61.5451ZM225.661 61.6003C225.661 59.2453 224.999 57.387 223.674 56.0255C222.386 54.664 220.804 53.9833 218.927 53.9833C217.051 53.9833 215.45 54.664 214.125 56.0255C212.837 57.3502 212.193 59.1901 212.193 61.5451C212.193 63.9001 212.837 65.7768 214.125 67.1751C215.45 68.5366 217.051 69.2174 218.927 69.2174C220.804 69.2174 222.386 68.5366 223.674 67.1751C224.999 65.8136 225.661 63.9553 225.661 61.6003ZM251.367 51.3338C252.471 49.6412 253.851 48.3165 255.506 47.3597C257.162 46.3662 259.002 45.8694 261.026 45.8694V55.8599H258.432C256.077 55.8599 254.31 56.3751 253.133 57.4054C251.955 58.3989 251.367 60.1652 251.367 62.7042V77H241.928V46.2006H251.367V51.3338ZM294.571 61.1035C294.571 61.9867 294.515 62.9066 294.405 63.8633H273.044C273.191 65.7768 273.798 67.2487 274.866 68.279C275.969 69.2726 277.313 69.7693 278.895 69.7693C281.25 69.7693 282.887 68.7758 283.807 66.7887H293.853C293.338 68.8126 292.399 70.6341 291.038 72.2531C289.713 73.8722 288.039 75.1417 286.015 76.0617C283.991 76.9816 281.728 77.4416 279.226 77.4416C276.209 77.4416 273.522 76.7976 271.167 75.5097C268.812 74.2218 266.973 72.3819 265.648 69.9901C264.323 67.5983 263.661 64.8017 263.661 61.6003C263.661 58.3989 264.305 55.6023 265.593 53.2105C266.917 50.8187 268.757 48.9788 271.112 47.6909C273.467 46.403 276.172 45.759 279.226 45.759C282.207 45.759 284.856 46.3846 287.174 47.6357C289.492 48.8868 291.296 50.6715 292.583 52.9897C293.908 55.308 294.571 58.0126 294.571 61.1035ZM284.911 58.6197C284.911 57.0006 284.359 55.7127 283.255 54.756C282.151 53.7993 280.772 53.3209 279.116 53.3209C277.533 53.3209 276.19 53.7809 275.086 54.7008C274.019 55.6207 273.357 56.927 273.099 58.6197H284.911ZM313.404 68.1686L320.083 46.2006H330.128L319.2 77H307.553L296.624 46.2006H306.725L313.404 68.1686ZM364.514 46.2006V77H355.076V72.8051C354.119 74.1666 352.813 75.2705 351.157 76.1169C349.538 76.9264 347.735 77.3312 345.748 77.3312C343.393 77.3312 341.313 76.816 339.51 75.7857C337.707 74.7186 336.309 73.1915 335.316 71.2044C334.322 69.2174 333.825 66.8807 333.825 64.1945V46.2006H343.209V62.925C343.209 64.9857 343.742 66.5863 344.809 67.7271C345.876 68.8678 347.311 69.4381 349.115 69.4381C350.954 69.4381 352.408 68.8678 353.475 67.7271C354.542 66.5863 355.076 64.9857 355.076 62.925V46.2006H364.514ZM380.732 36.1549V77H371.294V36.1549H380.732Z" fill="white"/>
<g filter="url(#filter0_di_120_16975)">
<circle cx="412.145" cy="40.6583" r="17.6413" fill="white"/>
</g>
<rect x="408.31" y="30.6865" width="7.67011" height="19.9423" rx="1.15052" fill="#3895F5"/>
<rect x="422.114" y="36.8232" width="7.67011" height="19.9423" rx="1.15052" transform="rotate(90 422.114 36.8232)" fill="#3895F5"/>
<path d="M541.779 556.357H501.969V556.66H541.779V556.357Z" fill="#EBEBEB" stroke="#EBEBEB"/>
<path d="M399.127 559.662H388.682V559.965H399.127V559.662Z" fill="#EBEBEB"/>
<path d="M500.768 545.081H477.701V545.385H500.768V545.081Z" fill="#EBEBEB" stroke="#EBEBEB"/>
<path d="M115.972 547.122H64.0576V547.426H115.972V547.122Z" fill="#EBEBEB" stroke="#EBEBEB"/>
<path d="M134.289 547.122H126.681V547.426H134.289V547.122Z" fill="#EBEBEB" stroke="#EBEBEB"/>
<path d="M271.63 552.25H159.026V552.553H271.63V552.25Z" fill="#EBEBEB" stroke="#EBEBEB"/>
<path d="M285.874 482.615H53.7921C51.9718 482.615 50.2261 481.884 48.939 480.583C47.6518 479.282 46.9287 477.517 46.9287 475.677V145.877C46.9446 144.048 47.6747 142.299 48.9601 141.011C50.2455 139.723 51.9822 139 53.7921 139H285.874C287.695 139 289.44 139.731 290.727 141.032C292.015 142.333 292.738 144.098 292.738 145.938V475.677C292.738 477.517 292.015 479.282 290.727 480.583C289.44 481.884 287.695 482.615 285.874 482.615ZM53.7921 139.243C52.0525 139.246 50.3851 139.946 49.155 141.19C47.9249 142.433 47.2324 144.119 47.2292 145.877V475.677C47.2324 477.436 47.9249 479.121 49.155 480.365C50.3851 481.608 52.0525 482.308 53.7921 482.312H285.874C287.614 482.308 289.281 481.608 290.511 480.365C291.742 479.121 292.434 477.436 292.437 475.677V145.877C292.434 144.119 291.742 142.433 290.511 141.19C289.281 139.946 287.614 139.246 285.874 139.243H53.7921Z" fill="#EBEBEB" stroke="#EBEBEB"/>
<path d="M545.879 482.615H313.773C311.953 482.612 310.209 481.88 308.923 480.58C307.637 479.279 306.912 477.516 306.909 475.677V145.877C306.928 144.049 307.659 142.301 308.944 141.014C310.229 139.727 311.964 139.003 313.773 139H545.879C547.685 139.006 549.415 139.732 550.695 141.019C551.976 142.306 552.702 144.052 552.718 145.877V475.677C552.718 477.513 551.998 479.274 550.716 480.575C549.434 481.875 547.695 482.609 545.879 482.615ZM313.773 139.243C312.033 139.246 310.366 139.946 309.135 141.19C307.905 142.433 307.213 144.119 307.21 145.877V475.677C307.213 477.436 307.905 479.121 309.135 480.365C310.366 481.608 312.033 482.308 313.773 482.312H545.879C547.618 482.308 549.286 481.608 550.516 480.365C551.746 479.121 552.439 477.436 552.442 475.677V145.877C552.439 144.119 551.746 142.433 550.516 141.19C549.286 139.946 547.618 139.246 545.879 139.243H313.773Z" fill="#EBEBEB" stroke="#EBEBEB"/>
<path d="M602 536.806H1V537.11H602V536.806Z" fill="#EBEBEB" stroke="#EBEBEB"/>
<path d="M299.865 388.51H296.259V344.89C296.318 340.226 294.607 335.716 291.476 332.29C288.346 328.863 284.035 326.78 279.431 326.47C277.105 326.352 274.779 326.698 272.585 327.489C270.392 328.281 268.374 329.501 266.647 331.081C264.92 332.66 263.518 334.568 262.521 336.696C261.524 338.824 260.951 341.129 260.836 343.48C260.827 343.71 260.731 343.928 260.567 344.088C260.404 344.249 260.186 344.34 259.958 344.343H258.107C257.989 344.343 257.873 344.319 257.764 344.273C257.655 344.227 257.557 344.16 257.474 344.075C257.391 343.99 257.326 343.89 257.282 343.779C257.238 343.669 257.216 343.551 257.218 343.432C257.458 337.939 259.76 332.746 263.654 328.909C267.549 325.072 272.743 322.879 278.181 322.776C290.105 322.569 299.817 332.849 299.817 344.914L299.865 388.51Z" fill="#F0F0F0"/>
<path d="M533.113 393.273H507.486V536.758H533.113V393.273Z" fill="#E6E6E6"/>
<path d="M514.482 393.273H236.82V536.758H514.482V393.273Z" fill="#F5F5F5"/>
<path d="M514.482 423.151H236.82V425.581H305.034V536.758H307.438V425.581H373.788V536.758H376.192V425.581H442.555V536.758H444.959V425.581H514.482V423.151Z" fill="#E0E0E0"/>
<path d="M298.122 486.941C297.484 486.941 296.873 486.685 296.422 486.229C295.971 485.774 295.718 485.156 295.718 484.511V473.576C295.718 472.931 295.971 472.313 296.422 471.857C296.873 471.402 297.484 471.146 298.122 471.146C298.759 471.146 299.371 471.402 299.822 471.857C300.272 472.313 300.526 472.931 300.526 473.576V484.511C300.526 485.156 300.272 485.774 299.822 486.229C299.371 486.685 298.759 486.941 298.122 486.941Z" fill="#E6E6E6"/>
<path d="M314.349 486.941C313.712 486.941 313.1 486.685 312.649 486.229C312.199 485.774 311.945 485.156 311.945 484.511V473.576C311.945 472.931 312.199 472.313 312.649 471.857C313.1 471.402 313.712 471.146 314.349 471.146C314.987 471.146 315.598 471.402 316.049 471.857C316.5 472.313 316.753 472.931 316.753 473.576V484.511C316.753 485.156 316.5 485.774 316.049 486.229C315.598 486.685 314.987 486.941 314.349 486.941Z" fill="#E6E6E6"/>
<path d="M435.643 486.941C435.006 486.941 434.394 486.685 433.943 486.229C433.493 485.774 433.239 485.156 433.239 484.511V473.576C433.239 472.931 433.493 472.313 433.943 471.857C434.394 471.402 435.006 471.146 435.643 471.146C436.281 471.146 436.892 471.402 437.343 471.857C437.794 472.313 438.047 472.931 438.047 473.576V484.511C438.047 485.156 437.794 485.774 437.343 486.229C436.892 486.685 436.281 486.941 435.643 486.941Z" fill="#E6E6E6"/>
<path d="M451.87 486.941C451.232 486.941 450.621 486.685 450.17 486.229C449.719 485.774 449.466 485.156 449.466 484.511V473.576C449.466 472.931 449.719 472.313 450.17 471.857C450.621 471.402 451.232 471.146 451.87 471.146C452.507 471.146 453.119 471.402 453.57 471.857C454.021 472.313 454.274 472.931 454.274 473.576V484.511C454.274 485.156 454.021 485.774 453.57 486.229C453.119 486.685 452.507 486.941 451.87 486.941Z" fill="#E6E6E6"/>
<path d="M539.124 390.126H507.271V396.408H539.124V390.126Z" fill="#E0E0E0"/>
<path d="M516.887 390.126H230.811V396.408H516.887V390.126Z" fill="#EBEBEB"/>
<path d="M333.016 390.843H238.191C237.579 390.843 236.992 390.597 236.559 390.159C236.126 389.722 235.883 389.128 235.883 388.51C235.883 387.891 236.126 387.298 236.559 386.86C236.992 386.423 237.579 386.177 238.191 386.177H333.016C333.629 386.177 334.216 386.423 334.648 386.86C335.081 387.298 335.324 387.891 335.324 388.51C335.324 389.128 335.081 389.722 334.648 390.159C334.216 390.597 333.629 390.843 333.016 390.843Z" fill="#E6E6E6"/>
<path d="M308.928 382.253H305.334V386.87H308.928V382.253Z" fill="#E0E0E0"/>
<path d="M310.466 383.406H303.783L305.081 375.326H309.168L310.466 383.406Z" fill="#F0F0F0"/>
<path d="M290.742 382.253H287.148V386.87H290.742V382.253Z" fill="#E0E0E0"/>
<path d="M292.293 383.406H285.598L286.908 375.326H290.983L292.293 383.406Z" fill="#F0F0F0"/>
<path d="M366.973 160.154H364.81V330.71H366.973V160.154Z" fill="#E0E0E0"/>
<path d="M501.657 160.154H499.493V330.71H501.657V160.154Z" fill="#E0E0E0"/>
<path d="M510.131 170.883H356.335L353.09 163.228H513.377L510.131 170.883Z" fill="#EBEBEB"/>
<path d="M510.131 181.393H356.335L353.09 173.738H513.377L510.131 181.393Z" fill="#EBEBEB"/>
<path d="M510.131 191.903H356.335L353.09 184.248H513.377L510.131 191.903Z" fill="#EBEBEB"/>
<path d="M510.131 202.413H356.335L353.09 194.758H513.377L510.131 202.413Z" fill="#EBEBEB"/>
<path d="M510.131 212.923H356.335L353.09 205.269H513.377L510.131 212.923Z" fill="#EBEBEB"/>
<path d="M510.131 223.434H356.335L353.09 215.779H513.377L510.131 223.434Z" fill="#EBEBEB"/>
<path d="M510.131 233.944H356.335L353.09 226.289H513.377L510.131 233.944Z" fill="#EBEBEB"/>
<path d="M510.131 244.442H356.335L353.09 236.799H513.377L510.131 244.442Z" fill="#EBEBEB"/>
<path d="M510.131 254.964H356.335L353.09 247.297H513.377L510.131 254.964Z" fill="#EBEBEB"/>
<path d="M510.131 265.462H356.335L353.09 257.807H513.377L510.131 265.462Z" fill="#EBEBEB"/>
<path d="M510.131 275.972H356.335L353.09 268.318H513.377L510.131 275.972Z" fill="#EBEBEB"/>
<path d="M510.131 286.483H356.335L353.09 278.828H513.377L510.131 286.483Z" fill="#EBEBEB"/>
<path d="M510.131 296.992H356.335L353.09 289.338H513.377L510.131 296.992Z" fill="#EBEBEB"/>
<path d="M510.131 307.502H356.335L353.09 299.848H513.377L510.131 307.502Z" fill="#EBEBEB"/>
<path d="M510.131 318.013H356.335L353.09 310.358H513.377L510.131 318.013Z" fill="#EBEBEB"/>
<path d="M510.131 328.523H356.335L353.09 320.868H513.377L510.131 328.523Z" fill="#EBEBEB"/>
<path d="M513.377 328.523H353.09V332.897H513.377V328.523Z" fill="#E0E0E0"/>
<path d="M518.966 153.641H347.501V163.848H518.966V153.641Z" fill="#E0E0E0"/>
<path d="M349.267 256.386C348.805 256.386 348.362 256.2 348.035 255.87C347.708 255.539 347.524 255.091 347.524 254.624V195.087C347.524 194.619 347.708 194.171 348.035 193.841C348.362 193.51 348.805 193.325 349.267 193.325C349.73 193.325 350.173 193.51 350.5 193.841C350.827 194.171 351.01 194.619 351.01 195.087V254.624C351.01 255.091 350.827 255.539 350.5 255.87C350.173 256.2 349.73 256.386 349.267 256.386Z" fill="#E0E0E0"/>
<path d="M349.892 161.807H348.63V197.165H349.892V161.807Z" fill="#E0E0E0"/>
<path d="M147.669 458.679H198.453V450.781H147.669V458.679Z" fill="#E0E0E0"/>
<path d="M201.458 536.745H146.166V459.31C146.166 458.257 146.58 457.246 147.317 456.501C148.054 455.756 149.054 455.337 150.096 455.337H197.575C198.618 455.337 199.618 455.756 200.355 456.501C201.092 457.246 201.506 458.257 201.506 459.31V536.745H201.458Z" fill="#F0F0F0"/>
<path d="M150.505 453.211H197.119C199.515 453.211 201.458 451.247 201.458 448.825V445.447C201.458 443.024 199.515 441.06 197.119 441.06H150.505C148.109 441.06 146.166 443.024 146.166 445.447V448.825C146.166 451.247 148.109 453.211 150.505 453.211Z" fill="#F0F0F0"/>
<path d="M185.23 536.758H211.073V533.113L185.23 530.683V536.758Z" fill="#E0E0E0"/>
<path d="M491.548 342.059H469.179C466.984 342.062 464.879 342.945 463.327 344.514C461.774 346.084 460.901 348.211 460.897 350.431V353.225H465.357V350.418C465.355 349.91 465.453 349.406 465.644 348.936C465.836 348.466 466.117 348.038 466.472 347.678C466.827 347.318 467.249 347.033 467.714 346.838C468.178 346.643 468.676 346.542 469.179 346.542H491.548C492.563 346.546 493.536 346.955 494.252 347.682C494.969 348.408 495.371 349.392 495.371 350.418V353.213H499.83V350.418C499.827 348.2 498.953 346.074 497.4 344.507C495.848 342.939 493.743 342.059 491.548 342.059Z" fill="#E0E0E0"/>
<path d="M518.052 359.337V384.67C518.052 386.282 517.419 387.827 516.292 388.966C515.165 390.106 513.636 390.746 512.042 390.746H457.615C456.022 390.746 454.493 390.106 453.366 388.966C452.239 387.827 451.605 386.282 451.605 384.67V359.337C451.605 357.725 452.239 356.18 453.366 355.041C454.493 353.901 456.022 353.261 457.615 353.261H511.994C512.787 353.255 513.574 353.407 514.309 353.71C515.043 354.012 515.712 354.459 516.275 355.024C516.838 355.588 517.285 356.26 517.59 357C517.895 357.741 518.052 358.535 518.052 359.337Z" fill="#E6E6E6"/>
<path d="M509.578 359.337V384.67C509.578 386.282 508.945 387.827 507.818 388.966C506.691 390.106 505.162 390.746 503.568 390.746H449.142C447.548 390.746 446.019 390.106 444.892 388.966C443.765 387.827 443.132 386.282 443.132 384.67V359.337C443.132 357.725 443.765 356.18 444.892 355.041C446.019 353.901 447.548 353.261 449.142 353.261H503.52C504.314 353.255 505.1 353.407 505.835 353.71C506.57 354.012 507.238 354.459 507.801 355.024C508.364 355.588 508.811 356.26 509.116 357C509.421 357.741 509.578 358.535 509.578 359.337Z" fill="#F5F5F5"/>
<path d="M490.731 357.575H462.352V386.262H490.731V357.575Z" fill="white"/>
<path d="M478.964 364.027H474.168V380.709H478.964V364.027Z" fill="#E0E0E0"/>
<path d="M468.313 369.932V374.78H484.817V369.932H468.313Z" fill="#E0E0E0"/>
<path d="M295.706 587C424.419 587 528.762 580.842 528.762 573.246C528.762 565.649 424.419 559.491 295.706 559.491C166.993 559.491 62.6504 565.649 62.6504 573.246C62.6504 580.842 166.993 587 295.706 587Z" fill="#F5F5F5"/>
<path d="M417.817 360.272C418.61 360.175 441.592 362.471 443.059 387.368L439.128 404.621C420.551 397.648 400.07 397.925 381.685 405.399L381.408 405.52L383.007 385.812C383.007 385.812 388.897 363.699 417.817 360.272Z" fill="#263238"/>
<path d="M369.558 480.513L374.173 480.914C375.859 451.286 379.17 421.776 384.09 392.519C384.976 387.791 386.781 383.288 389.401 379.271C392.022 375.254 395.405 371.803 399.355 369.118C401.024 367.901 402.842 366.908 404.764 366.165C408.297 364.635 412.088 363.81 415.931 363.735C417.491 363.735 419.049 363.845 420.595 364.063C424.081 364.604 427.409 365.91 430.343 367.89C431.718 368.954 433.034 370.094 434.285 371.305C434.946 371.995 435.561 372.73 436.124 373.504C438.151 376.444 439.549 379.779 440.228 383.296C440.907 386.813 440.852 390.434 440.067 393.929C435.174 420.674 431.759 447.673 429.838 474.802L434.454 475.118C436.341 448.203 439.708 421.414 444.538 394.877C445.461 390.742 445.517 386.458 444.704 382.3C443.89 378.142 442.225 374.202 439.815 370.734C437.438 367.35 434.354 364.538 430.781 362.497C427.207 360.456 423.233 359.236 419.14 358.923C401.11 357.708 382.347 372.52 379.57 391.523C374.612 420.977 371.269 450.686 369.558 480.513Z" fill="#263238"/>
<path opacity="0.3" d="M369.558 480.513L374.173 480.914C375.859 451.286 379.17 421.776 384.09 392.519C384.976 387.791 386.781 383.288 389.401 379.271C392.022 375.254 395.405 371.803 399.355 369.118C401.024 367.901 402.842 366.908 404.764 366.165C408.297 364.635 412.088 363.81 415.931 363.735C417.491 363.735 419.049 363.845 420.595 364.063C424.081 364.604 427.409 365.91 430.343 367.89C431.718 368.954 433.034 370.094 434.285 371.305C434.946 371.995 435.561 372.73 436.124 373.504C438.151 376.444 439.549 379.779 440.228 383.296C440.907 386.813 440.852 390.434 440.067 393.929C435.174 420.674 431.759 447.673 429.838 474.802L434.454 475.118C436.341 448.203 439.708 421.414 444.538 394.877C445.461 390.742 445.517 386.458 444.704 382.3C443.89 378.142 442.225 374.202 439.815 370.734C437.438 367.35 434.354 364.538 430.781 362.497C427.207 360.456 423.233 359.236 419.14 358.923C401.11 357.708 382.347 372.52 379.57 391.523C374.612 420.977 371.269 450.686 369.558 480.513Z" fill="white"/>
<path d="M434.537 477.695H328.352V475.204C328.352 472.842 329.281 470.576 330.933 468.906C332.585 467.236 334.826 466.297 337.163 466.297H425.714C428.051 466.297 430.292 467.236 431.944 468.906C433.597 470.576 434.525 472.842 434.525 475.204V477.695H434.537Z" fill="#263238"/>
<path d="M430.943 571.46H436.58L431.964 477.707H424.776L430.943 571.46Z" fill="#263238"/>
<path opacity="0.3" d="M430.943 571.46H436.58L431.964 477.707H424.776L430.943 571.46Z" fill="white"/>
<path d="M393.237 571.46H398.874L395.797 477.707H388.621L393.237 571.46Z" fill="#263238"/>
<path opacity="0.3" d="M393.237 571.46H398.874L395.797 477.707H388.621L393.237 571.46Z" fill="white"/>
<path d="M364.004 571.46H369.641L374.257 477.707H367.081L364.004 571.46Z" fill="#263238"/>
<path opacity="0.3" d="M364.004 571.46H369.641L374.257 477.707H367.081L364.004 571.46Z" fill="white"/>
<path d="M326.297 571.46H331.946L338.101 477.707H330.913L326.297 571.46Z" fill="#263238"/>
<path opacity="0.3" d="M326.297 571.46H331.946L338.101 477.707H330.913L326.297 571.46Z" fill="white"/>
<path d="M323.725 481.85H386.818V473.551H323.725V481.85Z" fill="#263238"/>
<path opacity="0.7" d="M323.725 481.85H386.818V473.551H323.725V481.85Z" fill="white"/>
<path d="M386.818 481.85H439.165V473.551H386.818V481.85Z" fill="#263238"/>
<path opacity="0.4" d="M386.818 481.85H439.165V473.551H386.818V481.85Z" fill="white"/>
<path d="M367.85 345.4C356.383 347.684 333.665 357.55 333.521 357.016C333.521 357.016 314.397 352.435 306.536 343.65C306.536 343.65 299.023 342.715 295.093 341.925C297.942 348.717 303.507 356.955 309.685 360.88C317.534 365.861 319.674 367.368 327.439 370.357C337.151 374.099 352.02 370.126 361.648 366.141C365.193 364.67 368.86 362.799 370.915 359.543C372.97 356.287 371.035 347.575 367.85 345.4Z" fill="#407BFF"/>
<path opacity="0.7" d="M367.85 345.4C356.383 347.684 333.665 357.55 333.521 357.016C333.521 357.016 314.397 352.435 306.536 343.65C306.536 343.65 299.023 342.715 295.093 341.925C297.942 348.717 303.507 356.955 309.685 360.88C317.534 365.861 319.674 367.368 327.439 370.357C337.151 374.099 352.02 370.126 361.648 366.141C365.193 364.67 368.86 362.799 370.915 359.543C372.97 356.287 371.035 347.575 367.85 345.4Z" fill="white"/>
<path d="M337.392 344.829H308.821C304.83 330.248 312.823 315.583 308.821 300.966H337.392C341.395 315.583 333.39 330.212 337.392 344.829Z" fill="#407BFF"/>
<g opacity="0.7">
<path d="M337.392 344.829H308.821C304.83 330.248 312.823 315.583 308.821 300.966H337.392C341.395 315.583 333.39 330.212 337.392 344.829Z" fill="white"/>
</g>
<path d="M313.291 337.053L308.712 339.276C308.204 340.79 307.236 342.104 305.947 343.031C304.662 343.763 303.299 344.346 301.884 344.768C300.871 345.09 299.787 345.109 298.763 344.822C297.74 344.536 296.82 343.956 296.115 343.152C295.808 342.839 295.6 342.441 295.519 342.008C295.438 341.575 295.486 341.127 295.658 340.722L300.045 332.435C300.293 331.969 300.644 331.567 301.072 331.261C301.5 330.955 301.992 330.754 302.509 330.674L309.721 329.519C310.171 329.443 310.632 329.492 311.056 329.661C311.479 329.83 311.849 330.113 312.125 330.479L314.241 333.286C314.459 333.586 314.608 333.93 314.678 334.295C314.748 334.66 314.738 335.036 314.647 335.396C314.556 335.756 314.387 336.092 314.153 336.378C313.919 336.665 313.624 336.895 313.291 337.053Z" fill="#CE7A63"/>
<path d="M409.464 413.978L416.231 438.935L379.065 446.99L356.624 434.974L362.898 413.504L409.464 413.978Z" fill="#407BFF"/>
<path opacity="0.1" d="M409.464 413.978L416.231 438.935L379.065 446.99L356.624 434.974L362.898 413.504L409.464 413.978Z" fill="black"/>
<path d="M359.281 359.75C358.605 366.146 358.577 372.594 359.197 378.996C359.545 387.599 361.396 396.639 363.716 410.587C368.368 413.345 391.939 412.203 406.988 410.235C406.075 398.084 407.577 384.087 415.751 356.639C417.65 350.272 413.419 344.161 406.664 343.517C404.861 343.334 402.938 343.189 400.978 343.104C394.094 342.642 387.188 342.642 380.304 343.104C378.104 343.31 375.724 343.577 373.501 343.857C365.483 344.89 360.759 351.135 359.281 359.75Z" fill="#407BFF"/>
<path d="M362.898 413.503C378.1 415.196 393.44 415.164 408.634 413.406C408.775 413.375 408.908 413.315 409.026 413.231C409.144 413.148 409.244 413.041 409.321 412.918C409.399 412.795 409.451 412.658 409.475 412.514C409.5 412.371 409.496 412.224 409.464 412.082V411.936C409.091 411.049 408.707 410.162 408.358 409.275C408.281 409.08 408.143 408.915 407.965 408.805C407.788 408.696 407.58 408.647 407.372 408.667C392.76 410.284 378.016 410.284 363.403 408.667C363.276 408.65 363.147 408.659 363.023 408.692C362.899 408.726 362.783 408.784 362.682 408.863C362.58 408.942 362.495 409.041 362.431 409.153C362.367 409.265 362.326 409.389 362.309 409.518C362.315 409.542 362.315 409.567 362.309 409.591C362.213 410.514 362.129 411.426 362.045 412.349C362.028 412.485 362.038 412.623 362.075 412.754C362.111 412.886 362.173 413.009 362.257 413.117C362.341 413.224 362.445 413.314 362.563 413.38C362.682 413.446 362.812 413.488 362.946 413.503H362.898Z" fill="#407BFF"/>
<path d="M379.763 342.727C368.524 357.307 367.743 393.346 370.567 464.134C370.82 470.307 364.966 469.857 359.232 468.666C350.698 466.88 347.309 467.524 347.309 467.524C347.309 467.524 360.927 431.377 358.716 398.959C356.504 366.542 358.042 355.084 363.247 349.142C368.452 343.201 379.763 342.727 379.763 342.727Z" fill="#407BFF"/>
<path opacity="0.7" d="M379.763 342.727C368.524 357.307 367.743 393.346 370.567 464.134C370.808 470.307 365.254 469.638 359.22 468.666C355.289 467.942 351.304 467.56 347.309 467.524C347.309 467.524 360.927 431.377 358.716 398.959C356.504 366.542 358.042 355.084 363.247 349.142C368.452 343.201 379.763 342.727 379.763 342.727Z" fill="white"/>
<path d="M399.548 319.556C397.757 326.251 395.545 338.608 399.872 343.104C399.872 343.104 394.163 347.733 382.059 352.192C378.453 351.257 379.21 343.104 379.21 343.104C386.77 341.305 386.987 335.813 386.073 330.528L399.548 319.556Z" fill="#CE7A63"/>
<path opacity="0.2" d="M394.054 324.027L386.061 330.516C386.285 331.718 386.406 332.938 386.421 334.161C389.294 333.748 393.417 330.613 393.946 327.6C394.185 326.424 394.221 325.216 394.054 324.027Z" fill="black"/>
<path d="M387.143 294.951C379.272 305.706 375.877 319.147 377.683 332.399C373.884 325.109 370.471 329.082 370.194 320.868C370.074 316.737 372.202 299.982 374.017 296.276C375.832 292.57 379.546 289.581 383.633 289.751C385.109 289.76 386.525 290.343 387.587 291.379C388.585 292.46 388.044 293.773 387.143 294.951Z" fill="#263238"/>
<path d="M405.233 306.057C403.226 316.919 402.589 321.561 396.422 326.713C387.191 334.513 374.522 330.358 373.272 319.337C372.178 309.362 375.676 293.275 386.746 289.69C389.102 288.82 391.645 288.605 394.111 289.069C396.577 289.532 398.874 290.656 400.763 292.323C402.652 293.991 404.064 296.14 404.85 298.548C405.636 300.955 405.768 303.532 405.233 306.008V306.057Z" fill="#CE7A63"/>
<path d="M386.578 308.547C386.325 309.434 385.64 310.054 385.087 309.933C384.534 309.811 384.258 308.985 384.51 308.098C384.763 307.211 385.448 306.579 386.013 306.701C386.578 306.822 386.842 307.648 386.578 308.547Z" fill="#263238"/>
<path d="M377.443 306.324C377.19 307.211 376.517 307.831 375.952 307.709C375.387 307.588 375.123 306.749 375.387 305.874C375.652 305 376.313 304.356 376.878 304.489C377.443 304.623 377.707 305.461 377.443 306.324Z" fill="#263238"/>
<path d="M377.119 304.587L375.195 303.505C375.195 303.505 375.796 305.461 377.119 304.587Z" fill="#263238"/>
<path d="M380.003 308.45C378.635 310.311 377.04 311.989 375.255 313.444C375.613 313.872 376.064 314.211 376.572 314.435C377.081 314.658 377.634 314.76 378.188 314.732L380.003 308.45Z" fill="#BA4D3C"/>
<path d="M382.251 319.131C381.748 319.106 381.249 319.033 380.76 318.912C380.727 318.906 380.696 318.894 380.668 318.875C380.639 318.856 380.616 318.832 380.597 318.803C380.579 318.775 380.567 318.742 380.562 318.709C380.557 318.675 380.559 318.641 380.568 318.608C380.59 318.539 380.637 318.481 380.699 318.445C380.761 318.409 380.835 318.398 380.905 318.414C382.021 318.663 383.178 318.655 384.291 318.393C385.404 318.13 386.444 317.618 387.335 316.895C387.385 316.845 387.452 316.817 387.522 316.817C387.591 316.817 387.658 316.845 387.708 316.895C387.754 316.946 387.78 317.014 387.78 317.083C387.78 317.153 387.754 317.22 387.708 317.272C386.178 318.551 384.235 319.213 382.251 319.131Z" fill="#263238"/>
<path d="M379.029 291.148C382.395 286.47 391.542 285.195 396.903 286.483C415.895 291.063 407.18 307.017 418.178 315.984C414.981 321.78 411.904 320.552 408.178 323.165C406.002 324.696 400.233 329.471 397.624 329.24C397.756 323.809 400.112 317.563 399.019 312.229C398.065 306.921 395.748 301.96 392.299 297.843C388.802 293.955 384.078 290.881 379.029 291.148Z" fill="#263238"/>
<path opacity="0.2" d="M379.029 291.148C382.395 286.47 391.542 285.195 396.903 286.483C415.895 291.063 407.18 307.017 418.178 315.984C414.981 321.78 411.904 320.552 408.178 323.165C406.002 324.696 400.233 329.471 397.624 329.24C397.756 323.809 400.112 317.563 399.019 312.229C398.065 306.921 395.748 301.96 392.299 297.843C388.802 293.955 384.078 290.881 379.029 291.148Z" fill="black"/>
<path d="M379.029 291.148C382.395 286.47 391.542 285.195 396.903 286.483C415.895 291.063 407.18 307.017 418.178 315.984C414.981 321.78 411.904 320.552 408.178 323.165C406.002 324.696 400.233 329.471 397.624 329.24C397.756 323.809 400.112 317.563 399.019 312.229C398.065 306.921 395.748 301.96 392.299 297.843C388.802 293.955 384.078 290.881 379.029 291.148Z" fill="#263238"/>
<path opacity="0.1" d="M379.029 291.148C382.395 286.47 391.542 285.195 396.903 286.483C415.895 291.063 407.18 307.017 418.178 315.984C414.981 321.78 411.904 320.552 408.178 323.165C406.002 324.696 400.233 329.471 397.624 329.24C397.756 323.809 400.112 317.563 399.019 312.229C398.065 306.921 395.748 301.96 392.299 297.843C388.802 293.955 384.078 290.881 379.029 291.148Z" fill="black"/>
<path d="M404.596 317.053C404.044 317.952 403.312 318.724 402.446 319.318C401.581 319.913 400.601 320.317 399.571 320.504C397.011 320.868 396.266 317.855 397.456 315.085C398.561 312.655 401.122 309.398 403.466 310.322C405.81 311.245 406.074 314.684 404.596 317.053Z" fill="#CE7A63"/>
<path d="M390.676 305C390.611 304.979 390.552 304.943 390.504 304.894C390.456 304.846 390.42 304.786 390.4 304.72C390.178 304.102 389.809 303.549 389.324 303.11C388.84 302.671 388.255 302.36 387.623 302.205C387.497 302.187 387.384 302.119 387.307 302.017C387.231 301.914 387.197 301.785 387.214 301.658C387.209 301.638 387.209 301.617 387.214 301.597C387.246 301.454 387.331 301.329 387.452 301.247C387.573 301.166 387.72 301.135 387.863 301.16C388.668 301.34 389.414 301.722 390.032 302.273C390.65 302.823 391.12 303.523 391.397 304.307C391.444 304.442 391.436 304.591 391.375 304.72C391.314 304.85 391.206 304.95 391.073 305C390.945 305.05 390.804 305.05 390.676 305Z" fill="#263238"/>
<path d="M375.424 301.063C375.358 301.061 375.293 301.046 375.233 301.019C375.173 300.992 375.119 300.953 375.074 300.904C375.03 300.855 374.995 300.798 374.972 300.736C374.95 300.673 374.94 300.607 374.943 300.54C374.947 300.463 374.968 300.388 375.006 300.32C375.043 300.253 375.096 300.195 375.159 300.152C375.801 299.562 376.569 299.13 377.403 298.889C378.237 298.649 379.115 298.607 379.967 298.766C380.094 298.803 380.203 298.888 380.27 299.004C380.337 299.119 380.358 299.256 380.328 299.386C380.279 299.523 380.182 299.636 380.056 299.705C379.93 299.775 379.783 299.795 379.643 299.763C378.97 299.648 378.28 299.691 377.626 299.887C376.972 300.082 376.371 300.427 375.869 300.893C375.811 300.951 375.741 300.997 375.664 301.026C375.588 301.056 375.506 301.068 375.424 301.063Z" fill="#263238"/>
<path d="M386.253 306.81L384.33 305.729C384.33 305.729 384.931 307.636 386.253 306.81Z" fill="#263238"/>
<path d="M380.663 290.686C379.847 291.583 379.196 292.62 378.74 293.748C378.514 294.312 378.413 294.919 378.447 295.526C378.48 296.133 378.646 296.725 378.932 297.26C379.538 298.146 380.404 298.818 381.408 299.18C382.392 299.614 383.42 299.936 384.473 300.139C383.919 299.673 383.51 299.054 383.296 298.357C383.083 297.661 383.074 296.916 383.271 296.215C383.388 296.903 383.651 297.558 384.041 298.135C384.431 298.711 384.939 299.196 385.531 299.556C386.613 300.2 387.827 300.553 388.945 301.124C392.467 302.91 399.03 312.266 394.174 331.718C398.465 330.115 404.487 314.841 403.489 310.322C402.491 305.802 402.287 294.186 390.856 290.127C387.767 289.046 383.8 289.787 380.663 290.686Z" fill="#263238"/>
<path d="M325.143 561.083L314.817 562.091L308.699 532.687L320.875 531.266L325.143 561.083Z" fill="#CE7A63"/>
<path d="M310.551 559.661C311.508 558.677 312.793 558.088 314.157 558.009L325.227 557.231C325.476 557.2 325.728 557.267 325.93 557.418C326.132 557.57 326.267 557.795 326.309 558.045L328.448 568.434C328.57 569.004 328.464 569.6 328.154 570.092C327.843 570.583 327.353 570.931 326.79 571.059H326.742C322.559 572.152 319.926 571.265 313.52 571.715C309.577 571.994 301.199 573.574 295.826 572.675C290.453 571.775 291.138 566.393 293.422 566.283C301.668 566.016 308.423 561.836 310.551 559.661Z" fill="#263238"/>
<g opacity="0.2">
<path d="M308.7 532.7L312.258 549.795L323.208 547.487L320.888 531.278L308.7 532.7Z" fill="black"/>
</g>
<path d="M373.416 471.728C373.007 471.728 372.587 471.728 372.154 471.728C371.45 471.718 370.748 471.665 370.05 471.57L314.758 468.581C323.689 476.856 325.156 543.161 325.156 543.161L322.511 543.732L310.491 546.32L308.292 546.794C308.292 546.794 303.279 525.081 297.474 500.173C294.541 487.56 290.742 474.523 289.06 462.008C288.602 458.681 288.337 455.33 288.266 451.972C288.266 450.939 288.266 449.918 288.266 448.898C288.26 448.792 288.26 448.687 288.266 448.582C288.266 448.144 288.266 447.731 288.362 447.367C288.641 445.345 289.474 443.443 290.766 441.875L291.175 441.401C291.31 441.242 291.454 441.092 291.608 440.951C291.898 440.648 292.203 440.36 292.521 440.089C292.858 439.809 293.194 439.53 293.555 439.262L294.481 438.618C294.865 438.375 295.25 438.145 295.683 437.914C295.885 437.792 296.093 437.683 296.308 437.586C296.933 437.245 297.582 436.929 298.267 436.638L298.856 436.383L299.661 436.079C299.902 435.97 300.142 435.885 300.382 435.799C301.116 435.532 301.873 435.277 302.654 435.07L303.051 434.949H303.159C324.134 428.947 359.809 433.576 359.809 433.576C359.809 433.576 369.233 426.529 379.246 425.192L380.664 425.35L385.123 425.848C385.187 425.842 385.252 425.842 385.316 425.848C400.064 451.814 390.917 471.534 373.416 471.728Z" fill="#407BFF"/>
<g opacity="0.1">
<path d="M373.416 471.728C373.007 471.728 372.587 471.728 372.154 471.728C371.45 471.718 370.748 471.665 370.05 471.57L314.758 468.581C323.689 476.856 325.156 543.161 325.156 543.161L322.511 543.732L310.491 546.32L308.292 546.794C308.292 546.794 303.279 525.081 297.474 500.173C294.541 487.56 290.742 474.523 289.06 462.008C288.602 458.681 288.337 455.33 288.266 451.972C288.266 450.939 288.266 449.918 288.266 448.898C288.26 448.792 288.26 448.687 288.266 448.582C288.266 448.144 288.266 447.731 288.362 447.367C288.641 445.345 289.474 443.443 290.766 441.875L291.175 441.401C291.31 441.242 291.454 441.092 291.608 440.951C291.898 440.648 292.203 440.36 292.521 440.089C292.858 439.809 293.194 439.53 293.555 439.262L294.481 438.618C294.865 438.375 295.25 438.145 295.683 437.914C295.885 437.792 296.093 437.683 296.308 437.586C296.933 437.245 297.582 436.929 298.267 436.638L298.856 436.383L299.661 436.079C299.902 435.97 300.142 435.885 300.382 435.799C301.116 435.532 301.873 435.277 302.654 435.07L303.051 434.949H303.159C324.134 428.947 359.809 433.576 359.809 433.576C359.809 433.576 369.233 426.529 379.246 425.192L380.664 425.35L385.123 425.848C385.187 425.842 385.252 425.842 385.316 425.848C400.064 451.814 390.917 471.534 373.416 471.728Z" fill="black"/>
</g>
<path d="M256.785 511.157L253.828 515.737L247.241 525.944L236.219 527.11L244.573 509.371L250.246 497.293L256.785 511.157Z" fill="#CE7A63"/>
<path d="M238.996 519.468L248.119 525.227C248.324 525.343 248.479 525.53 248.557 525.754C248.634 525.978 248.628 526.223 248.54 526.442L244.068 536.989C243.942 537.241 243.768 537.466 243.556 537.65C243.344 537.834 243.098 537.974 242.832 538.062C242.567 538.15 242.286 538.184 242.008 538.163C241.729 538.141 241.457 538.064 241.208 537.936H241.147C236.892 535.324 234.981 533.854 229.584 530.646L216.158 522.773C211.566 520.051 214.042 515.361 216.218 516.078C225.834 519.31 232.361 519.723 236.652 519.042C237.458 518.898 238.289 519.049 238.996 519.468Z" fill="#263238"/>
<g opacity="0.2">
<path d="M256.785 511.157L253.84 515.737H253.828L244.572 509.371L250.246 497.293L256.785 511.157Z" fill="black"/>
</g>
<path d="M376.974 472.749C375.757 472.602 374.551 472.366 373.368 472.045C372.959 471.947 372.538 471.826 372.106 471.692C361.961 468.74 347.356 460.66 333.762 452.701C321.237 445.411 309.614 438.12 303.171 435.156H303.063L302.666 435.277C301.885 435.496 301.127 435.751 300.394 436.018C300.148 436.091 299.907 436.181 299.673 436.286L298.868 436.589L298.279 436.845C297.594 437.136 296.944 437.464 296.319 437.792C296.103 437.89 295.899 438.011 295.694 438.12C295.286 438.351 294.901 438.582 294.492 438.825L293.567 439.481C293.206 439.749 292.87 440.016 292.533 440.295C292.214 440.567 291.91 440.855 291.62 441.158C291.463 441.304 291.319 441.462 291.187 441.608L290.778 442.081C289.486 443.65 288.653 445.552 288.374 447.573C288.374 447.987 288.29 448.412 288.278 448.789C288.278 449.809 288.278 450.83 288.278 451.863C288.337 455.24 288.59 458.612 289.035 461.96V462.215C273.938 489.736 258.24 514.693 258.24 514.693L255.572 512.834L245.956 506.175L244.297 504.96C244.297 504.96 261.053 465.277 272.58 429.919C274.688 423.417 278.787 417.761 284.283 413.769C289.78 409.776 296.39 407.654 303.159 407.708C331.61 407.963 368.968 423.856 368.968 423.856L379.221 424.961L380.64 425.119L385.099 425.618C385.163 425.612 385.227 425.612 385.291 425.618C387.695 425.885 390.388 426.079 392.996 426.274C395.879 426.484 398.625 427.594 400.856 429.451C403.087 431.308 404.692 433.819 405.449 436.638C413.094 464.803 394.907 474.973 376.974 472.749Z" fill="#407BFF"/>
<path d="M376.974 472.749C375.757 472.602 374.551 472.366 373.368 472.045C372.959 471.947 372.538 471.826 372.106 471.692C361.961 468.74 347.356 460.66 333.762 452.701C321.237 445.411 309.614 438.12 303.171 435.156H303.063L302.666 435.277C301.885 435.496 301.127 435.751 300.394 436.018C300.148 436.091 299.907 436.181 299.673 436.286L298.868 436.589L298.279 436.845C297.594 437.136 296.944 437.464 296.319 437.792C296.103 437.89 295.899 438.011 295.694 438.12C295.286 438.351 294.901 438.582 294.492 438.825L293.567 439.481C293.206 439.749 292.87 440.016 292.533 440.295C292.214 440.567 291.91 440.855 291.62 441.158C291.463 441.304 291.319 441.462 291.187 441.608L290.778 442.081C289.486 443.65 288.653 445.552 288.374 447.573C288.374 447.987 288.29 448.412 288.278 448.789C288.278 449.809 288.278 450.83 288.278 451.863C288.337 455.24 288.59 458.612 289.035 461.96V462.215C273.938 489.736 258.24 514.693 258.24 514.693L255.572 512.834L245.956 506.175L244.297 504.96C244.297 504.96 261.053 465.277 272.58 429.919C274.688 423.417 278.787 417.761 284.283 413.769C289.78 409.776 296.39 407.654 303.159 407.708C331.61 407.963 368.968 423.856 368.968 423.856L379.221 424.961L380.64 425.119L385.099 425.618C385.163 425.612 385.227 425.612 385.291 425.618C387.695 425.885 390.388 426.079 392.996 426.274C395.879 426.484 398.625 427.594 400.856 429.451C403.087 431.308 404.692 433.819 405.449 436.638C413.094 464.803 394.907 474.973 376.974 472.749Z" fill="#407BFF"/>
<path d="M400.34 342.058C400.34 342.058 392.515 349.081 390.183 366.031C386.457 393.358 388.404 446.042 389.798 476.139C389.848 477.166 390.138 478.167 390.643 479.059C391.149 479.952 391.855 480.711 392.706 481.275C393.557 481.839 394.528 482.191 395.539 482.304C396.55 482.416 397.573 482.286 398.525 481.923C407.816 478.423 422.998 481.169 429.777 475.228C430.27 466.163 414.668 419.846 416.182 395.873C417.697 371.9 420.654 351.013 417.589 346.493C414.524 341.973 400.34 342.058 400.34 342.058Z" fill="#407BFF"/>
<path opacity="0.7" d="M400.34 342.058C400.34 342.058 392.515 349.081 390.183 366.031C386.457 393.358 388.608 446.042 390.015 476.139C390.063 477.166 390.351 478.166 390.855 479.059C391.359 479.952 392.064 480.711 392.914 481.275C393.764 481.839 394.734 482.192 395.745 482.304C396.756 482.417 397.778 482.286 398.729 481.923C408.021 478.423 422.998 481.169 429.813 475.228C430.306 466.163 414.704 419.846 416.218 395.873C417.733 371.9 420.69 351.013 417.625 346.493C414.56 341.973 400.34 342.058 400.34 342.058Z" fill="white"/>
<path d="M399.992 378.024C399.94 378.021 399.888 378.007 399.842 377.984C399.795 377.961 399.753 377.929 399.718 377.89C399.683 377.85 399.657 377.804 399.64 377.754C399.623 377.704 399.616 377.651 399.619 377.599C399.622 377.528 399.644 377.459 399.682 377.399C399.72 377.339 399.773 377.291 399.835 377.258L401.506 376.432C403.067 375.676 404.364 374.457 405.223 372.938C406.081 371.418 406.462 369.67 406.314 367.927L404.956 351.487C404.855 350.263 404.35 349.109 403.521 348.211C402.692 347.313 401.588 346.723 400.387 346.536C399.186 346.349 397.958 346.577 396.901 347.182C395.843 347.787 395.018 348.734 394.559 349.871L388.356 365.108C387.691 366.723 387.527 368.505 387.885 370.217C388.244 371.929 389.108 373.49 390.364 374.695L391.722 375.995C391.795 376.072 391.835 376.174 391.835 376.28C391.835 376.387 391.795 376.489 391.722 376.566C391.685 376.604 391.641 376.634 391.592 376.654C391.544 376.675 391.492 376.685 391.439 376.685C391.387 376.685 391.335 376.675 391.286 376.654C391.238 376.634 391.194 376.604 391.157 376.566L389.799 375.266C388.428 373.946 387.487 372.236 387.101 370.364C386.714 368.491 386.901 366.543 387.635 364.78L393.885 349.58C394.418 348.278 395.367 347.195 396.581 346.504C397.796 345.813 399.204 345.555 400.581 345.771C401.958 345.987 403.223 346.664 404.174 347.694C405.124 348.724 405.704 350.047 405.821 351.451L407.168 367.866C407.323 369.775 406.898 371.686 405.951 373.344C405.004 375.003 403.579 376.33 401.867 377.149L400.196 377.963C400.137 378.008 400.065 378.03 399.992 378.024Z" fill="#263238"/>
<path d="M405.593 355.084C405.497 355.079 405.405 355.039 405.335 354.973C405.265 354.906 405.22 354.816 405.209 354.719C404.938 353.43 404.286 352.255 403.34 351.349C402.393 350.443 401.197 349.85 399.909 349.647C398.621 349.444 397.302 349.641 396.128 350.213C394.954 350.785 393.979 351.704 393.333 352.848C393.322 352.907 393.299 352.963 393.264 353.012C393.23 353.061 393.185 353.101 393.134 353.131C393.082 353.161 393.025 353.179 392.965 353.184C392.906 353.189 392.847 353.181 392.791 353.16C392.735 353.14 392.685 353.107 392.642 353.065C392.6 353.022 392.568 352.971 392.548 352.915C392.527 352.859 392.519 352.798 392.524 352.739C392.529 352.679 392.546 352.621 392.576 352.569C393.288 351.255 394.383 350.194 395.713 349.532C397.042 348.87 398.542 348.638 400.006 348.868C401.471 349.097 402.83 349.778 403.898 350.816C404.967 351.854 405.693 353.2 405.978 354.671C405.988 354.775 405.957 354.88 405.892 354.961C405.827 355.043 405.733 355.096 405.629 355.108L405.593 355.084Z" fill="#263238"/>
<path d="M400.413 346.53C400.362 346.527 400.311 346.513 400.265 346.49C400.218 346.467 400.177 346.435 400.144 346.395C400.11 346.355 400.084 346.309 400.069 346.259C400.053 346.209 400.048 346.157 400.053 346.105C400.221 344.124 400.053 340.503 398.214 339.519C398.168 339.494 398.127 339.459 398.095 339.418C398.062 339.377 398.038 339.329 398.023 339.279C398.009 339.228 398.004 339.175 398.01 339.122C398.016 339.07 398.032 339.019 398.057 338.972C398.083 338.926 398.117 338.885 398.157 338.852C398.198 338.819 398.245 338.795 398.295 338.78C398.346 338.766 398.398 338.761 398.45 338.767C398.502 338.773 398.552 338.789 398.598 338.814C401.243 340.273 400.858 345.57 400.798 346.178C400.789 346.274 400.744 346.364 400.673 346.429C400.602 346.495 400.509 346.53 400.413 346.53Z" fill="#263238"/>
<path d="M392.323 376.408C392.203 377.173 391.71 377.72 391.217 377.623C390.724 377.526 390.424 376.882 390.544 376.128C390.664 375.375 391.145 374.816 391.638 374.913C392.131 375.011 392.431 375.667 392.323 376.408Z" fill="#263238"/>
<path d="M400.893 377.769C400.785 378.51 400.292 379.057 399.799 378.984C399.306 378.911 399.006 378.231 399.126 377.478C399.246 376.724 399.727 376.19 400.22 376.263C400.713 376.335 401.013 377.004 400.893 377.769Z" fill="#263238"/>
<path d="M379.222 362.01C378.813 363.699 377.587 364.853 376.529 364.586C375.472 364.318 374.871 362.763 375.327 361.026C375.784 359.288 376.962 358.182 378.02 358.462C379.078 358.741 379.631 360.321 379.222 362.01Z" fill="#263238"/>
<path d="M375.808 361.426H375.724C375.672 361.423 375.621 361.41 375.574 361.387C375.527 361.364 375.485 361.331 375.45 361.292C375.416 361.252 375.389 361.206 375.372 361.156C375.355 361.106 375.348 361.054 375.351 361.001C375.772 354.197 379.775 342.933 384.162 339.252C384.198 339.212 384.242 339.181 384.29 339.159C384.339 339.138 384.391 339.127 384.444 339.127C384.498 339.127 384.55 339.138 384.599 339.159C384.647 339.181 384.691 339.212 384.727 339.252C384.764 339.289 384.794 339.333 384.814 339.382C384.835 339.431 384.845 339.484 384.845 339.537C384.845 339.59 384.835 339.643 384.814 339.692C384.794 339.741 384.764 339.785 384.727 339.823C384.7 339.854 384.668 339.878 384.631 339.896C380.4 343.541 376.505 354.367 376.109 361.062C376.105 361.147 376.074 361.23 376.02 361.296C375.965 361.362 375.891 361.408 375.808 361.426Z" fill="#263238"/>
<path d="M380.411 362.18C380.135 363.626 379.077 364.61 378.007 364.452C377.443 364.228 376.984 363.797 376.721 363.245C376.458 362.693 376.411 362.061 376.589 361.475C376.853 360.017 377.923 359.045 378.993 359.203C379.557 359.427 380.017 359.858 380.28 360.41C380.543 360.962 380.59 361.594 380.411 362.18Z" fill="white"/>
<path d="M380.495 362.313C380.122 364.1 379.149 365.412 378.343 365.242C377.538 365.072 377.141 363.468 377.574 361.669C378.007 359.871 378.92 358.571 379.726 358.753C380.531 358.936 380.832 360.515 380.495 362.313Z" fill="#263238"/>
<path d="M364.268 401.171L339.194 401.632C338.72 401.634 338.26 401.461 337.902 401.146C337.544 400.831 337.311 400.395 337.247 399.919L332.439 361.135C332.408 360.914 332.424 360.689 332.487 360.475C332.549 360.261 332.657 360.064 332.802 359.895C332.946 359.727 333.125 359.592 333.326 359.5C333.527 359.408 333.745 359.36 333.966 359.361L359.075 358.923C359.55 358.922 360.009 359.095 360.368 359.41C360.726 359.725 360.959 360.161 361.023 360.637L365.831 399.421C365.858 399.643 365.838 399.868 365.772 400.082C365.706 400.295 365.595 400.492 365.446 400.658C365.298 400.824 365.116 400.956 364.913 401.044C364.709 401.133 364.489 401.176 364.268 401.171Z" fill="#263238"/>
<path d="M349.917 362.143L343.907 362.253C343.316 362.257 342.745 362.041 342.301 361.647C341.858 361.252 341.574 360.707 341.503 360.114L341.046 356.493L351.383 356.299L351.816 359.871C351.865 360.151 351.853 360.438 351.78 360.712C351.708 360.987 351.576 361.241 351.394 361.458C351.213 361.675 350.987 361.849 350.731 361.967C350.476 362.086 350.198 362.146 349.917 362.143Z" fill="#263238"/>
<path opacity="0.7" d="M349.917 362.143L343.907 362.253C343.316 362.257 342.745 362.041 342.301 361.647C341.858 361.252 341.574 360.707 341.503 360.114L341.046 356.493L351.383 356.299L351.816 359.871C351.865 360.151 351.853 360.438 351.78 360.712C351.708 360.987 351.576 361.241 351.394 361.458C351.213 361.675 350.987 361.849 350.731 361.967C350.476 362.086 350.198 362.146 349.917 362.143Z" fill="white"/>
<path d="M360.229 358.984H359.027C359.501 358.988 359.957 359.163 360.314 359.477C360.672 359.791 360.906 360.224 360.975 360.698L365.783 399.494C365.814 399.715 365.797 399.94 365.735 400.154C365.672 400.367 365.565 400.565 365.42 400.733C365.275 400.902 365.096 401.037 364.896 401.129C364.695 401.221 364.477 401.268 364.256 401.268H365.458C365.678 401.269 365.896 401.221 366.096 401.129C366.297 401.037 366.475 400.902 366.619 400.733C366.763 400.565 366.869 400.367 366.93 400.153C366.991 399.939 367.006 399.714 366.973 399.494L362.165 360.698C362.096 360.226 361.864 359.795 361.509 359.481C361.154 359.167 360.701 358.991 360.229 358.984Z" fill="white"/>
<path opacity="0.2" d="M408.971 352.192C409.343 353.019 401.218 385.752 401.218 385.752L407.408 388.51L408.971 352.192Z" fill="black"/>
<path d="M422.301 373.334C420.895 386.177 419.597 391.195 418.695 392.592C414.032 410.004 399.199 401.244 397.059 400.527C393.357 399.312 389.535 396.76 386.001 395.108C379.126 391.961 372.635 389.47 366.204 385.472L369.498 378.291C369.498 378.291 394.175 383.71 397.408 384.367C398.814 384.682 405.822 385.849 405.666 382.046C406.387 380.758 407.024 358.753 409.043 349.969C409.277 348.984 409.706 348.058 410.305 347.247L410.51 346.98C411.856 345.133 412.746 345.145 415.21 345.242C420.583 345.461 423.119 349.653 423.684 355.06C424.213 360.139 422.902 368.328 422.301 373.334Z" fill="#407BFF"/>
<g opacity="0.7">
<path d="M422.301 373.334C420.895 386.177 419.597 391.195 418.695 392.592C414.032 410.004 399.199 401.244 397.059 400.527C393.357 399.312 389.535 396.76 386.001 395.108C379.126 391.961 372.635 389.47 366.204 385.472L369.498 378.291C369.498 378.291 394.175 383.71 397.408 384.367C398.814 384.682 405.822 385.849 405.666 382.046C406.387 380.758 407.024 358.753 409.043 349.969C409.277 348.984 409.706 348.058 410.305 347.247L410.51 346.98C411.856 345.133 412.746 345.145 415.21 345.242C420.583 345.461 423.119 349.653 423.684 355.06C424.213 360.139 422.902 368.328 422.301 373.334Z" fill="white"/>
</g>
<path d="M369.785 379.142C369.978 380.017 369.991 380.923 369.824 381.804C369.656 382.684 369.312 383.52 368.812 384.261C368.311 385.001 367.666 385.63 366.915 386.108C366.165 386.586 365.325 386.903 364.448 387.04C362.483 387.332 360.492 387.409 358.51 387.27L358.054 374.938L367.393 376.785C367.976 376.899 368.513 377.183 368.938 377.601C369.363 378.02 369.658 378.556 369.785 379.142Z" fill="#CE7A63"/>
<path d="M358.054 374.938L358.547 387.307L354.016 387.574C352.685 387.659 351.367 387.265 350.296 386.463C349.224 385.66 348.469 384.5 348.162 383.188L348.102 382.896C347.926 382.144 347.904 381.363 348.036 380.601C348.168 379.839 348.451 379.113 348.87 378.465C349.288 377.817 349.832 377.262 350.468 376.834C351.105 376.405 351.821 376.111 352.573 375.971L358.054 374.938Z" fill="#CE7A63"/>
<path d="M247.637 367.818L244.38 401.207H249.705L247.637 367.818Z" fill="#263238"/>
<path d="M287.388 401.013L249.152 401.171L247.289 367.83L285.513 367.66L287.388 401.013Z" fill="#407BFF"/>
<path opacity="0.6" d="M287.388 401.013L249.152 401.171L247.289 367.83L285.513 367.66L287.388 401.013Z" fill="white"/>
<path d="M285.512 367.66L247.288 367.83L246.928 361.585L285.163 361.427L285.512 367.66Z" fill="#263238"/>
<path d="M252.65 359.495C252.632 359.22 252.512 358.961 252.313 358.772C252.115 358.583 251.853 358.476 251.581 358.474C251.449 358.472 251.318 358.498 251.196 358.55C251.074 358.602 250.965 358.679 250.874 358.776C250.784 358.873 250.714 358.988 250.67 359.114C250.626 359.24 250.609 359.374 250.619 359.507C250.619 359.871 250.823 363.261 250.847 363.626C250.865 363.902 250.985 364.161 251.183 364.353C251.381 364.544 251.643 364.653 251.917 364.659C252.049 364.659 252.179 364.632 252.3 364.579C252.42 364.527 252.529 364.45 252.619 364.353C252.709 364.256 252.779 364.141 252.824 364.016C252.868 363.891 252.887 363.758 252.879 363.626C252.867 363.334 252.674 359.786 252.65 359.495Z" fill="#407BFF"/>
<path d="M260.007 359.471C259.991 359.193 259.872 358.932 259.674 358.74C259.475 358.549 259.212 358.44 258.937 358.438C258.804 358.437 258.673 358.465 258.552 358.518C258.43 358.571 258.32 358.65 258.23 358.748C258.14 358.846 258.071 358.962 258.027 359.088C257.983 359.215 257.965 359.349 257.975 359.483C257.975 359.847 258.18 363.237 258.204 363.602C258.225 363.878 258.348 364.136 258.548 364.325C258.748 364.514 259.012 364.62 259.286 364.622C259.417 364.623 259.547 364.596 259.668 364.543C259.789 364.49 259.898 364.413 259.988 364.316C260.078 364.22 260.147 364.105 260.192 363.98C260.237 363.855 260.255 363.722 260.247 363.59C260.223 363.298 260.031 359.762 260.007 359.471Z" fill="#407BFF"/>
<path d="M267.374 359.434C267.353 359.158 267.23 358.9 267.03 358.711C266.83 358.522 266.566 358.416 266.292 358.413C266.16 358.411 266.029 358.437 265.908 358.489C265.786 358.541 265.677 358.618 265.586 358.715C265.496 358.813 265.426 358.928 265.382 359.054C265.338 359.179 265.321 359.313 265.331 359.446C265.331 359.811 265.547 363.201 265.559 363.565C265.577 363.844 265.699 364.105 265.9 364.296C266.1 364.488 266.365 364.596 266.641 364.598C266.773 364.597 266.904 364.568 267.024 364.514C267.145 364.46 267.254 364.382 267.344 364.284C267.434 364.186 267.503 364.071 267.548 363.946C267.592 363.82 267.611 363.686 267.603 363.553C267.579 363.261 267.386 359.726 267.374 359.434Z" fill="#407BFF"/>
<path d="M274.731 359.409C274.713 359.131 274.591 358.87 274.391 358.679C274.19 358.487 273.925 358.379 273.649 358.377C273.518 358.378 273.389 358.406 273.269 358.46C273.149 358.513 273.041 358.59 272.951 358.686C272.861 358.783 272.792 358.896 272.746 359.021C272.701 359.145 272.681 359.277 272.688 359.409C272.688 359.774 272.904 363.176 272.928 363.541C272.946 363.816 273.067 364.074 273.265 364.263C273.463 364.452 273.725 364.559 273.998 364.561C274.13 364.563 274.261 364.538 274.383 364.486C274.504 364.434 274.614 364.357 274.704 364.259C274.795 364.162 274.864 364.047 274.908 363.921C274.952 363.795 274.97 363.662 274.959 363.528C274.947 363.237 274.743 359.701 274.731 359.409Z" fill="#407BFF"/>
<path d="M282.087 359.373C282.069 359.098 281.948 358.84 281.75 358.651C281.552 358.462 281.29 358.355 281.017 358.353C280.885 358.351 280.754 358.376 280.632 358.428C280.511 358.48 280.401 358.557 280.311 358.655C280.22 358.752 280.151 358.867 280.107 358.993C280.063 359.119 280.045 359.252 280.055 359.385C280.055 359.75 280.26 363.14 280.284 363.504C280.296 363.782 280.415 364.043 280.615 364.234C280.814 364.424 281.079 364.529 281.354 364.525C281.486 364.527 281.617 364.501 281.738 364.449C281.86 364.397 281.969 364.32 282.06 364.223C282.15 364.126 282.22 364.011 282.264 363.885C282.308 363.759 282.325 363.625 282.315 363.492C282.267 363.201 282.099 359.665 282.087 359.373Z" fill="#407BFF"/>
<g opacity="0.7">
<path d="M252.649 359.495C252.631 359.22 252.511 358.962 252.312 358.772C252.114 358.583 251.852 358.477 251.58 358.474C251.448 358.472 251.317 358.498 251.195 358.55C251.073 358.602 250.964 358.679 250.873 358.776C250.783 358.873 250.713 358.989 250.669 359.114C250.625 359.24 250.608 359.374 250.618 359.507C250.618 359.872 250.822 363.262 250.846 363.626C250.864 363.902 250.984 364.162 251.182 364.353C251.38 364.544 251.642 364.653 251.916 364.659C252.048 364.659 252.178 364.632 252.299 364.579C252.419 364.527 252.528 364.45 252.618 364.353C252.708 364.256 252.778 364.142 252.823 364.017C252.867 363.892 252.886 363.759 252.878 363.626C252.866 363.334 252.673 359.786 252.649 359.495Z" fill="white"/>
<path d="M260.006 359.471C259.991 359.193 259.871 358.932 259.673 358.741C259.474 358.549 259.211 358.441 258.936 358.438C258.803 358.438 258.672 358.465 258.551 358.518C258.429 358.572 258.32 358.65 258.229 358.748C258.139 358.846 258.07 358.962 258.026 359.089C257.982 359.215 257.964 359.349 257.974 359.483C257.974 359.847 258.179 363.237 258.203 363.602C258.224 363.878 258.347 364.136 258.547 364.325C258.747 364.514 259.011 364.62 259.285 364.623C259.416 364.623 259.546 364.596 259.667 364.543C259.788 364.491 259.897 364.414 259.987 364.317C260.077 364.22 260.146 364.105 260.191 363.98C260.236 363.855 260.254 363.722 260.246 363.59C260.222 363.298 260.03 359.762 260.006 359.471Z" fill="white"/>
<path d="M267.373 359.434C267.352 359.158 267.229 358.9 267.029 358.711C266.829 358.522 266.566 358.416 266.292 358.414C266.159 358.412 266.028 358.437 265.907 358.489C265.785 358.541 265.676 358.618 265.585 358.716C265.495 358.813 265.425 358.928 265.381 359.054C265.337 359.18 265.32 359.313 265.33 359.446C265.33 359.811 265.546 363.201 265.558 363.565C265.576 363.844 265.698 364.105 265.899 364.296C266.099 364.488 266.364 364.596 266.64 364.598C266.772 364.597 266.903 364.568 267.023 364.514C267.144 364.46 267.253 364.382 267.343 364.284C267.433 364.187 267.502 364.072 267.547 363.946C267.591 363.82 267.61 363.687 267.602 363.553C267.578 363.262 267.385 359.726 267.373 359.434Z" fill="white"/>
<path d="M274.73 359.41C274.712 359.131 274.59 358.87 274.39 358.679C274.189 358.487 273.924 358.379 273.648 358.377C273.517 358.378 273.388 358.407 273.268 358.46C273.148 358.513 273.04 358.59 272.95 358.687C272.86 358.783 272.791 358.897 272.746 359.021C272.7 359.145 272.68 359.277 272.687 359.41C272.687 359.774 272.903 363.176 272.927 363.541C272.945 363.816 273.066 364.074 273.264 364.263C273.462 364.453 273.724 364.559 273.997 364.562C274.129 364.564 274.26 364.538 274.382 364.486C274.503 364.434 274.613 364.357 274.703 364.26C274.794 364.162 274.863 364.047 274.907 363.921C274.951 363.796 274.969 363.662 274.959 363.529C274.946 363.237 274.742 359.701 274.73 359.41Z" fill="white"/>
<path d="M282.086 359.374C282.068 359.098 281.947 358.84 281.749 358.651C281.551 358.462 281.289 358.355 281.016 358.353C280.884 358.351 280.753 358.377 280.631 358.429C280.51 358.481 280.4 358.558 280.31 358.655C280.219 358.752 280.15 358.867 280.106 358.993C280.062 359.119 280.044 359.253 280.055 359.386C280.055 359.75 280.259 363.14 280.283 363.505C280.295 363.782 280.414 364.043 280.614 364.234C280.813 364.424 281.078 364.529 281.353 364.525C281.485 364.527 281.616 364.502 281.737 364.45C281.859 364.398 281.968 364.321 282.059 364.223C282.149 364.126 282.219 364.011 282.263 363.885C282.307 363.759 282.324 363.626 282.314 363.493C282.266 363.201 282.098 359.665 282.086 359.374Z" fill="white"/>
</g>
<path d="M288.458 400.077L250.222 400.235L247.289 367.83L285.513 367.66L288.458 400.077Z" fill="#407BFF"/>
<path opacity="0.8" d="M288.458 400.077L250.222 400.235L247.289 367.83L285.513 367.66L288.458 400.077Z" fill="white"/>
<path d="M277.423 375.667L258.491 375.74L257.975 370.041L276.906 369.956L277.423 375.667Z" fill="#407BFF"/>
<path opacity="0.6" d="M277.423 375.667L258.491 375.74L257.975 370.041L276.906 369.956L277.423 375.667Z" fill="white"/>
<path d="M255.979 383.128L250.919 383.152L250.45 378.036L255.511 378.012L255.979 383.128Z" fill="white"/>
<path d="M263.143 383.091L258.095 383.116L257.626 378.012L262.686 377.988L263.143 383.091Z" fill="white"/>
<path d="M256.592 390.017L251.544 390.041L251.075 384.926L256.136 384.901L256.592 390.017Z" fill="#407BFF"/>
<path d="M257.217 396.906L252.169 396.93L251.7 391.815L256.761 391.803L257.217 396.906Z" fill="#407BFF"/>
<path d="M263.768 389.992L258.72 390.004L258.251 384.901L263.299 384.877L263.768 389.992Z" fill="#407BFF"/>
<path opacity="0.2" d="M263.768 389.992L258.72 390.004L258.251 384.901L263.299 384.877L263.768 389.992Z" fill="white"/>
<path d="M270.944 389.956L265.884 389.98L265.427 384.865L270.475 384.841L270.944 389.956Z" fill="#407BFF"/>
<path opacity="0.2" d="M270.944 389.956L265.884 389.98L265.427 384.865L270.475 384.841L270.944 389.956Z" fill="white"/>
<path d="M278.108 389.932L273.06 389.944L272.591 384.841L277.651 384.816L278.108 389.932Z" fill="#407BFF"/>
<path opacity="0.2" d="M278.108 389.932L273.06 389.944L272.591 384.841L277.651 384.816L278.108 389.932Z" fill="white"/>
<path d="M285.285 389.895L280.224 389.92L279.768 384.804L284.816 384.792L285.285 389.895Z" fill="#407BFF"/>
<path opacity="0.2" d="M285.285 389.895L280.224 389.92L279.768 384.804L284.816 384.792L285.285 389.895Z" fill="white"/>
<path d="M264.393 396.882L259.333 396.906L258.876 391.791L263.936 391.766L264.393 396.882Z" fill="#407BFF"/>
<path opacity="0.2" d="M264.393 396.882L259.333 396.906L258.876 391.791L263.936 391.766L264.393 396.882Z" fill="white"/>
<path d="M271.557 396.845L266.509 396.87L266.04 391.754L271.1 391.742L271.557 396.845Z" fill="#407BFF"/>
<path opacity="0.2" d="M271.557 396.845L266.509 396.87L266.04 391.754L271.1 391.742L271.557 396.845Z" fill="white"/>
<path d="M278.733 396.821L273.685 396.845L273.216 391.73L278.276 391.706L278.733 396.821Z" fill="#407BFF"/>
<path opacity="0.2" d="M278.733 396.821L273.685 396.845L273.216 391.73L278.276 391.706L278.733 396.821Z" fill="white"/>
<path d="M270.319 383.067L265.259 383.091L264.802 377.975L269.85 377.951L270.319 383.067Z" fill="#407BFF"/>
<path opacity="0.2" d="M270.319 383.067L265.259 383.091L264.802 377.975L269.85 377.951L270.319 383.067Z" fill="white"/>
<path d="M277.483 383.03L272.435 383.055L271.966 377.951L277.026 377.927L277.483 383.03Z" fill="#407BFF"/>
<path opacity="0.2" d="M277.483 383.03L272.435 383.055L271.966 377.951L277.026 377.927L277.483 383.03Z" fill="white"/>
<path d="M284.66 383.006L279.599 383.031L279.143 377.915L284.191 377.891L284.66 383.006Z" fill="#407BFF"/>
<path opacity="0.2" d="M284.66 383.006L279.599 383.031L279.143 377.915L284.191 377.891L284.66 383.006Z" fill="white"/>
<path d="M285.91 396.784L280.849 396.808L280.393 391.705L285.441 391.681L285.91 396.784Z" fill="white"/>
<path d="M197.382 410.867V418.279H154.303L149.651 572.869H145.696V410.867H197.382Z" fill="#263238"/>
<path opacity="0.7" d="M197.382 410.867V418.279H154.303L149.651 572.869H145.696V410.867H197.382Z" fill="white"/>
<path d="M145.696 572.869H141.958L140.756 410.867H145.696V572.869Z" fill="#263238"/>
<g opacity="0.3">
<path d="M145.696 572.869H141.958L140.756 410.867H145.696V572.869Z" fill="white"/>
</g>
<path d="M209.642 410.867V572.869H205.724L202.238 418.279H197.622V410.867H209.642Z" fill="#263238"/>
<path d="M206.168 572.869H202.43L197.622 410.867H202.562L206.168 572.869Z" fill="#263238"/>
<g opacity="0.3">
<path d="M206.168 572.869H202.43L197.622 410.867H202.562L206.168 572.869Z" fill="white"/>
</g>
<path opacity="0.7" d="M209.642 410.867V572.869H205.724L202.238 418.279H197.622V410.867H209.642Z" fill="white"/>
<path d="M444.717 572.869H440.991L436.183 410.867H441.111L444.717 572.869Z" fill="#263238"/>
<path opacity="0.3" d="M436.183 410.867H441.111L444.717 572.869H440.991" fill="white"/>
<path d="M380.675 410.867H145.72V423.151H380.675V410.867Z" fill="#263238"/>
<path opacity="0.5" d="M380.675 410.867H145.72V423.151H380.675V410.867Z" fill="white"/>
<path d="M384.497 410.867V572.869H388.44L393.091 418.267H440.799L444.285 572.869H448.203V410.867H384.497Z" fill="#263238"/>
<path opacity="0.7" d="M384.497 410.867V572.869H388.44L393.091 418.267H440.799L444.285 572.869H448.203V410.867H384.497Z" fill="white"/>
<path d="M384.497 572.869H380.759L379.557 410.867H384.497V572.869Z" fill="#263238"/>
<path opacity="0.3" d="M384.497 572.869H380.759L379.557 410.867H384.497V572.869Z" fill="white"/>
<path d="M381.408 401.548H134.217V410.867H381.408V401.548Z" fill="#263238"/>
<path opacity="0.6" d="M381.408 401.548H134.217V410.867H381.408V401.548Z" fill="white"/>
<path d="M454.742 401.548H375.675V410.867H454.742V401.548Z" fill="#263238"/>
<path opacity="0.7" d="M454.742 401.548H375.675V410.867H454.742V401.548Z" fill="white"/>
<path d="M235.57 381.766H91.2577C111.463 307.892 71.052 234.053 91.2577 160.19H235.57C215.364 234.053 255.823 307.892 235.57 381.766Z" fill="#407BFF"/>
<path opacity="0.7" d="M235.57 381.766H91.2577C111.463 307.892 71.052 234.053 91.2577 160.19H235.57C215.364 234.053 255.823 307.892 235.57 381.766Z" fill="white"/>
<path d="M218.79 206.581H153.581C153.412 206.581 153.25 206.513 153.131 206.392C153.011 206.272 152.944 206.108 152.944 205.937C152.944 205.766 153.011 205.602 153.131 205.482C153.25 205.361 153.412 205.293 153.581 205.293H218.79C218.959 205.293 219.121 205.361 219.24 205.482C219.36 205.602 219.427 205.766 219.427 205.937C219.427 206.108 219.36 206.272 219.24 206.392C219.121 206.513 218.959 206.581 218.79 206.581Z" fill="#263238"/>
<path d="M219.103 219.679H153.895C153.724 219.676 153.561 219.608 153.439 219.489C153.316 219.369 153.243 219.207 153.234 219.035C153.229 218.953 153.24 218.87 153.268 218.792C153.296 218.714 153.34 218.642 153.396 218.582C153.453 218.522 153.52 218.474 153.596 218.441C153.671 218.408 153.752 218.391 153.835 218.391H219.043C219.215 218.394 219.379 218.462 219.504 218.581C219.628 218.7 219.704 218.862 219.716 219.035C219.719 219.119 219.706 219.202 219.677 219.28C219.647 219.358 219.603 219.429 219.545 219.489C219.488 219.549 219.419 219.597 219.343 219.63C219.267 219.663 219.186 219.679 219.103 219.679Z" fill="#263238"/>
<path d="M219.944 232.838H97.3399C97.1666 232.833 97.0006 232.766 96.8726 232.647C96.7445 232.529 96.663 232.368 96.6428 232.194C96.6343 232.112 96.643 232.03 96.6682 231.952C96.6934 231.874 96.7345 231.803 96.789 231.742C96.8434 231.681 96.9099 231.633 96.9841 231.599C97.0584 231.566 97.1387 231.55 97.2198 231.55H219.824C219.997 231.552 220.162 231.62 220.289 231.739C220.416 231.858 220.494 232.02 220.509 232.194C220.517 232.275 220.509 232.356 220.484 232.433C220.46 232.51 220.42 232.581 220.367 232.642C220.314 232.702 220.249 232.751 220.176 232.785C220.103 232.819 220.024 232.837 219.944 232.838Z" fill="#263238"/>
<path d="M230.137 345.157H107.497C107.414 345.159 107.331 345.143 107.255 345.111C107.178 345.079 107.108 345.031 107.051 344.971C106.993 344.91 106.949 344.838 106.92 344.76C106.891 344.681 106.879 344.597 106.884 344.513C106.896 344.341 106.972 344.18 107.097 344.063C107.222 343.946 107.387 343.881 107.557 343.881H230.161C230.243 343.879 230.323 343.895 230.399 343.926C230.474 343.958 230.542 344.004 230.599 344.064C230.655 344.123 230.699 344.194 230.727 344.271C230.755 344.348 230.767 344.431 230.762 344.513C230.756 344.68 230.689 344.839 230.573 344.958C230.458 345.077 230.302 345.148 230.137 345.157Z" fill="#263238"/>
<path d="M146.442 367.672H105.045C104.965 367.674 104.887 367.658 104.815 367.624C104.743 367.591 104.679 367.541 104.629 367.479C104.579 367.416 104.544 367.343 104.527 367.265C104.509 367.187 104.509 367.106 104.528 367.028C104.563 366.851 104.655 366.692 104.79 366.575C104.925 366.459 105.095 366.391 105.273 366.384H146.634C146.713 366.382 146.792 366.398 146.864 366.431C146.936 366.465 147 366.515 147.05 366.577C147.1 366.639 147.135 366.712 147.152 366.79C147.17 366.869 147.169 366.95 147.151 367.028C147.118 367.198 147.03 367.353 146.903 367.469C146.775 367.586 146.613 367.657 146.442 367.672Z" fill="#263238"/>
<path d="M228.106 367.672H186.745C186.666 367.674 186.587 367.658 186.515 367.624C186.443 367.591 186.379 367.541 186.329 367.479C186.279 367.416 186.244 367.343 186.227 367.265C186.209 367.187 186.21 367.106 186.228 367.028C186.261 366.851 186.353 366.69 186.488 366.573C186.624 366.456 186.795 366.389 186.973 366.384H228.334C228.413 366.382 228.492 366.398 228.564 366.431C228.636 366.465 228.7 366.515 228.75 366.577C228.8 366.639 228.835 366.712 228.852 366.79C228.87 366.869 228.869 366.95 228.851 367.028C228.816 367.204 228.724 367.363 228.589 367.48C228.453 367.597 228.283 367.664 228.106 367.672Z" fill="#263238"/>
<path d="M129.866 190.178C129.866 195.682 125.767 199.108 119.24 199.108H114.312V205.925H108.65V181.198H119.24C125.767 181.198 129.866 184.625 129.866 190.178ZM124.132 190.178C124.132 187.456 122.377 185.864 118.927 185.864H114.312V194.442H118.927C122.401 194.442 124.132 192.863 124.132 190.178Z" fill="#407BFF"/>
<path d="M133.748 220.056L127.847 211.478L122.041 220.056H115.538L124.589 207.48L115.995 195.33H122.402L128.027 203.349L133.556 195.33H139.674L131.14 207.274L140.263 220.056H133.748Z" fill="#407BFF"/>
<path d="M105.068 241.064C105.068 242.425 104.058 243.276 102.436 243.276H101.234V244.965H99.8154V238.889H102.436C104.058 238.78 105.068 239.63 105.068 241.064ZM103.65 241.064C103.65 240.396 103.217 239.995 102.364 239.995H101.162V242.121H102.364C103.169 242.061 103.65 241.672 103.65 241.064Z" fill="#263238"/>
<path d="M108.855 240.129V241.344H108.542C108.376 241.343 108.211 241.377 108.059 241.444C107.907 241.512 107.769 241.61 107.656 241.733C107.544 241.856 107.457 242.002 107.403 242.161C107.348 242.32 107.327 242.488 107.34 242.656V244.879H105.958V240.177H107.244V240.797C107.44 240.563 107.688 240.38 107.969 240.264C108.249 240.147 108.553 240.101 108.855 240.129Z" fill="#263238"/>
<path d="M114.132 242.936H110.622C110.686 243.232 110.857 243.493 111.101 243.669C111.346 243.844 111.647 243.921 111.944 243.883C112.165 243.896 112.387 243.862 112.594 243.782C112.801 243.703 112.989 243.58 113.146 243.422L113.867 244.211C113.504 244.567 113.049 244.812 112.555 244.919C112.06 245.026 111.546 244.991 111.071 244.817C110.595 244.644 110.177 244.339 109.864 243.938C109.551 243.537 109.355 243.055 109.3 242.547C109.3 242.221 109.364 241.899 109.489 241.6C109.615 241.3 109.798 241.029 110.029 240.802C110.26 240.575 110.534 240.398 110.834 240.28C111.134 240.163 111.454 240.107 111.776 240.117C112.095 240.103 112.414 240.156 112.712 240.274C113.01 240.391 113.28 240.569 113.506 240.798C113.732 241.026 113.909 241.3 114.025 241.601C114.141 241.902 114.194 242.224 114.18 242.547C114.168 242.668 114.144 242.826 114.132 242.936ZM110.598 242.134H112.894C112.818 241.886 112.665 241.669 112.459 241.516C112.252 241.362 112.002 241.279 111.746 241.279C111.489 241.279 111.24 241.362 111.033 241.516C110.827 241.669 110.674 241.886 110.598 242.134Z" fill="#263238"/>
<path d="M114.601 244.466L115.057 243.482C115.542 243.783 116.099 243.943 116.668 243.944C117.293 243.944 117.533 243.774 117.533 243.506C117.533 242.741 114.721 243.506 114.721 241.647C114.721 240.76 115.514 240.129 116.872 240.129C117.494 240.116 118.109 240.257 118.663 240.542L118.207 241.514C117.801 241.277 117.34 241.156 116.872 241.161C116.271 241.161 116.007 241.356 116.007 241.599C116.007 242.401 118.82 241.599 118.82 243.482C118.82 244.345 118.014 244.977 116.62 244.977C115.914 244.99 115.217 244.814 114.601 244.466Z" fill="#263238"/>
<path d="M119.3 242.547C119.299 242.211 119.367 241.88 119.499 241.572C119.631 241.265 119.824 240.989 120.067 240.76C120.309 240.532 120.596 240.357 120.909 240.246C121.222 240.136 121.554 240.091 121.884 240.116C122.314 240.081 122.743 240.178 123.117 240.395C123.49 240.612 123.79 240.939 123.976 241.331L122.93 241.89C122.829 241.698 122.678 241.537 122.494 241.424C122.31 241.31 122.1 241.249 121.884 241.246C121.543 241.246 121.216 241.383 120.975 241.627C120.734 241.871 120.598 242.202 120.598 242.547C120.598 242.891 120.734 243.222 120.975 243.466C121.216 243.71 121.543 243.847 121.884 243.847C122.101 243.852 122.315 243.794 122.501 243.68C122.686 243.566 122.835 243.4 122.93 243.203L123.976 243.786C123.786 244.175 123.486 244.499 123.113 244.715C122.741 244.932 122.313 245.031 121.884 245.001C121.552 245.026 121.218 244.981 120.903 244.869C120.589 244.757 120.301 244.58 120.058 244.349C119.815 244.118 119.622 243.838 119.491 243.528C119.361 243.218 119.296 242.884 119.3 242.547Z" fill="#263238"/>
<path d="M127.63 240.128V241.344H127.33C127.164 241.343 126.999 241.377 126.847 241.444C126.694 241.511 126.557 241.61 126.444 241.733C126.331 241.856 126.245 242.002 126.19 242.161C126.136 242.32 126.115 242.488 126.128 242.656V244.879H124.806V240.177H126.008V240.797C126.204 240.56 126.454 240.376 126.737 240.259C127.02 240.143 127.326 240.098 127.63 240.128Z" fill="#263238"/>
<path d="M128.268 238.78C128.27 238.673 128.295 238.569 128.339 238.472C128.384 238.375 128.448 238.289 128.527 238.219C128.605 238.148 128.698 238.094 128.798 238.061C128.898 238.028 129.004 238.017 129.109 238.027C129.212 238.015 129.317 238.025 129.416 238.056C129.516 238.086 129.608 238.138 129.687 238.206C129.766 238.274 129.83 238.358 129.875 238.453C129.92 238.548 129.946 238.651 129.95 238.756C129.95 238.981 129.862 239.197 129.704 239.357C129.546 239.516 129.332 239.606 129.109 239.606C128.886 239.606 128.672 239.516 128.514 239.357C128.356 239.197 128.268 238.981 128.268 238.756V238.78ZM128.436 240.201H129.782V244.904H128.412L128.436 240.201Z" fill="#263238"/>
<path d="M136.105 242.546C136.123 242.863 136.076 243.18 135.967 243.478C135.858 243.775 135.689 244.047 135.472 244.275C135.254 244.504 134.991 244.684 134.701 244.805C134.411 244.925 134.099 244.984 133.785 244.976C133.524 244.987 133.264 244.942 133.021 244.843C132.779 244.745 132.56 244.596 132.378 244.405V246.593H131.032V240.201H132.318V240.736C132.503 240.531 132.73 240.369 132.984 240.264C133.237 240.159 133.511 240.113 133.785 240.128C134.098 240.121 134.408 240.18 134.698 240.3C134.987 240.419 135.249 240.599 135.467 240.826C135.685 241.053 135.854 241.323 135.963 241.619C136.073 241.915 136.121 242.231 136.105 242.546ZM134.734 242.546C134.718 242.31 134.634 242.084 134.492 241.896C134.351 241.708 134.158 241.565 133.937 241.486C133.716 241.407 133.478 241.395 133.251 241.451C133.023 241.507 132.817 241.629 132.657 241.802C132.497 241.975 132.391 242.191 132.351 242.424C132.311 242.657 132.339 242.897 132.432 243.114C132.525 243.331 132.679 243.516 132.874 243.646C133.07 243.776 133.298 243.846 133.532 243.846C133.698 243.847 133.861 243.813 134.013 243.747C134.164 243.68 134.301 243.583 134.414 243.461C134.526 243.339 134.613 243.195 134.668 243.038C134.723 242.88 134.746 242.713 134.734 242.546Z" fill="#263238"/>
<path d="M139.998 244.709C139.669 244.922 139.283 245.028 138.893 245.013C138.663 245.046 138.429 245.025 138.208 244.953C137.988 244.88 137.786 244.758 137.62 244.595C137.453 244.432 137.325 244.233 137.246 244.013C137.166 243.793 137.137 243.557 137.162 243.324V241.392H136.44V240.335H137.162V239.193H138.508V240.335H139.71V241.392H138.508V243.3C138.497 243.381 138.504 243.463 138.528 243.541C138.553 243.618 138.595 243.69 138.65 243.749C138.705 243.808 138.773 243.855 138.848 243.884C138.923 243.914 139.004 243.926 139.085 243.919C139.279 243.923 139.468 243.863 139.626 243.749L139.998 244.709Z" fill="#263238"/>
<path d="M140.588 238.78C140.591 238.674 140.615 238.569 140.66 238.472C140.704 238.376 140.768 238.289 140.847 238.219C140.926 238.148 141.018 238.095 141.118 238.062C141.219 238.029 141.324 238.017 141.429 238.027C141.532 238.017 141.635 238.028 141.733 238.06C141.831 238.091 141.921 238.143 141.999 238.211C142.077 238.279 142.14 238.363 142.184 238.456C142.229 238.55 142.254 238.652 142.259 238.756C142.234 238.962 142.136 239.153 141.982 239.291C141.828 239.429 141.629 239.505 141.423 239.505C141.218 239.505 141.019 239.429 140.865 239.291C140.711 239.153 140.612 238.962 140.588 238.756V238.78ZM140.744 240.202H142.102V244.904H140.744V240.202Z" fill="#263238"/>
<path d="M143.004 242.546C142.972 242.029 143.096 241.514 143.357 241.068C143.619 240.622 144.007 240.266 144.471 240.046C144.935 239.825 145.454 239.751 145.961 239.832C146.467 239.914 146.938 240.147 147.312 240.502C147.686 240.857 147.945 241.317 148.058 241.823C148.17 242.328 148.129 242.857 147.941 243.339C147.752 243.821 147.425 244.235 147.001 244.527C146.578 244.819 146.077 244.975 145.564 244.976C145.235 244.998 144.906 244.951 144.596 244.839C144.286 244.726 144.002 244.551 143.762 244.323C143.522 244.095 143.331 243.82 143.201 243.514C143.07 243.209 143.003 242.879 143.004 242.546ZM146.742 242.546C146.726 242.31 146.641 242.084 146.5 241.896C146.358 241.708 146.165 241.565 145.945 241.486C145.724 241.407 145.486 241.395 145.258 241.451C145.031 241.507 144.825 241.629 144.665 241.802C144.505 241.975 144.399 242.191 144.359 242.424C144.319 242.657 144.347 242.897 144.44 243.114C144.533 243.331 144.686 243.516 144.882 243.646C145.077 243.776 145.306 243.846 145.54 243.846C145.705 243.847 145.869 243.813 146.02 243.746C146.172 243.68 146.308 243.583 146.421 243.461C146.534 243.339 146.621 243.195 146.676 243.037C146.731 242.88 146.754 242.713 146.742 242.546Z" fill="#263238"/>
<path d="M153.762 242.206V244.904H152.452V242.474C152.452 241.72 152.103 241.368 151.502 241.368C150.901 241.368 150.396 241.769 150.396 242.583V244.916H149.038V240.214H150.336V240.76C150.535 240.554 150.775 240.392 151.04 240.285C151.305 240.178 151.59 240.129 151.875 240.141C152.14 240.128 152.404 240.174 152.649 240.275C152.895 240.377 153.115 240.532 153.295 240.729C153.475 240.925 153.61 241.16 153.691 241.415C153.771 241.67 153.796 241.941 153.762 242.206Z" fill="#263238"/>
<path d="M154.651 240.979C154.646 240.867 154.664 240.756 154.704 240.652C154.744 240.548 154.805 240.453 154.883 240.375C154.961 240.296 155.054 240.234 155.157 240.194C155.26 240.153 155.37 240.135 155.481 240.141C155.591 240.135 155.702 240.154 155.806 240.194C155.909 240.234 156.003 240.295 156.082 240.374C156.161 240.453 156.223 240.547 156.265 240.651C156.306 240.755 156.325 240.867 156.322 240.979C156.325 241.091 156.306 241.204 156.265 241.308C156.224 241.413 156.162 241.508 156.083 241.588C156.004 241.667 155.91 241.73 155.807 241.772C155.703 241.813 155.592 241.833 155.481 241.829C155.37 241.831 155.261 241.81 155.158 241.768C155.056 241.726 154.964 241.663 154.886 241.583C154.809 241.504 154.748 241.409 154.707 241.305C154.667 241.202 154.648 241.09 154.651 240.979ZM154.651 244.114C154.646 244.002 154.664 243.891 154.704 243.787C154.744 243.683 154.805 243.588 154.883 243.509C154.961 243.43 155.054 243.369 155.157 243.329C155.26 243.288 155.37 243.27 155.481 243.275C155.591 243.27 155.702 243.288 155.806 243.329C155.909 243.369 156.003 243.43 156.082 243.509C156.161 243.588 156.223 243.682 156.265 243.786C156.306 243.89 156.325 244.002 156.322 244.114C156.325 244.227 156.306 244.34 156.265 244.445C156.224 244.55 156.162 244.646 156.084 244.727C156.005 244.807 155.911 244.871 155.807 244.914C155.704 244.957 155.593 244.978 155.481 244.976C155.369 244.978 155.259 244.957 155.156 244.914C155.053 244.871 154.959 244.807 154.882 244.726C154.804 244.645 154.743 244.549 154.704 244.444C154.664 244.339 154.646 244.226 154.651 244.114Z" fill="#263238"/>
<path d="M266.033 239.803L244.66 232.925C240.795 231.681 236.665 233.84 235.434 237.747L212.1 311.834C210.87 315.741 213.005 319.916 216.87 321.16L238.243 328.038C242.108 329.282 246.238 327.123 247.469 323.216L270.803 249.129C272.033 245.223 269.897 241.047 266.033 239.803Z" fill="black"/>
<path opacity="0.8" d="M271.138 247.139C271.125 247.829 271.011 248.512 270.801 249.169L247.471 323.286C247.391 323.538 247.299 323.785 247.194 324.028C246.466 325.705 245.149 327.05 243.498 327.804C241.847 328.558 239.978 328.667 238.251 328.11L216.868 321.233C215.045 320.642 213.522 319.355 212.624 317.646C211.726 315.937 211.523 313.941 212.06 312.084L225.522 269.35L235.391 237.747C235.679 236.815 236.147 235.95 236.767 235.202C237.387 234.453 238.147 233.835 239.003 233.384C239.859 232.932 240.795 232.656 241.757 232.571C242.72 232.486 243.689 232.593 244.61 232.887L266.042 239.849C266.509 240 266.961 240.2 267.388 240.444C268.561 241.105 269.532 242.078 270.193 243.259C270.855 244.44 271.182 245.783 271.138 247.139Z" fill="white"/>
<g opacity="0.6">
<path opacity="0.5" d="M219.428 288.585L229.128 257.808L256.594 236.763L267.412 240.408C268.587 241.069 269.558 242.045 270.22 243.228C270.882 244.412 271.208 245.757 271.162 247.115L219.428 288.585Z" fill="white"/>
</g>
<path opacity="0.5" d="M232.987 245.438L235.391 237.747C235.68 236.815 236.148 235.95 236.768 235.202C237.387 234.453 238.147 233.835 239.004 233.384C239.86 232.932 240.796 232.656 241.758 232.571C242.72 232.486 243.69 232.593 244.611 232.887L247.82 233.92L232.987 245.438Z" fill="white"/>
<path d="M247.735 245.134C247.566 245.67 247.244 246.143 246.809 246.494C246.374 246.845 245.846 247.057 245.292 247.105C244.738 247.152 244.182 247.032 243.695 246.76C243.208 246.488 242.812 246.077 242.556 245.577C242.301 245.078 242.198 244.513 242.26 243.954C242.322 243.395 242.546 242.868 242.905 242.438C243.264 242.008 243.741 241.696 244.275 241.54C244.81 241.384 245.378 241.392 245.908 241.562C246.261 241.674 246.588 241.855 246.871 242.096C247.155 242.336 247.388 242.631 247.558 242.963C247.728 243.295 247.831 243.658 247.861 244.031C247.892 244.404 247.849 244.779 247.735 245.134Z" fill="#407BFF"/>
<path d="M242.374 262.121C242.205 262.654 241.884 263.124 241.45 263.473C241.017 263.821 240.491 264.032 239.939 264.079C239.387 264.125 238.834 264.005 238.35 263.734C237.865 263.462 237.471 263.052 237.217 262.554C236.964 262.057 236.862 261.494 236.924 260.938C236.987 260.382 237.211 259.856 237.569 259.429C237.926 259.002 238.401 258.691 238.934 258.536C239.466 258.382 240.032 258.39 240.559 258.561C240.91 258.674 241.235 258.856 241.516 259.096C241.797 259.336 242.028 259.63 242.196 259.96C242.365 260.291 242.467 260.652 242.498 261.023C242.528 261.393 242.486 261.766 242.374 262.121Z" fill="#407BFF"/>
<path d="M237.025 279.119C236.859 279.657 236.538 280.131 236.104 280.484C235.669 280.837 235.142 281.051 234.587 281.1C234.032 281.149 233.475 281.03 232.987 280.759C232.499 280.488 232.102 280.077 231.845 279.577C231.589 279.077 231.485 278.512 231.547 277.952C231.608 277.393 231.833 276.864 232.192 276.434C232.551 276.004 233.029 275.691 233.564 275.535C234.099 275.38 234.668 275.388 235.198 275.559C235.55 275.671 235.876 275.852 236.158 276.092C236.441 276.332 236.673 276.625 236.843 276.956C237.013 277.287 237.116 277.648 237.148 278.019C237.179 278.391 237.137 278.764 237.025 279.119Z" fill="#407BFF"/>
<path d="M231.677 296.118C231.508 296.654 231.186 297.127 230.751 297.478C230.317 297.828 229.789 298.041 229.234 298.088C228.68 298.136 228.124 298.016 227.637 297.744C227.15 297.472 226.754 297.06 226.499 296.561C226.243 296.061 226.14 295.497 226.202 294.938C226.264 294.379 226.489 293.851 226.848 293.422C227.206 292.992 227.683 292.679 228.218 292.523C228.752 292.367 229.32 292.375 229.85 292.546C230.203 292.658 230.531 292.839 230.814 293.08C231.097 293.32 231.33 293.615 231.5 293.947C231.67 294.279 231.773 294.642 231.804 295.015C231.834 295.387 231.791 295.762 231.677 296.118Z" fill="#407BFF"/>
<path d="M226.327 313.104C226.16 313.641 225.84 314.116 225.405 314.469C224.971 314.821 224.443 315.036 223.888 315.085C223.334 315.134 222.777 315.015 222.289 314.744C221.801 314.473 221.403 314.061 221.147 313.562C220.891 313.062 220.787 312.497 220.848 311.937C220.91 311.378 221.135 310.849 221.494 310.419C221.853 309.989 222.33 309.676 222.866 309.52C223.401 309.364 223.97 309.373 224.5 309.544C225.206 309.776 225.794 310.279 226.136 310.945C226.478 311.612 226.547 312.387 226.327 313.104Z" fill="#407BFF"/>
<path d="M261.245 249.484C260.986 250.159 260.482 250.708 259.836 251.02C259.19 251.332 258.45 251.383 257.768 251.163C257.086 250.943 256.513 250.468 256.165 249.836C255.817 249.203 255.721 248.461 255.896 247.759C255.99 247.382 256.159 247.03 256.393 246.722C256.627 246.414 256.921 246.158 257.257 245.969C257.592 245.781 257.962 245.664 258.345 245.625C258.727 245.587 259.112 245.628 259.478 245.746C259.844 245.864 260.182 246.056 260.472 246.311C260.761 246.566 260.996 246.879 261.161 247.229C261.327 247.579 261.42 247.96 261.434 248.348C261.448 248.736 261.384 249.122 261.245 249.484Z" fill="#407BFF"/>
<path d="M255.897 266.471C255.729 267.004 255.408 267.475 254.975 267.824C254.543 268.173 254.018 268.384 253.466 268.432C252.915 268.479 252.362 268.36 251.877 268.09C251.392 267.82 250.997 267.411 250.742 266.915C250.487 266.418 250.384 265.856 250.445 265.3C250.505 264.744 250.728 264.218 251.084 263.79C251.44 263.361 251.914 263.049 252.445 262.893C252.976 262.736 253.542 262.742 254.07 262.911C254.778 263.139 255.368 263.642 255.71 264.309C256.052 264.977 256.12 265.754 255.897 266.471Z" fill="#407BFF"/>
<path d="M250.548 283.469C250.381 284.006 250.06 284.481 249.626 284.834C249.192 285.186 248.664 285.401 248.109 285.45C247.554 285.499 246.998 285.38 246.51 285.109C246.022 284.838 245.624 284.426 245.368 283.927C245.111 283.427 245.007 282.862 245.069 282.302C245.131 281.743 245.356 281.214 245.715 280.784C246.074 280.354 246.551 280.041 247.086 279.885C247.622 279.729 248.19 279.738 248.721 279.909C249.427 280.141 250.015 280.644 250.357 281.31C250.699 281.977 250.767 282.752 250.548 283.469Z" fill="#407BFF"/>
<path d="M245.187 300.468C244.928 301.142 244.424 301.691 243.778 302.003C243.132 302.315 242.393 302.366 241.711 302.146C241.029 301.926 240.455 301.452 240.107 300.819C239.759 300.187 239.663 299.444 239.838 298.742C239.932 298.366 240.101 298.013 240.335 297.705C240.569 297.397 240.863 297.141 241.199 296.953C241.535 296.764 241.905 296.647 242.287 296.608C242.669 296.57 243.055 296.611 243.421 296.729C243.786 296.847 244.125 297.04 244.414 297.295C244.703 297.55 244.938 297.862 245.104 298.212C245.269 298.562 245.362 298.943 245.376 299.331C245.391 299.719 245.326 300.106 245.187 300.468Z" fill="#407BFF"/>
<path d="M239.838 317.454C239.67 317.987 239.349 318.458 238.917 318.807C238.484 319.156 237.959 319.368 237.408 319.415C236.856 319.463 236.303 319.344 235.818 319.074C235.333 318.804 234.939 318.395 234.684 317.898C234.429 317.401 234.325 316.839 234.386 316.283C234.447 315.727 234.669 315.202 235.025 314.773C235.381 314.345 235.855 314.033 236.386 313.876C236.918 313.72 237.483 313.726 238.011 313.894C238.719 314.123 239.309 314.626 239.651 315.293C239.994 315.96 240.061 316.737 239.838 317.454Z" fill="#407BFF"/>
<g opacity="0.4">
<path d="M247.735 245.134C247.566 245.67 247.244 246.143 246.809 246.494C246.374 246.845 245.846 247.057 245.292 247.105C244.738 247.152 244.182 247.032 243.695 246.76C243.208 246.488 242.812 246.077 242.556 245.577C242.301 245.078 242.198 244.513 242.26 243.954C242.322 243.395 242.546 242.868 242.905 242.438C243.264 242.008 243.741 241.696 244.275 241.54C244.81 241.384 245.378 241.392 245.908 241.562C246.261 241.674 246.588 241.855 246.871 242.096C247.155 242.336 247.388 242.631 247.558 242.963C247.728 243.295 247.831 243.658 247.861 244.031C247.892 244.404 247.849 244.779 247.735 245.134Z" fill="white"/>
<path d="M242.374 262.121C242.205 262.654 241.884 263.124 241.45 263.473C241.017 263.821 240.491 264.032 239.939 264.079C239.387 264.125 238.834 264.005 238.35 263.734C237.865 263.462 237.471 263.052 237.217 262.554C236.964 262.057 236.862 261.494 236.924 260.938C236.987 260.382 237.211 259.856 237.569 259.429C237.926 259.002 238.401 258.691 238.934 258.536C239.466 258.382 240.032 258.39 240.559 258.561C240.91 258.674 241.235 258.856 241.516 259.096C241.797 259.336 242.028 259.63 242.196 259.96C242.365 260.291 242.467 260.652 242.498 261.023C242.528 261.393 242.486 261.766 242.374 262.121Z" fill="white"/>
<path d="M237.024 279.119C236.858 279.656 236.537 280.131 236.103 280.484C235.668 280.836 235.141 281.051 234.586 281.1C234.031 281.149 233.474 281.03 232.986 280.759C232.498 280.488 232.101 280.076 231.844 279.577C231.588 279.077 231.484 278.511 231.546 277.952C231.607 277.392 231.832 276.864 232.191 276.434C232.55 276.004 233.028 275.691 233.563 275.535C234.098 275.379 234.667 275.388 235.197 275.559C235.549 275.671 235.875 275.852 236.157 276.092C236.44 276.331 236.672 276.625 236.842 276.956C237.012 277.286 237.115 277.648 237.147 278.019C237.178 278.39 237.136 278.764 237.024 279.119Z" fill="white"/>
<path d="M231.676 296.118C231.507 296.653 231.185 297.126 230.75 297.477C230.316 297.828 229.788 298.04 229.233 298.088C228.679 298.135 228.123 298.015 227.636 297.743C227.149 297.472 226.753 297.06 226.498 296.56C226.242 296.061 226.139 295.496 226.201 294.937C226.263 294.378 226.488 293.851 226.847 293.421C227.205 292.991 227.682 292.679 228.217 292.523C228.751 292.367 229.319 292.375 229.849 292.545C230.202 292.657 230.53 292.839 230.813 293.079C231.096 293.32 231.329 293.614 231.499 293.946C231.669 294.279 231.772 294.641 231.803 295.014C231.833 295.387 231.79 295.762 231.676 296.118Z" fill="white"/>
<path d="M226.327 313.104C226.16 313.641 225.84 314.116 225.405 314.469C224.971 314.821 224.443 315.036 223.888 315.085C223.334 315.134 222.777 315.015 222.289 314.744C221.801 314.473 221.403 314.061 221.147 313.562C220.891 313.062 220.787 312.497 220.848 311.937C220.91 311.378 221.135 310.849 221.494 310.419C221.853 309.989 222.33 309.676 222.866 309.52C223.401 309.364 223.97 309.373 224.5 309.544C225.206 309.776 225.794 310.279 226.136 310.945C226.478 311.612 226.547 312.387 226.327 313.104Z" fill="white"/>
</g>
<g opacity="0.4">
<path d="M261.246 249.484C260.987 250.159 260.483 250.708 259.837 251.02C259.191 251.332 258.451 251.383 257.769 251.163C257.087 250.943 256.514 250.468 256.166 249.836C255.818 249.203 255.722 248.461 255.897 247.759C255.991 247.382 256.16 247.03 256.394 246.722C256.628 246.414 256.922 246.158 257.258 245.969C257.593 245.781 257.963 245.664 258.345 245.625C258.728 245.587 259.113 245.628 259.479 245.746C259.845 245.864 260.183 246.056 260.473 246.311C260.762 246.566 260.997 246.879 261.162 247.229C261.328 247.579 261.421 247.96 261.435 248.348C261.449 248.736 261.385 249.122 261.246 249.484Z" fill="white"/>
<path d="M255.897 266.47C255.729 267.003 255.408 267.474 254.975 267.823C254.543 268.172 254.018 268.384 253.466 268.431C252.915 268.479 252.362 268.36 251.877 268.09C251.392 267.82 250.997 267.411 250.742 266.914C250.487 266.418 250.384 265.856 250.445 265.3C250.505 264.743 250.728 264.218 251.084 263.79C251.44 263.361 251.914 263.049 252.445 262.893C252.976 262.736 253.542 262.742 254.07 262.91C254.778 263.139 255.368 263.642 255.71 264.309C256.052 264.976 256.12 265.753 255.897 266.47Z" fill="white"/>
<path d="M250.548 283.469C250.381 284.006 250.06 284.481 249.626 284.834C249.192 285.186 248.664 285.401 248.109 285.45C247.554 285.499 246.998 285.38 246.51 285.109C246.022 284.838 245.624 284.426 245.368 283.926C245.111 283.427 245.007 282.861 245.069 282.302C245.131 281.742 245.356 281.214 245.715 280.784C246.074 280.353 246.551 280.041 247.086 279.885C247.622 279.729 248.19 279.738 248.721 279.909C249.427 280.14 250.015 280.644 250.357 281.31C250.699 281.976 250.767 282.752 250.548 283.469Z" fill="white"/>
<path d="M245.187 300.467C244.928 301.142 244.424 301.691 243.778 302.003C243.132 302.315 242.393 302.366 241.711 302.146C241.029 301.926 240.455 301.451 240.107 300.819C239.759 300.186 239.663 299.444 239.838 298.742C239.932 298.366 240.101 298.013 240.335 297.705C240.569 297.397 240.863 297.141 241.199 296.952C241.535 296.764 241.905 296.647 242.287 296.608C242.669 296.57 243.055 296.611 243.421 296.729C243.786 296.847 244.125 297.039 244.414 297.294C244.703 297.549 244.938 297.862 245.104 298.212C245.269 298.562 245.362 298.943 245.376 299.331C245.391 299.719 245.326 300.106 245.187 300.467Z" fill="white"/>
<path d="M239.838 317.454C239.67 317.987 239.349 318.458 238.917 318.807C238.484 319.156 237.959 319.367 237.408 319.415C236.856 319.462 236.303 319.344 235.818 319.074C235.333 318.804 234.939 318.394 234.684 317.898C234.429 317.401 234.325 316.839 234.386 316.283C234.447 315.727 234.669 315.201 235.025 314.773C235.381 314.345 235.855 314.032 236.386 313.876C236.918 313.719 237.483 313.726 238.011 313.894C238.719 314.123 239.309 314.626 239.651 315.293C239.994 315.96 240.061 316.737 239.838 317.454Z" fill="white"/>
</g>
<path opacity="0.7" d="M225.582 324.902L188.657 332.606C186.958 332.957 185.19 332.614 183.742 331.651C182.293 330.687 181.281 329.182 180.928 327.466L170.302 275.389C169.61 272.033 170.017 268.541 171.461 265.44C172.905 262.338 175.308 259.796 178.308 258.196C179.612 257.497 181.008 256.989 182.455 256.689L201.53 252.716C203.543 252.294 205.619 252.276 207.638 252.666C209.657 253.056 211.581 253.844 213.298 254.986C215.015 256.129 216.493 257.602 217.646 259.323C218.799 261.043 219.605 262.977 220.017 265.013L230.655 317.089C230.831 317.939 230.839 318.816 230.679 319.669C230.519 320.522 230.194 321.334 229.723 322.06C229.252 322.786 228.643 323.411 227.933 323.898C227.222 324.386 226.423 324.727 225.582 324.902Z" fill="white"/>
<path d="M220.499 267.401L170.774 277.773L178.665 316.424L228.389 306.051L220.499 267.401Z" fill="#407BFF"/>
<path opacity="0.4" d="M220.499 267.401L170.774 277.773L178.665 316.424L228.389 306.051L220.499 267.401Z" fill="white"/>
<path d="M176.58 245.458L203.655 239.81C204.093 239.719 204.544 239.715 204.983 239.8C205.421 239.885 205.839 240.057 206.212 240.305C206.586 240.553 206.907 240.873 207.158 241.247C207.408 241.62 207.584 242.04 207.674 242.483L208.731 247.659L174.945 254.707L173.879 249.483C173.795 249.039 173.798 248.583 173.888 248.141C173.978 247.699 174.154 247.279 174.405 246.905C174.655 246.531 174.977 246.211 175.35 245.963C175.723 245.714 176.141 245.543 176.58 245.458Z" fill="#407BFF"/>
<path opacity="0.7" d="M207.348 252.607C205.418 252.28 203.446 252.317 201.53 252.717L182.502 256.69C181.056 256.99 179.66 257.497 178.355 258.196L177.538 254.175L206.482 248.099L207.348 252.607Z" fill="white"/>
<path opacity="0.3" d="M177.815 261.064C177.799 260.866 177.721 260.678 177.592 260.528C177.464 260.378 177.292 260.272 177.1 260.228C176.909 260.183 176.708 260.201 176.528 260.279C176.347 260.358 176.196 260.492 176.096 260.663C174.753 262.84 174.138 265.396 174.341 267.953C174.99 272.327 184.221 320.018 185.64 327.32C185.762 327.921 186.084 328.461 186.553 328.851C186.865 329.102 187.23 329.278 187.62 329.364C188.009 329.451 188.413 329.446 188.801 329.349L190.207 328.997L178.187 266.653C178.187 266.653 177.971 263.664 177.815 261.064Z" fill="white"/>
<defs>
<filter id="filter0_di_120_16975" x="366.572" y="0.965526" width="91.1462" height="91.1464" filterUnits="userSpaceOnUse" color-interpolation-filters="sRGB">
<feFlood flood-opacity="0" result="BackgroundImageFix"/>
<feColorMatrix in="SourceAlpha" type="matrix" values="0 0 0 0 0 0 0 0 0 0 0 0 0 0 0 0 0 0 127 0" result="hardAlpha"/>
<feOffset dy="5.88042"/>
<feGaussianBlur stdDeviation="13.966"/>
<feComposite in2="hardAlpha" operator="out"/>
<feColorMatrix type="matrix" values="0 0 0 0 0.0862745 0 0 0 0 0.470588 0 0 0 0 0.94902 0 0 0 0.2 0"/>
<feBlend mode="normal" in2="BackgroundImageFix" result="effect1_dropShadow_120_16975"/>
<feBlend mode="normal" in="SourceGraphic" in2="effect1_dropShadow_120_16975" result="shape"/>
<feColorMatrix in="SourceAlpha" type="matrix" values="0 0 0 0 0 0 0 0 0 0 0 0 0 0 0 0 0 0 127 0" result="hardAlpha"/>
<feOffset dy="5.88042"/>
<feGaussianBlur stdDeviation="2.94021"/>
<feComposite in2="hardAlpha" operator="arithmetic" k2="-1" k3="1"/>
<feColorMatrix type="matrix" values="0 0 0 0 0 0 0 0 0 0 0 0 0 0 0 0 0 0 0.12 0"/>
<feBlend mode="normal" in2="shape" result="effect2_innerShadow_120_16975"/>
</filter>
</defs>
</svg>
