<svg width="31" height="31" viewBox="0 0 31 31" fill="none" xmlns="http://www.w3.org/2000/svg">
<g filter="url(#filter0_d_145_13888)">
<path d="M4.97656 3.97652C4.97656 3.28408 5.21974 2.71283 5.70607 2.26276C6.1924 1.81268 6.82465 1.58765 7.60278 1.58765C8.36703 1.58765 8.98536 1.80921 9.45781 2.25238C9.94414 2.70938 10.1873 3.30485 10.1873 4.03884C10.1873 4.70357 9.9511 5.2575 9.47865 5.70066C8.99232 6.15767 8.35313 6.38617 7.56109 6.38617H7.54025C6.776 6.38617 6.15767 6.15767 5.68522 5.70066C5.21278 5.24366 4.97656 4.66894 4.97656 3.97652ZM5.24752 22.1527V8.27649H9.87467V22.1527H5.24752ZM12.4384 22.1527H17.0655V14.4045C17.0655 13.9198 17.1211 13.5458 17.2322 13.2827C17.4268 12.8119 17.7221 12.4137 18.1181 12.0883C18.5141 11.7629 19.0108 11.6001 19.6083 11.6001C21.1646 11.6001 21.9428 12.6457 21.9428 14.7368V22.1527H26.5699V14.1967C26.5699 12.1472 26.0836 10.5927 25.1109 9.53325C24.1382 8.47383 22.8529 7.94413 21.2549 7.94413C19.4624 7.94413 18.066 8.71272 17.0655 10.2499V10.2915H17.0447L17.0655 10.2499V8.27649H12.4384C12.4661 8.71964 12.48 10.0976 12.48 12.4103C12.48 14.723 12.4661 17.9705 12.4384 22.1527Z" fill="#1678F2"/>
</g>
<defs>
<filter id="filter0_d_145_13888" x="-0.0424805" y="0.599854" width="30.793" height="29.5934" filterUnits="userSpaceOnUse" color-interpolation-filters="sRGB">
<feFlood flood-opacity="0" result="BackgroundImageFix"/>
<feColorMatrix in="SourceAlpha" type="matrix" values="0 0 0 0 0 0 0 0 0 0 0 0 0 0 0 0 0 0 127 0" result="hardAlpha"/>
<feOffset dy="4"/>
<feGaussianBlur stdDeviation="2"/>
<feComposite in2="hardAlpha" operator="out"/>
<feColorMatrix type="matrix" values="0 0 0 0 0 0 0 0 0 0 0 0 0 0 0 0 0 0 0.25 0"/>
<feBlend mode="normal" in2="BackgroundImageFix" result="effect1_dropShadow_145_13888"/>
<feBlend mode="normal" in="SourceGraphic" in2="effect1_dropShadow_145_13888" result="shape"/>
</filter>
</defs>
</svg>
