<svg width="652" height="398" viewBox="0 0 652 398" fill="none" xmlns="http://www.w3.org/2000/svg">
<path d="M647.969 79.1378C647.969 79.1378 640.116 74.3471 631.437 93.0218C622.757 111.696 619.591 122.415 619.591 122.415C619.591 122.415 617.252 126.341 614.528 123.927C611.804 121.513 607.952 114.533 603.481 115.961C598.878 117.455 597.535 122.706 598.699 130.305C599.864 137.905 601.79 154.645 601.968 156.157C602.147 157.669 601.358 159.914 599.235 158.524C597.112 157.134 584.712 144.33 578.963 150.577C573.214 156.824 579.903 177.462 580.635 179.698C581.368 181.933 580.908 182.957 579.837 183.568C578.766 184.178 575.008 179.463 571.382 175.949C567.757 172.436 562.825 169.017 559.819 172.897C556.813 176.776 556.362 192.464 572.172 217.338L580.25 228.385L593.937 227.126C623.057 222.655 634.574 212.003 635.513 207.184C636.453 202.365 630.666 200.937 625.612 200.486C620.559 200.035 614.528 200.289 614.284 199.086C614.039 197.884 614.509 196.916 616.679 195.949C618.849 194.981 638.792 186.452 639.722 178.007C640.652 169.562 622.813 168.698 620.399 167.984C617.985 167.27 619.15 165.222 620.399 164.367C621.648 163.512 635.532 153.94 642.004 149.816C648.477 145.692 651.464 141.249 649.585 136.796C647.706 132.504 639.938 134.194 636.321 133.725C632.705 133.255 634.132 128.915 634.132 128.915C634.132 128.915 640.116 119.521 648.458 100.668C656.8 81.8151 647.791 79.0627 647.791 79.0627" fill="#F5F5F5"/>
<path d="M640.191 95.8494C640.191 95.8494 640.144 95.9903 640.031 96.2533C639.918 96.5163 639.749 96.9296 639.543 97.4275L637.608 101.89C635.917 105.769 633.437 111.368 630.346 118.272C624.165 132.081 615.467 151.075 605.791 172.023C596.115 192.971 587.342 211.965 581.086 225.746L573.693 242.063L571.682 246.496C571.448 246.985 571.269 247.37 571.147 247.642C571.088 247.774 571.022 247.903 570.95 248.028C570.991 247.89 571.041 247.755 571.1 247.624C571.222 247.342 571.382 246.957 571.588 246.459C572.039 245.416 572.697 243.913 573.524 241.987C575.215 238.108 577.694 232.519 580.785 225.614C586.966 211.805 595.665 192.811 605.34 171.854C615.016 150.897 623.761 131.921 630.017 118.15C633.136 111.283 635.654 105.713 637.41 101.843L639.43 97.4087C639.655 96.9109 639.834 96.5351 639.965 96.2533C640.097 95.9715 640.191 95.8494 640.191 95.8494Z" fill="#E0E0E0"/>
<path d="M608.506 125.956C608.675 126.251 608.804 126.567 608.891 126.895C609.116 127.487 609.408 128.361 609.765 129.441C610.46 131.611 611.352 134.617 612.273 137.961L614.593 146.528C614.875 147.552 615.11 148.407 615.307 149.121C615.421 149.423 615.493 149.739 615.523 150.06C615.354 149.765 615.225 149.45 615.138 149.121C614.912 148.529 614.621 147.656 614.274 146.566C613.597 144.396 612.742 141.371 611.822 138.027L609.445 129.479L608.722 126.895C608.614 126.592 608.542 126.276 608.506 125.956Z" fill="#E0E0E0"/>
<path d="M616.792 150.258C616.792 150.136 622.88 148.022 630.479 145.561C638.079 143.1 644.278 141.155 644.316 141.277C644.354 141.399 638.229 143.513 630.629 145.974C623.03 148.435 616.83 150.38 616.792 150.258Z" fill="#E0E0E0"/>
<path d="M600.474 181.764C600.808 181.701 601.148 181.673 601.488 181.68L604.231 181.586C606.542 181.501 609.745 181.379 613.268 181.107C616.791 180.834 619.975 180.515 622.286 180.252L625.01 179.942C625.344 179.879 625.685 179.861 626.025 179.885C625.72 179.996 625.406 180.075 625.085 180.12C624.446 180.242 623.516 180.402 622.37 180.571C620.078 180.919 616.884 181.313 613.352 181.576C609.82 181.839 606.608 181.914 604.278 181.905C603.123 181.905 602.183 181.905 601.535 181.858C601.179 181.876 600.821 181.844 600.474 181.764Z" fill="#E0E0E0"/>
<path d="M588.149 161.436C588.367 161.66 588.556 161.909 588.713 162.178C589.051 162.667 589.54 163.39 590.122 164.292C591.296 166.086 592.884 168.585 594.612 171.356C596.341 174.127 597.891 176.654 598.99 178.495C599.544 179.435 599.976 180.167 600.267 180.693C600.445 180.952 600.587 181.233 600.69 181.529C600.464 181.311 600.271 181.061 600.117 180.787C599.779 180.289 599.3 179.575 598.708 178.674C597.543 176.879 595.956 174.381 594.218 171.6C592.48 168.82 590.939 166.302 589.84 164.461C589.295 163.522 588.901 162.789 588.563 162.272C588.392 162.011 588.253 161.731 588.149 161.436Z" fill="#E0E0E0"/>
<path d="M570.208 187.419C570.481 187.706 570.724 188.021 570.931 188.359L572.744 191.064C574.247 193.356 576.313 196.54 578.568 200.072C580.822 203.605 582.842 206.827 584.279 209.166L585.97 211.984C586.189 212.317 586.377 212.669 586.534 213.036C586.261 212.749 586.018 212.434 585.81 212.096L584.007 209.391C582.495 207.09 580.428 203.905 578.173 200.373C575.919 196.841 573.909 193.619 572.462 191.28C571.786 190.171 571.222 189.232 570.781 188.462C570.553 188.135 570.361 187.786 570.208 187.419Z" fill="#E0E0E0"/>
<path d="M586.318 212.303C586.734 212.208 587.159 212.158 587.586 212.153L591.062 211.909C593.993 211.702 598.051 211.401 602.513 210.969C606.975 210.537 610.967 210.03 613.926 209.626L617.373 209.166C617.795 209.09 618.223 209.052 618.651 209.053C618.245 209.192 617.827 209.289 617.402 209.344C616.594 209.504 615.42 209.71 613.973 209.945C611.061 210.424 607.031 210.988 602.56 211.439C598.088 211.89 594.021 212.143 591.08 212.266C589.606 212.322 588.422 212.359 587.595 212.359C587.169 212.377 586.741 212.358 586.318 212.303Z" fill="#E0E0E0"/>
<path d="M88.5826 171.666C110.498 157.04 115.824 129.394 115.383 104.416C115.298 100.245 115.834 95.868 113.88 92.2045C111.926 88.5409 107.304 85.9483 103.481 87.6485C100.334 89.0576 98.9063 92.6366 97.1121 95.5862C94.6924 99.5272 91.2125 102.708 87.0703 104.764C84.3649 106.098 81.0301 106.887 78.3999 105.403C74.7927 103.374 74.4357 98.4043 74.5296 94.2617L75.0369 71.1156C75.1215 66.9729 75.206 62.7458 73.9566 58.791C72.7073 54.8363 69.8892 51.1539 65.9156 49.9891C61.9421 48.8243 56.9728 51.0224 56.0616 55.0617C55.6859 56.7432 56.0052 58.4998 55.8643 60.2189C55.7234 61.9379 54.925 63.8261 53.2153 64.277C51.5056 64.7279 49.8805 63.5348 48.6406 62.3137C44.3758 58.0583 41.5201 52.6381 38.8617 47.2837C36.2033 41.9293 33.6106 36.3588 29.7592 31.7465C25.9078 27.1342 20.5158 23.4331 14.5132 23.001C8.51061 22.5688 2.05712 26.1479 0.422618 31.9438C-1.21189 37.7397 2.16985 43.7329 5.85219 48.5143C11.3354 55.5973 17.8117 61.8522 25.0811 67.0857C26.3962 68.025 27.8053 69.049 28.2938 70.5895C29.158 73.4076 26.4714 76.0661 23.6909 76.9397C20.544 77.879 17.1153 77.5503 13.8838 77.879C10.6524 78.2078 7.03579 79.5793 5.74886 82.5759C3.97344 86.7843 7.48669 91.2745 10.9718 94.2335C17.9537 100.16 25.8957 104.853 34.4561 108.108C37.5278 109.273 40.7592 110.297 43.211 112.476C45.6628 114.655 47.1188 118.394 45.5688 121.287C44.0189 124.181 40.1393 125.045 36.9172 124.425C33.6952 123.805 30.8301 122.011 27.7677 120.818C22.0282 118.582 14.6165 118.864 10.8121 123.73C8.33213 126.924 8.05031 131.423 9.21514 135.293C10.38 139.164 12.8223 142.517 15.415 145.627C24.4893 156.467 36.1939 165.259 49.4954 170.05C62.7969 174.841 75.1684 176.25 88.5357 171.647" fill="#EBEBEB"/>
<path d="M86.901 172.145C83.3784 159.511 73.7498 129.779 67.9727 115.783L63.6797 105.45C62.2613 102.059 60.8616 98.705 59.2741 95.5018C56.2236 89.3701 52.8367 83.4117 49.1289 77.6537C45.6156 72.1114 42.0836 66.9824 38.7958 62.201C35.508 57.4196 32.2202 53.0516 29.139 49.1719C24.2802 43.0245 18.9403 37.273 13.1697 31.9721C11.1313 30.0933 9.50617 28.6843 8.38832 27.7449L7.05441 26.5989C6.76321 26.364 6.60352 26.2513 6.60352 26.2513C6.60352 26.2513 6.73503 26.3922 7.00745 26.6458L8.24742 27.7543C9.32769 28.6937 10.934 30.1591 12.9443 32.066C18.6282 37.4295 23.9033 43.2102 28.7257 49.3598C31.7881 53.2488 34.9631 57.6451 38.2979 62.4171C41.6327 67.1891 45.1271 72.3369 48.631 77.8698C52.3156 83.6298 55.6805 89.5881 58.7105 95.7178C60.2792 98.9117 61.6789 102.293 63.0973 105.647C64.5158 109.001 65.9154 112.495 67.3903 115.98C73.1298 129.958 82.7866 159.661 86.3374 172.258" fill="#E0E0E0"/>
<path d="M59.0771 95.436C59.2716 94.8621 59.41 94.2706 59.4905 93.67C59.7159 92.524 59.9977 90.8519 60.3171 88.8041C60.9653 84.6896 61.6698 78.9783 62.4307 72.6751C63.1916 66.3719 63.9901 60.6887 64.7228 56.593C65.0797 54.5452 65.3897 52.8919 65.6621 51.7553C65.809 51.1695 65.9064 50.5725 65.9533 49.9705C65.7234 50.5286 65.5473 51.1073 65.4273 51.6989C65.1173 52.8262 64.7416 54.517 64.3282 56.5179C63.417 60.5948 62.5716 66.2967 61.8107 72.6281C61.0498 78.9595 60.3923 84.5299 59.885 88.7759C59.6314 90.7486 59.4153 92.3925 59.2462 93.6606C59.1398 94.2466 59.0832 94.8405 59.0771 95.436Z" fill="#E0E0E0"/>
<path d="M5.28857 84.6801C5.46798 84.7374 5.65456 84.769 5.8428 84.7741L7.43974 84.9338C8.83001 85.0747 10.8309 85.2625 13.292 85.5725C18.2237 86.1549 25.0154 87.2164 32.4552 88.71C39.895 90.2036 46.5458 91.8851 51.3366 93.2284C53.732 93.886 55.6577 94.4684 56.9728 94.8629L58.5134 95.3138C58.6879 95.3814 58.8715 95.4226 59.0582 95.4359C58.9018 95.3328 58.7308 95.2536 58.5509 95.2011C58.1376 95.0414 57.6116 94.8535 57.048 94.6375C55.7422 94.1678 53.8259 93.5102 51.4117 92.7587C46.6491 91.3027 39.9796 89.5649 32.5304 88.0619C25.0811 86.5589 18.3271 85.6101 13.339 85.131C10.8684 84.8774 8.84879 84.7553 7.45852 84.6989H5.8522C5.66584 84.6692 5.4765 84.6629 5.28857 84.6801Z" fill="#E0E0E0"/>
<path d="M81.6597 154.945C81.8029 154.742 81.9257 154.525 82.026 154.297L82.9654 152.418C83.7733 150.746 84.8441 148.304 86.2344 145.27C88.921 139.211 92.3685 130.719 96.0602 121.306C99.752 111.894 103.124 103.345 105.689 97.2395L108.77 90.0251C109.108 89.2173 109.39 88.5691 109.606 88.0618C109.712 87.8355 109.797 87.5996 109.86 87.3573C109.708 87.5552 109.584 87.7734 109.493 88.0055L108.554 89.8842C107.746 91.5563 106.628 93.9987 105.294 97.0234C102.608 103.092 99.1508 111.584 95.4684 120.996C91.7861 130.409 88.395 138.919 85.8117 145.025L82.7306 152.24L81.9039 154.203C81.7924 154.439 81.7104 154.689 81.6597 154.945Z" fill="#E0E0E0"/>
<path d="M10.3335 131.076C10.5582 131.193 10.7943 131.288 11.038 131.358L13.114 132.062L20.7605 134.627C27.214 136.787 36.0911 139.878 45.8887 143.316C55.6864 146.754 64.601 149.779 71.092 151.836C74.3329 152.86 76.9725 153.668 78.7949 154.194L80.9085 154.786C81.1523 154.868 81.4042 154.925 81.66 154.955C81.4319 154.835 81.1928 154.737 80.9461 154.663L78.87 153.959L71.2236 151.413C64.7701 149.253 55.893 146.162 46.0954 142.724C36.2977 139.286 27.3925 136.252 20.9014 134.204C17.6512 133.18 15.021 132.372 13.1892 131.846L11.085 131.245C10.8406 131.164 10.5889 131.107 10.3335 131.076Z" fill="#E0E0E0"/>
<path d="M449.274 26.9463H567.7L544.535 43.4135V57.1659C544.483 63.9608 541.734 70.4568 536.894 75.2254C532.053 79.994 525.516 82.6447 518.721 82.5947H444.408C437.613 82.6447 431.076 79.994 426.235 75.2254C421.395 70.4568 418.646 63.9608 418.594 57.1659C418.623 53.167 419.44 49.2131 420.998 45.53C422.556 41.8469 424.824 38.5068 427.673 35.7005C430.522 32.8942 433.896 30.6767 437.603 29.1746C441.309 27.6726 445.275 26.9154 449.274 26.9463Z" fill="#F5F5F5"/>
<path d="M524.555 45.3297C524.555 45.4613 504.828 45.574 480.404 45.574C455.981 45.574 436.254 45.4613 436.254 45.3297C436.254 45.1982 455.981 45.0855 480.404 45.0855C504.828 45.0855 524.555 45.1888 524.555 45.3297Z" fill="#E0E0E0"/>
<path d="M524.555 54.4793C524.555 54.6109 504.828 54.7236 480.404 54.7236C455.981 54.7236 436.254 54.6109 436.254 54.4793C436.254 54.3478 455.981 54.2351 480.404 54.2351C504.828 54.2351 524.555 54.3384 524.555 54.4793Z" fill="#E0E0E0"/>
<path d="M269.599 308.805H129.463L152.29 325.319V357.727C152.29 358.616 152.465 359.496 152.806 360.318C153.146 361.139 153.645 361.885 154.274 362.513C154.903 363.141 155.65 363.639 156.472 363.979C157.293 364.318 158.174 364.492 159.063 364.491H269.599C270.488 364.492 271.368 364.318 272.19 363.979C273.012 363.639 273.758 363.141 274.387 362.513C275.016 361.885 275.515 361.139 275.856 360.318C276.196 359.496 276.372 358.616 276.372 357.727V315.568C276.369 313.774 275.655 312.053 274.385 310.785C273.115 309.517 271.393 308.805 269.599 308.805Z" fill="#F5F5F5"/>
<path d="M263.756 331.707C263.756 331.848 242.621 331.951 216.553 331.951C190.485 331.951 169.35 331.848 169.35 331.707C169.35 331.566 190.476 331.462 216.553 331.462C242.63 331.462 263.756 331.575 263.756 331.707Z" fill="#E0E0E0"/>
<path d="M263.756 344.153C263.756 344.285 242.621 344.397 216.553 344.397C190.485 344.397 169.35 344.285 169.35 344.153C169.35 344.022 190.476 343.909 216.553 343.909C242.63 343.909 263.756 344.022 263.756 344.153Z" fill="#E0E0E0"/>
<path d="M555.723 149.093H391.718C371.594 149.093 355.28 165.407 355.28 185.531V319.016C355.28 339.14 371.594 355.454 391.718 355.454H555.723C575.847 355.454 592.161 339.14 592.161 319.016V185.531C592.161 165.407 575.847 149.093 555.723 149.093Z" fill="#407BFF"/>
<g opacity="0.4">
<path d="M555.722 149.093H391.717C371.593 149.093 355.279 165.407 355.279 185.531V319.016C355.279 339.14 371.593 355.454 391.717 355.454H555.722C575.846 355.454 592.16 339.14 592.16 319.016V185.531C592.16 165.407 575.846 149.093 555.722 149.093Z" fill="black"/>
</g>
<path d="M592.095 221.03H627.575L591.297 257.318L592.095 221.03Z" fill="#407BFF"/>
<g opacity="0.4">
<path d="M592.094 221.03H627.574L591.296 257.318L592.094 221.03Z" fill="black"/>
</g>
<path d="M349.606 243.34L334.735 226.431C330.715 222.411 329.334 220.476 330.142 219.771C331.213 218.832 330.752 219.142 339.103 225.407C339.103 225.407 327.267 216.361 331.372 216.305C332.096 216.305 334.106 217.47 336.257 218.879C333.326 216.389 332.5 214.708 333.073 213.909C334.012 212.519 341.264 217.545 344.599 219.959C341.875 217.93 336.68 213.994 335.769 212.754C334.51 211.063 337.056 211.204 339.122 211.908C341.442 212.698 354.265 219.245 358.06 220.936C358.364 221.117 358.704 221.231 359.057 221.268C359.409 221.306 359.765 221.267 360.101 221.153C360.437 221.04 360.744 220.855 361.001 220.612C361.259 220.368 361.46 220.072 361.592 219.743C362.992 213.862 367.228 210.039 368.844 209.541C370.46 209.043 371.709 211.11 370.554 212.613C369.467 214.362 368.626 216.252 368.055 218.23C367.531 219.782 367.274 221.412 367.294 223.049C367.294 224.928 367.425 226.553 367.548 227.915L381.14 246.562L358.407 259.713L349.606 243.34Z" fill="#B78876"/>
<path d="M344.288 228.038C344.138 228.244 341.47 226.431 338.389 223.979C335.308 221.528 332.903 219.367 333.082 219.17C333.26 218.973 335.9 220.795 338.981 223.228C342.062 225.661 344.42 227.822 344.288 228.038Z" fill="#AA6550"/>
<path d="M347.163 225.069C347.012 225.285 344.091 223.5 340.634 221.096C337.177 218.691 334.49 216.558 334.641 216.352C334.791 216.145 337.713 217.911 341.169 220.316C344.626 222.721 347.313 224.853 347.163 225.069Z" fill="#AA6550"/>
<path d="M349.266 221.913C349.116 222.129 346.317 220.494 343.02 218.259C339.722 216.023 337.167 214.041 337.308 213.815C337.449 213.59 340.249 215.234 343.555 217.47C346.862 219.705 349.407 221.697 349.266 221.913Z" fill="#AA6550"/>
<path d="M368.816 230.442L422.999 299.148L410.589 328.034C410.589 328.034 395.729 324.746 391.22 318.49C386.711 312.233 349.605 243.34 349.605 243.34L368.816 230.442Z" fill="#B78876"/>
<path d="M506.359 134.326C510.257 137.708 510.248 143.663 509.797 148.802C509.346 153.94 508.998 159.792 512.558 163.531C515.499 166.612 520.825 167.955 521.501 172.154C521.661 173.141 521.512 174.153 521.074 175.051C520.635 175.949 519.93 176.69 519.053 177.171C518.177 177.652 517.173 177.849 516.18 177.737C515.187 177.624 514.253 177.206 513.507 176.541C514.653 179.857 513.864 184 510.99 186.01C508.115 188.02 503.296 186.78 502.404 183.389C502.55 183.955 502.578 184.546 502.485 185.123C502.393 185.7 502.183 186.252 501.868 186.745C501.553 187.238 501.14 187.66 500.654 187.986C500.169 188.311 499.621 188.534 499.046 188.639C498.471 188.743 497.88 188.728 497.311 188.595C496.742 188.461 496.206 188.212 495.738 187.862C495.269 187.512 494.878 187.07 494.588 186.562C494.298 186.054 494.116 185.492 494.053 184.911" fill="#263238"/>
<path d="M450.531 169.007C450.007 170.266 449.004 171.264 447.744 171.783C446.483 172.302 445.068 172.298 443.81 171.774C442.552 171.249 441.554 170.247 441.035 168.986C440.516 167.726 440.519 166.311 441.044 165.053C441.936 163.099 444.05 161.69 444.256 159.548C444.501 156.965 441.861 155.114 439.559 153.987C437.258 152.86 434.477 151.394 434.224 148.802C433.97 146.209 436.215 144.358 438.085 142.686C439.954 141.014 441.842 138.422 440.649 136.195C440.057 135.049 438.827 134.401 438.028 133.377C436.272 131.141 437.192 127.581 439.437 125.862C441.682 124.143 444.782 123.871 447.582 124.369C450.381 124.866 453.011 126.031 455.735 126.848C460.251 128.162 464.99 128.524 469.653 127.913C474.316 127.302 478.802 125.73 482.827 123.298" fill="#263238"/>
<path d="M467.168 229.588C472.021 230.567 477.064 229.599 481.21 226.893C485.356 224.186 488.271 219.958 489.327 215.121L502.657 154.006C503.489 150.477 503.605 146.817 502.998 143.242C502.391 139.667 501.073 136.251 499.123 133.194C497.172 130.138 494.629 127.504 491.643 125.447C488.656 123.391 485.288 121.954 481.737 121.222L480.347 121.015C473.556 120.017 466.638 121.613 460.972 125.487C455.305 129.36 451.306 135.226 449.77 141.916C446.802 154.814 443.693 169.101 442.753 176.119C440.809 190.651 454.965 195.028 454.965 195.028L452.419 207.24C451.915 209.673 451.896 212.182 452.363 214.622C452.831 217.063 453.777 219.387 455.145 221.461C456.514 223.535 458.279 225.318 460.339 226.708C462.399 228.098 464.713 229.067 467.149 229.559L467.168 229.588Z" fill="#B78876"/>
<path d="M452.383 151.535C452.3 152.074 452.43 152.625 452.746 153.07C453.061 153.515 453.537 153.82 454.073 153.921C454.333 153.98 454.602 153.987 454.865 153.941C455.127 153.895 455.378 153.796 455.602 153.652C455.826 153.508 456.019 153.32 456.169 153.1C456.32 152.88 456.425 152.632 456.478 152.371C456.566 151.833 456.439 151.281 456.125 150.835C455.81 150.389 455.334 150.084 454.797 149.985C454.536 149.926 454.267 149.919 454.004 149.965C453.741 150.011 453.489 150.109 453.265 150.254C453.04 150.398 452.846 150.586 452.695 150.806C452.543 151.026 452.437 151.274 452.383 151.535Z" fill="#263238"/>
<path d="M451.847 149.469C452.063 149.779 453.801 148.839 456.036 149.177C458.272 149.516 459.728 150.859 460.01 150.624C460.151 150.521 459.954 149.995 459.324 149.375C458.458 148.565 457.362 148.043 456.187 147.881C455.028 147.706 453.844 147.903 452.805 148.445C452.044 148.877 451.744 149.328 451.847 149.469Z" fill="#263238"/>
<path d="M474.166 155.105C474.081 155.644 474.21 156.196 474.526 156.642C474.842 157.087 475.32 157.392 475.857 157.491C476.117 157.55 476.387 157.556 476.65 157.509C476.913 157.463 477.164 157.364 477.388 157.218C477.612 157.073 477.805 156.884 477.955 156.663C478.105 156.442 478.209 156.193 478.262 155.931C478.346 155.393 478.217 154.843 477.901 154.398C477.585 153.954 477.107 153.651 476.571 153.555C476.311 153.494 476.042 153.487 475.779 153.532C475.516 153.578 475.265 153.676 475.04 153.82C474.816 153.965 474.623 154.153 474.473 154.374C474.323 154.595 474.218 154.843 474.166 155.105Z" fill="#263238"/>
<path d="M473.697 153.094C473.913 153.395 475.651 152.465 477.877 152.803C480.104 153.141 481.578 154.485 481.86 154.25C481.992 154.147 481.804 153.621 481.165 153.001C480.298 152.191 479.202 151.669 478.028 151.507C476.869 151.332 475.685 151.529 474.646 152.071C473.923 152.474 473.584 152.954 473.697 153.094Z" fill="#263238"/>
<path d="M463.185 168.444C463.185 168.312 461.86 167.871 459.662 167.26C459.099 167.119 458.582 166.922 458.544 166.518C458.583 165.926 458.799 165.36 459.164 164.893C459.91 163.597 460.683 162.235 461.485 160.807C464.725 154.973 467.121 150.154 466.924 150.023C466.726 149.891 463.871 154.513 460.63 160.356L458.375 164.47C457.92 165.109 457.701 165.886 457.755 166.668C457.813 166.876 457.916 167.068 458.058 167.231C458.199 167.393 458.375 167.522 458.572 167.608C458.873 167.737 459.189 167.828 459.512 167.88C460.708 168.22 461.942 168.409 463.185 168.444Z" fill="#263238"/>
<path d="M474.391 144.274C474.522 144.913 476.795 144.95 479.36 145.645C481.924 146.34 483.935 147.364 484.367 146.876C484.555 146.641 484.273 146.012 483.512 145.307C482.48 144.42 481.258 143.781 479.941 143.437C478.624 143.094 477.246 143.055 475.912 143.325C474.86 143.569 474.344 144.02 474.391 144.274Z" fill="#263238"/>
<path d="M453.612 143.137C453.931 143.701 455.491 143.4 457.369 143.644C459.248 143.889 460.732 144.49 461.127 144.011C461.324 143.776 461.127 143.231 460.544 142.649C459.71 141.94 458.685 141.495 457.597 141.372C456.51 141.248 455.41 141.45 454.438 141.953C453.762 142.376 453.471 142.865 453.612 143.137Z" fill="#263238"/>
<path d="M489.243 135.791L489.308 135.866C491.355 138.026 492.486 140.895 492.465 143.87V144.161C492.465 148.388 491.704 152.615 491.713 156.796C491.723 160.976 492.53 165.428 495.17 168.716C496.25 170.078 498.355 171.206 499.585 169.984C500.019 169.465 500.296 168.833 500.384 168.162C502.619 158.289 506.64 149.835 508.152 139.389C508.362 137.991 508.235 136.563 507.783 135.223C507.33 133.883 506.565 132.671 505.55 131.686C503.596 129.807 501.163 127.778 498.561 128.577C495.959 129.375 492.155 133.462 489.985 135.153" fill="#263238"/>
<path d="M496.805 159.849C497.068 159.773 507.204 158.355 505.429 168.228C503.653 178.101 494.156 174.287 494.156 173.995C494.156 173.704 496.805 159.849 496.805 159.849Z" fill="#B78876"/>
<path d="M497.839 170.802C497.839 170.802 497.99 170.952 498.253 171.131C498.632 171.381 499.093 171.476 499.54 171.394C500.648 171.196 501.822 169.703 502.189 167.927C502.378 167.089 502.378 166.22 502.189 165.382C502.15 165.057 502.033 164.746 501.848 164.476C501.663 164.206 501.416 163.985 501.127 163.832C500.939 163.743 500.726 163.724 500.525 163.777C500.323 163.83 500.148 163.953 500.028 164.123C499.85 164.367 499.878 164.583 499.821 164.583C499.765 164.583 499.643 164.386 499.821 163.991C499.919 163.757 500.095 163.565 500.319 163.446C500.627 163.289 500.985 163.259 501.315 163.362C501.708 163.518 502.055 163.773 502.321 164.102C502.588 164.431 502.765 164.823 502.837 165.241C503.098 166.158 503.133 167.125 502.94 168.059C502.517 170.041 501.165 171.713 499.671 171.873C499.391 171.902 499.109 171.869 498.844 171.774C498.579 171.68 498.338 171.527 498.14 171.328C497.811 171.037 497.802 170.811 497.839 170.802Z" fill="#AA6550"/>
<path d="M498.675 130.164C501.7 126.548 495.857 119.878 491.16 117.614C486.463 115.35 479.7 116.797 474.59 117.699C471.368 118.272 468.099 119.249 464.886 118.638C462.754 118.105 460.714 117.253 458.836 116.111C456.953 114.99 454.864 114.259 452.693 113.96C451.601 113.826 450.493 113.992 449.488 114.44C448.483 114.889 447.62 115.603 446.991 116.506C445.873 118.385 446.653 121.325 448.757 121.935C448.123 121.454 447.381 121.134 446.596 121.002C445.811 120.87 445.005 120.93 444.249 121.178C443.492 121.426 442.807 121.854 442.252 122.424C441.697 122.995 441.288 123.692 441.062 124.455C440.835 125.219 440.797 126.026 440.951 126.807C441.105 127.588 441.446 128.32 441.945 128.941C442.444 129.561 443.086 130.051 443.816 130.369C444.546 130.687 445.342 130.823 446.136 130.766C444.887 129.488 442.463 130.944 442.379 132.729C442.294 134.514 443.703 136.026 445.197 136.975C449.058 139.398 453.961 139.52 458.451 138.713C462.941 137.905 467.244 136.233 471.715 135.312C476.187 134.392 483.692 132.644 487.731 134.777C490.7 136.336 492.334 140.413 494.222 139.859C495.117 139.529 495.922 138.996 496.574 138.302C497.226 137.607 497.707 136.77 497.98 135.857C498.489 134.024 498.701 132.121 498.609 130.221" fill="#263238"/>
<path d="M517.997 175.959C518.182 175.917 518.357 175.84 518.514 175.733C518.978 175.435 519.349 175.012 519.584 174.512C519.949 173.713 520.06 172.822 519.904 171.957C519.66 170.82 519.037 169.8 518.138 169.064C517.07 168.185 515.868 167.484 514.578 166.988C513.127 166.458 511.733 165.785 510.416 164.978C509.037 164.008 507.985 162.642 507.401 161.06C506.759 159.357 506.462 157.544 506.527 155.725C506.621 151.967 507.664 148.445 507.917 145.129C508.171 141.813 507.748 138.703 506.339 136.552C505.28 134.822 503.6 133.562 501.642 133.03C501.118 132.897 500.577 132.844 500.036 132.87C499.848 132.873 499.662 132.901 499.482 132.954C500.195 132.95 500.905 133.038 501.596 133.217C503.457 133.806 505.035 135.06 506.029 136.74C507.335 138.826 507.786 141.85 507.457 145.091C507.128 148.332 506.123 151.855 506.011 155.715C505.951 157.601 506.27 159.479 506.95 161.239C507.578 162.91 508.703 164.349 510.172 165.363C511.52 166.172 512.946 166.846 514.427 167.373C515.684 167.839 516.86 168.498 517.912 169.327C518.771 170.006 519.379 170.951 519.641 172.014C519.812 172.822 519.734 173.664 519.415 174.428C519.125 175.081 518.626 175.619 517.997 175.959Z" fill="#455A64"/>
<path d="M448.438 121.701C448.306 121.602 448.16 121.523 448.005 121.466C447.83 121.379 447.648 121.307 447.461 121.25C447.201 121.161 446.934 121.095 446.662 121.053C445.771 120.912 444.86 120.976 443.997 121.24C443.135 121.503 442.344 121.96 441.683 122.574C441.015 123.389 440.514 124.328 440.211 125.338C439.908 126.347 439.808 127.407 439.917 128.455C440.044 129.757 440.43 131.02 441.052 132.171C441.675 133.321 442.522 134.335 443.543 135.153C445.891 137.044 448.75 138.192 451.754 138.45C455.015 138.73 458.3 138.531 461.504 137.858C466.584 136.863 471.45 134.98 475.877 132.297C477.774 131.123 479.759 130.096 481.813 129.225C483.606 128.498 485.516 128.106 487.45 128.07C490.263 128.009 493.048 128.655 495.547 129.948C496.451 130.454 497.325 131.009 498.168 131.611C497.416 130.872 496.565 130.24 495.641 129.732C493.135 128.336 490.309 127.614 487.44 127.638C485.459 127.653 483.498 128.032 481.654 128.755C479.578 129.625 477.571 130.652 475.651 131.827C471.255 134.455 466.437 136.301 461.41 137.285C458.254 137.953 455.016 138.159 451.801 137.896C448.889 137.654 446.114 136.556 443.825 134.739C442.841 133.961 442.022 132.995 441.415 131.896C440.809 130.798 440.427 129.59 440.293 128.342C440.178 127.343 440.262 126.33 440.539 125.363C440.817 124.396 441.282 123.493 441.909 122.706C442.535 122.108 443.287 121.657 444.109 121.386C444.931 121.114 445.803 121.03 446.662 121.137C447.27 121.27 447.864 121.459 448.438 121.701Z" fill="#455A64"/>
<path d="M453.932 113.481C453.899 114.236 454.017 114.99 454.28 115.698C455.013 117.656 456.383 119.31 458.169 120.395C459.369 121.177 460.704 121.731 462.105 122.029C463.712 122.353 465.358 122.439 466.99 122.283C470.437 122.029 474.044 120.846 477.83 119.869C481.616 118.892 485.401 118.375 488.67 119.249C491.572 120.018 494.152 121.693 496.035 124.03C497.33 125.583 498.29 127.387 498.853 129.328C499.229 130.709 499.276 131.517 499.342 131.508C499.354 131.314 499.354 131.119 499.342 130.925C499.29 130.372 499.199 129.822 499.069 129.281C498.568 127.279 497.635 125.409 496.336 123.805C494.434 121.371 491.799 119.616 488.821 118.798C485.439 117.859 481.55 118.394 477.746 119.38C473.941 120.367 470.362 121.55 466.99 121.823C465.401 121.987 463.797 121.921 462.227 121.626C460.87 121.349 459.572 120.834 458.394 120.104C456.653 119.077 455.289 117.515 454.505 115.651C454.254 114.945 454.062 114.219 453.932 113.481Z" fill="#455A64"/>
<path d="M458.733 175.818C458.857 176.788 459.113 177.736 459.494 178.636C459.693 179.081 459.985 179.478 460.349 179.802C460.713 180.126 461.142 180.369 461.607 180.515C462.111 180.619 462.633 180.595 463.125 180.446C463.617 180.297 464.065 180.026 464.426 179.66C465.146 178.901 465.609 177.935 465.75 176.898C465.9 175.959 465.75 174.785 464.811 174.484C464.431 174.39 464.035 174.39 463.655 174.484L458.451 175.423" fill="#AA6550"/>
<path d="M459.643 179.763C460.471 180.082 461.349 180.247 462.236 180.252C463.154 180.198 464.019 179.802 464.66 179.143C465.038 178.74 465.327 178.261 465.507 177.738C465.686 177.215 465.753 176.66 465.702 176.109C465.674 175.827 465.611 175.549 465.514 175.282C465.392 175.029 465.43 175.048 465.214 175.019C464.998 174.991 464.66 175.019 464.378 175.066L463.504 175.132C462.377 175.217 461.362 175.282 460.508 175.329C459.571 175.46 458.62 175.441 457.689 175.273C458.568 174.952 459.489 174.762 460.423 174.709C461.268 174.587 462.302 174.465 463.401 174.334L464.265 174.24C464.576 174.194 464.89 174.166 465.204 174.155C465.453 174.162 465.693 174.247 465.89 174.399C466.065 174.554 466.198 174.752 466.275 174.972C466.403 175.311 466.485 175.665 466.52 176.025C466.581 176.701 466.493 177.382 466.261 178.021C466.028 178.659 465.658 179.238 465.176 179.716C464.375 180.479 463.305 180.894 462.198 180.872C461.476 180.875 460.767 180.676 460.151 180.299C459.831 180.036 459.615 179.801 459.643 179.763Z" fill="#263238"/>
<path d="M454.983 195.028C454.983 195.028 464.452 198.617 473.667 195.968C473.667 195.968 466.716 201.801 454.035 199.565L454.983 195.028Z" fill="#AA6550"/>
<path d="M469.432 329.706C468.976 329.407 468.542 329.074 468.136 328.71C467.732 328.381 467.196 327.977 466.623 327.545C466.05 327.113 465.355 326.606 464.557 326.089C463.758 325.572 462.932 325.009 461.964 324.473C460.997 323.938 459.973 323.374 458.874 322.811C454.054 320.439 448.873 318.89 443.543 318.227C442.312 318.095 441.148 317.945 440.049 317.916C438.95 317.888 437.926 317.841 436.996 317.851C436.066 317.86 435.211 317.907 434.469 317.935C433.727 317.963 433.088 318.02 432.59 318.076C432.052 318.158 431.509 318.196 430.965 318.189C431.493 318.053 432.03 317.953 432.571 317.888C433.193 317.782 433.82 317.706 434.45 317.663C435.192 317.607 436.037 317.503 436.986 317.503C437.935 317.503 438.959 317.447 440.067 317.503C441.176 317.56 442.359 317.653 443.599 317.766C446.287 318.101 448.945 318.647 451.546 319.401C454.129 320.194 456.642 321.196 459.061 322.397C460.161 322.98 461.222 323.515 462.152 324.116C463.082 324.718 463.965 325.253 464.735 325.798C465.506 326.343 466.182 326.869 466.774 327.32C467.366 327.771 467.854 328.203 468.239 328.56C468.668 328.908 469.067 329.291 469.432 329.706Z" fill="#FAFAFA"/>
<path d="M414.225 281.46L421.928 248.084C424.878 235.534 428.372 223.472 434.243 222.044V225.924L431.726 321.28C431.726 321.28 416.029 339.128 396.03 329.227C389.774 326.117 378.36 304.277 378.36 304.277C378.36 304.277 351.804 256.895 352.913 254.744C354.021 252.593 370.244 231.682 371.897 230.64L414.225 281.46Z" fill="#407BFF"/>
<path d="M493.49 212.594C508.801 215.525 526.039 224.459 533.977 247.351C536.87 255.712 557.949 317.344 557.949 317.344L522 316.592L516.194 303.901L519.012 324.52L521.445 353.923L430.665 355.454L431.303 311.153L432.177 223.04C432.177 223.04 433.191 221.706 448.851 213.073C458.564 207.71 493.49 212.594 493.49 212.594Z" fill="#407BFF"/>
<g opacity="0.2">
<path d="M502.543 271.53C504.037 290.13 505.747 295.879 507.24 314.479C507.276 316.24 507.593 317.984 508.18 319.645C508.493 320.471 508.997 321.212 509.65 321.807C510.302 322.403 511.086 322.837 511.937 323.074C514.586 323.609 518.024 325.526 518.766 322.933L516.258 305.019C515.719 302.413 514.887 299.876 513.778 297.457C508.208 285.086 506.151 284.362 502.506 271.53" fill="black"/>
</g>
<path d="M448.841 222.608L449.142 220.673L452.045 202.111C452.128 201.571 452.413 201.083 452.842 200.745C453.27 200.407 453.811 200.244 454.355 200.288L490.098 203.276C491.178 203.364 492.179 203.876 492.883 204.7C493.587 205.523 493.936 206.592 493.856 207.672L493.058 218.456L481.898 233.016L465.825 235.524" fill="#407BFF"/>
<path d="M430.888 257.506C431.029 257.506 431.133 272.047 431.133 289.98C431.133 307.912 431.029 322.454 430.888 322.454C430.747 322.454 430.644 307.912 430.644 289.98C430.644 272.047 430.757 257.506 430.888 257.506Z" fill="#263238"/>
<path d="M522.77 319.579C522.77 319.579 522.77 319.513 522.657 319.373C522.544 319.232 522.478 318.997 522.356 318.734L521.267 316.263L517.349 307.142L504.583 276.979C502.103 271.079 499.746 265.462 497.604 260.342C496.521 257.944 495.745 255.42 495.293 252.827C494.897 250.563 494.689 248.269 494.673 245.97C494.553 242.639 495.037 239.313 496.101 236.154L496.392 235.374L496.721 234.716C496.875 234.367 497.064 234.033 497.284 233.721L497.679 233.138C497.724 233.072 497.775 233.009 497.829 232.95C497.212 233.989 496.693 235.084 496.279 236.219C495.296 239.372 494.87 242.671 495.021 245.97C495.037 250.869 496.056 255.712 498.017 260.202L505.034 276.819L517.669 307.039L521.426 316.216L522.431 318.724L522.685 319.382C522.719 319.445 522.748 319.511 522.77 319.579Z" fill="#263238"/>
<path d="M504.629 215.873C504.301 216.206 503.953 216.52 503.587 216.812C502.53 217.617 501.379 218.289 500.158 218.813C498.224 219.62 496.199 220.188 494.127 220.504C491.389 220.929 488.629 221.202 485.861 221.321C482.78 221.452 479.417 221.396 475.809 221.462C471.978 221.455 468.16 221.922 464.443 222.852C460.325 223.825 456.598 226.023 453.753 229.155C452.336 230.861 451.321 232.865 450.784 235.017C450.211 237.224 450.25 239.546 450.897 241.733C451.256 242.813 451.786 243.828 452.466 244.739C453.151 245.625 454.015 246.355 455.002 246.881C455.96 247.406 457.052 247.635 458.14 247.539C459.204 247.43 460.189 246.927 460.902 246.13C461.537 245.291 461.988 244.328 462.228 243.304C462.467 242.28 462.489 241.217 462.292 240.184C462.136 239.163 461.819 238.174 461.352 237.253C460.889 236.354 460.332 235.507 459.69 234.726C457.179 231.832 453.797 229.831 450.052 229.024C446.807 228.258 443.424 228.297 440.198 229.136C437.544 229.823 435.01 230.909 432.683 232.359C430.911 233.463 429.239 234.721 427.685 236.116C426.398 237.243 425.487 238.22 424.867 238.859L424.172 239.61C424.096 239.7 424.011 239.782 423.918 239.855C425.024 238.457 426.25 237.159 427.582 235.975C429.12 234.552 430.787 233.276 432.561 232.161C434.91 230.667 437.477 229.545 440.17 228.836C443.449 227.956 446.895 227.898 450.202 228.667C454.044 229.477 457.517 231.519 460.094 234.482C460.75 235.265 461.323 236.115 461.803 237.018C462.277 237.985 462.594 239.022 462.743 240.09C462.907 241.178 462.888 242.286 462.686 243.368C462.484 244.494 461.988 245.547 461.249 246.421C460.459 247.307 459.367 247.867 458.187 247.99C457.002 248.102 455.811 247.857 454.767 247.285C453.719 246.725 452.8 245.951 452.071 245.012C451.354 244.055 450.796 242.99 450.418 241.856C449.743 239.583 449.704 237.169 450.305 234.876C450.854 232.648 451.904 230.576 453.377 228.817C456.291 225.621 460.102 223.378 464.311 222.382C468.071 221.463 471.93 221.015 475.8 221.049C479.417 220.992 482.779 221.049 485.842 220.964C488.599 220.868 491.35 220.62 494.08 220.222C496.14 219.926 498.157 219.39 500.092 218.625C501.306 218.132 502.46 217.502 503.53 216.746C503.906 216.493 504.16 216.258 504.347 216.126C504.433 216.033 504.527 215.948 504.629 215.873Z" fill="#FAFAFA"/>
<path d="M535.694 254.969C535.562 255.006 535.427 255.028 535.29 255.035C535.027 255.035 534.642 255.101 534.135 255.12C532.715 255.166 531.295 255.132 529.879 255.016C528.085 254.885 525.962 254.612 523.614 254.283C521.265 253.955 518.691 253.607 515.967 253.466C513.42 253.328 510.865 253.52 508.368 254.039C506.325 254.455 504.365 255.2 502.562 256.247C500.93 257.245 499.481 258.516 498.279 260.004C498.33 259.879 498.399 259.761 498.486 259.657C498.684 259.325 498.91 259.011 499.162 258.717C500.072 257.606 501.161 256.653 502.384 255.899C504.198 254.791 506.186 253.997 508.264 253.551C510.802 252.997 513.402 252.788 515.995 252.931C518.748 253.072 521.331 253.447 523.679 253.795C526.028 254.143 528.132 254.453 529.907 254.622C531.683 254.791 533.139 254.866 534.135 254.875C534.656 254.875 535.177 254.906 535.694 254.969Z" fill="#FAFAFA"/>
<path d="M513.122 297.081C511.356 296.671 509.54 296.516 507.73 296.621C505.607 296.765 503.506 297.14 501.465 297.739C499.069 298.387 496.392 299.336 493.386 300.266C490.122 301.373 486.706 301.965 483.26 302.023C479.291 302.022 475.365 301.206 471.724 299.627C467.678 297.917 464.079 295.301 461.203 291.981C459.648 290.246 458.379 288.273 457.446 286.138C456.452 283.928 456.079 281.489 456.365 279.083C456.693 276.658 457.875 274.429 459.7 272.799C460.607 272.008 461.694 271.453 462.866 271.183C464.013 270.94 465.2 270.973 466.332 271.278C467.464 271.583 468.507 272.153 469.376 272.94C470.225 273.718 470.815 274.737 471.067 275.861C471.31 276.961 471.221 278.108 470.813 279.158C470.418 280.167 469.82 281.085 469.056 281.854C467.6 283.313 465.839 284.433 463.899 285.133C462.986 285.479 462.043 285.74 461.081 285.912C460.611 285.997 460.142 286.1 459.681 286.166L458.282 286.335C454.849 286.675 451.384 286.431 448.033 285.612C445.27 284.954 442.607 283.93 440.114 282.568C438.229 281.55 436.462 280.328 434.844 278.923L433.905 278.106L433.135 277.326C432.719 276.933 432.33 276.512 431.97 276.068L431.294 275.26C431.216 275.172 431.147 275.078 431.087 274.978C431.178 275.056 431.263 275.141 431.341 275.232L432.045 276.002C432.418 276.433 432.816 276.841 433.238 277.223L434.018 277.984L434.957 278.782C436.582 280.148 438.349 281.335 440.227 282.324C442.707 283.649 445.35 284.641 448.09 285.273C451.407 286.064 454.834 286.286 458.225 285.931L459.597 285.762C460.057 285.687 460.536 285.583 460.987 285.499C461.927 285.329 462.848 285.071 463.739 284.729C465.615 284.045 467.318 282.958 468.728 281.544C469.446 280.817 470.009 279.951 470.381 278.999C470.749 278.031 470.831 276.977 470.616 275.964C470.337 274.93 469.781 273.991 469.008 273.249C468.235 272.508 467.274 271.991 466.229 271.756C465.158 271.447 464.027 271.415 462.941 271.663C461.855 271.911 460.85 272.431 460.02 273.174C458.28 274.724 457.157 276.848 456.854 279.158C456.585 281.474 456.941 283.819 457.887 285.95C458.796 288.035 460.026 289.965 461.532 291.671C464.359 294.93 467.893 297.501 471.865 299.186C475.448 300.749 479.312 301.568 483.222 301.59C486.633 301.548 490.018 300.978 493.255 299.9C496.251 298.96 498.891 298.077 501.361 297.448C503.424 296.868 505.544 296.518 507.683 296.405C508.462 296.356 509.243 296.356 510.022 296.405C510.689 296.508 511.262 296.555 511.713 296.659L512.737 296.912C512.873 296.951 513.002 297.007 513.122 297.081Z" fill="#FAFAFA"/>
<path d="M430.58 287.058C430.495 287.058 430.063 286.119 429.152 284.541C426.767 280.536 423.29 277.294 419.129 275.194C417.532 274.386 416.48 274.029 416.508 273.945C416.772 273.968 417.031 274.028 417.278 274.123C417.962 274.327 418.63 274.578 419.279 274.875C421.431 275.856 423.411 277.179 425.141 278.792C426.874 280.403 428.33 282.288 429.452 284.372C429.808 284.995 430.121 285.642 430.392 286.307C430.487 286.548 430.551 286.801 430.58 287.058Z" fill="#FAFAFA"/>
<path d="M394.133 327.263C394.133 327.263 394.067 327.188 393.982 327.029C393.898 326.869 393.757 326.615 393.597 326.324C393.259 325.704 392.771 324.774 392.169 323.572C390.424 320.177 388.985 316.634 387.867 312.985C387.12 310.45 386.669 307.837 386.524 305.198C386.449 303.723 386.509 302.246 386.702 300.783C386.936 299.234 387.307 297.709 387.811 296.227C388.907 293.021 390.805 290.15 393.325 287.885C394.67 286.65 396.253 285.702 397.975 285.096C399.698 284.491 401.526 284.241 403.348 284.362C405.242 284.504 407.009 285.364 408.289 286.767C408.898 287.461 409.34 288.284 409.583 289.175C409.825 290.065 409.862 290.999 409.689 291.905C409.486 292.795 409.021 293.603 408.355 294.226C407.704 294.822 406.917 295.251 406.063 295.475C404.409 295.905 402.654 295.694 401.15 294.883C399.754 294.13 398.535 293.09 397.571 291.83C396.647 290.664 395.885 289.378 395.307 288.007C394.29 285.547 393.869 282.882 394.076 280.229C394.266 278.04 394.906 275.913 395.955 273.982C396.733 272.525 397.727 271.195 398.905 270.037C399.641 269.302 400.45 268.644 401.319 268.074C401.61 267.876 401.854 267.754 402.014 267.66L402.258 267.538C402.258 267.538 401.958 267.754 401.375 268.158C400.537 268.756 399.754 269.429 399.036 270.168C397.911 271.337 396.962 272.663 396.218 274.104C395.22 276.011 394.622 278.102 394.462 280.248C394.28 282.849 394.718 285.457 395.739 287.857C396.309 289.187 397.055 290.435 397.956 291.567C398.891 292.773 400.068 293.768 401.413 294.489C402.817 295.244 404.455 295.439 405.997 295.034C406.788 294.849 407.512 294.449 408.091 293.879C408.669 293.309 409.079 292.59 409.275 291.802C409.424 290.972 409.385 290.119 409.161 289.306C408.937 288.493 408.533 287.741 407.979 287.105C406.78 285.798 405.127 284.998 403.357 284.87C401.602 284.754 399.842 284.994 398.182 285.577C396.522 286.16 394.998 287.073 393.701 288.261C391.242 290.472 389.383 293.271 388.299 296.396C387.793 297.846 387.418 299.34 387.181 300.858C386.986 302.296 386.92 303.748 386.984 305.198C387.116 307.808 387.544 310.396 388.262 312.91C389.344 316.55 390.727 320.094 392.395 323.506L393.738 326.324C393.879 326.625 393.992 326.869 394.086 327.057C394.18 327.245 394.133 327.263 394.133 327.263Z" fill="#FAFAFA"/>
<path d="M382.53 244.336C382.53 244.336 382.577 244.467 382.615 244.721C382.681 245.1 382.728 245.483 382.756 245.867C382.88 247.27 382.88 248.682 382.756 250.085C382.376 254.757 380.778 259.248 378.121 263.11C375.464 266.972 371.841 270.07 367.613 272.094C366.348 272.712 365.031 273.218 363.677 273.607C363.208 273.757 362.822 273.823 362.569 273.888C362.315 273.954 362.174 273.964 362.174 273.945C362.645 273.742 363.128 273.569 363.621 273.428C364.939 272.971 366.223 272.422 367.463 271.784C371.578 269.705 375.105 266.625 377.718 262.827C380.331 259.028 381.947 254.634 382.418 250.047C382.566 248.662 382.619 247.269 382.577 245.876C382.529 245.364 382.513 244.85 382.53 244.336Z" fill="#FAFAFA"/>
<path d="M543.915 285.067C542.517 285.942 541.289 287.062 540.289 288.373C539.349 289.585 538.41 291.191 537.348 292.882C536.184 294.776 534.841 296.553 533.337 298.19C530.587 301.161 527.326 303.614 523.709 305.432C522.62 305.984 521.497 306.464 520.346 306.87C519.926 307.034 519.492 307.16 519.049 307.245C519.438 307.023 519.847 306.837 520.271 306.691C521.06 306.344 522.206 305.855 523.549 305.122C527.059 303.236 530.233 300.782 532.943 297.861C534.431 296.25 535.767 294.504 536.935 292.648C537.869 291.096 538.888 289.596 539.988 288.157C540.752 287.193 541.662 286.353 542.684 285.668C542.961 285.484 543.253 285.324 543.558 285.189C543.802 285.095 543.915 285.048 543.915 285.067Z" fill="#FAFAFA"/>
<path d="M493.15 213.722C493.013 213.781 492.867 213.819 492.718 213.834L491.469 214.06C490.379 214.238 488.801 214.473 486.857 214.736C482.949 215.262 477.538 215.882 471.535 216.324C468.725 216.58 465.903 216.681 463.081 216.624C460.753 216.567 458.447 216.172 456.233 215.45C454.739 214.966 453.329 214.253 452.053 213.336C451.705 213.091 451.372 212.825 451.057 212.538C450.85 212.331 450.747 212.228 450.756 212.209C450.766 212.19 451.245 212.585 452.156 213.149C453.454 213.983 454.861 214.634 456.336 215.084C458.53 215.751 460.807 216.105 463.1 216.136C465.922 216.166 468.744 216.053 471.554 215.798C477.538 215.356 482.949 214.802 486.857 214.36L491.488 213.834C492.039 213.758 492.594 213.72 493.15 213.722Z" fill="#263238"/>
<path d="M557.526 323.994C558.233 327.628 558.132 331.374 557.23 334.964C556.328 338.555 554.647 341.903 552.307 344.772C549.966 347.64 547.023 349.959 543.687 351.563C540.35 353.167 536.701 354.018 532.999 354.054L461.842 353.265L463.721 330.222L524.648 321.073" fill="#B78876"/>
<path d="M468.079 331.228C467.751 331.331 463.646 329.49 459.963 327.789C456.057 325.98 451.769 325.148 447.47 325.366L430.505 326.23C430.505 326.23 431.547 329.048 433.323 329.988C435.098 330.927 445.741 331.228 445.741 331.228L445.196 331.782C442.971 334.074 439.936 335.403 436.742 335.483H435.117C433.914 335.388 432.725 335.154 431.575 334.788L427.395 333.097C426.127 332.533 424.793 332.618 424.239 333.895C423.685 335.173 424.107 336.638 427.564 338.376C429.49 339.316 436.648 341.824 436.648 341.824C436.697 342.843 436.839 343.855 437.071 344.848C437.381 345.891 440.19 346.934 440.19 346.934C440.919 348.48 441.754 349.974 442.688 351.405C443.017 351.781 445.563 352.579 448.278 353.34C452.654 354.565 457.288 354.529 461.645 353.237L468.108 351.302V331.575" fill="#B78876"/>
<path d="M444.877 344.106C441.888 344.03 438.958 343.258 436.319 341.852C436.319 341.739 438.198 342.453 440.575 343.064C442.951 343.674 444.886 343.965 444.877 344.106Z" fill="#AA6550"/>
<path d="M444.275 348.061C443.479 348.226 442.652 348.165 441.889 347.883C441.092 347.736 440.351 347.372 439.748 346.831C440.516 346.984 441.27 347.201 442.002 347.479C442.774 347.614 443.534 347.809 444.275 348.061Z" fill="#AA6550"/>
<path d="M447.375 329.696C447.004 330.219 446.565 330.69 446.069 331.096C444.944 332.17 443.703 333.115 442.368 333.914C441.023 334.699 439.561 335.264 438.037 335.586C437.425 335.75 436.792 335.82 436.159 335.793C438.258 335.31 440.286 334.556 442.189 333.548C443.495 332.761 444.735 331.872 445.9 330.889C446.355 330.449 446.849 330.05 447.375 329.696Z" fill="#AA6550"/>
<path d="M469.807 328.137L468.079 354.195H535.103C539.653 354.198 544.119 352.961 548.019 350.616C552.433 347.964 555.923 344.016 558.014 339.309C560.105 334.603 560.695 329.367 559.705 324.314C558.741 319.365 557.293 314.523 555.384 309.857L521.679 315.408L522.759 319.598L469.807 328.137Z" fill="#407BFF"/>
<path d="M538.289 317.409C538.067 317.474 537.841 317.524 537.612 317.56L535.649 317.917L528.407 319.119L504.584 322.876L480.733 326.531L473.5 327.583L471.528 327.846C471.297 327.878 471.065 327.897 470.833 327.902C471.055 327.825 471.285 327.771 471.518 327.742L473.472 327.395L480.687 326.183L504.509 322.426L528.407 318.743L535.64 317.691L537.612 317.428C537.837 317.398 538.063 317.392 538.289 317.409Z" fill="#263238"/>
<path d="M503.981 354.214C503.859 354.214 504.385 352.335 504.451 349.263C504.465 348.429 504.431 347.595 504.347 346.765C504.267 345.818 504.129 344.877 503.934 343.946C503.469 341.803 502.737 339.727 501.755 337.765C500.749 335.813 499.52 333.985 498.091 332.317L497.152 331.218C496.832 330.861 496.485 330.551 496.165 330.232C495.536 329.583 494.869 329.067 494.287 328.569C491.891 326.69 490.191 325.751 490.247 325.666C490.663 325.833 491.062 326.037 491.44 326.277C491.908 326.521 492.36 326.794 492.793 327.094C493.291 327.451 493.911 327.799 494.503 328.306C495.179 328.812 495.825 329.358 496.438 329.94C496.767 330.26 497.133 330.56 497.462 330.88L498.486 331.988C499.957 333.667 501.219 335.519 502.243 337.502C503.238 339.504 503.97 341.626 504.423 343.815C504.615 344.773 504.741 345.742 504.798 346.718C504.858 347.562 504.858 348.41 504.798 349.254C504.78 349.955 504.717 350.655 504.61 351.349C504.559 351.871 504.468 352.39 504.338 352.899C504.257 353.346 504.138 353.786 503.981 354.214Z" fill="#FAFAFA"/>
<path d="M544.788 352.251C543.741 352.245 542.698 352.122 541.679 351.884C540.477 351.609 539.311 351.196 538.203 350.654C536.735 349.924 535.408 348.937 534.286 347.742C532.924 346.276 531.935 344.504 531.402 342.575C531.105 341.503 530.938 340.399 530.904 339.287C530.836 338.112 530.931 336.933 531.186 335.784C531.437 334.56 531.908 333.392 532.576 332.336C533.273 331.217 534.243 330.292 535.394 329.649C536.585 328.955 537.954 328.628 539.33 328.71C540.038 328.759 540.728 328.951 541.359 329.274C541.99 329.597 542.55 330.044 543.003 330.589C543.473 331.126 543.825 331.755 544.039 332.436C544.252 333.117 544.322 333.834 544.243 334.544C544.128 335.232 543.861 335.886 543.461 336.458C543.061 337.03 542.539 337.505 541.932 337.85C539.659 339.041 537.04 339.4 534.53 338.865C530.967 338.309 527.71 336.526 525.324 333.822C522.937 331.118 521.572 327.665 521.464 324.06C521.403 323.013 521.492 321.963 521.727 320.941C521.64 321.975 521.615 323.014 521.651 324.051C521.826 326.878 522.75 329.608 524.329 331.96C525.505 333.687 527.021 335.155 528.785 336.275C530.549 337.394 532.523 338.141 534.587 338.47C536.985 338.986 539.488 338.654 541.669 337.531C542.214 337.223 542.684 336.798 543.045 336.286C543.406 335.774 543.648 335.189 543.755 334.572C543.81 333.929 543.738 333.281 543.543 332.666C543.347 332.051 543.032 331.481 542.616 330.988C542.2 330.495 541.69 330.089 541.117 329.793C540.543 329.497 539.917 329.318 539.274 329.264C538 329.178 536.729 329.468 535.62 330.1C534.576 330.724 533.679 331.565 532.99 332.567C532.301 333.569 531.836 334.708 531.628 335.906C531.373 337.02 531.275 338.165 531.336 339.306C531.362 340.382 531.517 341.451 531.797 342.491C532.292 344.368 533.233 346.099 534.54 347.535C535.614 348.714 536.885 349.696 538.297 350.438C539.38 350.991 540.52 351.422 541.698 351.725C543.67 352.166 544.798 352.185 544.788 352.251Z" fill="#FAFAFA"/>
<path d="M278.919 68.3726H111.063C101.252 68.3726 91.8425 72.27 84.905 79.2075C77.9676 86.1449 74.0702 95.5541 74.0702 105.365V165.184H37.8574L74.0702 201.397V242.062C74.0702 251.873 77.9676 261.283 84.905 268.22C91.8425 275.157 101.252 279.055 111.063 279.055H278.919C288.73 279.055 298.139 275.157 305.077 268.22C312.014 261.283 315.911 251.873 315.911 242.062V105.365C315.911 95.5541 312.014 86.1449 305.077 79.2075C298.139 72.27 288.73 68.3726 278.919 68.3726Z" fill="#407BFF"/>
<path d="M210.346 74.6946C209.284 77.4469 211.106 80.4435 213.164 82.5665C215.221 84.6895 217.682 86.6997 218.33 89.5742C218.866 91.9884 217.973 94.4965 218.189 96.9577C218.405 99.4188 219.767 101.739 220.538 104.144C221.937 108.503 221.374 113.265 220.124 117.671C219.223 121.332 217.502 124.74 215.089 127.638C213.874 129.073 212.369 130.233 210.671 131.043C208.974 131.853 207.125 132.293 205.245 132.334C204.713 132.368 204.18 132.292 203.68 132.111C203.179 131.93 202.72 131.648 202.333 131.282C201.806 130.522 201.515 129.624 201.497 128.699C199.346 109.785 199.346 90.6875 201.497 71.7731" fill="#263238"/>
<path d="M208.363 135.65C216.536 135.293 224.088 143.118 223.44 151.272C231.716 153.292 237.531 162.394 235.943 170.755C235.408 173.516 234.177 176.147 234.008 178.946C233.82 182.008 234.947 184.986 235.502 187.992C236.565 193.471 235.997 199.141 233.867 204.3C232.58 207.409 230.175 210.622 226.812 210.715C225.673 210.667 224.563 210.34 223.58 209.762C222.597 209.183 221.772 208.372 221.176 207.399C220.005 205.43 219.233 203.251 218.903 200.984C217.447 193.638 217.024 186.095 214.995 178.89C212.966 171.685 209.021 164.583 202.511 160.929C198.913 158.9 194.592 157.942 191.727 154.964C190.286 153.339 189.325 151.345 188.952 149.205C188.578 147.065 188.807 144.863 189.613 142.846C190.458 140.847 191.714 139.048 193.3 137.567C194.886 136.086 196.767 134.956 198.819 134.251" fill="#263238"/>
<path d="M151.795 81.4298C151.701 77.9353 154.923 75.2393 158.173 73.9148C161.424 72.5903 165.04 72.1488 167.933 70.1573C170.507 68.4289 172.226 65.7329 174.396 63.5817C177.076 60.8645 180.43 58.9093 184.115 57.9169C187.8 56.9245 191.683 56.9307 195.364 57.9348C199.046 58.9389 202.394 60.9047 205.065 63.6305C207.736 66.3563 209.633 69.7438 210.562 73.4451C211.812 78.4144 210.957 84.2949 207.04 87.6015C202.493 91.4341 195.767 90.5793 189.915 89.3863C184.062 88.1933 177.487 87.0191 172.621 90.4478C169.69 92.505 167.999 95.8679 166.205 98.9773C164.411 102.087 162.166 105.252 158.775 106.426C155.383 107.601 150.771 105.572 150.64 101.993" fill="#263238"/>
<path d="M165.565 82.1438C164.11 82.301 162.767 82.9981 161.802 84.0974C160.837 85.1966 160.319 86.618 160.351 88.0806L163.836 166.988C163.986 176.306 177.607 181.539 187.583 181.304C197.663 181.069 197.982 176.128 198.114 167.26C198.32 152.456 198.302 146.895 198.311 146.979C198.32 147.064 211.04 144.837 213.642 128.192C214.929 119.935 214.487 106.389 213.764 95.3137C213.115 85.347 206.484 73.1352 196.554 74.2061L165.565 82.1438Z" fill="#FFBE9D"/>
<path d="M210.899 105.778C210.905 106.333 210.694 106.867 210.312 107.269C209.929 107.671 209.406 107.907 208.852 107.929C208.584 107.953 208.314 107.922 208.057 107.84C207.801 107.758 207.564 107.625 207.359 107.45C207.155 107.275 206.987 107.062 206.866 106.821C206.745 106.581 206.672 106.319 206.654 106.051C206.646 105.496 206.856 104.959 207.239 104.557C207.621 104.155 208.147 103.919 208.701 103.9C208.969 103.876 209.239 103.907 209.496 103.989C209.752 104.071 209.989 104.204 210.194 104.379C210.398 104.553 210.566 104.767 210.687 105.008C210.808 105.248 210.881 105.51 210.899 105.778Z" fill="#263238"/>
<path d="M210.843 102.396C210.58 102.678 208.964 101.457 206.672 101.457C204.38 101.457 202.698 102.622 202.445 102.34C202.322 102.218 202.595 101.711 203.328 101.175C204.317 100.487 205.495 100.122 206.7 100.133C207.893 100.126 209.057 100.497 210.025 101.194C210.73 101.748 210.974 102.274 210.843 102.396Z" fill="#263238"/>
<path d="M188.871 105.778C188.876 106.333 188.666 106.867 188.283 107.269C187.901 107.671 187.377 107.907 186.823 107.929C186.555 107.953 186.285 107.922 186.029 107.84C185.773 107.758 185.535 107.625 185.331 107.45C185.126 107.275 184.959 107.062 184.837 106.821C184.716 106.581 184.644 106.319 184.625 106.051C184.617 105.496 184.828 104.959 185.21 104.557C185.593 104.155 186.118 103.919 186.673 103.9C186.941 103.876 187.211 103.907 187.467 103.989C187.724 104.071 187.961 104.204 188.165 104.379C188.37 104.553 188.538 104.767 188.659 105.008C188.78 105.248 188.852 105.51 188.871 105.778Z" fill="#263238"/>
<path d="M188.354 102.876C188.091 103.157 186.476 101.936 184.183 101.936C181.891 101.936 180.21 103.101 179.966 102.819C179.844 102.697 180.107 102.19 180.839 101.654C181.828 100.964 183.006 100.597 184.212 100.602C185.406 100.598 186.57 100.973 187.537 101.673C188.195 102.246 188.439 102.753 188.354 102.876Z" fill="#263238"/>
<path d="M196.667 119.86C196.667 119.728 198.076 119.484 200.425 119.183C201.007 119.117 201.561 118.995 201.665 118.601C201.708 117.995 201.57 117.39 201.27 116.863L199.523 112.41C197.109 106.07 195.352 100.856 195.615 100.762C195.878 100.668 198.039 105.731 200.453 112.035L202.125 116.515C202.489 117.221 202.598 118.03 202.435 118.807C202.352 119.012 202.225 119.196 202.063 119.346C201.9 119.495 201.706 119.607 201.495 119.672C201.189 119.756 200.874 119.8 200.556 119.803C198.114 119.972 196.676 119.991 196.667 119.86Z" fill="#263238"/>
<path d="M198.311 146.988C190.488 147.123 182.781 145.084 176.048 141.099C176.048 141.099 181.469 152.503 198.095 150.906L198.311 146.988Z" fill="#EB996E"/>
<path d="M195.71 125.383C195.268 124.827 194.689 124.395 194.031 124.128C193.373 123.862 192.657 123.77 191.953 123.861C191.447 123.906 190.955 124.054 190.508 124.294C190.061 124.535 189.667 124.864 189.35 125.261C189.045 125.644 188.865 126.112 188.835 126.601C188.804 127.09 188.925 127.576 189.181 127.994C189.549 128.407 190.032 128.699 190.569 128.833C191.105 128.967 191.669 128.937 192.187 128.746C193.269 128.361 194.262 127.764 195.109 126.989C195.369 126.808 195.592 126.578 195.766 126.313C195.852 126.187 195.898 126.038 195.898 125.885C195.898 125.733 195.852 125.584 195.766 125.458" fill="#EB996E"/>
<path d="M189.923 121.475C190.299 121.475 190.309 123.946 192.441 125.702C194.573 127.459 197.222 127.187 197.241 127.581C197.241 127.741 196.649 128.07 195.532 128.098C194.074 128.124 192.653 127.635 191.52 126.717C190.436 125.83 189.739 124.557 189.576 123.166C189.473 122.067 189.754 121.475 189.923 121.475Z" fill="#263238"/>
<path d="M189.294 98.8551C189.068 99.4845 186.776 99.1933 184.09 99.5221C181.403 99.8508 179.224 100.593 178.867 100.029C178.707 99.7663 179.083 99.1745 179.957 98.5733C181.123 97.8236 182.445 97.3494 183.822 97.1866C185.199 97.0238 186.595 97.1768 187.904 97.6339C188.928 98.0754 189.425 98.5639 189.294 98.8551Z" fill="#263238"/>
<path d="M209.96 95.7645C209.556 96.2812 207.978 95.7645 206.071 95.7645C204.164 95.7645 202.567 96.1215 202.201 95.5766C202.032 95.3136 202.285 94.797 202.99 94.2991C203.933 93.7093 205.029 93.4115 206.14 93.4433C207.252 93.475 208.329 93.8349 209.237 94.4776C209.96 94.9754 210.157 95.5109 209.96 95.7645Z" fill="#263238"/>
<path d="M153.964 136.796C156.255 137.259 158.623 137.171 160.872 136.539C163.122 135.907 165.189 134.749 166.903 133.161C168.617 131.572 169.929 129.599 170.73 127.404C171.532 125.209 171.799 122.855 171.512 120.536C170.995 116.45 168.797 112.307 170.216 108.437C172.094 103.336 179.243 101.767 181.14 96.6664C182.239 93.7074 181.253 90.2411 182.503 87.3385C183.677 84.6143 186.551 83.0455 189.351 82.031C192.15 81.0165 195.137 80.3214 197.485 78.499C199.834 76.6766 201.29 73.2385 199.778 70.674C187.371 72.1626 175.186 75.1236 163.48 79.4947C160.765 80.5092 157.919 81.7304 156.313 84.1352C154.622 86.6903 154.707 89.9781 154.847 93.0404C155.543 107.958 153.269 121.926 153.964 136.843" fill="#263238"/>
<path d="M150.01 132.118C149.915 132.104 149.824 132.076 149.738 132.034C149.47 131.94 149.214 131.814 148.977 131.658C148.062 131.066 147.343 130.216 146.91 129.216C146.199 127.634 146.008 125.868 146.365 124.171C146.931 121.967 147.959 119.908 149.381 118.131C150.837 116.102 152.687 114.045 153.946 111.424C154.617 110.092 154.992 108.631 155.045 107.14C154.991 105.558 154.673 103.996 154.106 102.519C153.473 100.921 153.138 99.2208 153.119 97.5024C153.21 95.6638 153.75 93.8754 154.692 92.2936C155.633 90.7118 156.948 89.3846 158.521 88.4281C160.208 87.5077 162.079 86.9749 163.997 86.8687C165.854 86.7776 167.693 86.4622 169.474 85.9293C171.146 85.2962 172.52 84.0595 173.325 82.4631C174.093 80.8925 174.703 79.25 175.148 77.5595C175.623 75.9377 176.252 74.3649 177.026 72.8627C178.439 70.0146 180.59 67.5978 183.254 65.8644C185.607 64.385 188.36 63.6697 191.136 63.8165C193.435 63.9354 195.624 64.8332 197.345 66.3622C198.628 67.5154 199.584 68.9864 200.116 70.627C200.462 71.6539 200.593 72.7411 200.501 73.8208C200.482 74.1964 200.419 74.5684 200.313 74.9293C200.313 74.9293 200.379 74.5442 200.407 73.8115C200.452 72.7483 200.293 71.6864 199.938 70.6833C199.291 68.8373 198.104 67.2285 196.531 66.0659C194.958 64.9033 193.072 64.2406 191.117 64.1641C188.418 64.0452 185.749 64.7602 183.47 66.2119C180.877 67.916 178.788 70.284 177.421 73.0693C176.662 74.5719 176.052 76.145 175.599 77.7662C175.14 79.4872 174.51 81.1582 173.72 82.7543C173.284 83.5802 172.716 84.3291 172.038 84.9712C171.337 85.6202 170.513 86.1217 169.615 86.446C167.785 87.0101 165.891 87.3446 163.979 87.4417C162.129 87.5392 160.325 88.0495 158.699 88.9353C157.196 89.8475 155.938 91.1136 155.036 92.6232C154.134 94.1327 153.614 95.8401 153.523 97.5963C153.54 99.2617 153.858 100.91 154.463 102.462C155.061 103.985 155.394 105.599 155.449 107.234C155.386 108.785 154.988 110.304 154.284 111.687C152.969 114.374 151.1 116.384 149.634 118.422C148.22 120.149 147.189 122.157 146.61 124.312C146.235 125.952 146.39 127.669 147.051 129.216C147.457 130.201 148.135 131.051 149.005 131.667C149.634 131.987 150.019 132.081 150.01 132.118Z" fill="#455A64"/>
<path d="M198.284 59.6832C198.512 59.7001 198.733 59.7675 198.932 59.8805C199.496 60.1197 200.024 60.4358 200.501 60.8199C202.137 62.0897 203.221 63.9416 203.528 65.9904C203.834 68.0391 203.338 70.127 202.144 71.8199C201.798 72.3244 201.387 72.7822 200.923 73.182C200.585 73.4638 200.378 73.5859 200.36 73.5577C200.889 72.9575 201.388 72.3304 201.853 71.679C202.912 70.0283 203.336 68.0498 203.048 66.1101C202.759 64.1705 201.778 62.4011 200.285 61.1299C199.646 60.6095 198.978 60.1265 198.284 59.6832Z" fill="#455A64"/>
<path d="M235.088 173.695C235.286 173.117 235.447 172.527 235.567 171.929C235.788 170.289 235.503 168.621 234.75 167.147C233.591 164.984 231.748 163.266 229.509 162.263C228.198 161.643 226.829 161.155 225.422 160.807C223.957 160.431 222.407 160.121 220.857 159.614C219.297 159.189 217.859 158.404 216.658 157.322C215.582 156.244 214.886 154.846 214.676 153.339C214.422 151.939 214.338 150.614 214.028 149.431C213.75 148.336 213.233 147.316 212.515 146.444C211.465 145.166 210.069 144.217 208.495 143.71C207.377 143.372 206.71 143.372 206.71 143.316C206.869 143.3 207.03 143.3 207.189 143.316C207.649 143.347 208.104 143.42 208.551 143.532C210.199 143.986 211.672 144.925 212.778 146.228C213.552 147.128 214.114 148.191 214.422 149.337C214.76 150.567 214.864 151.911 215.127 153.263C215.32 154.689 215.981 156.011 217.005 157.021C218.157 158.044 219.53 158.786 221.017 159.191C222.529 159.679 224.079 159.999 225.554 160.384C226.98 160.733 228.365 161.23 229.687 161.868C232.001 162.927 233.888 164.738 235.041 167.006C235.793 168.548 236.037 170.287 235.737 171.976C235.647 172.426 235.505 172.864 235.314 173.281C235.253 173.427 235.178 173.565 235.088 173.695Z" fill="#455A64"/>
<path d="M162.832 144.274C154.377 142.019 147.144 133.781 144.195 125.58C141.245 117.379 141.245 108.427 142.006 99.7475C142.551 93.4631 143.659 86.8123 147.83 82.0779C154.124 74.9387 160.981 71.2939 170.45 71.5945" fill="#263238"/>
<path d="M211.961 162.591L204.117 160.619C204.972 160.031 205.595 159.163 205.88 158.166C206.165 157.168 206.093 156.102 205.676 155.152C205.18 153.933 204.358 152.875 203.301 152.091C202.245 151.308 200.993 150.829 199.683 150.708L163.931 146.669C163.306 146.586 162.671 146.714 162.127 147.035C161.584 147.355 161.164 147.848 160.934 148.435C159.35 152.468 159.296 155.787 160.774 158.392H160.605L153.71 159.764L142.024 262.851L218.564 259.272L211.961 162.591Z" fill="#F5F5F5"/>
<path d="M200.708 161.013C200.238 161.15 199.757 161.245 199.271 161.295C198.331 161.445 196.988 161.605 195.316 161.774C186.565 162.587 177.743 162.147 169.117 160.468C167.463 160.14 166.139 159.839 165.228 159.595C164.749 159.502 164.28 159.364 163.828 159.181C164.313 159.217 164.794 159.296 165.265 159.416C166.205 159.595 167.529 159.848 169.183 160.13C177.8 161.613 186.566 162.048 195.288 161.427C196.96 161.314 198.312 161.192 199.252 161.098C199.734 161.031 200.221 161.003 200.708 161.013Z" fill="#263238"/>
<path d="M166.109 177.396C166.862 175.832 167.759 174.342 168.787 172.943C169.684 171.457 170.719 170.057 171.877 168.763C171.123 170.328 170.223 171.819 169.191 173.216C168.298 174.704 167.266 176.103 166.109 177.396Z" fill="#E0E0E0"/>
<path d="M190.778 179.143C188.39 176.692 186.242 174.018 184.362 171.158C185.613 172.33 186.752 173.616 187.762 175.001C188.899 176.281 189.909 177.668 190.778 179.143Z" fill="#E0E0E0"/>
<path d="M179.318 192.247C178.778 190.576 178.391 188.86 178.163 187.118C177.772 185.406 177.548 183.66 177.496 181.905C178.037 183.576 178.424 185.292 178.651 187.034C179.031 188.748 179.255 190.493 179.318 192.247Z" fill="#E0E0E0"/>
<path d="M198.151 193.055C196.825 194.705 195.374 196.25 193.812 197.677C192.36 199.222 190.79 200.651 189.115 201.951C190.441 200.301 191.892 198.756 193.455 197.329C194.912 195.79 196.482 194.361 198.151 193.055Z" fill="#E0E0E0"/>
<path d="M172.893 210.621C169.431 208.553 166.612 205.565 164.749 201.989C164.88 201.904 166.317 204.159 168.581 206.535C170.845 208.912 172.987 210.499 172.893 210.621Z" fill="#E0E0E0"/>
<path d="M181.009 224.186C181.009 224.327 178.867 225.013 176.387 226.337C173.907 227.662 172.094 229.052 172 228.93C173.182 227.664 174.595 226.634 176.161 225.896C177.651 225.018 179.298 224.437 181.009 224.186Z" fill="#E0E0E0"/>
<path d="M194.207 225.06C193.647 224.586 193.146 224.046 192.713 223.453C191.849 222.42 190.694 220.945 189.491 219.264C188.289 217.582 187.274 216.014 186.57 214.849C186.151 214.247 185.804 213.597 185.537 212.914C186.036 213.45 186.48 214.035 186.861 214.661L189.895 218.982L192.986 223.247C193.456 223.806 193.865 224.414 194.207 225.06Z" fill="#E0E0E0"/>
<path d="M195.531 236.633C193.705 237.273 191.815 237.714 189.894 237.948C187.995 238.344 186.058 238.536 184.117 238.521C185.994 238.049 187.898 237.698 189.819 237.469C191.705 237.077 193.612 236.798 195.531 236.633Z" fill="#E0E0E0"/>
<path d="M174.16 159.557C174.094 159.557 174.545 158.994 174.93 157.998C175.407 156.695 175.549 155.293 175.344 153.921C175.111 152.538 174.703 151.19 174.132 149.91C173.855 149.386 173.641 148.831 173.493 148.257C173.885 148.707 174.203 149.218 174.433 149.769C175.116 151.042 175.583 152.42 175.813 153.846C176.041 155.302 175.842 156.793 175.24 158.139C175.03 158.709 174.654 159.203 174.16 159.557Z" fill="#E0E0E0"/>
<path d="M188.457 151.836C189.127 152.758 189.605 153.805 189.865 154.914C190.125 156.024 190.16 157.175 189.969 158.298C189.828 158.298 189.81 156.805 189.387 155.029C188.964 153.254 188.354 151.911 188.457 151.836Z" fill="#E0E0E0"/>
<path d="M252.946 225.285L288.548 162.751L292.841 151.901C292.841 151.901 303.944 128.041 304.715 125.599C305.607 122.781 307.176 122.555 308.19 122.95C309.768 123.579 310.276 125.928 309.581 128.361C309.336 129.197 305.025 142.31 305.025 142.31C306.184 141.311 307.415 140.397 308.707 139.577C311.44 137.698 316.447 137.792 321.088 139.445C325.728 141.098 326.874 141.972 326.32 143.794C326.198 144.137 326 144.447 325.741 144.702C325.483 144.957 325.17 145.151 324.827 145.269C323.734 145.726 322.509 145.752 321.398 145.344C313.939 142.808 310.633 146.171 310.633 146.171L310.078 147.59C310.078 147.59 315.715 145.795 318.871 148.332C319.342 148.704 319.737 149.163 320.036 149.684C321.057 150.018 321.974 150.613 322.695 151.409C323.416 152.206 323.917 153.177 324.147 154.227C324.378 155.276 324.33 156.368 324.01 157.393C323.689 158.419 323.106 159.343 322.318 160.074C321.976 160.464 321.523 160.741 321.02 160.869C320.517 160.996 319.987 160.968 319.5 160.788C319.045 160.478 318.679 160.053 318.439 159.557C318.286 159.309 318.113 159.073 317.922 158.853L315.799 162.61C315.799 162.61 310.567 170.783 308.688 174.606L284.171 239.92C283.364 242.07 282.138 244.038 280.563 245.709C278.988 247.38 277.096 248.72 274.997 249.652C272.898 250.583 270.634 251.087 268.339 251.134C266.043 251.181 263.761 250.77 261.626 249.925C259.322 249.015 257.24 247.621 255.521 245.837C253.803 244.053 252.488 241.921 251.665 239.585C250.842 237.249 250.53 234.763 250.751 232.296C250.972 229.829 251.721 227.438 252.946 225.285Z" fill="#FFBE9D"/>
<path d="M291 162.535C292.258 163.362 293.996 162.798 295.123 161.821C296.251 160.844 297.002 159.501 298.092 158.439C301.257 155.274 306.546 154.973 309.58 151.657C310.003 151.197 310.379 150.492 310.012 149.985C309.646 149.478 308.97 149.572 308.406 149.684L293.836 152.568" fill="#FFBE9D"/>
<path d="M293.836 152.568C294.327 152.346 294.845 152.188 295.377 152.099C296.382 151.845 297.847 151.516 299.651 151.159L306.001 149.816L307.88 149.431C308.603 149.166 309.402 149.193 310.106 149.506C310.307 149.655 310.459 149.861 310.543 150.097C310.627 150.333 310.638 150.588 310.576 150.831C310.479 151.228 310.285 151.596 310.012 151.901C309.521 152.445 308.97 152.93 308.368 153.348C305.945 155.03 303.286 155.715 301.163 156.833C300.15 157.312 299.219 157.946 298.401 158.712C297.65 159.435 297.058 160.262 296.438 160.966C295.992 161.588 295.415 162.104 294.748 162.479C294.081 162.854 293.34 163.078 292.577 163.136C291.46 163.136 290.999 162.582 291.037 162.573C291.526 162.74 292.041 162.82 292.559 162.808C293.251 162.693 293.913 162.436 294.501 162.053C295.09 161.669 295.593 161.168 295.978 160.581C296.58 159.76 297.222 158.97 297.904 158.214C298.755 157.37 299.735 156.666 300.806 156.129C302.995 154.945 305.644 154.25 307.88 152.653C308.418 152.27 308.916 151.833 309.364 151.347C309.777 150.887 309.918 150.333 309.627 150.173C309.336 150.013 308.688 150.088 308.039 150.22L306.161 150.568L299.773 151.742C297.951 152.061 296.476 152.305 295.452 152.456C294.923 152.578 294.377 152.616 293.836 152.568Z" fill="#EB996E"/>
<path d="M309.881 147.609C310.254 146.736 310.827 145.964 311.553 145.354C312.366 144.744 313.355 144.415 314.371 144.415C315.648 144.422 316.916 144.632 318.129 145.035C319.367 145.452 320.645 145.742 321.942 145.899C323.032 146.024 324.134 145.855 325.136 145.41C325.481 145.251 325.784 145.014 326.02 144.717C326.257 144.42 326.42 144.072 326.498 143.701C326.569 143.439 326.569 143.164 326.498 142.902C326.442 142.902 326.442 143.184 326.301 143.654C326.198 143.97 326.027 144.26 325.8 144.504C325.572 144.747 325.295 144.938 324.986 145.063C324.03 145.418 323.001 145.534 321.989 145.401C320.729 145.203 319.49 144.888 318.288 144.462C317.034 144.049 315.72 143.846 314.399 143.86C313.29 143.886 312.222 144.283 311.365 144.988C310.797 145.461 310.36 146.072 310.097 146.763C309.862 147.317 309.843 147.599 309.881 147.609Z" fill="#EB996E"/>
<path d="M309.834 127.421C309.466 128.262 309.17 129.132 308.951 130.023C308.397 131.827 307.739 133.969 307.007 136.336C306.274 138.703 305.551 140.826 304.968 142.62C304.628 143.471 304.367 144.352 304.188 145.251C304.655 144.459 305.039 143.622 305.335 142.752C305.954 141.174 306.744 138.994 307.533 136.505C308.322 134.016 308.932 131.808 309.327 130.127C309.591 129.245 309.761 128.339 309.834 127.421Z" fill="#EB996E"/>
<path d="M311.891 151.535C312.178 151.576 312.469 151.576 312.755 151.535C313.116 151.474 313.485 151.49 313.839 151.584C314.192 151.678 314.521 151.847 314.803 152.08C314.966 152.252 315.082 152.464 315.14 152.694C315.198 152.925 315.195 153.166 315.132 153.395C314.98 153.972 314.756 154.528 314.465 155.048C314.089 155.702 313.965 156.47 314.117 157.209C314.246 157.6 314.464 157.956 314.754 158.248C315.044 158.54 315.399 158.76 315.789 158.89C316.175 159.013 316.581 159.055 316.983 159.014C317.385 158.974 317.775 158.852 318.129 158.656C318.786 158.32 319.327 157.792 319.678 157.143C320.187 156.073 320.535 154.933 320.712 153.761C320.849 152.975 320.849 152.171 320.712 151.385C320.682 151.089 320.568 150.809 320.383 150.577C320.336 150.577 320.458 150.878 320.505 151.413C320.545 152.179 320.479 152.948 320.308 153.696C320.085 154.806 319.719 155.883 319.218 156.899C318.912 157.471 318.426 157.926 317.835 158.192C317.243 158.459 316.58 158.523 315.949 158.374C315.64 158.274 315.358 158.103 315.126 157.874C314.895 157.646 314.72 157.367 314.615 157.059C314.493 156.445 314.596 155.808 314.906 155.264C315.199 154.696 315.42 154.093 315.564 153.47C315.627 153.172 315.613 152.863 315.522 152.572C315.432 152.281 315.268 152.018 315.047 151.808C314.721 151.549 314.339 151.37 313.931 151.286C313.523 151.201 313.101 151.212 312.699 151.319C312.42 151.347 312.147 151.42 311.891 151.535Z" fill="#EB996E"/>
<path d="M318.035 158.111C318.035 158.111 317.857 158.355 317.875 158.881C317.902 159.25 318.014 159.608 318.203 159.926C318.393 160.244 318.653 160.513 318.965 160.713C319.447 160.99 319.992 161.135 320.548 161.135C321.103 161.135 321.649 160.99 322.131 160.713C323.289 160.045 324.145 158.954 324.517 157.669C324.926 156.411 324.926 155.057 324.517 153.799C324.183 152.782 323.583 151.874 322.779 151.169C322.249 150.694 321.634 150.325 320.966 150.079C320.729 149.965 320.468 149.907 320.205 149.91C321.042 150.315 321.82 150.834 322.516 151.451C323.304 152.219 323.861 153.194 324.123 154.263C324.386 155.332 324.343 156.454 324 157.5C323.664 158.654 322.911 159.642 321.887 160.271C321.477 160.511 321.013 160.644 320.539 160.657C320.064 160.671 319.594 160.564 319.172 160.346C318.892 160.183 318.65 159.962 318.462 159.698C318.274 159.434 318.145 159.133 318.082 158.815C317.988 158.402 318.082 158.111 318.035 158.111Z" fill="#EB996E"/>
<path d="M306.18 164.01C305.808 163.759 305.369 163.625 304.921 163.625C303.775 163.513 302.624 163.788 301.652 164.404L302.056 164.677C302.183 164.057 302.27 163.429 302.319 162.798C302.648 159.172 301.492 156.373 301.379 156.448C301.741 158.528 301.876 160.642 301.783 162.751C301.738 163.353 301.659 163.952 301.548 164.545L301.436 165.156L301.952 164.808C302.832 164.234 303.86 163.927 304.911 163.925C305.691 163.944 306.161 164.076 306.18 164.01Z" fill="#EB996E"/>
<path d="M313.592 141.728C313.442 141.728 313.649 142.855 314.644 143.719C315.64 144.584 316.758 144.659 316.758 144.499C316.758 144.339 315.866 144.067 315.011 143.306C314.156 142.545 313.743 141.672 313.592 141.728Z" fill="#EB996E"/>
<path d="M202.445 277.176L239.691 277.542L233.444 250.517L235.539 255.617C237.47 260.327 240.758 264.356 244.985 267.191C249.212 270.026 254.187 271.54 259.277 271.54C271.057 271.54 279.201 262.775 284.18 252.104C295.828 227.154 307.053 186.978 307.053 186.978L284.349 167.025C267.91 198.118 252.466 225.116 252.466 225.116C252.466 225.116 248.004 211.561 244.557 199.462C241.109 187.363 241.138 181.013 235.849 174.982C227.705 165.701 216.122 163.399 205.338 160.619L204.934 210.819L202.445 277.176Z" fill="#407BFF"/>
<path d="M159.826 239.836L227.649 252.987L230.946 279.045H126.958C124.111 279.08 121.289 278.522 118.67 277.404C116.052 276.287 113.695 274.637 111.75 272.558C109.806 270.479 108.316 268.017 107.376 265.33C106.436 262.643 106.067 259.789 106.292 256.951C107.785 237.957 109.41 214.567 110.65 204.675C111.59 196.963 114.689 188.988 118.325 182.13C123.576 172.248 141.076 159.586 156.416 158.928L159.319 223.529" fill="#407BFF"/>
<g opacity="0.4">
<path d="M202.444 277.176L239.69 277.542L233.443 250.517L235.538 255.617C237.469 260.327 240.757 264.355 244.984 267.191C249.211 270.026 254.186 271.54 259.276 271.54C271.056 271.54 279.2 262.775 284.179 252.104C295.827 227.154 307.052 186.978 307.052 186.978L284.348 167.025C267.909 198.118 252.465 225.116 252.465 225.116C252.465 225.116 248.003 211.561 244.556 199.462C241.108 187.363 241.137 181.013 235.848 174.982C227.704 165.701 216.121 163.399 205.337 160.619L204.933 210.819L202.444 277.176Z" fill="black"/>
<path d="M159.825 239.836L220.997 251.052C222.244 251.283 223.394 251.878 224.302 252.763C225.21 253.647 225.835 254.781 226.098 256.021L230.945 279.102H126.957C124.11 279.137 121.288 278.578 118.669 277.461C116.051 276.344 113.694 274.693 111.749 272.614C109.805 270.535 108.315 268.073 107.375 265.386C106.435 262.699 106.066 259.846 106.291 257.008C107.784 238.014 109.409 214.623 110.649 204.732C111.589 197.02 114.689 189.044 118.324 182.187C123.575 172.305 141.075 159.642 156.415 158.984L159.318 223.585" fill="black"/>
</g>
<path d="M146.91 237.901C146.886 237.695 146.886 237.487 146.91 237.281C146.91 236.821 146.91 236.229 146.91 235.506C146.91 233.899 146.91 231.682 146.91 228.93C146.91 223.416 146.807 215.779 146.384 207.39C146.168 203.182 145.896 199.18 145.604 195.554C145.468 192.335 145.012 189.138 144.242 186.01C143.705 183.922 142.681 181.991 141.255 180.374C140.703 179.81 140.119 179.276 139.508 178.777C140.225 179.146 140.876 179.632 141.434 180.214C142.954 181.819 144.049 183.779 144.618 185.916C145.438 189.069 145.929 192.299 146.083 195.554C146.403 199.189 146.685 203.191 146.901 207.4C147.333 215.854 147.38 223.453 147.286 229.005C147.229 231.767 147.154 234.003 147.089 235.581L146.985 237.356C146.982 237.54 146.956 237.723 146.91 237.901Z" fill="#263238"/>
<path d="M226.333 254.866C225.618 254.075 224.784 253.401 223.862 252.865C222.766 252.268 221.603 251.804 220.396 251.484C218.997 251.08 217.353 250.77 215.54 250.404C208.288 248.92 198.283 246.862 187.199 244.768C176.114 242.673 166.025 241.01 158.726 239.845L150.075 238.464L147.726 238.07C147.45 238.036 147.177 237.979 146.909 237.901C147.186 237.902 147.463 237.927 147.736 237.976L150.103 238.277C152.151 238.549 155.119 238.962 158.773 239.507C166.091 240.597 176.189 242.213 187.283 244.289C198.377 246.365 208.382 248.469 215.605 250.028C217.418 250.423 219.062 250.761 220.471 251.193C221.691 251.538 222.862 252.037 223.956 252.677C224.659 253.074 225.294 253.581 225.835 254.18C225.98 254.329 226.112 254.489 226.23 254.659C226.295 254.772 226.342 254.866 226.333 254.866Z" fill="#263238"/>
<path d="M147.116 237.901C147.116 237.985 145.866 238.277 143.931 239.066C142.802 239.532 141.703 240.072 140.643 240.681C139.362 241.445 138.14 242.306 136.989 243.255C135.87 244.225 134.827 245.281 133.871 246.412C133.083 247.344 132.362 248.329 131.71 249.361C130.602 251.137 130.094 252.339 130.01 252.301C130.068 251.999 130.166 251.705 130.301 251.428C130.621 250.656 130.991 249.906 131.409 249.183C132.037 248.111 132.743 247.087 133.523 246.12C135.451 243.755 137.81 241.775 140.474 240.287C141.554 239.678 142.682 239.159 143.847 238.737C144.63 238.444 145.434 238.209 146.251 238.032C146.532 237.948 146.823 237.904 147.116 237.901Z" fill="#263238"/>
<path d="M234.695 254.133C234.63 253.921 234.583 253.705 234.554 253.485C234.479 253.015 234.375 252.395 234.253 251.606C233.99 249.981 233.643 247.633 233.248 244.721C232.459 238.906 231.501 230.846 230.693 221.922C229.885 212.998 229.406 204.901 229.143 199.03C229.011 196.099 228.936 193.722 228.899 192.078C228.899 191.296 228.899 190.669 228.899 190.2C228.878 189.981 228.878 189.761 228.899 189.542C228.949 189.758 228.975 189.978 228.974 190.2L229.096 192.078C229.199 193.769 229.331 196.127 229.5 199.011C229.847 204.873 230.392 212.961 231.191 221.875C231.989 230.79 232.9 238.85 233.605 244.674C233.953 247.548 234.244 249.887 234.45 251.578C234.535 252.358 234.61 252.978 234.666 253.457C234.704 253.68 234.714 253.908 234.695 254.133Z" fill="#263238"/>
<path d="M257.182 244.035C257.182 244.035 256.966 243.828 256.637 243.415C256.182 242.815 255.765 242.188 255.388 241.536C252.867 237.233 251.705 232.27 252.053 227.295C252.1 226.547 252.201 225.803 252.354 225.069C252.387 224.795 252.457 224.526 252.56 224.271C252.645 224.271 252.466 225.435 252.401 227.314C252.244 232.218 253.378 237.077 255.688 241.405C256.572 243.03 257.257 243.979 257.182 244.035Z" fill="#263238"/>
<path d="M146.637 202.994C146.637 202.994 146.515 203.041 146.29 203.069C145.951 203.124 145.609 203.158 145.266 203.172C144.006 203.225 142.744 203.124 141.508 202.872C139.673 202.503 137.882 201.942 136.163 201.2C134.219 200.392 132.152 199.321 129.992 198.278C127.969 197.262 125.875 196.396 123.726 195.686C121.982 195.1 120.17 194.743 118.334 194.624C116.634 194.569 114.934 194.762 113.29 195.197C113.391 195.13 113.501 195.079 113.618 195.047C113.923 194.914 114.237 194.804 114.558 194.718C115.782 194.39 117.048 194.244 118.315 194.286C120.191 194.345 122.049 194.661 123.839 195.225C126.015 195.926 128.133 196.799 130.17 197.837C132.34 198.908 134.388 199.96 136.304 200.777C137.991 201.527 139.747 202.112 141.546 202.524C143.221 202.867 144.928 203.024 146.637 202.994Z" fill="#FAFAFA"/>
<path d="M158.295 200.711C156.49 201.261 154.642 201.656 152.771 201.895C150.917 202.299 149.031 202.534 147.135 202.599C148.939 202.05 150.787 201.654 152.658 201.416C154.512 201.012 156.398 200.776 158.295 200.711Z" fill="#FAFAFA"/>
<path d="M146.215 220.87C145.782 221.114 145.326 221.312 144.853 221.462C143.96 221.809 142.654 222.279 141.029 222.805C136.78 224.169 132.442 225.242 128.047 226.018C125.473 226.469 123.003 226.798 120.748 227.023C118.749 227.281 116.728 227.335 114.717 227.183C113.354 227.072 112.025 226.692 110.81 226.065C110.479 225.893 110.165 225.692 109.87 225.464C109.762 225.389 109.664 225.301 109.579 225.201C109.579 225.201 110.03 225.492 110.885 225.896C112.102 226.445 113.412 226.764 114.746 226.835C116.732 226.938 118.723 226.85 120.692 226.572C122.937 226.318 125.389 225.98 127.953 225.529C132.328 224.754 136.656 223.734 140.917 222.476C142.551 221.988 143.866 221.537 144.777 221.283C145.246 221.11 145.726 220.972 146.215 220.87Z" fill="#FAFAFA"/>
<path d="M157.985 225.821C156.292 226.089 154.578 226.2 152.865 226.149C151.157 226.257 149.443 226.204 147.746 225.99C149.438 225.721 151.152 225.611 152.865 225.661C154.573 225.553 156.287 225.607 157.985 225.821Z" fill="#FAFAFA"/>
<path d="M109.645 268.618C109.656 268.445 109.691 268.275 109.748 268.111C109.842 267.735 109.974 267.275 110.124 266.702L110.406 265.687C110.528 265.321 110.688 264.936 110.838 264.513C111.176 263.554 111.565 262.613 112.003 261.695L112.764 260.089C113.036 259.525 113.384 258.98 113.703 258.398C114.412 257.166 115.183 255.972 116.014 254.819C119.852 249.513 124.855 245.159 130.64 242.09C131.898 241.426 133.19 240.827 134.51 240.296C135.14 240.061 135.722 239.789 136.314 239.601L138.014 239.066C138.988 238.755 139.979 238.501 140.982 238.305C141.424 238.211 141.828 238.107 142.204 238.042L143.256 237.901L144.702 237.722C144.871 237.697 145.041 237.697 145.21 237.722C145.049 237.784 144.882 237.825 144.712 237.844L143.284 238.117L142.251 238.295L141.039 238.596C140.175 238.831 139.16 239.028 138.117 239.423L136.445 239.986C135.863 240.183 135.28 240.456 134.67 240.7C133.369 241.24 132.096 241.845 130.856 242.513C128.031 244.076 125.372 245.92 122.918 248.018C120.495 250.156 118.292 252.532 116.343 255.11C115.497 256.331 114.661 257.477 114.022 258.633C113.694 259.206 113.346 259.741 113.083 260.295L112.294 261.874C111.759 262.869 111.43 263.827 111.073 264.692C110.913 265.105 110.744 265.49 110.613 265.847L110.284 266.843L109.823 268.224C109.779 268.361 109.719 268.494 109.645 268.618Z" fill="#FAFAFA"/>
<path d="M156.754 239.761C155.183 241.126 153.878 242.769 152.903 244.608C151.878 246.619 151.151 248.767 150.742 250.986C150.257 253.716 149.943 256.474 149.803 259.243C149.686 262.033 149.372 264.811 148.864 267.557C148.404 269.808 147.609 271.977 146.506 273.992C145.769 275.342 144.817 276.564 143.688 277.608C143.38 277.894 143.05 278.154 142.701 278.388C142.467 278.548 142.335 278.632 142.326 278.613C143.925 277.279 145.258 275.653 146.252 273.823C147.293 271.824 148.04 269.685 148.469 267.472C148.969 264.745 149.283 261.986 149.409 259.215C149.531 256.423 149.844 253.642 150.348 250.892C150.785 248.642 151.558 246.47 152.64 244.448C153.378 243.085 154.33 241.848 155.458 240.785C155.754 240.502 156.067 240.238 156.397 239.996C156.506 239.903 156.626 239.824 156.754 239.761Z" fill="#FAFAFA"/>
<path d="M172.789 279.205C172.658 279.205 172.789 271.108 173.137 261.131C173.484 251.155 173.841 243.067 173.973 243.067C174.104 243.067 173.973 251.165 173.625 261.15C173.278 271.136 172.921 279.214 172.789 279.205Z" fill="#FAFAFA"/>
<path d="M198.283 277.815C198.106 277.438 197.968 277.045 197.87 276.641C197.717 276.178 197.589 275.708 197.485 275.232C197.363 274.677 197.193 274.048 197.09 273.353C196.798 271.696 196.632 270.019 196.592 268.337C196.5 264.203 197.136 260.085 198.471 256.172C199.015 254.578 199.678 253.027 200.453 251.531C200.763 250.883 201.111 250.338 201.392 249.85C201.631 249.424 201.895 249.014 202.182 248.619C202.391 248.261 202.64 247.927 202.924 247.623C203.008 247.67 201.984 249.126 200.754 251.691C200.024 253.187 199.396 254.731 198.875 256.313C197.588 260.186 196.953 264.246 196.996 268.327C197.018 269.99 197.146 271.65 197.381 273.296C197.851 276.096 198.377 277.787 198.283 277.815Z" fill="#FAFAFA"/>
<path d="M154.987 173.995C154.987 174.071 153.503 173.422 151.061 172.633C144.699 170.58 137.958 169.982 131.334 170.886C128.798 171.234 127.248 171.628 127.229 171.544C127.566 171.381 127.923 171.264 128.29 171.196C129.273 170.924 130.271 170.708 131.278 170.548C137.951 169.439 144.797 170.043 151.174 172.305C152.132 172.642 153.072 173.028 153.992 173.46C154.344 173.597 154.679 173.777 154.987 173.995Z" fill="#FAFAFA"/>
<path d="M229.198 213.534C228.036 213.594 226.872 213.575 225.713 213.477C223.562 213.393 220.593 213.28 217.315 213.205C214.036 213.13 211.068 213.083 208.917 213.064C207.754 213.101 206.589 213.06 205.432 212.942C205.74 212.869 206.055 212.831 206.371 212.829C206.972 212.829 207.846 212.745 208.926 212.716C211.077 212.651 214.046 212.632 217.333 212.716C220.621 212.801 223.59 212.97 225.788 213.148C226.859 213.233 227.723 213.308 228.324 213.383C228.62 213.402 228.913 213.452 229.198 213.534Z" fill="#FAFAFA"/>
<path d="M247.741 209.973C247.741 210.058 246.567 210.462 244.735 211.364C239.943 213.721 235.884 217.338 232.993 221.828C231.885 223.547 231.349 224.693 231.274 224.646C231.326 224.35 231.428 224.064 231.575 223.801C231.904 223.054 232.28 222.329 232.702 221.631C234.08 219.308 235.81 217.213 237.831 215.422C239.846 213.625 242.124 212.145 244.585 211.035C245.327 210.7 246.09 210.412 246.867 210.171C247.149 210.067 247.443 210.001 247.741 209.973Z" fill="#FAFAFA"/>
<path d="M238.591 179.866C236.974 179.811 235.359 180.037 233.819 180.533C232.157 181.114 230.545 181.83 229 182.675C227.093 183.732 225.101 184.628 223.045 185.352C219.243 186.57 215.201 186.832 211.274 186.113C210.094 185.899 208.935 185.585 207.808 185.174C207.387 185.042 206.98 184.866 206.596 184.648C206.596 184.554 208.362 185.296 211.293 185.775C215.165 186.38 219.124 186.074 222.857 184.883C224.89 184.163 226.865 183.29 228.765 182.271C230.338 181.437 231.982 180.745 233.678 180.205C234.832 179.838 236.038 179.664 237.248 179.688C237.563 179.697 237.877 179.729 238.187 179.782C238.478 179.82 238.601 179.848 238.591 179.866Z" fill="#FAFAFA"/>
<path d="M233.904 242.823C233.563 243.039 233.197 243.213 232.814 243.34C232.457 243.49 232.016 243.669 231.49 243.838C230.964 244.007 230.372 244.232 229.705 244.401C228.132 244.84 226.531 245.172 224.914 245.397C222.933 245.654 220.936 245.757 218.94 245.707C216.944 245.633 214.956 245.41 212.993 245.04C211.4 244.718 209.831 244.288 208.296 243.753C207.63 243.546 207.056 243.293 206.549 243.086C206.042 242.879 205.61 242.682 205.253 242.513C204.879 242.358 204.523 242.162 204.191 241.931C204.191 241.846 205.779 242.598 208.409 243.424C209.949 243.909 211.518 244.298 213.106 244.589C216.991 245.308 220.964 245.429 224.886 244.946C226.487 244.749 228.074 244.454 229.639 244.063C232.288 243.387 233.876 242.739 233.904 242.823Z" fill="#FAFAFA"/>
<path d="M255.491 270.629C255.357 270.544 255.234 270.443 255.125 270.328C254.909 270.112 254.552 269.821 254.185 269.389C253.051 268.175 252.055 266.839 251.217 265.406C248.506 260.602 247.064 255.187 247.027 249.671C247.034 244.194 247.75 238.741 249.16 233.448C249.667 231.419 250.099 229.785 250.447 228.667C250.606 228.15 250.738 227.728 250.841 227.38C250.945 227.032 250.992 226.929 251.01 226.938C251.008 227.095 250.983 227.25 250.935 227.399C250.86 227.756 250.757 228.188 250.635 228.714C250.353 229.926 249.968 231.532 249.498 233.533C248.201 238.808 247.542 244.22 247.535 249.652C247.565 255.08 248.923 260.417 251.489 265.199C252.294 266.632 253.238 267.981 254.307 269.229C255.05 270.131 255.519 270.591 255.491 270.629Z" fill="#FAFAFA"/>
<path d="M289.675 238.727C288.174 237.537 286.498 236.586 284.706 235.909C282.746 235.231 280.736 234.707 278.694 234.341C276.158 233.913 273.649 233.339 271.179 232.622C266.719 231.171 262.649 228.723 259.277 225.464C258.26 224.48 257.318 223.422 256.459 222.298C256.149 221.903 255.943 221.575 255.792 221.358C255.642 221.142 255.576 221.02 255.595 221.011C255.958 221.377 256.297 221.766 256.609 222.176C257.511 223.248 258.48 224.262 259.512 225.21C262.898 228.352 266.927 230.721 271.32 232.152C273.764 232.865 276.245 233.448 278.75 233.899C280.809 234.294 282.833 234.856 284.8 235.581C286.129 236.083 287.376 236.779 288.501 237.647C288.808 237.878 289.097 238.133 289.365 238.408C289.6 238.615 289.694 238.718 289.675 238.727Z" fill="#FAFAFA"/>
<path d="M300.421 207.381C300.059 207.122 299.722 206.83 299.415 206.507C299.105 206.216 298.73 205.859 298.26 205.464C297.79 205.07 297.321 204.6 296.682 204.149C295.294 203.03 293.839 201.998 292.323 201.059C288.606 198.76 284.566 197.031 280.337 195.93C278.608 195.485 276.855 195.143 275.086 194.906C274.334 194.784 273.649 194.737 273.047 194.68C272.446 194.624 271.92 194.577 271.497 194.558C271.053 194.556 270.61 194.516 270.173 194.436C270.611 194.369 271.055 194.346 271.497 194.371C272.02 194.344 272.544 194.344 273.066 194.371C273.667 194.371 274.372 194.417 275.133 194.521C276.921 194.716 278.694 195.03 280.44 195.46C282.58 196.009 284.677 196.712 286.715 197.564C288.736 198.446 290.689 199.475 292.558 200.646C294.078 201.615 295.531 202.685 296.907 203.849C297.509 204.328 297.997 204.788 298.448 205.239C298.833 205.589 299.2 205.959 299.547 206.348C299.874 206.66 300.167 207.006 300.421 207.381Z" fill="#FAFAFA"/>
<path d="M218.226 164.263C217.674 164.631 217.073 164.919 216.441 165.118C214.959 165.699 213.436 166.17 211.885 166.527C210.34 166.891 208.77 167.143 207.188 167.279C206.534 167.378 205.869 167.378 205.215 167.279C205.215 167.129 208.193 166.884 211.791 166.029C215.389 165.175 218.169 164.123 218.226 164.263Z" fill="#FAFAFA"/>
<path d="M251.545 296.565C251.668 296.984 251.683 297.427 251.589 297.853C251.496 298.28 251.297 298.676 251.012 299.006C250.726 299.336 250.362 299.588 249.953 299.741C249.544 299.894 249.103 299.942 248.671 299.881C248.17 299.81 247.701 299.594 247.32 299.26C246.94 298.927 246.665 298.489 246.529 298.002L245.731 295.052H245.853C245.934 295.478 245.913 295.917 245.791 296.334C245.67 296.75 245.451 297.131 245.152 297.446C244.854 297.761 244.485 298 244.076 298.144C243.667 298.288 243.23 298.333 242.8 298.274C241.569 298.274 240.508 296.48 240.151 295.531C239.222 295.622 238.286 295.456 237.445 295.051C236.604 294.647 235.889 294.021 235.379 293.239L229.865 284.635L219.654 277.167L225.835 255.101L247.807 269.323C248.671 269.999 248.802 270.262 250.174 271.549L264.358 284.597C262.752 285.536 261.39 285.49 259.154 284.597C256.919 283.705 247.13 277.082 247.13 277.082L251.545 296.48" fill="#FFBE9D"/>
<path d="M232.749 278.416C232.749 278.416 233.003 278.529 233.397 278.801L234.13 279.308C234.478 279.527 234.795 279.792 235.07 280.098C235.395 280.471 235.65 280.901 235.821 281.366C235.99 281.864 236.169 282.371 236.357 282.906L237.559 286.438C238.395 288.956 239.128 291.229 239.635 292.892C239.956 293.774 240.198 294.682 240.358 295.607C239.932 294.769 239.58 293.895 239.306 292.995C238.714 291.361 237.925 289.106 237.089 286.598C236.685 285.349 236.291 284.156 235.924 283.057C235.755 282.512 235.596 281.995 235.436 281.507C235.295 281.076 235.082 280.673 234.807 280.314C234.569 280.02 234.298 279.755 233.999 279.524L233.322 278.951C232.918 278.632 232.731 278.444 232.749 278.416Z" fill="#EB996E"/>
<path d="M245.967 295.56C245.827 295.26 245.723 294.944 245.657 294.62L244.952 292.103C244.351 289.98 243.553 287.039 242.529 283.836C241.505 280.633 240.434 277.777 239.147 276.011C238.667 275.306 238.058 274.697 237.353 274.217C236.836 273.898 236.507 273.804 236.517 273.747C236.604 273.745 236.69 273.761 236.77 273.794C237.004 273.854 237.231 273.939 237.447 274.048C238.227 274.483 238.903 275.082 239.429 275.805C240.829 277.589 241.956 280.501 242.989 283.686C244.022 286.87 244.774 289.867 245.281 292.018C245.535 293.089 245.723 293.963 245.845 294.573C245.935 294.894 245.976 295.226 245.967 295.56Z" fill="#EB996E"/>
<path d="M251.64 296.893C251.47 296.582 251.341 296.251 251.255 295.907C251.02 295.156 250.729 294.244 250.381 293.164C249.667 290.844 248.719 287.631 247.695 284.08C246.671 280.53 245.816 277.411 245.111 274.968C244.869 274.063 244.342 273.26 243.608 272.676C243.311 272.485 242.997 272.321 242.669 272.188C242.762 272.166 242.858 272.166 242.951 272.188C243.214 272.247 243.466 272.352 243.693 272.498C244.513 273.062 245.119 273.886 245.412 274.837C246.182 277.157 247.093 280.37 248.136 283.921C249.179 287.472 250.062 290.712 250.691 293.051C250.973 294.141 251.217 295.071 251.405 295.869C251.519 296.202 251.598 296.545 251.64 296.893Z" fill="#EB996E"/>
<path d="M385.124 93.1908C385.124 93.841 385.316 94.4767 385.678 95.0174C386.039 95.558 386.552 95.9794 387.153 96.2283C387.754 96.4771 388.415 96.5422 389.053 96.4154C389.691 96.2885 390.276 95.9754 390.736 95.5156C391.196 95.0558 391.509 94.4699 391.636 93.8322C391.763 93.1944 391.698 92.5333 391.449 91.9326C391.2 91.3318 390.779 90.8183 390.238 90.4571C389.697 90.0958 389.062 89.903 388.411 89.903C387.539 89.903 386.703 90.2494 386.087 90.8659C385.47 91.4825 385.124 92.3188 385.124 93.1908Z" fill="#455A64"/>
<path d="M375.251 96.4786C377.066 96.4786 378.538 95.0066 378.538 93.1908C378.538 91.375 377.066 89.903 375.251 89.903C373.435 89.903 371.963 91.375 371.963 93.1908C371.963 95.0066 373.435 96.4786 375.251 96.4786Z" fill="#455A64"/>
<path d="M358.84 91.5468C358.515 92.1098 358.364 92.7568 358.406 93.4058C358.448 94.0547 358.682 94.6766 359.078 95.1926C359.473 95.7087 360.013 96.0958 360.629 96.305C361.245 96.5142 361.909 96.536 362.537 96.3678C363.165 96.1996 363.73 95.8488 364.158 95.3599C364.587 94.871 364.861 94.2659 364.946 93.6211C365.031 92.9763 364.923 92.3208 364.635 91.7376C364.348 91.1543 363.894 90.6695 363.33 90.3444C362.957 90.1274 362.544 89.9863 362.116 89.9293C361.688 89.8723 361.253 89.9005 360.835 90.0122C360.418 90.1239 360.027 90.317 359.685 90.5804C359.342 90.8437 359.055 91.1722 358.84 91.5468Z" fill="#455A64"/>
<path d="M375.044 54.7797C374.826 54.7633 374.606 54.7633 374.387 54.7797L372.433 54.8361C372.001 54.8361 371.494 54.8361 370.986 54.9018L369.267 55.1461L367.257 55.4373L365.002 55.9915C361.141 56.9503 357.463 58.537 354.115 60.6884C349.164 63.8407 345 68.0829 341.939 73.0908C338.878 78.0987 337.002 83.7399 336.455 89.5834C336.307 91.336 336.273 93.0963 336.352 94.8533C336.417 95.7363 336.399 96.6475 336.53 97.5399C336.662 98.4323 336.803 99.3435 336.934 100.255C337.622 103.988 338.857 107.6 340.598 110.973C342.452 114.507 344.809 117.754 347.596 120.611C350.565 123.531 353.969 125.974 357.685 127.853C361.53 129.821 365.693 131.093 369.981 131.611C371.067 131.773 372.162 131.864 373.26 131.883C374.363 131.966 375.47 131.988 376.576 131.949C378.806 131.857 381.024 131.577 383.208 131.113C387.921 130.092 392.402 128.203 396.424 125.543L396.03 125.59L409.491 130.991L410.29 131.31L410.064 130.484L406.1 116.093L406.034 116.44C409.688 111.601 412.15 105.969 413.22 100.001C413.736 97.2144 413.912 94.3757 413.746 91.5467C413.714 90.1897 413.586 88.8367 413.361 87.498C413.261 86.8342 413.158 86.1767 413.051 85.5254C412.939 84.8772 412.741 84.2478 412.582 83.6466C410.326 74.7965 404.999 67.0359 397.552 61.7499C394.803 59.7824 391.797 58.2019 388.618 57.053L386.599 56.3297L384.72 55.8412L382.973 55.4091C382.409 55.3058 381.864 55.2494 381.357 55.1649C380.342 55.0428 379.478 54.8643 378.661 54.8267L376.688 54.7609H375.477C375.339 54.7508 375.201 54.7508 375.063 54.7609C375.197 54.8035 375.337 54.8226 375.477 54.8173L376.679 54.9206L378.642 55.0521C379.422 55.1085 380.305 55.3058 381.319 55.4561C388.627 56.7256 395.408 60.0892 400.841 65.1384C406.274 70.1876 410.124 76.7053 411.924 83.9002C412.065 84.5202 412.262 85.1402 412.375 85.779C412.488 86.4178 412.563 87.0565 412.666 87.7141C412.881 89.0282 413 90.3562 413.023 91.6876C413.171 94.4519 412.988 97.2239 412.478 99.9447C411.388 105.782 408.946 111.283 405.349 116.008L405.226 116.168L405.283 116.365C406.535 121.012 407.844 125.812 409.209 130.765L409.782 130.258L396.321 124.838L396.115 124.754L395.917 124.876C390.144 128.701 383.43 130.865 376.51 131.132C375.429 131.17 374.348 131.151 373.269 131.075C372.196 131.056 371.126 130.965 370.066 130.803C365.873 130.296 361.802 129.052 358.042 127.13C354.406 125.291 351.073 122.905 348.16 120.057C345.427 117.273 343.111 114.109 341.283 110.663C339.587 107.352 338.385 103.811 337.714 100.151C337.573 99.212 337.432 98.376 337.3 97.493C337.169 96.6099 337.188 95.7269 337.122 94.8533C337.034 93.1314 337.059 91.4055 337.197 89.6868C337.709 83.9349 339.524 78.375 342.504 73.4288C345.484 68.4826 349.551 64.2798 354.397 61.1393C357.687 58.9634 361.306 57.3329 365.115 56.3109L367.332 55.7191L369.324 55.3903L371.033 55.1085C371.559 55.0521 372.038 55.0334 372.461 55.0052L374.406 54.8643C374.621 54.8586 374.835 54.8302 375.044 54.7797Z" fill="#455A64"/>
</svg>
