<svg width="24" height="23" viewBox="0 0 24 23" fill="none" xmlns="http://www.w3.org/2000/svg">
<path fill-rule="evenodd" clip-rule="evenodd" d="M1.7915 11.2706C1.7915 6.95771 1.7915 4.80129 2.81922 3.24809C3.27814 2.5545 3.87213 1.96051 4.56571 1.50159C6.11892 0.473877 8.27534 0.473877 12.5882 0.473877C16.901 0.473877 19.0574 0.473877 20.6106 1.50159C21.3042 1.96051 21.8982 2.5545 22.3571 3.24809C23.3849 4.80129 23.3849 6.95771 23.3849 11.2706C23.3849 15.5834 23.3849 17.7398 22.3571 19.293C21.8982 19.9866 21.3042 20.5806 20.6106 21.0395C19.0574 22.0672 16.901 22.0672 12.5882 22.0672C8.27534 22.0672 6.11892 22.0672 4.56571 21.0395C3.87213 20.5806 3.27814 19.9866 2.81922 19.293C1.7915 17.7398 1.7915 15.5834 1.7915 11.2706ZM18.1775 11.2707C18.1775 14.3578 15.675 16.8603 12.5879 16.8603C9.50089 16.8603 6.99836 14.3578 6.99836 11.2707C6.99836 8.18369 9.50089 5.68115 12.5879 5.68115C15.675 5.68115 18.1775 8.18369 18.1775 11.2707ZM12.5879 14.9692C14.6305 14.9692 16.2864 13.3133 16.2864 11.2707C16.2864 9.22812 14.6305 7.57226 12.5879 7.57226C10.5453 7.57226 8.88946 9.22812 8.88946 11.2707C8.88946 13.3133 10.5453 14.9692 12.5879 14.9692ZM18.3983 6.7137C19.1236 6.7137 19.7117 6.12568 19.7117 5.40031C19.7117 4.67495 19.1236 4.08693 18.3983 4.08693C17.6729 4.08693 17.0849 4.67495 17.0849 5.40031C17.0849 6.12568 17.6729 6.7137 18.3983 6.7137Z" fill="#1678F2"/>
</svg>
