<svg xmlns="http://www.w3.org/2000/svg" width="141" height="47" fill="none" viewBox="0 0 141 47">
  <path fill="#4B74F8" d="M.856 27.87c0-1.797.389-3.397 1.167-4.797a8.255 8.255 0 0 1 3.242-3.294c1.4-.796 2.982-1.193 4.746-1.193 2.161 0 4.012.57 5.55 1.712 1.54 1.14 2.568 2.697 3.087 4.668h-4.876c-.363-.76-.882-1.34-1.556-1.738-.657-.397-1.41-.596-2.257-.596-1.366 0-2.472.475-3.32 1.426-.847.951-1.27 2.222-1.27 3.813 0 1.59.423 2.861 1.27 3.812.848.951 1.954 1.427 3.32 1.427.848 0 1.6-.2 2.257-.597.674-.398 1.193-.977 1.556-1.737h4.876c-.52 1.97-1.548 3.527-3.087 4.668-1.538 1.124-3.389 1.686-5.55 1.686-1.764 0-3.346-.39-4.746-1.167a8.48 8.48 0 0 1-3.242-3.294c-.778-1.4-1.167-3-1.167-4.798Zm19.626 1.868c0-1.487.276-2.792.83-3.916.57-1.124 1.34-1.989 2.308-2.594.968-.605 2.049-.908 3.242-.908 1.02 0 1.91.208 2.671.623.778.415 1.375.96 1.79 1.634v-2.049h4.435V37h-4.435v-2.049c-.433.674-1.038 1.22-1.816 1.634-.76.415-1.65.623-2.671.623a5.947 5.947 0 0 1-3.216-.908c-.968-.623-1.738-1.496-2.308-2.62-.554-1.14-.83-2.455-.83-3.942Zm10.84.026c0-1.107-.31-1.98-.933-2.62a2.95 2.95 0 0 0-2.23-.96c-.882 0-1.634.32-2.257.96-.605.623-.908 1.488-.908 2.594 0 1.107.303 1.989.908 2.645.623.64 1.375.96 2.257.96a2.95 2.95 0 0 0 2.23-.96c.623-.64.934-1.512.934-2.619Zm12.08-4.824a5.728 5.728 0 0 1 1.944-1.867 4.945 4.945 0 0 1 2.594-.7v4.694h-1.22c-1.107 0-1.937.242-2.49.726-.553.467-.83 1.297-.83 2.49V37h-4.435V22.528H43.4v2.412Zm20.3 4.59c0 .415-.026.848-.078 1.297H53.587c.07.9.354 1.591.856 2.075.519.467 1.15.7 1.893.7 1.107 0 1.876-.466 2.308-1.4h4.72a6.391 6.391 0 0 1-1.322 2.568 6.438 6.438 0 0 1-2.36 1.79c-.951.431-2.015.648-3.19.648-1.418 0-2.68-.303-3.787-.908a6.456 6.456 0 0 1-2.593-2.594c-.623-1.124-.934-2.438-.934-3.942s.303-2.818.908-3.942a6.455 6.455 0 0 1 2.593-2.594c1.107-.605 2.378-.908 3.813-.908 1.4 0 2.645.294 3.735.882a6.248 6.248 0 0 1 2.541 2.516c.623 1.09.934 2.36.934 3.813Zm-4.539-1.167c0-.76-.26-1.366-.778-1.815-.519-.45-1.167-.674-1.945-.674-.744 0-1.375.216-1.893.648-.502.432-.813 1.046-.934 1.841h5.55Zm13.388 4.487 3.138-10.322h4.72L75.275 37h-5.472l-5.135-14.472h4.746l3.138 10.322Zm24.016-10.322V37h-4.435v-1.971c-.45.64-1.063 1.158-1.842 1.556-.76.38-1.608.57-2.541.57-1.107 0-2.084-.242-2.93-.726-.848-.501-1.505-1.218-1.972-2.152-.467-.934-.7-2.032-.7-3.294v-8.455h4.409v7.859c0 .968.25 1.72.752 2.256.501.536 1.176.804 2.023.804.864 0 1.547-.268 2.049-.804.501-.536.752-1.288.752-2.256v-7.859h4.435Zm7.62-4.72V37h-4.434V17.808h4.434Z"/>
  <g filter="url(#a)">
    <circle cx="118.947" cy="19.586" r="8.289" fill="url(#b)"/>
  </g>
  <rect width="3.604" height="9.37" x="117.145" y="14.901" fill="#fff" rx=".541"/>
  <rect width="3.604" height="9.37" x="123.632" y="17.784" fill="#fff" rx=".541" transform="rotate(90 123.632 17.784)"/>
  <defs>
    <linearGradient id="b" x1="109.367" x2="147.047" y1="4.796" y2="8.85" gradientUnits="userSpaceOnUse">
      <stop stop-color="#3A8EF6"/>
      <stop offset="1" stop-color="#6F3AFA"/>
    </linearGradient>
    <filter id="a" width="42.828" height="42.828" x="97.533" y=".936" color-interpolation-filters="sRGB" filterUnits="userSpaceOnUse">
      <feFlood flood-opacity="0" result="BackgroundImageFix"/>
      <feColorMatrix in="SourceAlpha" result="hardAlpha" values="0 0 0 0 0 0 0 0 0 0 0 0 0 0 0 0 0 0 127 0"/>
      <feOffset dy="2.763"/>
      <feGaussianBlur stdDeviation="6.562"/>
      <feComposite in2="hardAlpha" operator="out"/>
      <feColorMatrix values="0 0 0 0 0.0862745 0 0 0 0 0.470588 0 0 0 0 0.94902 0 0 0 0.2 0"/>
      <feBlend in2="BackgroundImageFix" result="effect1_dropShadow_203_11575"/>
      <feBlend in="SourceGraphic" in2="effect1_dropShadow_203_11575" result="shape"/>
      <feColorMatrix in="SourceAlpha" result="hardAlpha" values="0 0 0 0 0 0 0 0 0 0 0 0 0 0 0 0 0 0 127 0"/>
      <feOffset dy="2.763"/>
      <feGaussianBlur stdDeviation="1.382"/>
      <feComposite in2="hardAlpha" k2="-1" k3="1" operator="arithmetic"/>
      <feColorMatrix values="0 0 0 0 0 0 0 0 0 0 0 0 0 0 0 0 0 0 0.12 0"/>
      <feBlend in2="shape" result="effect2_innerShadow_203_11575"/>
    </filter>
  </defs>
</svg>
