<svg width="23" height="19" viewBox="0 0 23 19" fill="none" xmlns="http://www.w3.org/2000/svg">
<path d="M15.035 0.514631V0.510742H16.0474L16.4174 0.58463C16.664 0.632598 16.8879 0.695461 17.0891 0.773238C17.2904 0.851014 17.4851 0.94176 17.6733 1.04545C17.8615 1.14915 18.0322 1.25481 18.1854 1.36239C18.3373 1.46869 18.4736 1.58147 18.5943 1.70072C18.7137 1.82127 18.8999 1.85239 19.1531 1.79405C19.4062 1.73572 19.6788 1.6547 19.9709 1.551C20.2629 1.44731 20.5518 1.33064 20.8373 1.20101C21.1229 1.07137 21.2968 0.989067 21.3592 0.954068C21.4202 0.917785 21.4526 0.898341 21.4565 0.895735L21.4604 0.889902L21.4799 0.88018L21.4993 0.870458L21.5188 0.860736L21.5383 0.851014L21.5422 0.845181L21.548 0.841292L21.5539 0.837403L21.5577 0.83157L21.5772 0.825737L21.5967 0.821848L21.5928 0.851014L21.5869 0.88018L21.5772 0.909346L21.5675 0.938512L21.5577 0.957956L21.548 0.977401L21.5383 1.00657C21.5318 1.02601 21.5253 1.05193 21.5188 1.08434C21.5123 1.11676 21.4506 1.24637 21.3338 1.47323C21.217 1.70008 21.071 1.93016 20.8957 2.16349C20.7205 2.39682 20.5634 2.5731 20.4245 2.69237C20.2844 2.81292 20.1915 2.89717 20.1461 2.94514C20.1007 2.9944 20.0455 3.03976 19.9806 3.08125L19.8832 3.14542L19.8638 3.15514L19.8443 3.16486L19.8404 3.1707L19.8346 3.17458L19.8287 3.17847L19.8248 3.18431L19.8053 3.19403L19.7859 3.20375L19.782 3.20958L19.7761 3.21347L19.7703 3.21736L19.7664 3.22319L19.7625 3.22903L19.7567 3.23292L19.7508 3.2368L19.7469 3.24264H19.8443L20.3895 3.12597C20.7529 3.0482 21.1002 2.95422 21.4312 2.84403L21.9569 2.66904L22.0153 2.64959L22.0445 2.63987L22.064 2.63015L22.0835 2.62043L22.1029 2.6107L22.1224 2.60098L22.1613 2.59515L22.2003 2.59126V2.63015L22.1905 2.63404L22.1808 2.63987L22.1769 2.6457L22.1711 2.64959L22.1652 2.65348L22.1613 2.65932L22.1575 2.66515L22.1516 2.66904L22.1458 2.67293L22.1419 2.67876L22.138 2.68459L22.1321 2.68848L22.1224 2.70793L22.1127 2.72737L22.1068 2.73126C22.1042 2.73515 22.0218 2.84532 21.8595 3.06181C21.6973 3.27958 21.6097 3.38975 21.5967 3.39236C21.5837 3.39625 21.5655 3.41569 21.5422 3.45069C21.5201 3.48697 21.3825 3.63152 21.1294 3.88429C20.8763 4.13707 20.6283 4.36196 20.3856 4.559C20.1416 4.75733 20.0182 5.00103 20.0157 5.2901C20.0118 5.57787 19.9968 5.90325 19.9709 6.2662C19.9449 6.62916 19.8962 7.02127 19.8248 7.44256C19.7534 7.86386 19.6431 8.34024 19.4938 8.87171C19.3445 9.40317 19.1628 9.92169 18.9486 10.4272C18.7344 10.9328 18.5105 11.3865 18.2769 11.7883C18.0432 12.1902 17.829 12.5304 17.6343 12.8091C17.4396 13.0878 17.2417 13.3503 17.0405 13.5966C16.8393 13.8429 16.5849 14.1203 16.2772 14.4288C15.9683 14.736 15.7995 14.9046 15.771 14.9344C15.7411 14.9629 15.6139 15.0692 15.3893 15.2533C15.1661 15.4386 14.9259 15.624 14.6689 15.8094C14.4132 15.9934 14.1782 16.147 13.964 16.2702C13.7499 16.3933 13.4916 16.534 13.1891 16.6921C12.888 16.8516 12.5621 16.9993 12.2117 17.1354C11.8612 17.2716 11.4912 17.3979 11.1018 17.5146C10.7124 17.6313 10.336 17.722 9.97249 17.7868C9.60904 17.8516 9.1969 17.9067 8.73608 17.9521L8.04486 18.0202V18.0299H6.77924V18.0202L6.61374 18.0104C6.50342 18.004 6.41255 17.9975 6.34115 17.991C6.26976 17.9845 6.0004 17.9489 5.5331 17.884C5.06579 17.8192 4.6991 17.7544 4.43299 17.6896C4.1669 17.6248 3.77097 17.5016 3.24526 17.3202C2.71954 17.1387 2.26976 16.9553 1.89591 16.7699C1.52338 16.5858 1.28972 16.4692 1.19496 16.4199C1.1015 16.3719 0.996354 16.3123 0.879528 16.241L0.704289 16.1341L0.700414 16.1282L0.694553 16.1244L0.688712 16.1205L0.684818 16.1146L0.665347 16.1049L0.645876 16.0952L0.642001 16.0894L0.63614 16.0855L0.630299 16.0816L0.626405 16.0757L0.62253 16.0699L0.616669 16.066H0.606934V16.0271L0.626405 16.031L0.645876 16.0369L0.733495 16.0466C0.791908 16.0531 0.950928 16.0628 1.21053 16.0757C1.47016 16.0887 1.74599 16.0887 2.03805 16.0757C2.33012 16.0628 2.62869 16.0336 2.93372 15.9882C3.23877 15.9429 3.59898 15.8651 4.01436 15.7549C4.42975 15.6447 4.81139 15.5138 5.15927 15.3621C5.50586 15.2092 5.75248 15.0951 5.89917 15.0199C6.04454 14.946 6.26651 14.8086 6.56506 14.6077L7.0129 14.3063L7.01679 14.3005L7.02263 14.2966L7.02849 14.2927L7.03237 14.2869L7.03626 14.2811L7.0421 14.2772L7.04796 14.2733L7.05184 14.2674L7.07131 14.2616L7.09078 14.2577L7.09467 14.2383L7.10051 14.2188L7.10638 14.2149L7.11025 14.2091L6.95448 14.1994C6.85064 14.1929 6.75004 14.1864 6.65268 14.1799C6.55533 14.1735 6.40281 14.1443 6.19511 14.0924C5.98744 14.0406 5.76352 13.9628 5.52336 13.8591C5.28323 13.7554 5.04958 13.6323 4.82241 13.4897C4.59526 13.3471 4.43104 13.2285 4.32979 13.1339C4.22985 13.0405 4.10003 12.9083 3.94037 12.7372C3.78201 12.5648 3.64441 12.3878 3.52758 12.2064C3.41076 12.0249 3.29913 11.8155 3.1927 11.5783L3.03107 11.2244L3.02134 11.1953L3.0116 11.1661L3.00576 11.1467L3.00187 11.1272L3.03107 11.1311L3.06028 11.1369L3.27446 11.1661C3.41726 11.1856 3.64118 11.192 3.94621 11.1856C4.25126 11.1791 4.46219 11.1661 4.57902 11.1467C4.69585 11.1272 4.76725 11.1143 4.7932 11.1078L4.83214 11.0981L4.88082 11.0883L4.9295 11.0786L4.93339 11.0728L4.93923 11.0689L4.94509 11.065L4.94897 11.0592L4.91003 11.0494L4.87108 11.0397L4.83214 11.03L4.7932 11.0203L4.75426 11.0106C4.7283 11.0041 4.68288 10.9911 4.61796 10.9717C4.55306 10.9522 4.37783 10.8809 4.09224 10.7578C3.80668 10.6346 3.57951 10.5147 3.41076 10.3981C3.24159 10.2811 3.08028 10.1531 2.92788 10.015C2.776 9.87502 2.60922 9.69483 2.42747 9.47447C2.24575 9.25411 2.0835 8.99809 1.9407 8.70643C1.79792 8.41477 1.69083 8.13608 1.61943 7.87033C1.54831 7.60615 1.5014 7.33607 1.47925 7.0634L1.44419 6.65508L1.46366 6.65897L1.48313 6.6648L1.5026 6.67452L1.52207 6.68424L1.54154 6.69397L1.56101 6.70369L1.86281 6.8398C2.06403 6.93054 2.3139 7.00832 2.61245 7.07313C2.91102 7.13793 3.08949 7.17359 3.1479 7.18007L3.23552 7.18979H3.41076L3.40688 7.18396L3.40102 7.18007L3.39518 7.17618L3.39129 7.17035L3.38741 7.16451L3.38155 7.16062L3.37571 7.15673L3.37182 7.1509L3.35235 7.14118L3.33287 7.13146L3.329 7.12562L3.32314 7.12174L3.3173 7.11785L3.3134 7.11201L3.29393 7.10229L3.27446 7.09257L3.27059 7.08674C3.26669 7.08413 3.21087 7.04266 3.10312 6.96229C2.99667 6.88063 2.88504 6.77499 2.76822 6.64536C2.65139 6.51572 2.53456 6.37961 2.41774 6.23703C2.3007 6.09412 2.19645 5.94122 2.1062 5.78009C2.01535 5.61807 1.91928 5.41194 1.81803 5.16177C1.71809 4.91289 1.64215 4.66206 1.59022 4.40928C1.53831 4.15651 1.5091 3.90698 1.5026 3.66069C1.49612 3.41439 1.5026 3.20375 1.52207 3.02875C1.54154 2.85376 1.58048 2.65607 1.6389 2.43571C1.69731 2.21535 1.7817 1.98202 1.89202 1.73572L2.05752 1.36628L2.06726 1.33712L2.07699 1.30795L2.08286 1.30406L2.08673 1.29823L2.09062 1.29239L2.09647 1.28851L2.10233 1.29239L2.1062 1.29823L2.1101 1.30406L2.11594 1.30795L2.1218 1.31184L2.12567 1.31767L2.12957 1.32351L2.13541 1.32739L2.14514 1.34684L2.15488 1.36628L2.16074 1.37017L2.16461 1.376L2.42747 1.66767C2.60271 1.86211 2.81041 2.07924 3.05055 2.31904C3.2907 2.55885 3.42375 2.68329 3.4497 2.69237C3.47568 2.70273 3.50811 2.73254 3.54706 2.78181C3.586 2.82978 3.71581 2.9445 3.93648 3.12597C4.15716 3.30745 4.44597 3.5181 4.80294 3.75791C5.15992 3.99771 5.55582 4.23429 5.99067 4.46762C6.42553 4.70095 6.89284 4.91158 7.39258 5.09955C7.89234 5.28752 8.24282 5.41066 8.44401 5.46899C8.64523 5.52732 8.9892 5.60185 9.47598 5.69259C9.96275 5.78334 10.3295 5.84167 10.5761 5.86759C10.8227 5.89351 10.9915 5.90842 11.0823 5.91231L11.2186 5.9162L11.2148 5.88704L11.2089 5.85787L11.17 5.61482C11.144 5.45279 11.131 5.22594 11.131 4.93427C11.131 4.64261 11.1537 4.37364 11.1992 4.12734C11.2446 3.88105 11.3128 3.63152 11.4036 3.37875C11.4945 3.12597 11.5834 2.92309 11.6704 2.77015C11.7586 2.61848 11.8742 2.44543 12.0169 2.25099C12.1597 2.05655 12.3447 1.85563 12.5719 1.64822C12.799 1.44081 13.0586 1.25609 13.3507 1.09407C13.6428 0.932037 13.9121 0.808879 14.1588 0.724627C14.4054 0.640376 14.6131 0.585271 14.7818 0.559352C14.9506 0.533433 15.035 0.51852 15.035 0.514631Z" fill="#1678F2"/>
</svg>
