<svg width="26" height="19" viewBox="0 0 26 19" fill="none" xmlns="http://www.w3.org/2000/svg">
<path d="M13.6843 17.6437L8.81118 17.5526C7.23336 17.5209 5.65163 17.5842 4.10475 17.2554C1.7516 16.7642 1.58489 14.3554 1.41045 12.335C1.17009 9.49443 1.26314 6.60234 1.71674 3.78552C1.9728 2.20498 2.98053 1.26187 4.53895 1.15924C9.79975 0.786784 15.0955 0.830924 20.3447 1.00469C20.899 1.02062 21.4572 1.10768 22.0039 1.20678C24.7022 1.69014 24.768 4.41977 24.9429 6.71761C25.1174 9.03916 25.0437 11.3726 24.7103 13.6784C24.4428 15.5875 23.931 17.1884 21.7712 17.343C19.0652 17.5451 16.4212 17.7078 13.7075 17.656C13.7076 17.6437 13.692 17.6437 13.6843 17.6437ZM10.8194 12.8104C12.8586 11.6139 14.859 10.4373 16.8866 9.2488C14.8435 8.05227 12.847 6.87569 10.8194 5.68719V12.8104Z" fill="#1678F2"/>
</svg>
