<svg width="21" height="22" viewBox="0 0 21 22" fill="none" xmlns="http://www.w3.org/2000/svg">
<path fill-rule="evenodd" clip-rule="evenodd" d="M20.6709 11.2805C20.6709 10.5301 20.6038 9.80846 20.4792 9.11572H10.5469V13.2096H16.2225C15.978 14.5325 15.235 15.6534 14.1181 16.4039V19.0594H17.5263C19.5205 17.2169 20.6709 14.5037 20.6709 11.2805Z" fill="#4285F4"/>
<path fill-rule="evenodd" clip-rule="evenodd" d="M10.5463 21.6234C13.3937 21.6234 15.7809 20.6757 17.5257 19.0593L14.1175 16.4038C13.1732 17.0388 11.9652 17.4141 10.5463 17.4141C7.79954 17.4141 5.47465 15.5523 4.64536 13.0508H1.12207V15.7929C2.85735 19.2517 6.42378 21.6234 10.5463 21.6234Z" fill="#34A853"/>
<path fill-rule="evenodd" clip-rule="evenodd" d="M4.64499 13.0509C4.43407 12.4159 4.31423 11.7376 4.31423 11.04C4.31423 10.3425 4.43407 9.6642 4.64499 9.02919V6.28711H1.1217C0.407455 7.71588 0 9.33226 0 11.04C0 12.7478 0.407455 14.3642 1.1217 15.793L4.64499 13.0509Z" fill="#FBBC05"/>
<path fill-rule="evenodd" clip-rule="evenodd" d="M10.5463 4.66539C12.0946 4.66539 13.4847 5.19937 14.5777 6.2481L17.6024 3.21257C15.7761 1.50478 13.3889 0.456055 10.5463 0.456055C6.42378 0.456055 2.85735 2.82771 1.12207 6.28658L4.64536 9.02866C5.47465 6.52711 7.79954 4.66539 10.5463 4.66539Z" fill="#EA4335"/>
</svg>
