<svg width="603" height="587" viewBox="0 0 603 587" fill="none" xmlns="http://www.w3.org/2000/svg">
<path d="M602.245 532.695H1V532.995H602.245V532.695Z" fill="white" stroke="white"/>
<path d="M541.999 552.043H502.173V552.344H541.999V552.043Z" fill="#EBEBEB" stroke="#EBEBEB"/>
<path d="M399.289 555.314H388.839V555.615H399.289V555.314Z" fill="#EBEBEB" stroke="#EBEBEB"/>
<path d="M500.972 540.884H443.649V541.185H500.972V540.884Z" fill="#EBEBEB" stroke="#EBEBEB"/>
<path d="M92.558 542.904H64.083V543.205H92.558V542.904Z" fill="#EBEBEB" stroke="#EBEBEB"/>
<path d="M134.343 542.904H103.259V543.205H134.343V542.904Z" fill="#EBEBEB" stroke="#EBEBEB"/>
<path d="M236.821 547.979H159.092V548.28H236.821V547.979Z" fill="#EBEBEB" stroke="#EBEBEB"/>
<path d="M285.989 479.064H53.8005C51.9815 479.061 50.2382 478.336 48.9531 477.049C47.668 475.762 46.9463 474.017 46.9463 472.198V145.806C46.9621 143.998 47.6909 142.268 48.9742 140.994C50.2576 139.72 51.9919 139.003 53.8005 139H285.989C287.81 139 289.557 139.723 290.844 141.011C292.132 142.299 292.855 144.045 292.855 145.866V472.198C292.855 474.019 292.132 475.765 290.844 477.053C289.557 478.341 287.81 479.064 285.989 479.064ZM53.8005 139.24C52.0613 139.244 50.3944 139.937 49.1657 141.168C47.937 142.399 47.2469 144.067 47.2469 145.806V472.198C47.2469 473.937 47.937 475.605 49.1657 476.836C50.3944 478.067 52.0613 478.76 53.8005 478.763H285.989C287.73 478.76 289.398 478.068 290.628 476.837C291.859 475.606 292.552 473.938 292.555 472.198V145.806C292.552 144.066 291.859 142.398 290.628 141.167C289.398 139.936 287.73 139.244 285.989 139.24H53.8005Z" fill="white" stroke="white"/>
<path d="M546.101 479.064H313.9C312.08 479.061 310.336 478.337 309.049 477.05C307.762 475.763 307.037 474.018 307.034 472.198V145.806C307.053 143.996 307.785 142.267 309.07 140.993C310.355 139.719 312.091 139.003 313.9 139H546.101C547.908 139.006 549.639 139.724 550.92 140.998C552.2 142.272 552.928 144 552.943 145.806V472.198C552.943 474.015 552.223 475.758 550.941 477.045C549.658 478.332 547.918 479.058 546.101 479.064ZM313.9 139.24C312.16 139.244 310.492 139.936 309.261 141.167C308.031 142.398 307.338 144.066 307.335 145.806V472.198C307.338 473.938 308.031 475.606 309.261 476.837C310.492 478.068 312.16 478.76 313.9 478.763H546.101C547.841 478.76 549.51 478.068 550.74 476.837C551.971 475.606 552.664 473.938 552.667 472.198V145.806C552.664 144.066 551.971 142.398 550.74 141.167C549.51 139.936 547.841 139.244 546.101 139.24H313.9Z" fill="white" stroke="white"/>
<path d="M531.79 170.265H341.833V532.695H531.79V170.265Z" fill="#EBEBEB"/>
<path d="M517.663 182.085H355.964V532.695H517.663V182.085Z" fill="#F5F5F5"/>
<path d="M459.558 211.162H414.092V223.728H459.558V211.162Z" fill="white"/>
<path d="M480.035 335.992H504.699C505.719 335.992 506.698 336.397 507.419 337.119C508.141 337.84 508.546 338.819 508.546 339.84C508.546 340.86 508.141 341.839 507.419 342.561C506.698 343.282 505.719 343.688 504.699 343.688H480.035C479.015 343.688 478.036 343.282 477.315 342.561C476.593 341.839 476.188 340.86 476.188 339.84C476.188 338.819 476.593 337.84 477.315 337.119C478.036 336.397 479.015 335.992 480.035 335.992Z" fill="white"/>
<path d="M211.964 208.828H85.6309V310.643H211.964V208.828Z" fill="#EBEBEB"/>
<path d="M205.17 303.861V215.61H92.4005V303.861H205.17Z" fill="#FAFAFA"/>
<path d="M192.027 260.897V256.676H105.556V260.897H192.027Z" fill="#E0E0E0"/>
<path d="M192.027 270.504V266.283H105.556V270.504H192.027Z" fill="#E0E0E0"/>
<path d="M192.027 280.101V275.88H105.556V280.101H192.027Z" fill="#E0E0E0"/>
<path d="M170.346 289.708V285.487H127.236V289.708H170.346Z" fill="#E0E0E0"/>
<path d="M105.617 215.61C105.617 217.343 105.274 219.059 104.608 220.659C103.943 222.259 102.967 223.712 101.738 224.933C100.508 226.155 99.0493 227.121 97.445 227.777C95.8407 228.432 94.1225 228.764 92.3895 228.753C89.9982 228.759 87.6517 228.106 85.6074 226.865V208.828H103.645C104.909 210.866 105.591 213.212 105.617 215.61Z" fill="#EBEBEB"/>
<path d="M211.964 208.828V226.865C209.45 228.377 206.502 229.005 203.59 228.648C200.679 228.291 197.97 226.971 195.895 224.896C193.821 222.822 192.5 220.113 192.144 217.201C191.787 214.289 192.414 211.342 193.926 208.828H211.964Z" fill="#EBEBEB"/>
<path d="M105.616 303.873C105.621 306.259 104.972 308.6 103.74 310.643H85.7031V292.606C87.6982 291.411 89.9742 290.767 92.2993 290.738C94.6245 290.71 96.9157 291.298 98.9395 292.443C100.963 293.588 102.647 295.249 103.82 297.257C104.993 299.265 105.613 301.548 105.616 303.873Z" fill="#EBEBEB"/>
<path d="M211.965 292.594V310.631H193.928C192.687 308.591 192.034 306.248 192.04 303.861C192.043 301.532 192.663 299.246 193.837 297.235C195.011 295.225 196.697 293.561 198.724 292.415C200.75 291.268 203.045 290.679 205.373 290.709C207.701 290.738 209.98 291.384 211.977 292.582L211.965 292.594Z" fill="#EBEBEB"/>
<path d="M159.847 238.907C160.838 232.804 156.693 227.053 150.59 226.063C144.487 225.072 138.737 229.217 137.746 235.32C136.755 241.423 140.9 247.173 147.003 248.164C153.106 249.155 158.856 245.01 159.847 238.907Z" fill="#E0E0E0"/>
<path d="M314.057 388.095H64.083V397.09H314.057V388.095Z" fill="#EBEBEB"/>
<path d="M311.892 397.09H230.676V532.695H311.892V397.09Z" fill="#F5F5F5"/>
<path d="M148.388 397.09H67.1719V532.695H148.388V397.09Z" fill="#F5F5F5"/>
<path d="M69.9496 397.09H67.1719V532.695H69.9496V397.09Z" fill="#EBEBEB"/>
<path d="M233.454 397.09H230.676V532.695H233.454V397.09Z" fill="#EBEBEB"/>
<path d="M109.826 366.415H94.8906L96.0931 388.095H108.623L109.826 366.415Z" fill="#F0F0F0"/>
<path d="M239.49 378.692H161.46V388.095H239.49V378.692Z" fill="#F0F0F0"/>
<path d="M239.501 379.798H203.522V387.001H239.501V379.798Z" fill="#FAFAFA"/>
<path d="M301.621 587C430.387 587 534.772 580.906 534.772 573.388C534.772 565.87 430.387 559.776 301.621 559.776C172.856 559.776 68.4707 565.87 68.4707 573.388C68.4707 580.906 172.856 587 301.621 587Z" fill="#F5F5F5"/>
<path d="M410.698 489.189C431.738 489.189 448.793 472.133 448.793 451.094C448.793 430.055 431.738 412.999 410.698 412.999C389.659 412.999 372.604 430.055 372.604 451.094C372.604 472.133 389.659 489.189 410.698 489.189Z" fill="white"/>
<path d="M410.7 489.658C403.072 489.66 395.615 487.401 389.272 483.165C382.928 478.929 377.984 472.907 375.063 465.86C372.142 458.814 371.377 451.06 372.864 443.578C374.35 436.097 378.022 429.224 383.415 423.83C388.808 418.435 395.679 414.761 403.16 413.272C410.641 411.783 418.396 412.546 425.443 415.465C432.49 418.383 438.514 423.326 442.752 429.668C446.99 436.01 449.252 443.466 449.252 451.094C449.242 461.317 445.178 471.118 437.95 478.348C430.723 485.578 420.923 489.645 410.7 489.658ZM410.7 413.48C403.258 413.48 395.983 415.687 389.795 419.822C383.607 423.957 378.784 429.834 375.937 436.71C373.089 443.586 372.345 451.152 373.798 458.451C375.251 465.75 378.835 472.454 384.099 477.716C389.362 482.978 396.067 486.56 403.367 488.011C410.666 489.461 418.232 488.714 425.107 485.865C431.982 483.015 437.858 478.19 441.991 472.001C446.123 465.812 448.328 458.536 448.326 451.094C448.316 441.119 444.349 431.556 437.294 424.503C430.24 417.451 420.675 413.487 410.7 413.48Z" fill="#407BFF"/>
<path d="M416.832 429.497H404.566V472.69H416.832V429.497Z" fill="#407BFF"/>
<path d="M432.296 457.238V444.973H389.102V457.238H432.296Z" fill="#407BFF"/>
<path d="M152.647 163.134L151.829 162.256C157.396 156.994 164.459 153.591 172.043 152.516L172.211 153.719C164.872 154.754 158.035 158.044 152.647 163.134Z" fill="#407BFF"/>
<path d="M143.747 176.277L142.629 175.844C143.843 172.78 145.46 169.893 147.439 167.258L148.401 167.98C146.493 170.53 144.928 173.319 143.747 176.277Z" fill="#407BFF"/>
<path d="M177.297 222.345C195.52 222.345 210.293 207.572 210.293 189.348C210.293 171.125 195.52 156.352 177.297 156.352C159.074 156.352 144.301 171.125 144.301 189.348C144.301 207.572 159.074 222.345 177.297 222.345Z" fill="#407BFF"/>
<path d="M197.006 174.485C195.735 173.166 194.214 172.113 192.531 171.389C190.849 170.664 189.039 170.283 187.207 170.266C185.375 170.249 183.559 170.597 181.863 171.291C180.168 171.985 178.628 173.009 177.333 174.305C176.039 173.01 174.5 171.985 172.805 171.292C171.111 170.598 169.295 170.25 167.465 170.267C165.634 170.283 163.825 170.665 162.143 171.39C160.462 172.114 158.942 173.166 157.672 174.485C155.184 177.177 153.843 180.733 153.935 184.398C154.027 188.062 155.545 191.547 158.165 194.11L173.798 209.742C174.266 210.211 174.823 210.583 175.436 210.837C176.049 211.091 176.706 211.222 177.369 211.222C178.032 211.222 178.689 211.091 179.302 210.837C179.915 210.583 180.471 210.211 180.94 209.742L196.573 194.11C199.185 191.539 200.691 188.05 200.772 184.385C200.853 180.721 199.502 177.169 197.006 174.485Z" fill="white"/>
<path d="M177.297 203.766C177.054 203.758 176.82 203.676 176.625 203.532C176.43 203.389 176.282 203.189 176.202 202.96L169.24 182.602L166.33 191.116C166.247 191.352 166.093 191.557 165.888 191.702C165.683 191.846 165.438 191.923 165.188 191.921H153.535C153.217 191.921 152.911 191.795 152.685 191.569C152.46 191.344 152.333 191.038 152.333 190.719C152.333 190.4 152.46 190.094 152.685 189.869C152.911 189.643 153.217 189.516 153.535 189.516H164.358L168.134 178.49C168.216 178.253 168.369 178.048 168.573 177.903C168.776 177.758 169.02 177.68 169.27 177.68C169.52 177.68 169.764 177.758 169.968 177.903C170.171 178.048 170.325 178.253 170.406 178.49L177.489 199.209L184.367 183.011C184.454 182.805 184.597 182.626 184.78 182.497C184.963 182.367 185.178 182.291 185.401 182.277C185.627 182.265 185.851 182.315 186.049 182.424C186.246 182.532 186.41 182.694 186.52 182.891L190.151 189.504H201.106C201.425 189.504 201.731 189.631 201.956 189.857C202.182 190.082 202.308 190.388 202.308 190.707C202.308 191.026 202.182 191.332 201.956 191.557C201.731 191.783 201.425 191.909 201.106 191.909H189.454C189.239 191.911 189.027 191.855 188.841 191.747C188.655 191.639 188.501 191.484 188.396 191.296L185.546 186.198L178.403 203.032C178.311 203.25 178.157 203.435 177.96 203.566C177.763 203.696 177.533 203.766 177.297 203.766Z" fill="#407BFF"/>
<path d="M360.377 531.253H234.873C232.828 531.276 230.801 530.873 228.92 530.07C227.039 529.267 225.346 528.081 223.948 526.588C222.55 525.095 221.478 523.328 220.8 521.398C220.122 519.469 219.853 517.419 220.01 515.38L240.296 214.758C240.651 210.465 242.588 206.456 245.733 203.512C248.877 200.567 253.004 198.897 257.311 198.825H382.839C384.89 198.802 386.923 199.206 388.808 200.013C390.693 200.82 392.389 202.011 393.788 203.51C395.187 205.01 396.257 206.785 396.931 208.721C397.605 210.658 397.868 212.714 397.702 214.758L377.38 515.38C377.014 519.662 375.073 523.655 371.932 526.588C368.791 529.52 364.673 531.182 360.377 531.253Z" fill="#263238"/>
<path d="M388.204 321.25H385.041C384.469 321.257 383.901 321.144 383.374 320.919C382.848 320.694 382.374 320.361 381.984 319.942C381.593 319.524 381.294 319.028 381.106 318.487C380.919 317.946 380.846 317.372 380.893 316.801L384.777 259.334C384.867 258.132 385.405 257.008 386.285 256.184C387.165 255.36 388.321 254.896 389.527 254.885H392.689C393.262 254.878 393.83 254.99 394.356 255.216C394.883 255.441 395.356 255.773 395.747 256.192C396.137 256.611 396.436 257.107 396.624 257.648C396.812 258.189 396.885 258.763 396.838 259.334L392.954 316.801C392.863 318.003 392.325 319.127 391.446 319.951C390.566 320.775 389.409 321.238 388.204 321.25Z" fill="#263238"/>
<path d="M238.469 282.915H235.319C234.853 282.921 234.39 282.83 233.961 282.648C233.532 282.467 233.145 282.198 232.825 281.859C232.505 281.519 232.259 281.118 232.103 280.678C231.946 280.239 231.883 279.772 231.916 279.307L233.323 258.552C233.412 257.578 233.857 256.671 234.574 256.005C235.291 255.339 236.229 254.962 237.207 254.945H240.369C240.834 254.942 241.294 255.035 241.721 255.218C242.148 255.402 242.533 255.671 242.851 256.01C243.169 256.348 243.414 256.749 243.571 257.186C243.727 257.624 243.792 258.089 243.76 258.552L242.353 279.307C242.267 280.283 241.822 281.191 241.105 281.858C240.388 282.524 239.448 282.901 238.469 282.915Z" fill="#407BFF"/>
<path d="M235.968 319.976H232.806C232.341 319.98 231.88 319.888 231.452 319.706C231.024 319.523 230.639 319.254 230.32 318.915C230.001 318.576 229.756 318.175 229.601 317.737C229.445 317.298 229.382 316.832 229.415 316.368L230.822 295.613C230.911 294.639 231.356 293.732 232.073 293.066C232.79 292.4 233.728 292.023 234.706 292.006H237.892C238.357 292.003 238.817 292.096 239.244 292.28C239.671 292.463 240.056 292.732 240.374 293.071C240.692 293.409 240.937 293.81 241.094 294.247C241.25 294.685 241.315 295.15 241.283 295.613L239.877 316.368C239.79 317.348 239.342 318.26 238.619 318.927C237.897 319.594 236.952 319.968 235.968 319.976Z" fill="#407BFF"/>
<path d="M357.72 531.253H232.216C230.171 531.276 228.143 530.873 226.263 530.07C224.382 529.266 222.689 528.081 221.291 526.588C219.893 525.095 218.821 523.328 218.143 521.398C217.465 519.469 217.196 517.419 217.353 515.38L237.651 214.758C238.018 210.463 239.969 206.458 243.125 203.522C246.281 200.586 250.416 198.929 254.726 198.873H380.182C382.228 198.85 384.257 199.253 386.138 200.057C388.02 200.861 389.714 202.048 391.112 203.542C392.51 205.036 393.582 206.805 394.259 208.736C394.936 210.667 395.204 212.718 395.045 214.758L374.735 515.38C374.369 519.664 372.426 523.659 369.282 526.591C366.139 529.524 362.018 531.185 357.72 531.253Z" fill="#407BFF"/>
<path opacity="0.3" d="M218.676 512.013L238.493 218.654H393.686L373.869 512.013H218.676Z" fill="white"/>
<path opacity="0.1" d="M279.943 512.013L335.33 218.654H370.094L314.707 512.013H279.943Z" fill="white"/>
<path opacity="0.1" d="M253.681 512.013L309.067 218.654H326.684L271.297 512.013H253.681Z" fill="white"/>
<path d="M301.792 206.244H332.059C332.312 206.24 332.562 206.289 332.795 206.388C333.028 206.486 333.237 206.633 333.409 206.818C333.581 207.003 333.713 207.221 333.795 207.46C333.878 207.699 333.909 207.953 333.887 208.204C333.845 208.734 333.608 209.23 333.221 209.594C332.834 209.959 332.326 210.166 331.795 210.177H301.528C301.275 210.179 301.024 210.129 300.791 210.029C300.559 209.929 300.35 209.781 300.177 209.595C300.005 209.409 299.874 209.19 299.792 208.95C299.709 208.711 299.678 208.457 299.7 208.204C299.742 207.676 299.98 207.182 300.367 206.819C300.754 206.457 301.262 206.252 301.792 206.244Z" fill="white"/>
<path d="M295.491 560.173L284.885 561.183L281.062 536.713L291.667 535.691L295.491 560.173Z" fill="#FFB573"/>
<path d="M283.671 556.001L294.782 552.549C294.973 552.483 295.183 552.493 295.367 552.579C295.551 552.664 295.695 552.817 295.768 553.006L299.375 561.821C299.465 562.057 299.505 562.309 299.492 562.561C299.479 562.814 299.414 563.061 299.301 563.287C299.188 563.513 299.03 563.713 298.835 563.875C298.641 564.036 298.416 564.156 298.173 564.226C294.157 565.428 290.333 565.705 285.487 567.833C279.823 570.238 277.454 573.461 271.357 573.461C266.992 573.461 266.006 569.457 267.858 568.903C276.275 566.354 275.169 564.262 281.278 557.684C281.913 556.922 282.739 556.341 283.671 556.001Z" fill="#263238"/>
<path opacity="0.2" d="M281.062 536.713L283.034 549.339L293.652 548.317L291.68 535.691L281.062 536.713Z" fill="black"/>
<path d="M288.734 227.504C274.821 225.869 260.98 226.963 247.091 229.657C244.777 230.106 242.666 231.28 241.064 233.01C239.462 234.74 238.452 236.934 238.181 239.276C236.678 252.576 234.958 282.386 241.668 326.854L298.522 322.044C298.63 313.975 292.894 277.215 297.632 239.072C297.826 237.726 297.748 236.354 297.403 235.038C297.058 233.722 296.453 232.489 295.624 231.41C294.795 230.332 293.758 229.431 292.574 228.76C291.391 228.089 290.085 227.662 288.734 227.504Z" fill="white"/>
<path d="M255.628 238.904L257.66 242.968C257.755 243.173 257.906 243.348 258.095 243.471C258.284 243.594 258.504 243.662 258.73 243.666L260.931 243.786C261.324 243.803 261.71 243.684 262.025 243.449L265.813 240.624L261.135 237.22L255.628 238.904Z" fill="#263238"/>
<path d="M261.004 242.619C260.202 242.248 259.293 242.175 258.443 242.415C256.651 248.728 254.691 266.849 254.486 274.882C259.922 290.719 261.701 292.318 261.701 292.318L264.455 273.259C264.455 273.259 261.365 253.766 261.004 242.619Z" fill="#263238"/>
<path d="M276.696 200.088C275.397 207.928 274.291 222.25 279.918 227.312C275.794 231.641 270.395 236.656 261.136 237.221C251.876 237.786 253.307 231.377 255.652 227.95C264.298 225.641 263.877 219.195 262.182 213.171L276.696 200.088Z" fill="#FFB573"/>
<path d="M282.276 226.626C281.62 226.343 280.94 226.122 280.243 225.965C280.073 225.919 279.892 225.932 279.73 225.999C279.567 226.066 279.43 226.185 279.341 226.337C278.452 227.852 275.734 234.622 261.136 237.22C263.541 238.639 266.727 243.04 268.098 245.156C272.475 242.884 283.863 236.089 282.781 227.299C282.758 227.154 282.701 227.017 282.613 226.899C282.525 226.782 282.409 226.688 282.276 226.626Z" fill="#F5F5F5"/>
<path d="M255.738 228.31C255.768 228.173 255.765 228.03 255.726 227.895C255.688 227.761 255.617 227.637 255.519 227.537C255.421 227.437 255.299 227.362 255.165 227.321C255.031 227.279 254.889 227.272 254.752 227.299C254.246 227.398 253.748 227.53 253.261 227.696C253.148 227.74 253.042 227.801 252.948 227.877C251.83 228.911 245.733 237.713 251.445 244.832C252.647 242.896 256.796 238.507 261.137 237.22C257.024 235.368 255.004 231.917 255.738 228.31Z" fill="#F5F5F5"/>
<path opacity="0.2" d="M270.78 205.427L262.194 213.171C262.608 214.569 262.898 216.002 263.06 217.451C266.379 216.886 270.84 213.122 271.081 209.635C271.243 208.226 271.141 206.798 270.78 205.427Z" fill="black"/>
<path d="M259.309 176.387C251.902 179.285 251.421 185.369 252.094 192.019C252.768 198.669 260.007 194.268 261.618 190.107C263.23 185.946 269.567 172.37 259.309 176.387Z" fill="#263238"/>
<path d="M282.937 189.65C280.881 200.123 280.195 206.34 274.207 211.162C265.176 218.377 252.947 212.148 251.865 201.35C250.891 191.622 254.414 176.097 265.2 173.067C267.553 172.375 270.045 172.308 272.431 172.873C274.817 173.439 277.014 174.617 278.806 176.292C280.597 177.966 281.92 180.08 282.645 182.422C283.369 184.765 283.47 187.256 282.937 189.65Z" fill="#FFB573"/>
<path d="M282.504 198.32C273.69 198.789 275.554 193.786 277.153 190.912C278.752 188.038 275.494 183.289 277.622 180.823C273.822 182.339 269.818 181.088 264.731 177.553C260.787 174.799 255.845 185.802 251.035 180.282C246.49 175.076 250.71 167.223 261.629 165.961C272.548 164.698 274.532 172.418 281.698 171.733C288.865 171.047 286.376 176.951 284.969 178.154C290.982 178.551 294.264 184.299 282.504 198.32Z" fill="#263238"/>
<path d="M283.587 178.888C284.966 178.131 286.118 177.02 286.923 175.669C287.729 174.318 288.159 172.776 288.168 171.204C290.549 175.376 290.297 180.114 283.587 178.888Z" fill="#263238"/>
<path d="M260.738 200.833C261.696 200.999 262.678 200.97 263.625 200.746C264.571 200.523 265.463 200.111 266.246 199.535C266.269 199.512 266.288 199.485 266.301 199.455C266.314 199.425 266.321 199.393 266.321 199.36C266.321 199.328 266.314 199.295 266.301 199.265C266.288 199.235 266.269 199.208 266.246 199.186C266.199 199.141 266.136 199.116 266.071 199.116C266.006 199.116 265.944 199.141 265.897 199.186C265.02 199.807 264.011 200.217 262.949 200.382C261.886 200.547 260.8 200.462 259.776 200.136C259.711 200.12 259.642 200.128 259.582 200.159C259.522 200.19 259.476 200.241 259.452 200.304C259.433 200.368 259.44 200.437 259.472 200.495C259.503 200.554 259.556 200.597 259.62 200.617C259.986 200.722 260.36 200.795 260.738 200.833Z" fill="#263238"/>
<path d="M285.066 201.53C283.419 203.652 281.005 205.043 278.344 205.402C274.844 205.859 273.678 202.601 275.145 199.558C276.48 196.817 279.955 193.281 283.178 194.231C286.4 195.181 287.086 198.885 285.066 201.53Z" fill="#FFB573"/>
<path d="M281.591 429.246C282.012 397.849 286.028 323.066 286.028 323.066L241.704 326.806C241.704 326.806 250.518 403.874 255.833 435.908C261.365 469.205 278.332 547.21 278.332 547.21L296.369 545.671C296.369 545.671 289.78 453.524 281.591 429.246Z" fill="#263238"/>
<path d="M277.248 547.703L298.641 545.887L297.799 538.985L275.505 540.476L277.248 547.703Z" fill="#407BFF"/>
<path d="M267.136 190.275C267.028 191.129 266.475 191.779 265.933 191.718C265.392 191.658 265.02 190.913 265.14 190.047C265.26 189.181 265.801 188.544 266.342 188.604C266.883 188.664 267.256 189.422 267.136 190.275Z" fill="#263238"/>
<path d="M257.324 189.506C257.216 190.371 256.663 191.009 256.122 190.949C255.581 190.888 255.208 190.143 255.328 189.289C255.449 188.435 255.99 187.786 256.531 187.846C257.072 187.906 257.445 188.604 257.324 189.506Z" fill="#263238"/>
<path d="M260.09 190.516C258.641 192.741 256.902 194.763 254.919 196.528C256.194 197.863 258.827 197.502 258.827 197.502L260.09 190.516Z" fill="#ED893E"/>
<path opacity="0.4" d="M251.119 189.722C250.939 191.093 252.322 192.235 254.234 192.475C256.146 192.716 257.913 191.67 258.082 190.299" fill="#407BFF"/>
<path opacity="0.4" d="M262.483 190.997C262.218 192.356 263.553 193.583 265.429 193.943C267.305 194.304 269.144 193.342 269.397 191.995" fill="#407BFF"/>
<path d="M266.175 194.316C265.958 194.328 265.742 194.328 265.525 194.316C264.601 194.205 263.733 193.815 263.036 193.198C262.732 192.938 262.495 192.609 262.344 192.239C262.194 191.868 262.134 191.467 262.17 191.069C261.56 190.803 260.91 190.641 260.246 190.588C259.579 190.422 258.881 190.422 258.214 190.588C258.046 192.055 256.218 193.065 254.174 192.813C253.249 192.712 252.379 192.325 251.685 191.707C251.382 191.446 251.146 191.117 250.996 190.747C250.845 190.377 250.785 189.976 250.819 189.578L251.396 189.65C251.372 189.958 251.421 190.267 251.541 190.551C251.66 190.836 251.845 191.087 252.082 191.286C252.687 191.819 253.444 192.151 254.246 192.236C255.978 192.464 257.517 191.658 257.673 190.456C257.757 189.783 259.152 189.831 260.307 189.975C261.461 190.119 262.832 190.444 262.712 191.105C262.686 191.413 262.735 191.722 262.855 192.007C262.974 192.291 263.16 192.543 263.397 192.741C264.01 193.267 264.764 193.602 265.565 193.704C266.367 193.807 267.18 193.673 267.906 193.318C268.186 193.187 268.431 192.992 268.619 192.747C268.808 192.502 268.934 192.215 268.989 191.911V191.622L283.827 193.534L283.755 194.112L269.47 192.272C269.366 192.606 269.195 192.917 268.967 193.183C268.74 193.45 268.461 193.667 268.147 193.823C267.539 194.145 266.862 194.314 266.175 194.316Z" fill="#263238"/>
<path d="M270.912 186.5C270.998 186.5 271.081 186.475 271.153 186.428C271.269 186.36 271.355 186.249 271.391 186.118C271.427 185.988 271.41 185.849 271.345 185.73C270.972 185.031 270.433 184.434 269.774 183.994C269.115 183.553 268.358 183.282 267.569 183.205C267.434 183.198 267.301 183.245 267.2 183.335C267.099 183.425 267.037 183.551 267.028 183.686C267.021 183.818 267.067 183.947 267.154 184.046C267.242 184.145 267.365 184.206 267.497 184.215C268.121 184.288 268.718 184.513 269.235 184.869C269.753 185.225 270.176 185.703 270.467 186.259C270.513 186.336 270.578 186.399 270.656 186.441C270.735 186.483 270.823 186.504 270.912 186.5Z" fill="#263238"/>
<path d="M254.15 185.141C254.233 185.149 254.317 185.137 254.394 185.106C254.472 185.074 254.541 185.025 254.595 184.961C254.984 184.452 255.486 184.041 256.063 183.761C256.639 183.481 257.273 183.34 257.914 183.35C257.98 183.356 258.047 183.35 258.111 183.33C258.175 183.311 258.234 183.279 258.285 183.236C258.337 183.194 258.379 183.142 258.41 183.083C258.442 183.024 258.461 182.959 258.467 182.893C258.475 182.828 258.47 182.762 258.453 182.699C258.436 182.636 258.406 182.577 258.366 182.525C258.326 182.474 258.276 182.431 258.219 182.399C258.162 182.367 258.099 182.347 258.034 182.339C257.226 182.318 256.425 182.487 255.694 182.831C254.963 183.176 254.323 183.687 253.825 184.324C253.739 184.426 253.698 184.558 253.709 184.691C253.72 184.824 253.783 184.947 253.885 185.033C253.964 185.089 254.054 185.126 254.15 185.141Z" fill="#263238"/>
<path d="M318.519 424.184C309.32 376.902 307.252 339.925 298.522 321.972L255.581 326.782C255.581 326.782 281.158 397.236 293.652 427.31C306.627 458.575 332.24 511.99 332.24 511.99H353.692C353.692 511.99 333.671 445.72 318.519 424.184Z" fill="#263238"/>
<path d="M182.409 245.193L177.767 242.259C177.014 241.773 176.115 241.564 175.225 241.667C174.335 241.77 173.508 242.179 172.885 242.824L169.735 246.143C169.395 246.501 169.133 246.925 168.964 247.388C168.795 247.852 168.723 248.345 168.752 248.838C168.782 249.33 168.912 249.812 169.134 250.252C169.357 250.692 169.668 251.082 170.047 251.398L172.296 253.321C174.252 254.979 176.534 256.208 178.994 256.929L185.788 258.937L190.249 254.127C191.608 249.113 182.409 245.193 182.409 245.193Z" fill="#FFB573"/>
<path d="M251.118 242.944C249.435 247.056 247.787 250.88 245.996 254.788C244.204 258.696 242.388 262.556 240.38 266.392C238.372 270.228 236.231 274.04 233.802 277.864C232.6 279.764 231.265 281.664 229.75 283.576C228.121 285.684 226.266 287.607 224.218 289.312C222.866 290.417 221.374 291.339 219.781 292.053C219.276 292.246 218.807 292.438 218.254 292.607L217.412 292.835C216.989 292.939 216.559 293.015 216.126 293.063C214.66 293.229 213.176 293.123 211.749 292.751C209.964 292.251 208.268 291.476 206.722 290.454C205.564 289.732 204.459 288.928 203.415 288.049C199.945 285.019 196.746 281.692 193.856 278.105C191.054 274.738 188.408 271.359 185.871 267.907C183.334 264.456 180.893 261.065 178.392 257.446L191.691 248.86C195.888 255.635 200.532 262.123 205.592 268.28C207.918 271.132 210.48 273.783 213.252 276.205C213.789 276.644 214.355 277.046 214.947 277.407C215.392 277.708 215.837 277.828 215.524 277.72C215.102 277.603 214.659 277.579 214.226 277.648C214.051 277.664 213.878 277.696 213.709 277.744H213.613C213.552 277.744 213.552 277.744 213.54 277.744C213.814 277.565 214.075 277.368 214.322 277.155C215.42 276.158 216.415 275.054 217.292 273.86C218.314 272.489 219.336 270.95 220.31 269.35C222.301 266.025 224.116 262.597 225.746 259.081C227.429 255.474 229.052 251.866 230.556 248.114C232.059 244.363 233.49 240.551 234.704 236.907L251.118 242.944Z" fill="#407BFF"/>
<g opacity="0.6">
<path d="M251.12 242.944C249.437 247.056 247.789 250.88 245.998 254.788C244.206 258.696 242.39 262.556 240.382 266.392C238.374 270.228 236.233 274.04 233.804 277.864C232.602 279.764 231.267 281.664 229.752 283.576C228.123 285.684 226.268 287.607 224.22 289.312C222.868 290.417 221.376 291.339 219.783 292.053C219.278 292.246 218.809 292.438 218.256 292.607L217.414 292.835C216.991 292.939 216.561 293.015 216.128 293.063C214.662 293.229 213.178 293.123 211.751 292.751C209.966 292.251 208.27 291.476 206.724 290.454C205.566 289.732 204.461 288.928 203.417 288.049C199.947 285.019 196.748 281.692 193.858 278.105C191.056 274.738 188.41 271.359 185.873 267.907C183.336 264.456 180.895 261.065 178.394 257.446L191.693 248.86C195.89 255.635 200.534 262.123 205.594 268.28C207.92 271.132 210.482 273.783 213.254 276.205C213.791 276.644 214.357 277.046 214.949 277.407C215.394 277.708 215.839 277.828 215.526 277.72C215.104 277.603 214.661 277.579 214.228 277.648C214.053 277.664 213.88 277.696 213.711 277.744H213.614C213.554 277.744 213.554 277.744 213.542 277.744C213.816 277.565 214.077 277.368 214.324 277.155C215.422 276.158 216.417 275.054 217.294 273.86C218.316 272.489 219.338 270.95 220.312 269.35C222.303 266.025 224.118 262.597 225.748 259.081C227.431 255.474 229.054 251.866 230.558 248.114C232.061 244.363 233.492 240.551 234.706 236.907L251.12 242.944Z" fill="white"/>
</g>
<path d="M282.602 224.485C278.093 232.903 262.039 264.973 260.091 284.766C252.985 266.729 254.536 226.83 254.536 226.83C249.471 227.324 244.503 228.539 239.781 230.438C238.26 231.063 236.941 232.097 235.971 233.426C235.001 234.754 234.418 236.326 234.286 237.965C232.902 258.61 233.554 279.341 236.234 299.857C241.224 338.698 245.854 399.099 245.854 399.099C245.854 399.099 285.596 397.439 316.26 390.97C312.52 361.281 299.725 311.522 299.605 298.198C299.461 281.051 299.858 247.525 300.399 233.528C300.49 231.552 299.87 229.609 298.653 228.049C297.435 226.49 295.7 225.418 293.761 225.027C290.083 224.345 286.329 224.163 282.602 224.485Z" fill="#407BFF"/>
<path opacity="0.7" d="M282.602 224.486C278.093 232.903 262.039 264.974 260.091 284.767C252.985 266.729 254.536 226.831 254.536 226.831C249.471 227.324 244.503 228.539 239.781 230.438C238.26 231.063 236.941 232.098 235.971 233.426C235.001 234.755 234.418 236.326 234.286 237.966C232.902 258.61 233.554 279.341 236.234 299.858C241.224 338.698 245.854 399.099 245.854 399.099C245.854 399.099 285.596 397.44 316.26 390.971C312.52 361.281 299.725 311.522 299.605 298.199C299.461 281.051 299.858 247.514 300.399 233.517C300.512 231.601 299.946 229.706 298.8 228.166C297.654 226.626 296.002 225.54 294.134 225.099C290.338 224.355 286.456 224.149 282.602 224.486Z" fill="white"/>
<path d="M273.234 392.654C266.331 354.571 260.86 298.691 260.415 291.969H261.028C261.473 298.691 266.957 354.499 273.847 392.582L273.234 392.654Z" fill="white"/>
<path d="M269.794 324.906H233.142C232.402 324.872 231.692 324.6 231.12 324.13C230.548 323.659 230.143 323.016 229.967 322.296L217.714 265.334C217.624 265.023 217.61 264.696 217.671 264.378C217.733 264.06 217.869 263.762 218.069 263.507C218.268 263.252 218.526 263.048 218.819 262.913C219.113 262.777 219.435 262.712 219.758 262.725H256.398C257.14 262.756 257.852 263.027 258.427 263.498C259.002 263.968 259.408 264.613 259.585 265.334L271.838 322.296C271.928 322.607 271.942 322.935 271.881 323.253C271.819 323.57 271.683 323.869 271.483 324.124C271.284 324.378 271.026 324.582 270.733 324.718C270.439 324.854 270.117 324.918 269.794 324.906Z" fill="white"/>
<path d="M268.651 325.387H231.374C230.62 325.352 229.898 325.074 229.315 324.595C228.732 324.116 228.319 323.462 228.139 322.729L215.669 264.805C215.58 264.488 215.567 264.154 215.631 263.83C215.695 263.507 215.835 263.203 216.039 262.944C216.243 262.685 216.506 262.478 216.805 262.34C217.104 262.201 217.432 262.135 217.761 262.148H255.039C255.792 262.183 256.514 262.46 257.097 262.939C257.68 263.418 258.093 264.073 258.273 264.805L270.731 322.729C270.823 323.046 270.838 323.38 270.775 323.703C270.713 324.027 270.574 324.331 270.371 324.59C270.168 324.85 269.906 325.057 269.607 325.196C269.308 325.334 268.98 325.4 268.651 325.387Z" fill="#407BFF"/>
<path d="M272.922 292.704L263.65 292.355C262.536 292.316 261.425 292.513 260.392 292.932L255.582 294.856C255.13 295.035 254.72 295.303 254.375 295.644C254.029 295.985 253.757 296.392 253.572 296.841C253.388 297.291 253.297 297.772 253.303 298.257C253.309 298.743 253.414 299.222 253.61 299.666L255.534 303.827C255.922 304.634 256.576 305.282 257.386 305.663C258.197 306.044 259.114 306.135 259.983 305.919L265.286 304.596C265.286 304.596 275.242 303.803 275.603 298.584L272.922 292.704Z" fill="#FFB573"/>
<path d="M298.521 229.644C300.818 233.252 302.922 236.547 304.99 240.082C307.059 243.617 309.091 247.116 311.003 250.772C312.915 254.428 314.731 258.203 316.378 262.244C317.233 264.36 317.964 266.524 318.567 268.725C319.342 271.408 319.699 274.195 319.625 276.986V277.455C319.629 277.535 319.629 277.616 319.625 277.696C319.625 278.129 319.504 278.562 319.42 278.994C319.336 279.427 319.228 279.764 319.108 280.197C318.987 280.63 318.855 280.858 318.723 281.195C318.263 282.235 317.673 283.213 316.967 284.105C315.985 285.333 314.867 286.446 313.636 287.424C311.745 288.914 309.734 290.245 307.624 291.404C303.912 293.434 300.09 295.256 296.176 296.863C292.388 298.475 288.613 299.942 284.813 301.325C281.013 302.708 277.273 304.042 273.317 305.365L268.735 290.214C272.343 289.228 276.022 288.013 279.618 286.787C283.213 285.56 286.833 284.189 290.248 282.758C293.599 281.374 296.868 279.796 300.036 278.032C301.373 277.291 302.648 276.443 303.848 275.495C304.163 275.256 304.446 274.977 304.69 274.666C304.586 274.782 304.505 274.917 304.449 275.062C304.449 275.171 304.389 275.243 304.329 275.375C304.282 275.516 304.246 275.661 304.221 275.808C304.17 275.993 304.138 276.182 304.125 276.373C304.125 276.445 304.125 276.457 304.125 276.433V276.349C304.041 275.208 303.819 274.081 303.463 272.994C302.982 271.42 302.412 269.874 301.756 268.364C300.286 265.036 298.623 261.796 296.777 258.66C294.902 255.438 292.905 252.215 290.765 249.04C288.625 245.866 286.436 242.703 284.235 239.817L298.521 229.644Z" fill="#407BFF"/>
<g opacity="0.7">
<path d="M298.522 229.645C300.819 233.252 302.923 236.547 304.991 240.083C307.06 243.618 309.092 247.117 311.004 250.773C312.916 254.428 314.732 258.204 316.379 262.245C317.234 264.36 317.965 266.525 318.567 268.726C319.343 271.409 319.7 274.195 319.626 276.987V277.456C319.63 277.536 319.63 277.616 319.626 277.696C319.626 278.129 319.505 278.562 319.421 278.995C319.337 279.428 319.229 279.765 319.109 280.198C318.988 280.631 318.856 280.859 318.724 281.196C318.264 282.236 317.674 283.214 316.968 284.106C315.986 285.333 314.868 286.447 313.637 287.425C311.746 288.914 309.735 290.246 307.625 291.405C303.913 293.435 300.091 295.257 296.177 296.864C292.389 298.476 288.613 299.943 284.814 301.325C281.014 302.708 277.274 304.043 273.318 305.366L268.736 290.214C272.344 289.228 276.023 288.014 279.619 286.787C283.214 285.561 286.834 284.19 290.249 282.759C293.6 281.374 296.869 279.797 300.037 278.033C301.374 277.292 302.649 276.443 303.849 275.496C304.164 275.257 304.447 274.978 304.691 274.666C304.587 274.783 304.506 274.917 304.45 275.063C304.45 275.171 304.39 275.243 304.33 275.376C304.283 275.517 304.247 275.662 304.222 275.809C304.171 275.993 304.139 276.183 304.126 276.374C304.126 276.446 304.126 276.458 304.126 276.434V276.35C304.042 275.209 303.82 274.082 303.464 272.995C302.983 271.42 302.413 269.875 301.757 268.365C300.287 265.037 298.624 261.797 296.778 258.661C294.903 255.438 292.906 252.216 290.766 249.041C288.626 245.867 286.437 242.704 284.236 239.818L298.522 229.645Z" fill="white"/>
</g>
<path d="M286.352 271.371C286.272 271.37 286.193 271.349 286.124 271.309C286.054 271.269 285.996 271.212 285.955 271.143C285.92 271.09 285.895 271.031 285.884 270.969C285.872 270.907 285.873 270.843 285.886 270.781C285.9 270.72 285.925 270.661 285.962 270.61C285.999 270.558 286.045 270.514 286.099 270.481L287.975 269.279C289.726 268.175 291.1 266.565 291.916 264.662C292.732 262.76 292.951 260.654 292.545 258.625L288.769 239.505C288.492 238.076 287.742 236.781 286.639 235.831C285.535 234.881 284.144 234.331 282.689 234.269C281.234 234.208 279.801 234.64 278.622 235.494C277.443 236.348 276.586 237.575 276.191 238.976L270.84 257.723C270.255 259.705 270.287 261.817 270.932 263.78C271.576 265.743 272.802 267.464 274.447 268.714L276.227 270.06C276.327 270.139 276.392 270.254 276.408 270.38C276.424 270.506 276.389 270.633 276.311 270.734C276.273 270.783 276.226 270.824 276.172 270.855C276.119 270.886 276.059 270.906 275.998 270.914C275.936 270.922 275.874 270.917 275.814 270.901C275.754 270.884 275.698 270.856 275.65 270.818L273.966 269.483C272.158 268.122 270.806 266.242 270.091 264.094C269.376 261.947 269.331 259.632 269.962 257.458L275.325 238.712C275.785 237.111 276.77 235.711 278.121 234.737C279.473 233.763 281.112 233.271 282.776 233.341C284.44 233.41 286.033 234.036 287.299 235.119C288.564 236.203 289.429 237.679 289.755 239.313L293.531 258.444C293.976 260.662 293.738 262.962 292.847 265.041C291.956 267.12 290.454 268.879 288.54 270.085L286.652 271.287C286.611 271.321 286.562 271.345 286.511 271.36C286.459 271.374 286.405 271.378 286.352 271.371Z" fill="#263238"/>
<path d="M289.237 239.902L275.733 239.337C275.67 239.333 275.608 239.318 275.551 239.291C275.493 239.264 275.442 239.226 275.4 239.179C275.357 239.132 275.324 239.077 275.303 239.017C275.282 238.958 275.273 238.895 275.276 238.831C275.288 238.706 275.346 238.59 275.44 238.505C275.533 238.421 275.655 238.374 275.781 238.375L289.273 238.94C289.336 238.943 289.398 238.958 289.455 238.985C289.513 239.012 289.564 239.05 289.606 239.097C289.649 239.144 289.681 239.199 289.703 239.259C289.724 239.318 289.733 239.382 289.73 239.445C289.728 239.507 289.714 239.569 289.689 239.626C289.663 239.683 289.626 239.735 289.58 239.777C289.534 239.82 289.48 239.853 289.421 239.874C289.362 239.896 289.3 239.905 289.237 239.902Z" fill="#263238"/>
<path d="M282.672 234.299C282.548 234.296 282.429 234.246 282.34 234.159C282.25 234.072 282.197 233.954 282.191 233.83C282.191 231.425 281.446 227.252 279.197 226.338C279.135 226.317 279.078 226.284 279.029 226.24C278.98 226.196 278.941 226.143 278.913 226.083C278.886 226.024 278.871 225.959 278.869 225.893C278.868 225.828 278.88 225.762 278.904 225.702C278.929 225.641 278.966 225.586 279.013 225.54C279.059 225.494 279.115 225.458 279.176 225.434C279.238 225.41 279.303 225.399 279.369 225.402C279.434 225.404 279.499 225.42 279.558 225.449C282.889 226.819 283.165 233.096 283.165 233.866C283.165 233.993 283.117 234.115 283.029 234.206C282.942 234.298 282.823 234.353 282.696 234.359L282.672 234.299Z" fill="#263238"/>
<path d="M241.367 250.64H241.271C241.147 250.614 241.038 250.54 240.968 250.434C240.898 250.328 240.873 250.199 240.898 250.075C242.485 242.174 249.051 229.704 254.835 226.025C254.888 225.992 254.946 225.97 255.008 225.96C255.069 225.95 255.132 225.953 255.192 225.967C255.253 225.982 255.31 226.008 255.36 226.045C255.41 226.082 255.452 226.128 255.484 226.181C255.519 226.233 255.543 226.291 255.555 226.352C255.567 226.413 255.566 226.476 255.552 226.537C255.539 226.598 255.513 226.655 255.476 226.706C255.44 226.756 255.393 226.799 255.34 226.83C249.748 230.366 243.375 242.463 241.836 250.243C241.816 250.353 241.759 250.454 241.673 250.526C241.587 250.598 241.479 250.639 241.367 250.64Z" fill="#263238"/>
<path d="M245.311 251.879C244.565 253.791 242.906 254.945 241.703 254.452C240.501 253.959 240.032 252.047 240.778 250.087C241.523 248.127 243.183 247.021 244.385 247.526C245.588 248.031 246.069 249.967 245.311 251.879Z" fill="white"/>
<path d="M277.056 270.505C277.056 271.395 276.503 272.105 275.913 272.081C275.324 272.057 274.867 271.311 274.903 270.409C274.939 269.507 275.457 268.798 276.046 268.834C276.635 268.87 277.092 269.603 277.056 270.505Z" fill="white"/>
<path d="M287.422 270.938C287.422 271.828 286.881 272.537 286.279 272.513C285.678 272.489 285.245 271.743 285.281 270.841C285.317 269.94 285.823 269.242 286.484 269.266C287.145 269.29 287.458 270.072 287.422 270.938Z" fill="white"/>
<path d="M491.337 254.259L490.134 254.187C490.334 251.627 490 249.053 489.153 246.629C488.306 244.205 486.964 241.983 485.212 240.105C483.461 238.227 481.338 236.734 478.979 235.719C476.62 234.705 474.076 234.192 471.508 234.213V233.011C474.24 232.988 476.948 233.533 479.459 234.611C481.969 235.69 484.229 237.278 486.093 239.276C487.958 241.274 489.386 243.637 490.289 246.217C491.192 248.796 491.549 251.535 491.337 254.259Z" fill="#407BFF"/>
<path d="M491.972 259.301L491.275 269.258L492.478 269.342L493.175 259.385L491.972 259.301Z" fill="#407BFF"/>
<path d="M471.51 237.22H388.538C384.007 237.294 379.665 239.051 376.358 242.15C373.051 245.248 371.015 249.466 370.645 253.982L369.887 265.153C369.715 267.303 369.993 269.465 370.702 271.501C371.412 273.537 372.538 275.403 374.009 276.981C375.479 278.558 377.263 279.811 379.244 280.661C381.226 281.51 383.364 281.938 385.52 281.916H468.492L484.581 291.837L487.13 253.982C487.304 251.833 487.028 249.672 486.32 247.636C485.612 245.599 484.487 243.733 483.017 242.156C481.547 240.578 479.765 239.325 477.784 238.475C475.802 237.625 473.666 237.197 471.51 237.22Z" fill="#407BFF"/>
<path d="M467.3 253.225H390.449V256.015H467.3V253.225Z" fill="white"/>
<path d="M466.627 263.122H409.569V265.911H466.627V263.122Z" fill="white"/>
<path d="M346.692 296.984H431.491C433.696 296.96 435.881 297.396 437.908 298.264C439.935 299.133 441.758 300.414 443.262 302.026C444.766 303.639 445.917 305.547 446.642 307.629C447.367 309.711 447.65 311.922 447.472 314.12L446.703 325.543C446.322 330.159 444.239 334.468 440.859 337.635C437.479 340.801 433.043 342.599 428.413 342.679H343.601L325.78 352.84L328.402 314.12C328.78 309.503 330.862 305.192 334.242 302.025C337.623 298.858 342.06 297.061 346.692 296.984Z" fill="white"/>
<path opacity="0.15" d="M346.692 296.984H431.491C433.696 296.96 435.881 297.396 437.908 298.264C439.935 299.133 441.758 300.414 443.262 302.026C444.766 303.639 445.917 305.547 446.642 307.629C447.367 309.711 447.65 311.922 447.472 314.12L446.703 325.543C446.322 330.159 444.239 334.468 440.859 337.635C437.479 340.801 433.043 342.599 428.413 342.679H343.601L325.78 352.84L328.402 314.12C328.78 309.503 330.862 305.192 334.242 302.025C337.623 298.858 342.06 297.061 346.692 296.984Z" fill="#407BFF"/>
<path opacity="0.5" d="M427.186 313.349H348.591V316.211H427.186V313.349Z" fill="#407BFF"/>
<path opacity="0.5" d="M378.967 323.462H347.906V326.324H378.967V323.462Z" fill="#407BFF"/>
<path opacity="0.5" d="M406.419 323.462H386.578V326.324H406.419V323.462Z" fill="#407BFF"/>
<path d="M160.821 57.571C160.821 53.7441 161.649 50.3403 163.305 47.3597C164.961 44.3423 167.261 42.0057 170.205 40.3498C173.185 38.6572 176.552 37.8108 180.306 37.8108C184.905 37.8108 188.843 39.0251 192.118 41.4538C195.393 43.8824 197.582 47.1941 198.686 51.389H188.309C187.536 49.77 186.432 48.5372 184.997 47.6909C183.599 46.8446 181.998 46.4214 180.195 46.4214C177.288 46.4214 174.933 47.4333 173.13 49.4572C171.327 51.481 170.426 54.1856 170.426 57.571C170.426 60.9564 171.327 63.661 173.13 65.6848C174.933 67.7087 177.288 68.7206 180.195 68.7206C181.998 68.7206 183.599 68.2974 184.997 67.4511C186.432 66.6047 187.536 65.372 188.309 63.753H198.686C197.582 67.9479 195.393 71.2596 192.118 73.6882C188.843 76.0801 184.905 77.276 180.306 77.276C176.552 77.276 173.185 76.448 170.205 74.7922C167.261 73.0995 164.961 70.7628 163.305 67.7823C161.649 64.8017 160.821 61.3979 160.821 57.571ZM202.589 61.5451C202.589 58.3805 203.178 55.6023 204.356 53.2105C205.57 50.8187 207.207 48.9788 209.268 47.6909C211.329 46.403 213.629 45.759 216.168 45.759C218.339 45.759 220.234 46.2006 221.853 47.0837C223.509 47.9669 224.778 49.126 225.661 50.5611V46.2006H235.1V77H225.661V72.6395C224.741 74.0746 223.453 75.2337 221.798 76.1169C220.178 77 218.283 77.4416 216.112 77.4416C213.61 77.4416 211.329 76.7976 209.268 75.5097C207.207 74.185 205.57 72.3267 204.356 69.9349C203.178 67.5063 202.589 64.7097 202.589 61.5451ZM225.661 61.6003C225.661 59.2453 224.999 57.387 223.674 56.0255C222.386 54.664 220.804 53.9833 218.927 53.9833C217.051 53.9833 215.45 54.664 214.125 56.0255C212.837 57.3502 212.193 59.1901 212.193 61.5451C212.193 63.9001 212.837 65.7768 214.125 67.1751C215.45 68.5366 217.051 69.2174 218.927 69.2174C220.804 69.2174 222.386 68.5366 223.674 67.1751C224.999 65.8136 225.661 63.9553 225.661 61.6003ZM251.367 51.3338C252.471 49.6412 253.851 48.3165 255.506 47.3597C257.162 46.3662 259.002 45.8694 261.026 45.8694V55.8599H258.432C256.077 55.8599 254.31 56.3751 253.133 57.4054C251.955 58.3989 251.367 60.1652 251.367 62.7042V77H241.928V46.2006H251.367V51.3338ZM294.571 61.1035C294.571 61.9867 294.515 62.9066 294.405 63.8633H273.044C273.191 65.7768 273.798 67.2487 274.866 68.279C275.969 69.2726 277.313 69.7693 278.895 69.7693C281.25 69.7693 282.887 68.7758 283.807 66.7887H293.853C293.338 68.8126 292.399 70.6341 291.038 72.2531C289.713 73.8722 288.039 75.1417 286.015 76.0617C283.991 76.9816 281.728 77.4416 279.226 77.4416C276.209 77.4416 273.522 76.7976 271.167 75.5097C268.812 74.2218 266.973 72.3819 265.648 69.9901C264.323 67.5983 263.661 64.8017 263.661 61.6003C263.661 58.3989 264.305 55.6023 265.593 53.2105C266.917 50.8187 268.757 48.9788 271.112 47.6909C273.467 46.403 276.172 45.759 279.226 45.759C282.207 45.759 284.856 46.3846 287.174 47.6357C289.492 48.8868 291.296 50.6715 292.583 52.9897C293.908 55.308 294.571 58.0126 294.571 61.1035ZM284.911 58.6197C284.911 57.0006 284.359 55.7127 283.255 54.756C282.151 53.7993 280.772 53.3209 279.116 53.3209C277.533 53.3209 276.19 53.7809 275.086 54.7008C274.019 55.6207 273.357 56.927 273.099 58.6197H284.911ZM313.404 68.1686L320.083 46.2006H330.128L319.2 77H307.553L296.624 46.2006H306.725L313.404 68.1686ZM364.514 46.2006V77H355.076V72.8051C354.119 74.1666 352.813 75.2705 351.157 76.1169C349.538 76.9264 347.735 77.3312 345.748 77.3312C343.393 77.3312 341.313 76.816 339.51 75.7857C337.707 74.7186 336.309 73.1915 335.316 71.2044C334.322 69.2174 333.825 66.8807 333.825 64.1945V46.2006H343.209V62.925C343.209 64.9857 343.742 66.5863 344.809 67.7271C345.876 68.8678 347.311 69.4381 349.115 69.4381C350.954 69.4381 352.408 68.8678 353.475 67.7271C354.542 66.5863 355.076 64.9857 355.076 62.925V46.2006H364.514ZM380.732 36.1549V77H371.294V36.1549H380.732Z" fill="white"/>
<g filter="url(#filter0_di_120_18326)">
<circle cx="412.145" cy="40.6583" r="17.6413" fill="white"/>
</g>
<rect x="408.31" y="30.6865" width="7.67011" height="19.9423" rx="1.15052" fill="#3895F5"/>
<rect x="422.114" y="36.8232" width="7.67011" height="19.9423" rx="1.15052" transform="rotate(90 422.114 36.8232)" fill="#3895F5"/>
<defs>
<filter id="filter0_di_120_18326" x="366.572" y="0.965526" width="91.1462" height="91.1464" filterUnits="userSpaceOnUse" color-interpolation-filters="sRGB">
<feFlood flood-opacity="0" result="BackgroundImageFix"/>
<feColorMatrix in="SourceAlpha" type="matrix" values="0 0 0 0 0 0 0 0 0 0 0 0 0 0 0 0 0 0 127 0" result="hardAlpha"/>
<feOffset dy="5.88042"/>
<feGaussianBlur stdDeviation="13.966"/>
<feComposite in2="hardAlpha" operator="out"/>
<feColorMatrix type="matrix" values="0 0 0 0 0.0862745 0 0 0 0 0.470588 0 0 0 0 0.94902 0 0 0 0.2 0"/>
<feBlend mode="normal" in2="BackgroundImageFix" result="effect1_dropShadow_120_18326"/>
<feBlend mode="normal" in="SourceGraphic" in2="effect1_dropShadow_120_18326" result="shape"/>
<feColorMatrix in="SourceAlpha" type="matrix" values="0 0 0 0 0 0 0 0 0 0 0 0 0 0 0 0 0 0 127 0" result="hardAlpha"/>
<feOffset dy="5.88042"/>
<feGaussianBlur stdDeviation="2.94021"/>
<feComposite in2="hardAlpha" operator="arithmetic" k2="-1" k3="1"/>
<feColorMatrix type="matrix" values="0 0 0 0 0 0 0 0 0 0 0 0 0 0 0 0 0 0 0.12 0"/>
<feBlend mode="normal" in2="shape" result="effect2_innerShadow_120_18326"/>
</filter>
</defs>
</svg>
